<svg id="Layer_1" data-name="Layer 1" xmlns="http://www.w3.org/2000/svg" viewBox="0 0 1349.47 1138.89"><defs><style>.cls-1{fill:#ededed;}</style></defs><title>27. мертвая лоза</title><path class="cls-1" d="M1103.23,338.72c4-1.68,8-3.07,11.78-5,7.91-4,13.72-2.4,18.49,5.27l1.54,2.48c6.12,10,4.81,15.65-5,22.49-3.58,2.51-7.53,4.94-10.07,8.33-1.72,2.31-2.26,6.43-1.66,9.4a133,133,0,0,1,2,44.35,23.62,23.62,0,0,0-.15,6.39c.44,3,2.28,5,5.59,3.95,18.34-6,35-14.35,43.27-33.35,6.57-15.13,12.21-30.69,19.3-45.55,6.75-14.17,14.36-28,22.47-41.43,14.42-23.89,34.65-42.94,54.2-62.42,22.77-22.68,48.47-41.32,79-52.18,11.1-3.94,22.79-6.24,34.17-9.42,12.67-3.53,25.27-7.3,38-10.77,2.51-.69,5.27-.49,8.56-.76-2.41,16.83-4.57,33-7.22,49-.31,1.86-3,4-5.09,4.79-14.2,5.7-28.54,11.09-42.82,16.61-8.4,3.24-17.67,5.21-25,10.1a207.41,207.41,0,0,0-30.07,25.16,354.63,354.63,0,0,0-29.64,33.41c-4,5.08-6.51,11.95-7.79,18.39-4.61,23.05-14.91,43.68-25.49,64.3-8.31,16.18-18.11,31.29-30.57,44.59-13.92,14.87-30.39,26.07-48.9,34.5-9.06,4.13-17.4,10.22-26.77,13.18-9,2.83-18.87,3.66-28.37,3.75-10.84.11-11.37,3.13-12.19,11.76-1.18,12.59-6.07,24-12.08,35.06a83,83,0,0,1-25.65,28.62c-5.79,4-9,9.49-13.25,14.59-6.71,8.14-14.28,15.58-21.59,23.21-3.7,3.87-6.06,7.84-5.69,13.68a41.56,41.56,0,0,1-8.81,29.08c-2.87,3.68-5.73,4.83-9.91,3.89a20.94,20.94,0,0,0-3.39-.83c-7-.29-10.17-3.77-9.6-10.79a15.17,15.17,0,0,0-.66-3.9c-4.94-2.32-9-.59-13.52,1.47-11.3,5.11-21,12.54-30.83,19.82-5.7,4.22-10,10.8-16.08,13.92-8.58,4.37-18.24,6.72-27.55,9.57-16,4.88-31.93,3.17-48-.35-11.59-2.54-23.46-3.88-35.26-5.28-3.73-.44-7.62.85-11.46,1-11.53.57-22.78-.14-31.86-9.06-5.48,8.63-14.86,8.48-22.74,11.26a33.2,33.2,0,0,0-15,10.77c-10.64,12.86-16.35,28.19-19,43.9-3.35,20-12.19,37.94-17.64,57.08-1.15,4.06-4.17,7.59-6.32,11.34,3.74,1.1,7.42,2.6,11.25,3.22,5.13.82,8.64,3.21,9.5,8.35.73,4.38,1.95,9.19.86,13.25-2.22,8.32-6.55,15.74-16.08,17.69a13,13,0,0,1-7.26-.61c-8.25-3.46-20-.53-25.2,6.92-4.61,6.63-8.16,14.16-13.56,20a206.62,206.62,0,0,1-26.26,24.46c-18,13.73-40.37,16.62-61.27,23.11-4.88,1.51-9.47,4-14.28,5.73-8.39,3.1-16.85,6-25.68,9.13.14.8.37,2.15.62,3.61-7.93.44-15.58.26-23,1.4-17.19,2.61-31.5,11.49-45,21.93-6.21,4.81-10.55,10.81-14.42,17.69-4.41,7.83-10.81,14.5-15.8,22-8.28,12.48-19.93,21.67-30.57,31.77-7.86,7.46-16.5,14-21.15,24.17-3.23,7.12-6.35,14.32-10.1,21.17-2.67,4.9-6.17,9.37-9.5,13.88-10.06,13.62-20.76,26.8-30.22,40.82-14.3,21.21-28,42.84-41.49,64.59-6.52,10.52-15.56,18-25.76,24.36-5.87,3.69-12.3,6.68-17.6,11s-8.73,10.41-13.81,14.78c-11.3,9.7-24.25,16.92-37.83,23-10,4.49-20.1,8.78-29.77,13.87-4.6,2.42-8.06,6.92-12.48,9.8-14.47,9.45-30.67,15-47.2,19.51-3.6,1-7.72.35-11.57,0-1.32-.11-3.71-1.75-3.61-2.34,1-5.43-4.25-7.37-5.83-11.09a155.23,155.23,0,0,1-8.38-25.06,44.76,44.76,0,0,1,3.9-31,37.65,37.65,0,0,1,9.46-12c7.35-5.92,15-11.74,23.34-16.09a398.14,398.14,0,0,1,37.27-16.62c10.52-4.17,21.61-6.89,32.13-11.07,9.87-3.92,18-10.23,23.49-19.86,13.89-24.21,30.39-46.49,50.46-66,4.8-4.67,9.55-9.71,13-15.37,8.9-14.51,18.34-28.9,25.21-44.38,8-18.13,21.28-32.07,33.17-47.16,3.78-4.79,3.51-9.17,1.4-14.32-2.54-6.21-1.3-12.25,2.95-17.2,3.7-4.32,8.64-6.83,14.53-4.44,6.87,2.78,12,.88,16.55-4.7,8.66-10.59,17.32-21.2,26.51-31.33,7.13-7.86,15.73-14.45,22.47-22.6,11.23-13.56,25.36-22.83,41.08-29.76,9.76-4.29,20.23-6.95,30.33-10.5,6.64-2.33,13.36-4.53,19.72-7.48,17.29-8,34.49-16.12,54-17,1.35-.05,3-.35,4,.29,7,4.47,11.31-.25,16-4.18a51.77,51.77,0,0,1,7-4.67c8.76-5.15,17.88-9.75,26.22-15.49,5-3.44,10.4-7.88,12.86-13.16,4-8.56,6.22-18.07,8.26-27.38,2.54-11.61,3.53-23.56,6.31-35.1,2.13-8.81,6.26-17.1,9-25.78,3.71-11.69,6.24-23.79,10.56-35.23a130.39,130.39,0,0,1,33.09-49.29c4.91-4.61,10.14-8.89,15-13.57a5.48,5.48,0,0,0,1-4.48c-2.23-8.68-4.86-17.26-7-26-.49-2-.46-4.64.52-6.27,4.52-7.47,11.65-12.73,19.89-13.52,5.38-.51,11.88,2.6,16.66,5.87,7.69,5.26,11.39,13.93,14.47,22.51,1.49,4.16,4.2,4.76,8,4.8,10.77.09,21.69-.55,32.28,1,19.52,2.84,38.74,7.78,58.28,10.42A235.43,235.43,0,0,0,895,614.59c7.45-.44,14.92-5.57,21.81-9.56,15.72-9.11,31.08-18.83,46.6-28.28a7.05,7.05,0,0,1,3.15-1.39c11.51,0,12.93-9.55,17.39-17s11.19-13.76,16.64-20.77c9.88-12.73,25.25-20.47,32.35-35.64a56.63,56.63,0,0,0,4-12c1.85-8.52.17-10.84-7.81-14.93a184.92,184.92,0,0,1-55.82-43.92c-7.91-9.1-10.15-18.69-9.58-29.37.77-14.44,1.62-29.08,4.69-43.14,3.94-18.05,14.49-31,33.52-36.55,11.15-3.28,21.52-9.3,32.1-14.36,13-6.22,26.2-7.05,38.92-.31C1090,316.47,1087,313.61,1103.23,338.72ZM219,1196.75c2.45-3.46,4.42-6.44,6.6-9.27,3.65-4.72,7.34-9.41,11.17-14,9.76-11.67,19.37-23.48,29.51-34.81,8-9,17.79-16.61,25-26.18,12.55-16.64,23.79-34.27,35.45-51.57,4.07-6,6.89-13.18,11.82-18.33,12.37-12.93,25-25.73,38.69-37.24,15.12-12.73,28.5-26.63,39.25-43.22,5.26-8.13,10.82-16.24,17.4-23.29,9.27-9.93,19.59-18.9,29.53-28.21,1.52-1.43,3.27-3.06,5.19-3.57,19.66-5.23,39.27-10.71,59.12-15.13,11.13-2.49,22.87-2.15,33.48-7.22,3.45-1.65,6.87-3.82,10.54-4.47,17-3,34.14-5.53,51.22-8.24,2.64-.42,5.63-.2,7.85-1.41,12.7-6.93,26.06-13.08,33.78-26.48a23.13,23.13,0,0,1,5.52-6,9.84,9.84,0,0,1,5.06-2.27q11-.95,22-1.32c10.14-.32,11.21-1.44,10.41-12.71l-24-2.94L691,793.82c-2.2.1-3-.11-3.29.19-6.17,5.76-12.79,11.16-18.29,17.51-8.41,9.68-16,20.05-24,30.1-1,1.2-1.91,2.83-3.19,3.26-9.55,3.19-19,6.85-28.82,9A174,174,0,0,1,585,857c-13.42.61-27-1.83-40.12,3.29C531,865.68,517,870.63,503.05,875.66c-11.89,4.29-24.07,7.85-35.69,12.77-17.32,7.32-34.07,15.82-46,31.27-3.26,4.24-5.92,9.19-9.89,12.58-15.08,12.85-27.13,28.46-40.3,43.06-6.28,7-15.19,8.66-23.2,4.13-3.62-2.05-5.66-1.62-6.48,2.57,7.68,5.73,10.66,15.06,6.34,20.63-9,11.56-17.53,23.51-27.44,34.22-12.34,13.35-17.72,30.47-26.9,45.48-5.31,8.67-9.83,18-16.33,25.7-7.59,9-18.08,15.53-25.3,24.72-13.19,16.78-25.09,34.58-37.13,52.23-6.92,10.14-15.52,18.63-26.58,23.23-13,5.41-27,8.49-40.43,13.06-6,2-11.62,5.18-17.38,7.9-2.25,1.08-4.29,2.68-6.61,3.54-10.19,3.76-18.67,10.07-26.48,17.39-4.81,4.52-5,10.2-4.45,16.69,22-9.26,43.39-17.86,64.42-27.32,12.7-5.71,26.17-9.47,37.86-17.92,9-6.52,16.6-14.08,23.94-22.13C219.62,1198.84,219,1197.17,219,1196.75ZM626.15,884.17c-4.67-.75-7.81-1.71-10.93-1.68-16.15.16-31.71,2.63-46.48,10-10.73,5.36-22.53,7.19-34.66,7.83-9.16.48-18.23,2.92-27.3,4.69a38.87,38.87,0,0,0-8.09,2.71c-7.61,3.37-15.25,6.7-22.67,10.44-7,3.53-14.48,6.66-20.37,11.62-7.59,6.4-15.48,13.5-20.19,22-5.74,10.36-10.19,21.43-18.39,30.19q-17.79,19-36.13,37.55c-12.81,13-27.05,24.73-38.54,38.76-12.88,15.71-23.37,33.39-34.94,50.19-6.21,9-11.93,18.61-21.75,24.33-7.86,4.59-13.33,11.24-18.69,18.44-18.22,24.5-36.84,48.7-55.44,72.91a50.18,50.18,0,0,1-20.87,15.67q-16.14,6.75-32.26,13.54c-8.66,3.65-17,9.14-26,10.55-14.62,2.29-27.7,6.84-38.95,16.3-1.44,1.22-1.48,4.11-2.17,6.23,2.14.39,4.52,1.57,6.39,1,4.93-1.46,9.61-3.76,14.46-5.53a45.88,45.88,0,0,1,7.15-1.79c6.37-1.19,12.76-2.28,20.61-3.66a22.25,22.25,0,0,1-2.9,2.45c-11.91,5.67-23.72,11.57-35.82,16.79-3.74,1.61-6.21,3.24-5.84,7.37.43,4.71,4.11,4.43,7.47,4.27,1.92-.09,4,0,5.72-.68,10.44-4.39,21.2-8.26,31-13.76,7.94-4.43,17.74-7.15,21.61-17.09.4-1,2.11-1.64,3.34-2.16,12.59-5.31,25.7-9.65,37.64-16.14,7.85-4.27,14.27-11.35,20.84-17.68a81.61,81.61,0,0,0,11.44-14c1.93-2.93,1.65-7.33,3.61-10.22,7.93-11.67,16.32-23,24.58-34.45,12.84-17.75,29.44-31.54,46.79-44.58,3.81-2.86,7.94-5.63,10.85-9.28,8.13-10.2,15.8-20.77,23.45-31.33a210.19,210.19,0,0,0,12.84-19.14c5.09-8.95,8.91-18.65,14.33-27.37,4-6.5,9.48-12.2,14.77-17.81a198.08,198.08,0,0,1,18.24-17.49c12.72-10.44,24.11-21.41,31.55-36.79a91.34,91.34,0,0,1,48.3-45.49C498.8,925.73,515.21,923,531,918.6q13.57-3.74,27.09-7.7c7.37-2.16,14.56-5.14,22.06-6.55C596.4,901.31,611.58,896.17,626.15,884.17Zm439.59-392.53c-10.28-.16-15.57,3-17.55,11.94-1.12,5.05-3.61,8.84-5.94,13.19-6.3,11.75-17.09,18.26-26.76,26.23-7.85,6.47-16.09,12.63-19.49,23a44.39,44.39,0,0,1-5.81,11.1c-5,7.17-13.67,8.76-20.4,13.17-12.9,8.45-24.8,18.6-36.35,28.9-7.16,6.37-12.29,15-19.44,21.39-15.8,14.12-35.89,14.63-55.26,13.55-14.77-.82-29.33-5.41-44-8.25-8.78-1.7-17.44-4.31-26.6-1.54-5.66,1.71-11.66,2.23-17.43,3.62-14.18,3.4-28.63,6.06-40.2,16.19A88.41,88.41,0,0,1,716,674.61c-8,4.53-11.81,10.72-11.61,20.1.35,16.68-5,31.4-17.07,43.3a37.78,37.78,0,0,0-9.76,16.55c-7.08,23.66-19,44.31-38.57,60-3.53,2.82-8.2,4.77-10.62,8.31-5.35,7.77-13.13,11.45-21.11,15.22-5.9,2.8-11.67,5.87-17.5,8.83l.67,1.83c4.44-.51,9.15-.24,13.25-1.68a298.36,298.36,0,0,0,29.09-11.85c5.33-2.54,11.28-5.59,14.67-10.12,22-29.41,47.14-56.87,58.47-93.07,3.49-11.16,8.86-21.76,12-33,4.41-15.71,16.87-22.14,29.91-27.83,8.73-3.82,18.58-4.27,26.85-10.35,3.14-2.3,11.1-1.6,14.45.93,3.8,2.87,7.14,4.58,11.59,4.79,8.12.4,16.25.6,24.36,1.13,9.23.61,18.47,1.25,27.65,2.38,4.33.53,8.45,2.67,12.77,3.34,16.4,2.57,32.34-.68,47.8-5.54,10.94-3.43,18.4-12.39,26-20.49,11.84-12.63,23.12-25.77,34.76-38.59,4.89-5.38,10.6-10.09,15-15.81,10.09-13,20.72-25.38,35.74-32.87,8.48-4.22,16.41-8.94,22.4-16.47,2-2.58,4.21-5.09,6.45-7.5C1065.42,523.48,1071.07,509.22,1065.74,491.64ZM1272,265.39l-1.21-.85a43.88,43.88,0,0,0-4.1,4q-14.25,17.87-28.38,35.83c-8.38,10.63-17.13,20.91-22.61,33.64-8.93,20.77-18.82,41.12-27.93,61.81a88.31,88.31,0,0,1-20.64,29.16c-8.11,7.64-17.93,11.69-27.67,16.13-13.35,6.09-26.43,9.48-41,2-11.64-5.95-24.86-8.73-36.82-14.16-10.62-4.83-20.54-11.24-30.64-17.16-7.44-4.36-12.11-10.53-12.49-19.63-.42-9.7-1.54-19.36-2-29.06s8-21.36,17.57-23.93c13.52-3.61,26-3.4,37.54,6.86,9,8,14.21,16.83,14.78,28.91.77,16.31,2.11,32.6,3.62,48.86.18,1.86,2.71,4.24,4.68,5,3.33,1.35,7.08,1.62,11,2.42.46-6.67,1.38-12.62,1.18-18.54-.46-13.53-1.17-27.07-2.36-40.55-.64-7.26,2.45-11.77,7.88-15.87,5.09-3.84,9.64-8.41,14.54-12.77-5.77-4.94-6-5-11.14-2.4q-3.39,1.69-6.76,3.41c-9.88,5-12.72,3.86-18.44-5.88-7.8-13.25-18.31-21.58-35-21.92-14-.28-24.48,6.21-35.52,12.93-11.5,7-16.48,16.88-15.73,30.06.1,1.74-.28,3.49-.34,5.24-.52,15.74-3.92,31.35,5.59,46.51,4.91,7.83,9.9,14.56,18.07,17.94,20.41,8.46,41.24,15.88,61.63,24.38,8.38,3.5,16.42,5.82,25.53,4,9.43-1.85,19.57-1.65,28.29-5.13,11.75-4.69,23-11.31,33.42-18.5,8.47-5.83,17.43-12,19.93-23.48a57.58,57.58,0,0,1,5.65-16.06c8.14-14.32,17.36-28,25.31-42.46,5.33-9.67,8.94-20.27,13.82-30.21,9.12-18.57,18.61-37,28-55.42C1270,268.8,1271,267.11,1272,265.39Zm132.66-68.56c-2.28,1-4.33,2-6.51,2.71-19.22,5.91-38.41,11.91-57.7,17.56-19.71,5.77-35.74,16-45.64,34.74-6.23,11.82-13.45,23.13-20.06,34.76-7.11,12.52-14.67,24.84-20.87,37.81-7.37,15.44-13.37,31.53-20.2,47.24-4.2,9.66-8.75,19.16-13.31,28.66-8.21,17.06-17.06,33.59-34.35,43.6-12.9,7.47-25.58,15.32-38.38,23-12.2,7.31-25.61,7.31-39.19,6.49-16.56-1-31.17-8.26-46.29-14-3.88-1.46-8.56-1.09-12.16-2.94A218.88,218.88,0,0,1,1001.74,423c-5-4.55-9-10.16-8.44-19,1.12-17.21-.1-34.58-.73-51.87-.07-1.81-2.71-3.53-4.16-5.3-1.25,1.24-2.85,2.28-3.67,3.76a30,30,0,0,0-2.68,7c-4,15.29-4.84,30.84-4.52,46.6a27.66,27.66,0,0,0,8.37,19.95c16.72,16.38,33.07,33.35,55.34,42.55.36.15.88.2,1,.46,4.44,6.74,11.8,6.84,18.58,8.17,18.68,3.66,37.59,6.42,56,11.15,12.19,3.14,22.69.08,32.48-5.42,13.43-7.55,26.23-16.32,38.81-25.27,7.14-5.08,15.4-8.45,20.58-16.72,6.53-10.46,15.82-19.2,22.41-29.63,6.14-9.71,11-20.4,15.18-31.13,6.81-17.32,12.45-35.1,19-52.52a64.59,64.59,0,0,1,8.27-14.94c6.93-9.55,13.42-19.21,16.56-30.8,6.62-24.44,22.21-40.85,45.76-49.49,19.6-7.19,39.45-13.7,59.19-20.5C1405.07,206.63,1405.08,206.64,1404.65,196.83ZM908.11,629.23c-2.25-.91-3.57-1.88-4.89-1.9-14.3-.23-28.61.09-42.88-.57a211.85,211.85,0,0,1-28.14-3.48c-12.39-2.27-24.56-5.81-37-7.81a148.61,148.61,0,0,0-50.65,1c-3,.56-6.26.08-10.95.08,5.39-8.5,2.41-14.43-1-20.37a81.14,81.14,0,0,1-5.44-10.67c-1.22-3.12-2.74-4.43-6-3.07-3.06,1.29-4.75,3.27-3.39,6.76s2.94,7.13,4.21,10.76c5,14.33,3.07,19.7-6.22,29-7.75,7.81-16.08,15.19-22.86,23.78-10.55,13.36-17.5,28.87-22.93,45-5.16,15.28-10.6,30.5-14.79,46-2,7.56-3,15.6-4.37,23.38-2.15,12.3-7.09,24.11-10.9,36.26a20.36,20.36,0,0,0,3.23-2.86c8.5-11.4,12.8-24.8,18.06-37.77,3.62-9,6.85-18.38,12.27-26.19a56.35,56.35,0,0,0,8.92-21.44c1.64-8,6.16-15.52,4.51-24.16-.13-.67.5-1.44.66-2.19,3.23-15.31,13.38-25.65,25.24-34.58a65.11,65.11,0,0,1,13.22-7.74c11-4.77,22.2-9.38,33.54-13.37,5-1.74,10.49-2.28,15.79-2.47a129.72,129.72,0,0,1,18,1c14.58,1.52,29.14,3.13,43.68,5,8.95,1.13,17.8,3,26.75,4.1C879.52,642.64,893.19,636.11,908.11,629.23Zm91.64,19.49c11.27,1.29,11.66,1.24,14.07-8.58a110.9,110.9,0,0,0,2.15-15.36c.6-5.88.41-11.89,1.49-17.67,1.43-7.57,8.16-11.25,13.15-16.32,13.73-13.92,26.83-28.46,40.26-42.67,3.78-4,7.09-8.29,11.55-11.91,3.65-3,3.13-11.09,4.4-16.94,2-9,3.87-17.94,5.8-26.91-7.37-1.51-9.34,0-10.77,7.19s-2.28,14.61-4,21.76a20.42,20.42,0,0,1-5,9.34q-36.23,35.54-72.88,70.66c-10.55,10.14-21.37,20-32.51,30.4.6,1.37,1.51,3.43,2.65,6l29.72-12.49Zm28.83-277.37c1.17-.58,2.25-.8,2.82-1.46,4.09-4.67,9.57-3.72,14.59-3.2,7.53.77,11.09,5.48,11.08,13.3,0,9.52-.38,19.06.21,28.54.2,3.16,2.35,8.27,4.53,8.82,5.19,1.3,10.92.42,17.52.42-2.55-15.33-4.66-29.93-7.58-44.37a16.82,16.82,0,0,0-7.51-10.9c-13.53-8.85-26.91-9.38-39.31,3Zm374.17-142.3c-.65-2-1-3.07-1.39-4.14-2.93-7.47-5.11-8.3-12.32-5.29-7.6,3.18-15.21,6.41-23,9-16.07,5.45-32.26,10.44-45.5,21.87a55.36,55.36,0,0,0-17.42,27.17,11.73,11.73,0,0,0,4.56-2.81c5.94-5.59,11.74-11.33,17.79-16.79a21.32,21.32,0,0,1,6.83-4.18c8.74-3.16,17.62-5.9,26.38-9C1373.26,239.77,1387.79,234.45,1402.75,229.05ZM256,1215.56c1.64-1.09,3.27-2.22,4.94-3.28,2.23-1.42,4.46-2.84,6.74-4.16,1.53-.88,3.87-1.15,4.65-2.43,8.72-14.39,20-27.36,25-44C276.08,1173.73,264.1,1192.89,256,1215.56Zm795.18-806.38c-.92-8.55-1-15.42-2.67-21.87-.78-3-4.34-6.11-7.37-7.28-2-.77-6.78,1.1-7.73,3.05-2.52,5.17-3.87,11-5.12,16.65-.24,1.07,1.87,3,3.29,4,3.61,2.51,7.42,4.74,11.19,7,1.93,1.16,4,2.15,6,3.21Z" transform="translate(-75.27 -180.55)"/></svg>