<?xml version="1.0" encoding="utf-8"?>
<!-- Generator: Adobe Illustrator 24.0.1, SVG Export Plug-In . SVG Version: 6.00 Build 0)  -->
<svg version="1.1" id="Layer_1" xmlns="http://www.w3.org/2000/svg" xmlns:xlink="http://www.w3.org/1999/xlink" x="0px" y="0px"
	 viewBox="0 0 800 800" style="enable-background:new 0 0 800 800;" xml:space="preserve">
<style type="text/css">
	.st0{fill:#EDEDED;}
</style>
<g>
	<path class="st0" d="M684.9,172.5c0,4.7-0.1,9.5,0,14.2c0.2,8.6,0.7,17.2,0.9,25.7c0.2,8.4,0.2,16.8,0.4,25.2
		c0.2,9.4,0.4,18.8,0.6,28.1c0.2,9.9,0.3,19.7,0.5,29.6c0.1,5.9,0.4,11.7,0.4,17.5c0,10.2-0.2,20.5-0.3,30.7
		c-0.1,4.5-0.2,9-0.4,13.5c-0.3,6.8-0.8,13.6-0.9,20.4c-0.1,8.6,0.2,17.2,0.1,25.9c0,4.4-0.2,8.8-0.4,13.1c-0.2,4.3-0.7,8.5-1,12.7
		c-0.8,10.7-1.9,21.4-2.5,32.1c-0.4,6.8-0.3,13.7-0.2,20.5c0.1,7.9,0.3,15.8,0.6,23.7c0.4,10.4,1,20.7,1.4,31.1
		c0.2,4.5-0.1,9,0,13.6c0.1,7.8,0.2,15.6,0.2,23.4c0,10.2-0.2,20.5-0.1,30.7c0,2.6,0.7,5.3,1.2,7.9c1.2,6.4,1.8,12.9,0.1,19.2
		c-1.1,4.3-0.9,8.4-0.7,12.7c0.1,1.5,1.2,4-2.3,3.4c-0.3-0.1-0.8,0.8-1.2,1.2c-4.3,5.4-8.2,11.2-12.9,16.3
		c-8.2,8.9-17.3,16.8-27.4,23.5c-6.9,4.6-13.7,9.5-20.7,14.1c-1.6,1.1-3.5,1.5-5.3,2.3c-7.8,3.5-15.5,7.2-23.4,10.5
		c-9,3.7-18.2,7-27.3,10.5c-13.1,5.1-26.7,8.4-40.4,11.7c-6.8,1.6-13.4,3.5-20.2,4.9c-4.6,1-9.3,1.3-14,2.1
		c-2.6,0.4-5.1,1.4-7.7,1.8c-2.8,0.4-5.6,0.4-8.4,0.6c-8.4,0.5-16.8,1.2-25.2,1.6c-10.6,0.5-21.1,0.9-31.7,1.1
		c-14.2,0.3-28.4,0.4-42.7,0.4c-7.1,0-14.1-0.5-21.2-0.7c-7-0.2-14.1,0.3-21.1-0.6c-2.4-0.3-4.8-0.6-7.3-0.8
		c-9.7-0.8-19.4-1.2-29-2.5c-11.9-1.6-23.7-3.7-35.5-6c-13.3-2.6-26.5-5.3-39.6-8.7c-10.8-2.7-21.5-6.3-32.1-9.7
		c-5.1-1.6-10.1-3.4-14.9-5.7c-8.4-3.9-17.2-7.4-24.9-12.8c-8-5.6-15.8-11.5-22.1-19c-1.8-2.2-3.2-4.9-4.2-7.6
		c-2.8-7.1-3.7-14.6-4-22.2c-0.2-3.5-0.7-7-0.9-10.5c-0.2-3.5-0.2-7-0.4-10.6c-0.3-7.8-0.6-15.6-0.8-23.4
		c-0.3-11.6-0.6-23.2-0.8-34.8c-0.1-9-0.1-18-0.1-27c0-1.5-0.1-2.9-0.3-4.4c-1.4-13.4-0.8-26.8-0.5-40.2c0.2-9.5-0.4-19-0.4-28.5
		c0-3.2,0.5-6.5,0.8-9.8c0-0.5,0.1-1,0-1.5c-2-12.2,0.3-24.5,0-36.8c-0.2-6.1,0.5-12.2,0.6-18.3c0.1-4.4-0.2-8.8-0.1-13.1
		c0.1-8,0.4-16.1,0.6-24.1c0.3-9.6,0.5-19.2,0.8-28.8c0.2-5.5,0.5-10.9,0.7-16.3c0.1-3.3,0.1-6.6-0.1-9.8c-0.3-4.5-0.9-8.9-1.2-13.4
		c-0.2-4.3-0.2-8.5-0.2-12.8c0-12.3,0.3-24.7,0.2-37c-0.1-10.4-0.5-20.7-0.7-31.1c-0.1-4.7,0.4-9.5,0.5-14.2
		c0.1-6.5,0.3-13.1,0.2-19.6c-0.1-5.8-0.5-11.7-0.7-17.5c0-1.1,0.2-2.2,0.4-3.3c0.3-2.9,0.6-5.8,1-8.7c0.4-2.4,0.7-4.8,1.6-7
		c1.9-4.9,3.1-10.2,7.1-14.2c1.3-1.3,1.9-3.1,3-4.6c3.9-5.4,9.2-9.2,14.5-13c4.5-3.3,9-6.7,13.8-9.5c4.9-2.9,10.1-5.3,15.2-7.9
		c3.3-1.7,6.6-3.5,9.9-5.2c5-2.6,9.9-5.1,15-7.6c5.3-2.6,10.7-5.2,16.1-7.4c4.7-1.9,9.6-3.4,14.4-5c3.4-1.2,6.9-2.3,10.3-3.4
		c2.4-0.8,4.8-1.6,7.3-2.2c4.5-1.2,9-2.3,13.5-3.3c8.8-2,17.6-3.8,26.4-5.7c6.1-1.3,12.3-2.9,18.5-3.9c7.5-1.2,15.2-1.8,22.8-2.6
		c5.9-0.6,11.9-1.2,17.8-1.6c3-0.2,6,0,9-0.2c1.4-0.1,2.7-0.8,4.1-0.9c5.5-0.4,11-1,16.4-1c13.5,0,27.1,0.3,40.6,0.6
		c2.9,0,5.9-1.4,8.7,0.4c3.9-1.7,7.9-0.9,11.9-0.7c7.7,0.4,15.3,0.8,23,1.5c12.4,1.2,24.8,2.7,37.1,4c9.8,1.1,19.4,3.4,29.1,5
		c7.2,1.2,13.7,4.2,20.8,5.7c5.8,1.2,11.5,3,17.2,4.8c4.3,1.3,8.5,3,12.7,4.5c2.3,0.8,4.6,1.5,7,2.1c9.8,2.4,18.6,7.2,27.8,11.2
		c5.8,2.5,11.7,4.9,17.4,7.5c3,1.4,5.7,3.2,8.5,4.9c10.5,6.2,20.1,13.7,29.5,21.3c5,4.1,7.8,9.9,11.3,15.1c3.1,4.6,4.3,9.6,5.3,14.9
		C682.9,160.7,684.7,166.4,684.9,172.5z M670.1,513.6c0.3-0.1,0.6-0.2,0.8-0.3c0-4.1,0-8.3,0-12.4c0-0.6-0.3-1.2-0.4-1.7
		c-0.3-1.8-1-3.5-0.9-5.3c0.1-3.4,0.8-6.8,1-10.2c0.7-12.3,1.3-24.6,2.1-36.9c0.2-4,1-7.9,1.1-11.9c0.3-8,0.4-16.1,0.6-24.1
		c0.1-8.9,0.2-17.8,0.3-26.6c0-7.4-0.1-14.9,0.1-22.3c0.3-11.9,1-23.9,1.3-35.8c0.2-7.4-0.1-14.9,0.1-22.3
		c0.1-5.4,0.9-10.7,0.9-16.1c-0.2-15.3-0.6-30.5-0.9-45.8c-0.1-4.1-0.4-8.3-0.6-12.4c-0.3-8.3-0.6-16.6-1-24.8
		c-0.3-7.1-0.6-14.1-0.9-21.2c-2.6,0.2-5,0.5-5.9,3.6c-0.2,0.7-1.1,1.3-1.7,1.9c-2.5,2.1-5,4.2-7.6,6.3c-10.2,8.3-20.9,16-32.5,22.3
		c-3.1,1.7-6.2,3.6-9.4,4.8c-3.2,1.2-5.5,4.6-9.4,3.6c-0.1,0-0.4,0.2-0.5,0.4c-0.9,3.1-3.9,3.5-6.1,4.4
		c-11.4,4.4-22.9,8.4-34.3,12.5c-6.4,2.3-12.7,4.9-19.3,6.9c-11.8,3.5-23.7,6.7-35.6,9.8c-7.2,1.9-14.4,3.7-21.7,4.9
		c-9.6,1.7-19.3,2.6-28.9,4.1c-12.6,2.1-25.3,3.9-38.1,4.4c-8.5,0.4-17,1.4-25.5,1.6c-7.6,0.2-15.3-0.1-22.9-0.5
		c-7.1-0.4-14.1-1.2-21.2-1.6c-9-0.6-18-0.6-27-1.5c-11.1-1.2-22.1-2.9-33.1-4.9c-8-1.5-15.9-2.9-23.6-5.7
		c-7.4-2.7-15.1-4.8-22.7-7.1c-5.7-1.8-11.4-3.5-17.1-5.2c-3.8-1.2-7.8-2.1-11.4-3.7c-6.9-3-13.7-6.4-20.5-9.6
		c-4.1-1.9-8.3-3.5-12.3-5.6c-7.8-4.2-15.5-8.6-23.2-13c-3.8-2.2-7.6-4.4-11.2-6.9c-8.8-6.1-16.3-13.6-24.5-21.8
		c0.5,2.5,1.1,4.2,1.1,5.9c0.3,9.9,0.7,19.8,0.8,29.6c0.1,8.4-0.2,16.8-0.4,25.3c-0.3,11.7-0.8,23.4-1.1,35
		c-0.1,6.7,0.1,13.4,0.2,20.1c0.1,6.3,0.5,12.6,0.5,18.9c0,4.9-0.4,9.7-0.7,14.6c-0.4,6.8-0.9,13.6-1.2,20.4
		c-0.1,3.3,0.2,6.6,0.1,9.9c-0.3,16.9-0.8,33.7-1,50.6c-0.1,10.8,0.1,21.7,0.1,32.5c0,8.4-0.1,16.9-0.3,25.3
		c-0.1,5.8-0.8,11.7-0.7,17.5c0.4,16.6,1,33.1,1.6,49.7c0.1,2.7,0,5.4,0,8.2c5.9-5.7,11.3-11,16.9-16.2c3.8-3.6,7.7-7.1,12-10.2
		c9.9-7.1,19.9-14,30-20.8c5.3-3.5,10.8-6.6,16.4-9.6c7.3-3.9,14.7-7.7,22.2-11.2c8-3.8,16.1-7.4,24.4-10.7
		c6.2-2.5,12.7-4.4,19.1-6.3c9.2-2.7,18.5-5.2,27.8-7.7c3.1-0.8,6.4-1.4,9.5-2.2c7.5-1.8,14.6-5.3,22.6-4.9c0.7,0,1.4-0.2,2.2-0.3
		c6.6-1.1,13.2-2.2,19.8-3.1c4.8-0.7,9.7-1.1,14.6-1.5c11.2-0.9,22.3-1.8,33.5-2.3c10.7-0.5,21.5-0.6,32.2-0.9
		c6-0.1,12-0.4,17.9-0.3c9.1,0.2,18.2,0.6,27.3,1.1c7.7,0.4,15.4,0.6,23,1.6c15.5,2,31,4.3,46.4,6.9c8.8,1.5,17.3,4,26,5.7
		c6.6,1.3,13.2,2.1,19.5,4.8c5.4,2.3,10.9,4.2,16.3,6.3c4.8,1.9,9.5,3.8,14.2,5.9c3.6,1.6,7.3,3.2,10.7,5.3c4.8,2.9,9.3,6.2,14,9.2
		c7.1,4.3,13.9,9.1,19.2,15.6C665.5,508,667.8,510.8,670.1,513.6z M410.2,63.4c0-0.2,0-0.4,0-0.6c-1.1,0-2.3-0.1-3.4,0
		c-2.7,0.3-5.3,0.7-8,0.9c-1.6,0.1-3.3-0.1-4.9,0.1c-2.3,0.2-4.7,0.9-7,0.8c-3.5-0.1-7-1-10.5-0.8c-10.7,0.5-21.4,1.5-32.1,2
		c-7.1,0.3-14,1.7-21.1,2.1c-8.9,0.4-17.7,2.6-26.6,4.1c-7.2,1.3-14.3,2.8-21.4,4.1c-8.1,1.5-16.4,2.3-24.1,5.8
		c-0.9,0.4-1.9,0.4-2.8,0.7c-7.4,2.4-14.9,4.7-22.2,7.4c-4.5,1.6-8.9,3.9-13.3,5.7c-3.2,1.3-6.7,2.3-9.8,3.8
		c-12.6,6.2-25.3,12.3-37.7,19c-5.2,2.8-10.4,5.8-15,9.8c-4.4,3.9-8.9,7.6-13.1,11.6c-3.7,3.6-6.9,7.6-7.8,12.9
		c-0.4,2.3-0.7,4.6-1.3,6.8c-1.4,5.2-0.8,9.7,3,13.9c2.3,2.5,3.9,5.7,6.1,8.3c2.5,2.9,5.2,5.7,8.1,8.3c2.3,2,5,3.4,7.5,5.1
		c4.7,3.2,9.4,6.4,14.3,9.4c2.4,1.5,5,2.6,7.5,3.9c8.5,4.5,16,10.6,25.1,14.1c7.5,2.9,14.6,6.7,22,9.7c4.5,1.9,9.2,3.2,13.8,4.7
		c9.1,3,18.3,5.8,27.4,9c8,2.8,16.3,3.9,24.6,5.6c6.8,1.4,13.6,2.6,20.4,3.7c3,0.5,6,0.3,9,0.7c5.8,0.8,11.5,1.9,17.4,2.6
		c5.5,0.7,11.1,1,16.7,1.5c4.3,0.4,8.6,0.4,12.9,1.1c5.7,0.9,11.6,0.1,17.4-0.1c6.6-0.2,13.1-0.6,19.7-0.9
		c9.6-0.5,19.2-0.9,28.8-1.4c5.2-0.3,10.5-0.7,15.7-1.4c7.6-1,15.2-2.4,22.7-3.6c5.9-1,11.8-1.7,17.7-2.9c7.5-1.6,14.9-3.5,22.3-5.4
		c10.1-2.7,20.2-5.5,30.4-8.2c6.7-1.8,13.5-3.3,20.1-5.6c9.6-3.3,19-7,28.4-10.6c2.3-0.9,4.6-1.6,6.8-2.6
		c8.3-4.1,16.5-8.3,24.7-12.5c1-0.5,1.8-1.2,2.7-1.9c0.9-0.6,1.6-1.4,2.5-2c4.7-3.1,9.7-5.8,14-9.4c4.1-3.5,10-4.8,12.5-10.3
		c3.1-0.6,4.4-3.3,6.5-5.1c6.4-5.6,10.6-12.5,12.3-20.9c0.6-3,0.1-5.7-0.8-8.6c-1.8-5.6-5.8-9.5-9.5-13.7
		c-5.6-6.4-12.8-10.9-19.8-15.5c-2.4-1.6-5.1-2.8-7.6-4.2c-6.5-3.7-12.4-8.2-19.6-10.7c-6.7-2.4-13.2-5.7-19.7-8.6
		c-3.9-1.8-7.8-3.9-11.8-5.3c-9.1-3-18.3-5.8-27.5-8.4c-10.2-2.8-20.3-6-30.8-7.5c-9-1.4-18.1-2.9-27.1-4.2
		c-6.8-1-13.7-1.6-20.6-2.5c-10.5-1.3-21-2.4-31.6-2.4c-6.2,0-12.4-0.2-18.7-0.3c-5,0-10,0-15.6,0C409.2,64,409.7,63.7,410.2,63.4z
		 M673.7,631.6c0.9-9.3-2.2-17.6-6.2-25.7c-1.1-2.3-1.9-4.8-3.5-6.7c-3.9-4.8-8.4-9.1-13.6-12.7c-1.5-1.1-2.7-1.1-4.3-0.1
		c-5,3.2-10.1,6.2-15.2,9.2c-5.7,3.3-11.2,6.8-17.1,9.8c-10.3,5.1-20.7,10-31.1,14.7c-7.2,3.3-14.4,6.6-21.9,9
		c-12.7,4.1-25.7,7.6-38.6,11.1c-6.1,1.7-12.4,2.8-18.6,4.2c-6.4,1.5-12.7,3.2-19.2,4.4c-11.4,2.1-22.8,3.7-34.2,6
		c-9.6,1.9-19.2,2.7-28.9,3.3c-6.1,0.4-12.2,1-18.2,1.6c-5.9,0.6-11.8,1.8-17.7,2.1c-9.1,0.6-18.3,0.7-27.5,0.9
		c-9.4,0.2-18.8,0.2-28.2,0.2c-4.6,0-9.2-0.2-13.9-0.2c-6.8,0-13.7,0.4-20.5,0.2c-5.8-0.2-11.6-1.4-17.4-1.7
		c-8.6-0.4-16.9-2.5-25.1-4.6c-4.1-1.1-8.2-2.3-12.2-3.7c-11-3.7-22-7.2-32.8-11.3c-6.8-2.6-13.2-6.2-19.9-9.2
		c-7.6-3.5-15.4-6.8-23-10.3c-1.8-0.8-2.8-0.8-4.3,0.9c-5.7,6.6-10.7,13.6-14.8,21.3c-2.2,4.1-4.1,8.3-5.7,12.6
		c-0.9,2.4-1.6,5.3-1.2,7.8c0.4,3.5,1.6,7,3.1,10.1c1.9,4,3.3,8.5,7.9,10.6c1.6,0.8,3.1,1.9,4.5,3.1c5.6,4.9,11.5,9.3,18.5,12
		c8.3,3.2,15.8,7.9,24.6,10c8.4,2,16.6,5.1,25,7c17.5,3.9,35.1,7.5,52.6,11c9.6,1.9,19.2,3.8,28.8,4.9c8.9,1,18,1,27,1.4
		c10.2,0.4,20.5,0.8,30.7,1.2c5.1,0.2,10.2,0.4,15.3,0.6c7.2,0.3,14.4,0.8,21.6,1c5.7,0.1,11.5-0.8,17.1-0.3c9.1,0.7,18-0.4,27-1.1
		c7.1-0.5,14.1-1.3,21.1-2.1c10.9-1.3,21.8-2.4,32.5-4.2c10.5-1.7,20.9-4.1,31.3-6.4c5.4-1.1,10.7-2.5,16-3.7
		c1.1-0.3,2.8,0.2,3.5-0.4c3.1-3.2,7.2-3.8,11.1-4.6c7.1-1.5,13.7-4.4,20.2-7.2c11.4-4.9,22.5-10.6,33.6-16.2
		c6.2-3.1,12.2-6.6,18.2-10.1c6.6-3.9,13.6-7.4,18.9-13c6.6-6.9,13-13.8,19.1-21.1C671.8,642.6,674.5,637.5,673.7,631.6z
		 M423.2,453.4c0,0.2,0,0.5,0,0.7c-6,0-11.9-0.1-17.9,0c-6.2,0.2-12.4,0.5-18.6,1.1c-6.9,0.7-13.7,1.8-20.6,2.5
		c-8.2,0.9-16.6,1.1-24.7,2.6c-12.4,2.2-24.8,5-37.1,7.9c-10.3,2.5-20.5,5.4-30.6,8.5c-9.5,2.9-19,6.3-28.4,9.6
		c-6.8,2.4-13.5,5-20.1,7.8c-6.3,2.7-12.7,5.2-18.5,8.7c-10.8,6.5-21.3,13.4-31.6,20.5c-6.1,4.2-11.9,8.9-17.4,13.9
		c-8,7.3-15.5,15.2-23.3,22.6c-3.2,3.1-5.3,6.4-6,10.9c-0.5,3.5,0.1,6.2,2.6,8.6c0.7,0.7,1.4,1.4,2.1,2.1c2.8,2.7,5.3,5.8,8.5,8
		c7.7,5.5,15.7,10.6,23.6,15.9c1,0.7,1.5,0.7,2.5-0.1c2.7-2.2,5.5-4.4,8.4-6.4c4.1-2.8,8.3-5.6,12.6-8c6-3.4,12.2-6.5,18.3-9.6
		c12.8-6.5,25.3-13.6,38.5-19.1c10-4.2,20.2-8.2,30.7-11.3c10.1-3,20.3-5,30.4-7.6c9.3-2.4,18.8-3.8,28.2-5.7c7-1.4,14-3.1,21.1-4.2
		c5-0.8,10.1-1,15.1-1.6c5.4-0.6,10.8-1.4,16.3-1.9c4.9-0.5,9.9-0.7,14.8-1.1c2.1-0.2,4.2-0.7,6.3-0.8c2.2-0.1,4.3,0.2,6.5,0
		c2.6-0.2,5.1-0.8,7.6-0.9c7.9-0.2,15.8-0.2,23.7-0.3c4.4-0.1,8.8-0.6,13.2-0.4c7.5,0.4,15,1,22.5,1.8c12,1.3,24,2.5,36,4.2
		c8.8,1.2,17.6,2.7,26.3,4.5c15.8,3.4,31.6,6.8,47.3,10.8c9.1,2.3,18,5.5,26.7,8.9c5.6,2.2,10.9,5.3,16.4,8c2.7,1.4,5.7,2.4,8.1,4.1
		c3.3,2.3,6.3,3.4,9.4-0.1c0.2-0.3,0.6-0.4,0.9-0.6c4.4-3.3,9.6-5.8,12.2-11.2c1.7-3.5,4.5-6.6,5.3-10.2c1.8-8.1,0.7-16-4.6-22.9
		c-7.2-9.4-14.9-18.3-25.2-24.5c-7.7-4.6-15.2-9.9-23.2-13.8c-8.2-4-16.8-7.1-25.4-10c-7.4-2.5-15-4.3-22.5-6.1
		c-7.3-1.8-14.7-3.4-22.2-4.7c-9.9-1.7-20-3.1-30-4.6c-12.2-1.7-24.3-4.1-36.6-4.7c-11.3-0.6-22.5-2.6-33.9-1.9
		C438.9,453.8,431,453.4,423.2,453.4z M176.3,611.3c6.7,3.3,12.9,6.6,19.2,9.3c7.6,3.2,15.7,5.2,22.6,9.9c0.5,0.3,1.2,0.3,1.7,0.5
		c4.7,1.4,9.3,2.7,14,4.1c6.2,1.8,12.2,4.1,18.5,5.5c7,1.6,14.1,2.6,21.2,3.8c5.8,0.9,11.5,2,17.3,2.5c6.2,0.5,12.4,0.3,18.6,0.3
		c10.7,0.1,21.3,1.5,32,0.1c1.3-0.2,2.6,0.3,3.9,0.6c0.8,0.2,1.6,0.6,2.5,0.6c10.1-0.5,20.2-1,30.3-1.6c10.6-0.6,21.2-1.2,31.8-2
		c8.6-0.6,17.3-1.4,25.9-2.3c7.3-0.8,14.5-1.9,21.8-2.9c9.9-1.4,19.8-2.5,29.6-4.2c9.8-1.7,19.6-3.8,29.4-6
		c4.9-1.1,9.6-2.9,14.4-4.1c13.9-3.3,27.5-7.1,40.6-12.9c8.2-3.7,16.5-7.1,24.5-11.2c10.6-5.5,20.8-11.6,31.2-17.6
		c2.2-1.3,4.4-2.7,6.4-4.2c2.7-2,2.5-3.1-0.5-4.5c-1.4-0.7-2.9-1.3-4.3-1.9c-8.8-3.7-17.4-7.7-26.3-11c-8-2.9-16.3-5-24.5-7.3
		c-4.8-1.3-9.7-2.4-14.5-3.5c-2.9-0.7-5.9-1.4-8.9-2c-3-0.7-5.9-1.5-8.9-2c-5.7-1-11.5-1.8-17.3-2.9c-7.1-1.3-14.2-3.1-21.3-4
		c-9.1-1.2-18.4-1.9-27.6-2.6c-6.6-0.5-13.1-0.7-19.7-1c-9.6-0.5-19.2-0.6-28.8,0.1c-9.8,0.7-19.7,0.1-29.5,1.7
		c-5.3,0.9-10.7,0.9-16,1.4c-16.2,1.6-32.5,3-48.4,6.7c-8.3,1.9-16.6,3.8-24.8,5.8c-3.7,0.9-7.3,2.3-11,2.4
		c-3.3,0.1-6.1,1.1-9.1,1.9c-6.2,1.8-12.4,3.3-18.6,5.2c-4.3,1.3-8.4,3.2-12.5,4.9c-7.2,2.9-14.6,5.4-21.6,8.7
		c-11,5.2-21.7,11.1-32.6,16.4c-4.1,2-7.1,5.9-11.9,6.4c0.6,2.3-1.6,2.4-2.7,3.2c-1.4,1.1-3.2,1.8-4.7,2.8
		C183.9,606.6,180.3,608.9,176.3,611.3z M127.3,654.1c0.3,0,0.6,0.1,1,0.1c0.3-0.8,0.7-1.5,1-2.3c3.2-9.9,8.4-18.6,15.2-26.4
		c2.3-2.7,4.6-5.4,7.1-7.9c1.4-1.4,1.3-2.5-0.4-3.4c-0.5-0.3-1.1-0.5-1.6-0.9c-5.1-3.7-10.3-7.3-15.1-11.3c-3-2.4-5.5-5.5-8.4-8.3
		C124.7,614.1,126.2,634.1,127.3,654.1z M671.4,589.7c0-7.9,0-15.4,0-23.7c-5.2,4.4-9.7,8.3-14.4,12.3
		C661.9,582.2,666.6,585.9,671.4,589.7z"/>
</g>
</svg>
