<svg width="31" height="31" viewBox="0 0 31 31" fill="none" xmlns="http://www.w3.org/2000/svg">
<path d="M30.8 15.4C30.8 20.1731 28.6249 24.4359 25.2214 27.2622C25.0535 27.3964 24.8857 27.5307 24.7179 27.665C22.1333 29.6319 18.9043 30.8 15.4 30.8C11.9024 30.8 8.67341 29.6319 6.08884 27.665C5.92101 27.5374 5.75319 27.4032 5.58536 27.2622C2.17507 24.4359 0 20.1731 0 15.4C0 6.89442 6.89442 0 15.4 0C23.9056 0 30.8 6.89442 30.8 15.4Z" fill="#DAD7DA"/>
<path d="M25.2214 27.1011V27.2622C25.0535 27.3964 24.8857 27.5307 24.7179 27.665C22.1333 29.6319 18.9043 30.8 15.4 30.8C11.9024 30.8 8.67341 29.6319 6.08884 27.665C5.92102 27.5374 5.75319 27.4031 5.58536 27.2622V27.1011C5.58536 23.1067 8.83453 19.8575 12.8289 19.8575H17.9846C21.9655 19.8575 25.2214 23.1067 25.2214 27.1011Z" fill="#ACACAC"/>
<path d="M15.4 18.8304C18.874 18.8304 21.6903 16.0623 21.6903 12.6476C21.6903 9.23293 18.874 6.46478 15.4 6.46478C11.926 6.46478 9.10977 9.23293 9.10977 12.6476C9.10977 16.0623 11.926 18.8304 15.4 18.8304Z" fill="#ACACAC"/>
</svg>
