<svg width="11" height="10" viewBox="0 0 11 10" fill="none" xmlns="http://www.w3.org/2000/svg">
<path fill-rule="evenodd" clip-rule="evenodd" d="M5.25886 1.0991C5.83207 0.425967 6.7103 0 7.62534 0C9.24507 0 10.5177 1.27264 10.5177 2.89237C10.5177 4.87859 8.73263 6.49729 6.02805 8.94979L6.02139 8.95583L5.25886 9.65L4.49632 8.96109L4.47556 8.94222C1.77888 6.49166 0 4.87513 0 2.89237C0 1.27264 1.27264 0 2.89237 0C3.80741 0 4.68564 0.425967 5.25886 1.0991ZM5.25886 8.23011L5.31144 8.17752C7.81466 5.91095 9.46594 4.41218 9.46594 2.89237C9.46594 1.8406 8.67711 1.05177 7.62534 1.05177C6.81548 1.05177 6.02665 1.5724 5.75319 2.29286H4.76978C4.49106 1.5724 3.70223 1.05177 2.89237 1.05177C1.8406 1.05177 1.05177 1.8406 1.05177 2.89237C1.05177 4.41218 2.70305 5.91095 5.20627 8.17752L5.25886 8.23011Z" fill="black" fill-opacity="0.54"/>
</svg>
