<svg width="13" height="13" viewBox="0 0 13 13" fill="none" xmlns="http://www.w3.org/2000/svg">
<g clip-path="url(#clip0)">
<path d="M4.00367 12.3863C3.91958 12.3863 3.83894 12.3529 3.77949 12.2935C3.72003 12.234 3.68663 12.1534 3.68663 12.0693V10.1854H2.19925C1.61623 10.1848 1.05726 9.95296 0.644959 9.54075C0.232659 9.12854 0.000710153 8.56962 0 7.9866V2.19778C0.000387268 1.61454 0.232186 1.05527 0.644514 0.642762C1.05684 0.230252 1.616 -0.00179549 2.19925 -0.00244141H10.0695C10.6526 -0.00179579 11.2117 0.230151 11.624 0.642503C12.0363 1.05485 12.2682 1.61393 12.2688 2.19705V7.9866C12.2681 8.56962 12.0361 9.12854 11.6238 9.54075C11.2115 9.95296 10.6525 10.1848 10.0695 10.1854H6.47581L4.22096 12.2993C4.16229 12.3549 4.08455 12.3861 4.00367 12.3863ZM2.199 0.635043C1.78453 0.63556 1.38718 0.800456 1.09412 1.09356C0.801063 1.38666 0.636229 1.78404 0.635777 2.19851V7.9866C0.636358 8.40097 0.801257 8.7982 1.09431 9.09116C1.38736 9.38412 1.78463 9.54889 2.199 9.54934H4.00367C4.0454 9.54918 4.08676 9.55726 4.12536 9.57312C4.16397 9.58899 4.19906 9.61231 4.22863 9.64177C4.2582 9.67122 4.28166 9.70623 4.29767 9.74477C4.31368 9.78332 4.32192 9.82464 4.32192 9.86638V11.3323L6.13292 9.6347C6.19171 9.57929 6.26943 9.54841 6.35021 9.54837H10.0695C10.4839 9.54792 10.8812 9.38314 11.1742 9.09018C11.4673 8.79722 11.6322 8.4 11.6328 7.98563V2.19778C11.6323 1.78331 11.4675 1.38593 11.1744 1.09283C10.8814 0.799724 10.484 0.634828 10.0695 0.634312L2.199 0.635043Z" fill="#606060"/>
</g>
<defs>
<clipPath id="clip0">
<rect width="12.2688" height="12.3873" fill="white"/>
</clipPath>
</defs>
</svg>
