<svg width="43" height="19" viewBox="0 0 43 19" fill="none" xmlns="http://www.w3.org/2000/svg">
<g clip-path="url(#clip0)">
<path d="M40.1606 16.1608C43.8576 12.4638 43.8576 6.46979 40.1606 2.7728C36.4636 -0.924186 30.4696 -0.924186 26.7726 2.7728C23.0756 6.46979 23.0756 12.4638 26.7726 16.1608C30.4696 19.8578 36.4636 19.8578 40.1606 16.1608Z" fill="url(#paint0_linear)"/>
<path d="M40.6653 9.77907C40.6334 9.73018 40.5922 9.68807 40.5439 9.65515C40.4957 9.62223 40.4415 9.59915 40.3843 9.58723C40.3271 9.57531 40.2682 9.57478 40.2108 9.58568C40.1535 9.59658 40.0988 9.61869 40.05 9.65075C40.0391 9.65776 38.9764 10.3464 37.5417 10.6234C36.0953 10.9018 34.9821 10.7854 34.9695 10.7847C34.8524 10.7727 34.7354 10.8072 34.6435 10.8808C34.5517 10.9544 34.4925 11.0612 34.4786 11.178C34.4722 11.236 34.4772 11.2947 34.4934 11.3508C34.5096 11.4069 34.5367 11.4592 34.5731 11.5048C34.6096 11.5503 34.6546 11.5883 34.7057 11.6165C34.7568 11.6446 34.813 11.6625 34.871 11.6689C35.1143 11.6916 35.3587 11.702 35.6031 11.7001C35.8811 11.7001 36.2314 11.6861 36.6262 11.6493C36.5927 11.8114 36.5996 11.9793 36.6463 12.1382C36.693 12.2971 36.7779 12.4421 36.8938 12.5604C37.0096 12.6787 37.1527 12.7667 37.3106 12.8168C37.4684 12.8668 37.6362 12.8772 37.799 12.8472C37.9618 12.8172 38.1148 12.7476 38.2444 12.6446C38.3741 12.5416 38.4764 12.4083 38.5425 12.2565C38.6085 12.1047 38.6362 11.9389 38.6232 11.7739C38.6101 11.6088 38.5567 11.4495 38.4676 11.3099C39.6713 10.9544 40.4956 10.4218 40.5363 10.3944C40.5853 10.3625 40.6274 10.3213 40.6604 10.2731C40.6934 10.2249 40.7166 10.1707 40.7285 10.1135C40.7405 10.0564 40.7411 9.99739 40.7303 9.94C40.7194 9.88261 40.6974 9.82792 40.6653 9.77907Z" fill="#102236"/>
<path d="M26.2682 9.77907C26.3001 9.73018 26.3413 9.68807 26.3896 9.65515C26.4378 9.62223 26.492 9.59915 26.5492 9.58723C26.6064 9.57531 26.6653 9.57478 26.7227 9.58568C26.78 9.59658 26.8347 9.61869 26.8835 9.65075C26.8944 9.65776 27.9571 10.3464 29.3918 10.6234C30.8381 10.9018 31.9514 10.7854 31.964 10.7847C32.0811 10.7727 32.1981 10.8072 32.29 10.8808C32.3818 10.9544 32.441 11.0612 32.4549 11.178C32.4613 11.236 32.4563 11.2947 32.4401 11.3508C32.4239 11.4069 32.3968 11.4592 32.3604 11.5048C32.3239 11.5503 32.2789 11.5883 32.2278 11.6165C32.1767 11.6446 32.1205 11.6625 32.0625 11.6689C31.8192 11.6916 31.5748 11.702 31.3304 11.7001C31.0524 11.7001 30.7021 11.6861 30.3073 11.6493C30.3408 11.8114 30.3339 11.9793 30.2872 12.1382C30.2405 12.2971 30.1556 12.4421 30.0397 12.5604C29.9239 12.6787 29.7808 12.7667 29.6229 12.8168C29.4651 12.8668 29.2973 12.8772 29.1345 12.8472C28.9717 12.8172 28.8187 12.7476 28.6891 12.6446C28.5594 12.5416 28.4571 12.4083 28.391 12.2565C28.325 12.1047 28.2973 11.9389 28.3103 11.7739C28.3234 11.6088 28.3768 11.4495 28.4659 11.3099C27.2622 10.9544 26.4379 10.4218 26.3972 10.3944C26.3483 10.3625 26.3061 10.3213 26.2732 10.2731C26.2402 10.2249 26.2171 10.1706 26.2051 10.1135C26.1931 10.0563 26.1925 9.99739 26.2033 9.94C26.2142 9.88262 26.2362 9.82793 26.2682 9.77907Z" fill="#102236"/>
<path d="M36.4957 15.1728C36.4957 15.5718 35.0645 15.6546 33.4019 15.6546C31.7392 15.6546 30.4745 15.5718 30.4745 15.1728C30.4745 14.7738 31.8223 14.4502 33.4853 14.4502C35.1483 14.4502 36.4957 14.7738 36.4957 15.1728Z" fill="#102236"/>
</g>
<g clip-path="url(#clip1)">
<path d="M26.1606 16.1608C29.8576 12.4638 29.8576 6.46979 26.1606 2.7728C22.4636 -0.924186 16.4696 -0.924186 12.7726 2.7728C9.07559 6.46979 9.07559 12.4638 12.7726 16.1608C16.4696 19.8578 22.4636 19.8578 26.1606 16.1608Z" fill="#FFDE6E"/>
<path d="M19.4667 9.45972C16.6369 9.45972 14.0051 9.92674 11.8029 10.7269C12.4081 14.4143 15.6099 17.2281 19.4667 17.2281C23.3236 17.2281 26.5254 14.4143 27.1306 10.7269C24.9283 9.92674 22.2962 9.45972 19.4667 9.45972Z" fill="#102236"/>
<path d="M24.9238 14.9854C23.471 13.5484 21.5101 12.7424 19.4668 12.7424C17.4234 12.7424 15.4625 13.5484 14.0097 14.9854C15.4626 16.4221 17.4235 17.2279 19.4668 17.2279C21.5101 17.2279 23.4709 16.4221 24.9238 14.9854Z" fill="#FF3C6E"/>
<path d="M11.9533 8.5527C11.8608 8.55271 11.7713 8.51973 11.7009 8.45968C11.6305 8.39964 11.5838 8.31647 11.5693 8.22511C11.5547 8.13375 11.5732 8.04018 11.6214 7.96122C11.6696 7.88226 11.7444 7.82308 11.8323 7.79431L14.8168 6.81573L13.246 5.90867C13.1596 5.85572 13.0972 5.77108 13.0722 5.67281C13.0473 5.57453 13.0617 5.47039 13.1124 5.38259C13.1631 5.29479 13.2461 5.23027 13.3437 5.20279C13.4413 5.1753 13.5458 5.18704 13.6349 5.23548L15.9605 6.5773C16.0255 6.61486 16.0783 6.67042 16.1124 6.73729C16.1465 6.80415 16.1605 6.87947 16.1528 6.95413C16.145 7.0288 16.1158 7.09963 16.0687 7.15806C16.0216 7.2165 15.9586 7.26005 15.8872 7.28345L12.076 8.53341C12.0364 8.54628 11.995 8.55279 11.9533 8.5527Z" fill="#102236"/>
<path d="M26.9802 8.5527C26.939 8.55264 26.8981 8.54613 26.8589 8.53341L23.0476 7.28345C22.9762 7.26021 22.9131 7.21679 22.8658 7.15843C22.8185 7.10008 22.7892 7.02928 22.7813 6.9546C22.7734 6.87992 22.7873 6.80455 22.8213 6.73759C22.8553 6.67064 22.908 6.61497 22.9729 6.5773L25.2972 5.23548C25.3863 5.18704 25.4908 5.17531 25.5884 5.20279C25.686 5.23027 25.769 5.29479 25.8197 5.38259C25.8704 5.47039 25.8848 5.57453 25.8598 5.67281C25.8349 5.77108 25.7725 5.85572 25.686 5.90867L24.1149 6.81573L27.0997 7.79431C27.1877 7.82308 27.2625 7.88226 27.3107 7.96122C27.3589 8.04018 27.3774 8.13374 27.3628 8.2251C27.3482 8.31647 27.3016 8.39964 27.2312 8.45968C27.1608 8.51972 27.0713 8.5527 26.9788 8.5527H26.9802Z" fill="#102236"/>
</g>
<g clip-path="url(#clip2)">
<path d="M16.1606 16.1608C19.8576 12.4638 19.8576 6.46979 16.1606 2.7728C12.4636 -0.924186 6.46957 -0.924186 2.77258 2.7728C-0.924414 6.46979 -0.924414 12.4638 2.77258 16.1608C6.46957 19.8578 12.4636 19.8578 16.1606 16.1608Z" fill="#036DC4"/>
<path d="M6.49453 8.42236H4.86661C4.56375 8.42236 4.31824 8.66788 4.31824 8.97073V13.4825C4.31824 13.7854 4.56375 14.0309 4.86661 14.0309H6.49453C6.79739 14.0309 7.0429 13.7854 7.0429 13.4825V8.97073C7.0429 8.66788 6.79739 8.42236 6.49453 8.42236Z" fill="#FDFDFD"/>
<path d="M13.8456 8.95321H13.7485C13.9754 8.94865 14.1915 8.85531 14.3503 8.69323C14.5092 8.53115 14.5982 8.31325 14.5982 8.0863C14.5982 7.85936 14.5092 7.64146 14.3503 7.47938C14.1915 7.3173 13.9754 7.22396 13.7485 7.2194H10.9674C11.3107 6.67909 11.7756 5.81692 11.7756 5.11568C11.7756 4.00106 11.1652 3.38186 10.7672 3.31103C10.3692 3.24021 10.0772 3.45128 9.96077 3.78858C9.84437 4.12588 10.0491 4.7619 9.97059 4.98945C9.84928 5.34007 9.23429 5.80955 8.40367 6.87614C7.6607 7.82912 7.76694 8.95496 7.76694 8.95496V12.7483C7.76703 12.8195 7.78115 12.8899 7.80849 12.9555C7.83583 13.0212 7.87585 13.0809 7.92627 13.131C7.97668 13.1812 8.0365 13.221 8.10229 13.248C8.16809 13.2751 8.23857 13.2889 8.3097 13.2886H13.474C13.5577 13.2906 13.641 13.2758 13.719 13.2451C13.7969 13.2145 13.8679 13.1685 13.9278 13.11C13.9878 13.0515 14.0354 12.9816 14.0679 12.9044C14.1004 12.8272 14.1171 12.7443 14.1171 12.6605C14.1171 12.5767 14.1004 12.4938 14.0679 12.4166C14.0354 12.3394 13.9878 12.2695 13.9278 12.211C13.8679 12.1525 13.7969 12.1065 13.719 12.0758C13.641 12.0452 13.5577 12.0304 13.474 12.0324H13.5627C13.7668 12.0324 13.9626 11.9513 14.1069 11.8069C14.2512 11.6626 14.3323 11.4669 14.3323 11.2627C14.3323 11.0586 14.2512 10.8629 14.1069 10.7185C13.9626 10.5742 13.7668 10.4931 13.5627 10.4931H13.8456C14.0498 10.4931 14.2455 10.4121 14.3898 10.2677C14.5342 10.1234 14.6153 9.92764 14.6153 9.72352C14.6153 9.51941 14.5342 9.32366 14.3898 9.17933C14.2455 9.035 14.0498 8.95391 13.8456 8.95391V8.95321Z" fill="#FDFDFD"/>
</g>
<defs>
<linearGradient id="paint0_linear" x1="33.4665" y1="18.9334" x2="33.4665" y2="-5.17391e-05" gradientUnits="userSpaceOnUse">
<stop stop-color="#FFDE6E"/>
<stop offset="1" stop-color="#FF4C41"/>
</linearGradient>
<clipPath id="clip0">
<rect width="18.9335" height="18.9335" fill="white" transform="translate(24)"/>
</clipPath>
<clipPath id="clip1">
<rect width="18.9335" height="18.9335" fill="white" transform="translate(10)"/>
</clipPath>
<clipPath id="clip2">
<rect width="18.9335" height="18.9335" fill="white"/>
</clipPath>
</defs>
</svg>
