<svg width="140" height="29" viewBox="0 0 140 29" fill="none" xmlns="http://www.w3.org/2000/svg">
<g clip-path="url(#clip0)">
<path fill-rule="evenodd" clip-rule="evenodd" d="M65.7853 1.51616L71.7038 0.529053V9.6785C72.5146 9.50824 73.2666 9.29542 74.0429 9.1961C75.9462 8.95692 77.8454 8.94274 79.7 9.55892C81.4614 10.1467 82.4383 11.4135 82.7302 13.1972C82.8897 14.1893 82.9731 15.1922 82.9795 16.197C82.9978 18.1753 82.9937 20.1576 82.9025 22.1338C82.8133 24.0371 82.2721 25.7823 80.6729 27.0248C79.6189 27.8457 78.3845 28.2409 77.0913 28.4598C74.505 28.8915 71.9126 28.8003 69.3222 28.4821C68.2581 28.3544 67.198 28.1821 66.1359 28.0524C65.8441 28.018 65.7305 27.8984 65.7528 27.6207C65.7528 27.4383 65.7528 27.2538 65.7528 27.0714C65.7528 18.753 65.7528 10.4339 65.7528 2.11409C65.7589 1.92356 65.7751 1.74114 65.7853 1.51616ZM71.714 23.7351C72.8713 23.8729 73.9882 23.9277 75.0888 23.7108C76.2725 23.4757 76.8745 22.8331 76.9292 21.6109C77.0103 19.7745 77.0326 17.9341 76.988 16.0997C76.9576 14.839 76.3981 14.2958 75.178 14.0911C74.0084 13.8985 72.9484 14.2492 71.9167 14.7539C71.8543 14.8016 71.8036 14.8629 71.7685 14.9332C71.7334 15.0034 71.7147 15.0807 71.714 15.1593C71.6998 16.8132 71.714 18.4692 71.714 20.1252V23.7351Z" fill="#1977F5"/>
<path fill-rule="evenodd" clip-rule="evenodd" d="M139.818 28.4701H138.728C137.106 28.4701 135.484 28.4559 133.847 28.4701C133.698 28.4852 133.548 28.4545 133.416 28.3821C133.285 28.3097 133.179 28.1989 133.113 28.0647C131.528 25.375 129.906 22.6995 128.299 20.0219C128.254 19.949 128.21 19.8801 128.096 19.7118V28.4437C127.906 28.4437 127.758 28.466 127.608 28.466C125.94 28.466 124.27 28.4518 122.599 28.4782C122.206 28.4782 122.093 28.3708 122.097 27.9816C122.113 26.1006 122.097 24.2176 122.097 22.3367V2.0899C122.097 1.50413 122.097 1.51629 122.693 1.419C124.314 1.15145 125.948 0.873762 127.575 0.608237C127.711 0.585941 127.853 0.581889 128.046 0.565674V17.537L128.143 17.5674C128.291 17.3403 128.443 17.1174 128.589 16.8883C130.092 14.5101 131.592 12.1312 133.091 9.75161C133.16 9.6095 133.271 9.49156 133.408 9.41312C133.545 9.33468 133.703 9.29937 133.861 9.31177C135.614 9.33812 137.369 9.3219 139.131 9.3219H139.814C139.709 9.52459 139.65 9.65027 139.573 9.76985C137.789 12.59 136.003 15.4074 134.216 18.222C134.115 18.3416 134.057 18.4918 134.052 18.6482C134.048 18.8046 134.096 18.958 134.189 19.0835C136.013 22.0894 137.819 25.1115 139.627 28.1316C139.682 28.2066 139.725 28.2937 139.818 28.4701Z" fill="#1977F5"/>
<path fill-rule="evenodd" clip-rule="evenodd" d="M63.3671 23.1633C63.3671 23.3113 63.3915 23.4349 63.3915 23.5586C63.3915 24.9024 63.3915 26.2463 63.3915 27.5881C63.3915 27.8739 63.3307 27.9934 63.0165 28.0644C60.3468 28.6321 57.6141 28.8461 54.8886 28.7008C53.601 28.6573 52.335 28.3568 51.1652 27.8171C49.0106 26.8036 47.7985 25.0727 47.3911 22.7742C47.2644 21.9391 47.2034 21.0953 47.2086 20.2507C47.1823 18.7791 47.1559 17.3056 47.2188 15.8381C47.2877 14.1983 47.7296 12.6619 48.8403 11.3951C49.8011 10.3026 51.0435 9.69252 52.4421 9.39051C54.8318 8.8777 57.2135 8.87567 59.5484 9.65806C61.9665 10.4688 63.3996 12.2039 63.6874 14.6969C63.9205 16.6468 63.8779 18.6312 63.959 20.6601H63.3367C60.0937 20.6601 56.8506 20.6601 53.6197 20.65C53.2387 20.65 53.1069 20.7635 53.1475 21.1263C53.1779 21.4222 53.1576 21.7242 53.2144 22.0141C53.4049 23.0113 53.9562 23.5809 54.992 23.6498C56.2165 23.747 57.4463 23.7613 58.6728 23.6924C60.1484 23.5951 61.6118 23.3478 63.0813 23.1674C63.1764 23.1604 63.2719 23.159 63.3671 23.1633ZM55.5656 16.6266H56.7513C58.0404 16.6266 58.0404 16.6266 57.9067 15.3415C57.8134 14.4598 57.3452 13.8416 56.4696 13.6815C55.8747 13.5775 55.2668 13.5706 54.6697 13.6612C54.3269 13.6961 54.0052 13.8431 53.7545 14.0795C53.5038 14.3159 53.3382 14.6284 53.2833 14.9686C53.1981 15.3922 53.2042 15.834 53.1617 16.2658C53.1353 16.5455 53.2569 16.6367 53.5306 16.6306C54.2075 16.6164 54.8866 16.6266 55.5656 16.6266Z" fill="#1977F5"/>
<path fill-rule="evenodd" clip-rule="evenodd" d="M120.607 18.8564C120.528 20.1901 120.538 21.4914 120.358 22.7501C119.932 25.7479 118.175 27.6147 115.244 28.316C112.862 28.9259 110.357 28.8614 108.01 28.1295C105.425 27.3187 103.956 25.4945 103.52 22.8595C103.386 21.8804 103.328 20.8924 103.346 19.9043C103.336 18.4632 103.305 17.0139 103.431 15.583C103.729 12.1859 105.616 10.0799 108.987 9.36643C111.314 8.87389 113.649 8.9043 115.935 9.6502C118.464 10.4772 119.928 12.2629 120.337 14.8512C120.546 16.1789 120.526 17.547 120.607 18.8564ZM114.555 18.901C114.555 17.9666 114.571 17.0322 114.555 16.0998C114.548 15.6716 114.405 15.2566 114.145 14.9162C113.885 14.5757 113.523 14.3277 113.111 14.2087C112.42 13.9916 111.681 13.9719 110.979 14.152C110.01 14.3932 109.358 15.0924 109.345 16.0187C109.316 17.9281 109.316 19.8374 109.345 21.7468C109.343 22.1773 109.489 22.5955 109.758 22.9313C110.028 23.2671 110.404 23.5001 110.825 23.5913C111.359 23.7201 111.909 23.7666 112.457 23.7291C113.792 23.6379 114.555 22.7845 114.565 21.4468C114.561 20.5975 114.555 19.7482 114.555 18.901Z" fill="#1977F5"/>
<path fill-rule="evenodd" clip-rule="evenodd" d="M101.852 19.0672C101.755 20.2976 101.749 21.7346 101.505 23.121C100.999 26.0155 99.138 27.6978 96.3409 28.3464C94.0913 28.888 91.7401 28.8405 89.5142 28.2086C86.8367 27.4444 85.2476 25.6668 84.751 22.9386C84.6351 22.2692 84.5761 21.5911 84.5747 20.9117C84.5503 19.3267 84.5199 17.7416 84.5868 16.1606C84.6699 14.1337 85.2597 12.2953 86.8529 10.911C87.9292 9.97656 89.2183 9.49213 90.6047 9.26917C92.8951 8.89216 95.1652 8.91851 97.3746 9.709C99.8312 10.5887 101.203 12.3987 101.576 14.9303C101.767 16.2377 101.759 17.5592 101.852 19.0672ZM90.554 18.8645H90.5236C90.5236 19.7145 90.5236 20.5638 90.5236 21.4124C90.525 21.5392 90.5345 21.6658 90.552 21.7914C90.6574 22.6711 91.0871 23.3359 91.9708 23.5589C92.543 23.705 93.1352 23.757 93.7241 23.7129C94.9808 23.6055 95.7733 22.7562 95.7814 21.5948C95.7936 19.7827 95.7936 17.972 95.7814 16.1627C95.7883 15.7121 95.6432 15.2723 95.3697 14.9141C95.0961 14.556 94.7099 14.3004 94.2734 14.1885C93.5506 13.9736 92.7808 13.9736 92.058 14.1885C91.1722 14.4439 90.6067 15.1026 90.5702 16.0289C90.5338 16.9552 90.554 17.9261 90.554 18.8747V18.8645Z" fill="#1977F5"/>
<path fill-rule="evenodd" clip-rule="evenodd" d="M23.7634 27.4586C22.6385 27.8153 21.5683 28.2207 20.4657 28.4842C19.1593 28.8257 17.7871 28.8257 16.4808 28.4842C14.391 27.9024 13.2377 26.4573 12.8323 24.3939C12.6329 23.379 12.6426 22.3341 12.8607 21.3231C13.2661 19.428 14.4599 18.303 16.3065 17.9078C17.1754 17.7419 18.0569 17.6503 18.9414 17.6341C20.1292 17.5896 21.319 17.6078 22.5068 17.6341C22.8716 17.6341 22.9831 17.5206 22.9486 17.174C22.9209 16.8783 22.9114 16.5811 22.9202 16.2842C22.9507 14.7559 22.1987 14.4296 20.9967 14.3769C19.0752 14.2958 17.1456 14.312 15.2281 14.2857H14.6768C14.7133 13.8215 14.7397 13.3918 14.7802 12.9641C14.8896 11.8412 14.9991 10.7163 15.1349 9.59543C15.1603 9.52786 15.2024 9.46785 15.2574 9.42104C15.3124 9.37424 15.3783 9.34218 15.4491 9.32788C17.9239 9.34207 20.4008 9.34207 22.8736 9.4272C23.6759 9.48081 24.4688 9.63122 25.235 9.87515C27.3571 10.4832 28.4334 11.9993 28.7334 14.1073C28.8527 14.9887 28.9123 15.8772 28.9118 16.7666C28.9321 20.5144 28.9118 24.2662 28.928 28.0139C28.928 28.4193 28.8327 28.5511 28.4132 28.5429C27.0835 28.5146 25.7539 28.5146 24.4242 28.5429C24.0188 28.5429 23.8992 28.3909 23.8628 28.0443C23.8384 27.8275 23.7898 27.6065 23.7634 27.4586ZM21.1893 21.6697C20.7515 21.6697 20.3136 21.6576 19.8738 21.6697C19.0103 21.6981 18.6455 22.0933 18.6577 22.9507C18.6779 23.9317 19.1259 24.3878 20.1069 24.4486C21.0555 24.5054 21.9169 24.2135 22.7419 23.7757C22.8021 23.726 22.8512 23.6642 22.8861 23.5944C22.921 23.5246 22.9409 23.4483 22.9446 23.3703C22.9709 22.9183 22.9446 22.4663 22.9588 22.0123C22.9588 21.7265 22.8453 21.6454 22.5797 21.6535C22.1216 21.6697 21.6555 21.6697 21.1893 21.6697Z" fill="#1977F5"/>
<path fill-rule="evenodd" clip-rule="evenodd" d="M13.2901 0V3.30588C13.2901 3.75788 13.2759 4.21191 13.2901 4.66391C13.2901 4.93957 13.207 5.03889 12.9252 5.03281C12.1489 5.01862 11.3686 5.02268 10.5902 5.03281C10.3225 5.03706 10.056 5.07105 9.79569 5.13416C9.56123 5.17313 9.34827 5.29423 9.1949 5.47582C9.04154 5.6574 8.95777 5.88763 8.95858 6.12531C8.92818 7.16714 8.95858 8.211 8.95858 9.30552H13.3185C13.2435 10.1001 13.1766 10.8399 13.1016 11.5797C13.0266 12.3195 12.9293 13.0675 12.8685 13.8093C12.8421 14.1478 12.7489 14.2998 12.3638 14.2917C11.2206 14.2633 10.0774 14.2816 8.89372 14.2816V28.4253H2.96502C2.95083 28.2328 2.92246 28.0199 2.92246 27.8173C2.92246 23.4736 2.92246 19.1299 2.92246 14.7863C2.92246 14.3809 2.84341 14.2431 2.41573 14.2633C1.62929 14.3018 0.838799 14.2633 -0.00439395 14.2633V13.7607C-0.00439395 12.4878 -0.00439395 11.2149 -0.00439395 9.93995C-0.00439395 9.2285 -0.089524 9.29742 0.62192 9.29134C1.25837 9.29134 1.89482 9.27309 2.53127 9.29134C2.84138 9.3035 2.91638 9.18391 2.91638 8.90014C2.91638 7.72657 2.90422 6.55096 2.97313 5.37941C3.05826 3.9099 3.46161 2.54174 4.57641 1.48167C5.38726 0.715243 6.44052 0.256372 7.55394 0.184449C9.43693 0.0527003 11.3321 0.0587803 13.2901 0Z" fill="#1977F5"/>
<path fill-rule="evenodd" clip-rule="evenodd" d="M45.5527 14.6668C44.6061 14.5188 43.7285 14.3688 42.8549 14.2472C41.3529 14.0445 39.849 13.8783 38.345 14.2026C37.3944 14.4053 36.839 15.0134 36.8208 15.9741C36.7823 17.9341 36.7843 19.9002 36.8208 21.8623C36.837 22.7703 37.3599 23.4352 38.2579 23.5547C39.3456 23.7043 40.4453 23.7477 41.5414 23.6845C42.7738 23.6034 43.998 23.346 45.2264 23.1676C45.3215 23.1613 45.417 23.1613 45.5121 23.1676C45.5329 23.2741 45.5471 23.3817 45.5547 23.4899C45.5547 24.8621 45.5547 26.2343 45.5547 27.6065C45.5547 27.8721 45.498 27.9957 45.2041 28.0606C43.0028 28.5571 40.7793 28.851 38.5153 28.7071C36.5228 28.5794 34.6337 28.0991 33.0892 26.7269C32.457 26.1768 31.9402 25.5068 31.5686 24.7556C31.197 24.0045 30.9781 23.1871 30.9245 22.3508C30.7702 20.2524 30.7445 18.1466 30.8475 16.0451C30.9752 13.6655 31.938 11.6426 34.0723 10.3474C35.2499 9.62991 36.5553 9.29344 37.9234 9.1475C40.3841 8.87995 42.788 9.21844 45.1899 9.75557C45.3257 9.78597 45.5304 9.95826 45.5324 10.0637C45.5608 11.5717 45.5527 13.0817 45.5527 14.6668Z" fill="#1977F5"/>
</g>
<defs>
<clipPath id="clip0">
<rect width="139.82" height="28.7456" fill="white"/>
</clipPath>
</defs>
</svg>
