<svg width="125" height="42" viewBox="0 0 125 42" fill="none" xmlns="http://www.w3.org/2000/svg">
<g clip-path="url(#clip0)">
<path d="M60.3982 0.322707H52.9528C52.87 0.322707 52.8287 0.363053 52.8287 0.443745C52.6219 3.71176 52.0014 7.26219 51.0914 10.1267V10.2478C51.1328 10.2881 51.1741 10.2881 51.2155 10.2881H53.78C53.8214 10.2881 53.9041 10.2478 53.9041 10.2074C54.6073 7.98841 55.1864 5.08351 55.3932 2.62242H57.8337V10.1671C57.8337 10.2478 57.875 10.2881 57.9578 10.2881H60.3982C60.4809 10.2881 60.5223 10.2478 60.5223 10.1671V0.48409C60.5223 0.403399 60.4809 0.322707 60.3982 0.322707ZM91.8759 0.322707H89.4355C89.3528 0.322707 89.3114 0.363053 89.3114 0.443745V7.94807C88.7737 8.10945 88.2359 8.1498 87.6569 8.1498C86.0437 8.1498 85.6714 7.66565 85.6714 5.56766V0.48409C85.6714 0.403399 85.63 0.363053 85.5473 0.363053H83.1068C83.0241 0.363053 82.9828 0.403399 82.9828 0.48409V5.89043C82.9828 9.27948 84.1409 10.6109 87.1605 10.6109C88.8564 10.6109 90.8005 10.1671 91.9173 9.76363C91.9587 9.76363 92 9.68294 92 9.64259V0.48409C92 0.403399 91.9587 0.322707 91.8759 0.322707ZM40.3782 0.363053H37.8964C37.8137 0.363053 37.7723 0.403399 37.7723 0.443745C37.4 1.93654 36.6141 4.43798 35.5387 7.06046L33.0569 0.403399C33.0569 0.363053 32.9741 0.322707 32.9328 0.322707H30.4509C30.4096 0.322707 30.3682 0.363053 30.3269 0.363053C30.2855 0.403399 30.2855 0.443745 30.3269 0.48409L34.0496 10.4092C33.6773 11.1757 33.305 11.8213 32.9741 12.4265C32.726 12.8703 32.4778 13.3141 32.2296 13.7982C32.1882 13.8386 32.2296 13.8789 32.2296 13.9192C32.2709 13.9596 32.3123 13.9999 32.3537 13.9999H35.0423C35.0837 13.9999 35.125 13.9596 35.1664 13.9192C35.6214 13.072 36.2005 11.8616 36.7382 10.6512C38.31 7.02011 39.5923 3.63106 40.5437 0.524436C40.5437 0.48409 40.5437 0.443745 40.5023 0.403399C40.4609 0.363053 40.4196 0.363053 40.3782 0.363053ZM49.23 7.98841C49.23 7.94807 49.1887 7.90772 49.1473 7.90772H49.0232C48.4441 8.10945 47.3273 8.31118 46.5414 8.31118C44.8455 8.31118 44.0596 7.86738 44.0596 5.32559C44.0596 3.3083 44.3078 2.34 46.5414 2.34C47.1619 2.34 47.7823 2.42069 48.5269 2.66276C48.6096 2.66276 48.6509 2.66276 48.6923 2.58207C48.9819 2.05758 49.3128 1.45239 49.685 0.645474V0.524436C49.685 0.48409 49.6437 0.443745 49.6023 0.443745C48.6096 0.120978 47.41 -0.0404053 46.3759 -0.0404053C42.8187 -0.0404053 41.2469 1.57343 41.2469 5.2449C41.2469 8.95671 42.8187 10.6109 46.3759 10.6109C47.2446 10.6109 49.0232 10.4092 49.8505 10.0864C49.9332 10.046 49.9332 10.0057 49.9332 9.92501L49.23 7.98841ZM72.3523 0.363053H69.8705C69.8291 0.363053 69.7464 0.403399 69.7464 0.443745C69.3741 1.93654 68.5882 4.43798 67.5128 7.06046L65.0309 0.403399C65.0309 0.363053 64.9482 0.322707 64.9069 0.322707H62.425C62.3837 0.322707 62.3423 0.363053 62.3009 0.363053C62.2596 0.403399 62.2596 0.443745 62.3009 0.48409L66.0237 10.4092C65.6514 11.1757 65.2791 11.7809 64.9482 12.4265C64.7 12.8703 64.4519 13.3141 64.2037 13.7982C64.1623 13.8386 64.2037 13.8789 64.2037 13.9192C64.245 13.9596 64.2864 13.9999 64.3278 13.9999H67.0164C67.0578 13.9999 67.0991 13.9596 67.1405 13.9192C67.5955 13.072 68.1746 11.8616 68.7123 10.6512C70.2841 7.02011 71.5664 3.63106 72.4764 0.524436C72.4764 0.48409 72.4764 0.443745 72.435 0.403399C72.435 0.363053 72.3937 0.363053 72.3523 0.363053ZM81.4523 0.322707H74.255C74.1723 0.322707 74.1309 0.363053 74.1309 0.443745V10.1671C74.1309 10.2478 74.1723 10.2881 74.255 10.2881H76.6955C76.7782 10.2881 76.8196 10.2478 76.8196 10.1671V2.66276H80.5837C80.625 2.66276 80.7078 2.62242 80.7078 2.58207C80.9973 1.93654 81.2868 1.21032 81.5764 0.524436V0.403399C81.535 0.363053 81.4937 0.322707 81.4523 0.322707Z" fill="#EE3F58"/>
<path d="M13.9468 8.39193C12.3336 8.39193 11.8373 7.94813 11.8373 5.32565C11.8373 2.50144 12.375 2.25937 13.9468 2.25937C15.5186 2.25937 16.0977 2.50144 16.0977 5.32565C16.0977 7.98847 15.56 8.39193 13.9468 8.39193ZM13.9468 0.0403458C10.4309 0.0403458 9.06591 1.4928 9.06591 5.2853C9.06591 9.11815 10.4309 10.6109 13.9468 10.6109C17.4627 10.6109 18.8691 9.11815 18.8691 5.2853C18.8691 1.53314 17.4627 0.0403458 13.9468 0.0403458ZM28.5482 7.98847C28.5482 7.94813 28.5068 7.90778 28.4655 7.90778H28.3414C27.7623 8.10951 26.6455 8.31124 25.8595 8.31124C24.1636 8.31124 23.3777 7.86743 23.3777 5.32565C23.3777 3.30836 23.6259 2.34006 25.8595 2.34006C26.48 2.34006 27.1005 2.42075 27.845 2.66282C27.8864 2.66282 27.9691 2.66282 28.0105 2.58213C28.3 2.05764 28.6309 1.45245 29.0032 0.645533V0.524496C29.0032 0.48415 28.9618 0.443804 28.9205 0.443804C27.9691 0.161383 26.7695 0 25.7355 0C22.1782 0 20.6064 1.61383 20.6064 5.2853C20.6064 8.99712 22.1782 10.6513 25.7355 10.6513C26.6041 10.6513 28.3827 10.4496 29.21 10.1268C29.2927 10.0865 29.2927 10.0461 29.2927 9.96542L28.5482 7.98847ZM8.32136 0.322767H1.12409C1.04136 0.322767 1 0.403458 1 0.48415V10.2075C1 10.2882 1.04136 10.3285 1.12409 10.3285H3.56455C3.64727 10.3285 3.68864 10.2882 3.68864 10.2075V2.66282H7.45273C7.49409 2.66282 7.53545 2.62248 7.57682 2.58213C7.86636 1.9366 8.15591 1.21037 8.44545 0.524496V0.403458C8.40409 0.363112 8.36273 0.322767 8.32136 0.322767Z" fill="#0065B1"/>
</g>
<path d="M1.09375 22.9785H8.97559V33H7.64258V24.1611H2.41992V33H1.09375V22.9785ZM10.4954 35.7822V25.7402H11.6164V26.6836C11.8808 26.3145 12.1793 26.0387 12.512 25.8564C12.8446 25.6696 13.248 25.5762 13.7219 25.5762C14.3417 25.5762 14.8886 25.7357 15.3625 26.0547C15.8365 26.3737 16.1942 26.8249 16.4358 27.4082C16.6773 27.987 16.7981 28.6227 16.7981 29.3154C16.7981 30.0583 16.6636 30.7282 16.3948 31.3252C16.1304 31.9176 15.7431 32.3734 15.2327 32.6924C14.7268 33.0068 14.1936 33.1641 13.633 33.1641C13.2229 33.1641 12.8538 33.0775 12.5256 32.9043C12.2021 32.7311 11.9355 32.5124 11.7258 32.248V35.7822H10.4954ZM11.6096 29.4111C11.6096 30.3454 11.7987 31.0358 12.177 31.4824C12.5552 31.929 13.0133 32.1523 13.551 32.1523C14.0979 32.1523 14.565 31.9222 14.9524 31.4619C15.3443 30.9971 15.5403 30.2793 15.5403 29.3086C15.5403 28.3835 15.3489 27.6908 14.9661 27.2305C14.5878 26.7702 14.1343 26.54 13.6057 26.54C13.0816 26.54 12.6168 26.7861 12.2112 27.2783C11.8101 27.766 11.6096 28.4769 11.6096 29.4111ZM17.3403 29.3701C17.3403 28.0257 17.714 27.0299 18.4614 26.3828C19.0858 25.8451 19.8468 25.5762 20.7446 25.5762C21.7427 25.5762 22.5584 25.9043 23.1919 26.5605C23.8253 27.2122 24.1421 28.1146 24.1421 29.2676C24.1421 30.2018 24.0008 30.9378 23.7182 31.4756C23.4402 32.0088 23.0324 32.4235 22.4946 32.7197C21.9614 33.016 21.3781 33.1641 20.7446 33.1641C19.7283 33.1641 18.9057 32.8382 18.2768 32.1865C17.6525 31.5348 17.3403 30.596 17.3403 29.3701ZM18.605 29.3701C18.605 30.2998 18.8078 30.9971 19.2134 31.4619C19.619 31.9222 20.1294 32.1523 20.7446 32.1523C21.3553 32.1523 21.8634 31.9199 22.269 31.4551C22.6746 30.9902 22.8774 30.2816 22.8774 29.3291C22.8774 28.4313 22.6723 27.7523 22.2622 27.292C21.8566 26.8271 21.3507 26.5947 20.7446 26.5947C20.1294 26.5947 19.619 26.8249 19.2134 27.2852C18.8078 27.7454 18.605 28.4404 18.605 29.3701ZM25.1423 25.7402H26.3728V31.9883H29.1755V25.7402H30.406V31.9883H33.2155V25.7402H34.4392V31.9883H35.2527V35.0576H34.2341V33H25.1423V25.7402ZM40.9423 30.6621L42.2138 30.8193C42.0133 31.5622 41.6419 32.1387 41.0996 32.5488C40.5573 32.959 39.8645 33.1641 39.0214 33.1641C37.9596 33.1641 37.1165 32.8382 36.4921 32.1865C35.8724 31.5303 35.5625 30.612 35.5625 29.4316C35.5625 28.2103 35.8769 27.2624 36.5058 26.5879C37.1347 25.9134 37.9505 25.5762 38.9531 25.5762C39.9238 25.5762 40.7168 25.9066 41.332 26.5674C41.9472 27.2282 42.2548 28.1579 42.2548 29.3564C42.2548 29.4294 42.2526 29.5387 42.248 29.6846H36.8339C36.8795 30.4821 37.1051 31.0928 37.5107 31.5166C37.9163 31.9404 38.4222 32.1523 39.0283 32.1523C39.4795 32.1523 39.8645 32.0339 40.1836 31.7969C40.5026 31.5599 40.7555 31.1816 40.9423 30.6621ZM36.9023 28.6729H40.956C40.9013 28.0622 40.7464 27.6042 40.4912 27.2988C40.0992 26.8249 39.5911 26.5879 38.9668 26.5879C38.4017 26.5879 37.9254 26.777 37.538 27.1553C37.1552 27.5335 36.9433 28.0394 36.9023 28.6729ZM43.5969 33V31.5986H44.9982V33C44.9982 33.515 44.9071 33.9297 44.7248 34.2441C44.5425 34.5632 44.2531 34.8092 43.8566 34.9824L43.5148 34.4561C43.7746 34.3421 43.966 34.1735 44.0891 33.9502C44.2121 33.7314 44.2805 33.4147 44.2941 33H43.5969ZM49.6374 25.7402H50.8679V27.1143C50.8679 27.7067 50.902 28.1374 50.9704 28.4062C51.0433 28.6706 51.2142 28.903 51.4831 29.1035C51.752 29.2995 52.0892 29.3975 52.4948 29.3975C52.9596 29.3975 53.5612 29.2744 54.2995 29.0283V25.7402H55.53V33H54.2995V30.0742C53.543 30.3112 52.8366 30.4297 52.1804 30.4297C51.6289 30.4297 51.1413 30.2907 50.7175 30.0127C50.2982 29.7301 50.0134 29.3861 49.863 28.9805C49.7126 28.5749 49.6374 28.1283 49.6374 27.6406V25.7402ZM61.8691 30.6621L63.1405 30.8193C62.94 31.5622 62.5686 32.1387 62.0263 32.5488C61.484 32.959 60.7913 33.1641 59.9482 33.1641C58.8863 33.1641 58.0432 32.8382 57.4189 32.1865C56.7991 31.5303 56.4892 30.612 56.4892 29.4316C56.4892 28.2103 56.8036 27.2624 57.4325 26.5879C58.0614 25.9134 58.8772 25.5762 59.8798 25.5762C60.8505 25.5762 61.6435 25.9066 62.2587 26.5674C62.8739 27.2282 63.1816 28.1579 63.1816 29.3564C63.1816 29.4294 63.1793 29.5387 63.1747 29.6846H57.7607C57.8062 30.4821 58.0318 31.0928 58.4374 31.5166C58.843 31.9404 59.3489 32.1523 59.955 32.1523C60.4062 32.1523 60.7913 32.0339 61.1103 31.7969C61.4293 31.5599 61.6822 31.1816 61.8691 30.6621ZM57.829 28.6729H61.8827C61.828 28.0622 61.6731 27.6042 61.4179 27.2988C61.026 26.8249 60.5178 26.5879 59.8935 26.5879C59.3284 26.5879 58.8521 26.777 58.4648 27.1553C58.082 27.5335 57.87 28.0394 57.829 28.6729ZM64.2365 25.7402H66.1505L68.0578 31.5508L70.1769 25.7402H71.9474V33H70.717V27.1553L68.5705 33H67.4699L65.4396 26.875V33H64.2365V25.7402ZM76.737 25.7402H77.9674V28.8779C78.3593 28.8779 78.6328 28.8027 78.7877 28.6523C78.9472 28.502 79.1797 28.0645 79.485 27.3398C79.7265 26.7656 79.9225 26.3874 80.0729 26.2051C80.2233 26.0228 80.3965 25.8997 80.5924 25.8359C80.7884 25.7721 81.1028 25.7402 81.5358 25.7402H81.7819V26.7588L81.4401 26.752C81.1165 26.752 80.9092 26.7998 80.818 26.8955C80.7223 26.9958 80.5765 27.2943 80.3805 27.791C80.1937 28.265 80.0228 28.5931 79.8678 28.7754C79.7129 28.9577 79.4736 29.124 79.15 29.2744C79.6787 29.4157 80.1982 29.9079 80.7086 30.751L82.0553 33H80.7018L79.3893 30.751C79.1204 30.2998 78.8857 30.0036 78.6852 29.8623C78.4847 29.7165 78.2454 29.6436 77.9674 29.6436V33H76.737V25.7402ZM87.4305 32.1045C86.9748 32.4919 86.535 32.7653 86.1112 32.9248C85.6919 33.0843 85.2408 33.1641 84.7577 33.1641C83.9602 33.1641 83.3472 32.9704 82.9188 32.583C82.4904 32.1911 82.2763 31.6921 82.2763 31.0859C82.2763 30.7305 82.356 30.4069 82.5155 30.1152C82.6796 29.819 82.8915 29.582 83.1513 29.4043C83.4156 29.2266 83.7118 29.0921 84.0399 29.001C84.2815 28.9372 84.646 28.8757 85.1337 28.8164C86.1272 28.6979 86.8586 28.5566 87.328 28.3926C87.3326 28.224 87.3348 28.1169 87.3348 28.0713C87.3348 27.57 87.2186 27.2168 86.9862 27.0117C86.6718 26.7337 86.2046 26.5947 85.5848 26.5947C85.0061 26.5947 84.5777 26.6973 84.2997 26.9023C84.0263 27.1029 83.8235 27.4606 83.6913 27.9756L82.4882 27.8115C82.5975 27.2965 82.7776 26.8818 83.0282 26.5674C83.2789 26.2484 83.6412 26.0046 84.1151 25.8359C84.5891 25.6628 85.1382 25.5762 85.7626 25.5762C86.3824 25.5762 86.886 25.6491 87.2733 25.7949C87.6607 25.9408 87.9455 26.1253 88.1278 26.3486C88.3101 26.5674 88.4377 26.8454 88.5106 27.1826C88.5516 27.3923 88.5722 27.7705 88.5722 28.3174V29.958C88.5722 31.1019 88.5972 31.8265 88.6473 32.1318C88.702 32.4326 88.8069 32.722 88.9618 33H87.6766C87.549 32.7448 87.467 32.4463 87.4305 32.1045ZM87.328 29.3564C86.8814 29.5387 86.2115 29.6937 85.3182 29.8213C84.8124 29.8942 84.4546 29.9762 84.245 30.0674C84.0354 30.1585 83.8736 30.293 83.7597 30.4707C83.6457 30.6439 83.5888 30.8376 83.5888 31.0518C83.5888 31.3799 83.7118 31.6533 83.9579 31.8721C84.2085 32.0908 84.5731 32.2002 85.0516 32.2002C85.5256 32.2002 85.9472 32.0977 86.3163 31.8926C86.6854 31.6829 86.9566 31.3981 87.1298 31.0381C87.2619 30.7601 87.328 30.3499 87.328 29.8076V29.3564ZM94.3849 25.7402V28.8779C94.7768 28.8779 95.0525 28.8027 95.212 28.6523C95.3715 28.502 95.604 28.0645 95.9093 27.3398C96.1964 26.6517 96.4539 26.2119 96.6818 26.0205C96.9051 25.8337 97.2605 25.7402 97.7482 25.7402H98.1993V26.7588L97.8644 26.752C97.5362 26.752 97.3266 26.7998 97.2355 26.8955C97.1398 26.9958 96.9939 27.2943 96.798 27.791C96.6157 28.265 96.4471 28.5931 96.2921 28.7754C96.1372 28.9577 95.8956 29.124 95.5675 29.2744C96.1007 29.4157 96.6202 29.9079 97.1261 30.751L98.4796 33H97.1261L95.8068 30.751C95.5379 30.2952 95.3032 29.9967 95.1027 29.8555C94.9021 29.7142 94.6629 29.6436 94.3849 29.6436V33H93.1271V29.6436C92.8536 29.6436 92.6167 29.7142 92.4161 29.8555C92.2156 29.9922 91.9809 30.2907 91.712 30.751L90.3927 33H89.0392L90.3859 30.751C90.8963 29.9079 91.4181 29.4157 91.9513 29.2744C91.5867 29.1058 91.3315 28.9235 91.1857 28.7275C91.0398 28.527 90.8211 28.0531 90.5294 27.3057C90.4292 27.055 90.3221 26.9001 90.2081 26.8408C90.0896 26.7816 89.9142 26.752 89.6818 26.752C89.6225 26.752 89.5017 26.7542 89.3195 26.7588V25.7402H89.4903C89.9643 25.7402 90.297 25.7699 90.4884 25.8291C90.6844 25.8838 90.8575 26.0046 91.0079 26.1914C91.1629 26.3737 91.3634 26.7565 91.6095 27.3398C91.9103 28.0553 92.1381 28.4906 92.2931 28.6455C92.4526 28.8005 92.7306 28.8779 93.1271 28.8779V25.7402H94.3849ZM103.841 30.6621L105.113 30.8193C104.912 31.5622 104.541 32.1387 103.998 32.5488C103.456 32.959 102.763 33.1641 101.92 33.1641C100.858 33.1641 100.015 32.8382 99.391 32.1865C98.7712 31.5303 98.4613 30.612 98.4613 29.4316C98.4613 28.2103 98.7757 27.2624 99.4046 26.5879C100.034 25.9134 100.849 25.5762 101.852 25.5762C102.823 25.5762 103.616 25.9066 104.231 26.5674C104.846 27.2282 105.154 28.1579 105.154 29.3564C105.154 29.4294 105.151 29.5387 105.147 29.6846H99.7328C99.7783 30.4821 100.004 31.0928 100.41 31.5166C100.815 31.9404 101.321 32.1523 101.927 32.1523C102.378 32.1523 102.763 32.0339 103.082 31.7969C103.401 31.5599 103.654 31.1816 103.841 30.6621ZM99.8011 28.6729H103.855C103.8 28.0622 103.645 27.6042 103.39 27.2988C102.998 26.8249 102.49 26.5879 101.866 26.5879C101.3 26.5879 100.824 26.777 100.437 27.1553C100.054 27.5335 99.8421 28.0394 99.8011 28.6729ZM105.046 25.7402H110.946V26.7588H108.608V33H107.384V26.7588H105.046V25.7402ZM116.205 30.3408L117.415 30.498C117.283 31.332 116.943 31.986 116.396 32.46C115.854 32.9294 115.186 33.1641 114.393 33.1641C113.4 33.1641 112.6 32.8405 111.994 32.1934C111.392 31.5417 111.092 30.6097 111.092 29.3975C111.092 28.6136 111.222 27.9277 111.481 27.3398C111.741 26.752 112.135 26.3122 112.664 26.0205C113.197 25.7243 113.776 25.5762 114.4 25.5762C115.189 25.5762 115.834 25.7767 116.335 26.1777C116.836 26.5742 117.157 27.1393 117.299 27.873L116.102 28.0576C115.988 27.57 115.786 27.2031 115.494 26.957C115.207 26.7109 114.858 26.5879 114.448 26.5879C113.828 26.5879 113.325 26.8112 112.937 27.2578C112.55 27.6999 112.356 28.4017 112.356 29.3633C112.356 30.3385 112.543 31.0472 112.917 31.4893C113.291 31.9313 113.778 32.1523 114.38 32.1523C114.863 32.1523 115.266 32.0042 115.59 31.708C115.913 31.4118 116.118 30.9561 116.205 30.3408ZM123.692 25.7402V33H122.469V30.1699H121.758C121.325 30.1699 121.001 30.2269 120.787 30.3408C120.578 30.4502 120.27 30.8079 119.864 31.4141L118.791 33H117.267L118.593 31.0449C118.998 30.4479 119.402 30.1107 119.803 30.0332C119.101 29.9375 118.579 29.6846 118.237 29.2744C117.9 28.8643 117.732 28.3926 117.732 27.8594C117.732 27.2305 117.953 26.7201 118.395 26.3281C118.841 25.9362 119.486 25.7402 120.329 25.7402H123.692ZM122.469 26.7588H120.719C119.985 26.7588 119.511 26.8727 119.297 27.1006C119.087 27.3285 118.982 27.5951 118.982 27.9004C118.982 28.3333 119.137 28.6523 119.447 28.8574C119.762 29.0579 120.316 29.1582 121.108 29.1582H122.469V26.7588Z" fill="#027BBD"/>
<defs>
<clipPath id="clip0">
<rect width="91" height="14" fill="white" transform="translate(1)"/>
</clipPath>
</defs>
</svg>
