<svg width="35" height="39" viewBox="0 0 35 39" fill="none" xmlns="http://www.w3.org/2000/svg">
<g clip-path="url(#clip0)">
<path d="M14.3627 19.6314H10.8083C10.772 19.6314 10.7539 19.6496 10.7357 19.686C10.6451 21.3053 10.3368 23.0337 9.90154 24.4528C9.90154 24.471 9.90154 24.4892 9.91967 24.5074C9.93781 24.5256 9.95594 24.5256 9.97408 24.5256H11.1891C11.2254 24.5256 11.2435 24.5074 11.2435 24.4892C11.5881 23.3976 11.8601 21.9784 11.9689 20.7776H13.1295V24.471C13.1295 24.5074 13.1658 24.5438 13.2021 24.5438H14.3627C14.3989 24.5438 14.4352 24.5074 14.4352 24.471V19.686C14.4352 19.6496 14.3989 19.6314 14.3627 19.6314ZM29.3964 19.6314H28.2357C28.1995 19.6314 28.1632 19.6678 28.1632 19.7042V23.3976C27.9093 23.4704 27.6554 23.5067 27.3653 23.5067C26.6036 23.5067 26.4223 23.2702 26.4223 22.2514V19.7042C26.4223 19.6678 26.386 19.6314 26.3497 19.6314H25.2072C25.171 19.6314 25.1347 19.6678 25.1347 19.7042V22.3787C25.1347 24.0526 25.6969 24.6894 27.1295 24.6894C27.9456 24.6894 28.8704 24.471 29.4145 24.2709C29.4326 24.2527 29.4508 24.2345 29.4508 24.2163V19.7042C29.4689 19.6496 29.4326 19.6314 29.3964 19.6314ZM4.80568 19.6314H3.62693C3.59066 19.6314 3.57252 19.6496 3.57252 19.686C3.39117 20.4137 3.01035 21.6509 2.50257 22.9427L1.32382 19.686C1.30568 19.6678 1.28755 19.6496 1.26941 19.6496H0.0725218C0.0543871 19.6496 0.0362524 19.6678 0.0181176 19.686C-1.70767e-05 19.7042 -1.70767e-05 19.7224 0.0181176 19.7406L1.79532 24.6166C1.61397 24.9987 1.45076 25.308 1.28755 25.5991C1.1606 25.8174 1.0518 26.0357 0.942988 26.2541C0.924853 26.2723 0.924853 26.2905 0.942988 26.3086C0.961123 26.3268 0.979258 26.345 0.997392 26.345H2.28496C2.30309 26.345 2.33936 26.3268 2.33936 26.3086C2.55698 25.8902 2.829 25.308 3.08288 24.7076C3.84454 22.9245 4.44299 21.2507 4.89636 19.7224C4.89636 19.7042 4.89636 19.686 4.87822 19.6678C4.84195 19.6314 4.82382 19.6314 4.80568 19.6314ZM9.03107 23.3976C9.03107 23.3794 9.01294 23.3612 8.9948 23.3612H8.9404C8.65024 23.4704 8.12433 23.5431 7.76164 23.5431C6.94558 23.5431 6.56475 23.3248 6.56475 22.0876C6.56475 21.0869 6.69169 20.6321 7.76164 20.6321C8.06993 20.6321 8.34195 20.6685 8.70465 20.7776C8.74092 20.7776 8.75905 20.7776 8.77718 20.7412C8.90413 20.4865 9.06734 20.1772 9.24869 19.7951V19.7406C9.24869 19.7224 9.23055 19.7042 9.21242 19.7042C8.74092 19.5586 8.17874 19.4677 7.67097 19.4677C5.98444 19.4677 5.22278 20.2682 5.22278 22.0694C5.22278 23.8888 5.98444 24.7076 7.67097 24.7076C8.08807 24.7076 8.9404 24.6166 9.33936 24.4528C9.37563 24.4346 9.39377 24.3983 9.37563 24.3619L9.03107 23.3976ZM20.0751 19.6314H18.8964C18.8601 19.6314 18.842 19.6496 18.842 19.686C18.6606 20.4319 18.2798 21.6509 17.772 22.9427L16.5932 19.686C16.5751 19.6678 16.557 19.6496 16.5388 19.6496H15.342C15.3238 19.6496 15.3057 19.6678 15.2875 19.686C15.2694 19.7042 15.2694 19.7224 15.2875 19.7406L17.0647 24.6166C16.8834 24.9987 16.7202 25.308 16.557 25.5991C16.43 25.8174 16.3212 26.0357 16.2124 26.2723C16.1943 26.2905 16.1943 26.3086 16.2124 26.3268C16.2306 26.345 16.2487 26.3632 16.2668 26.3632H17.5544C17.5725 26.3632 17.6088 26.345 17.6088 26.3268C17.8264 25.9084 18.0984 25.3262 18.3523 24.7258C19.0958 22.9427 19.7124 21.2689 20.1658 19.7406C20.1658 19.7224 20.1658 19.7042 20.1476 19.686C20.1114 19.6314 20.0932 19.6314 20.0751 19.6314ZM24.4274 19.6314H21C20.9637 19.6314 20.9274 19.6678 20.9274 19.7042V24.4892C20.9274 24.5256 20.9637 24.562 21 24.562H22.1606C22.1969 24.562 22.2331 24.5256 22.2331 24.4892V20.7958H24.0285C24.0466 20.7958 24.0829 20.7776 24.0829 20.7594C24.228 20.4319 24.3549 20.0863 24.5 19.7406V19.686C24.4637 19.6314 24.4456 19.6314 24.4274 19.6314Z" fill="#EF4058"/>
<path d="M6.18394 12.281C4.51554 12.281 3.86269 13.0088 3.86269 14.8464C3.86269 16.7204 4.51554 17.4481 6.18394 17.4481C7.87047 17.4481 8.52332 16.7204 8.52332 14.8464C8.52332 12.9906 7.87047 12.281 6.18394 12.281ZM6.18394 16.3747C5.42228 16.3747 5.18653 16.1746 5.18653 14.8646C5.18653 13.4818 5.44041 13.3545 6.18394 13.3545C6.9456 13.3545 7.19948 13.4818 7.19948 14.8646C7.19948 16.1746 6.96373 16.3747 6.18394 16.3747ZM13.1658 16.1746C13.1658 16.1564 13.1477 16.1382 13.1295 16.1382H13.0751C12.785 16.2473 12.2591 16.3201 11.8964 16.3201C11.0803 16.3201 10.6995 16.1018 10.6995 14.8646C10.6995 13.8639 10.8264 13.4091 11.8964 13.4091C12.2047 13.4091 12.4767 13.4454 12.8394 13.5546C12.8756 13.5546 12.8938 13.5546 12.9119 13.5182C13.0389 13.2635 13.2021 12.9542 13.3834 12.5721V12.5175C13.3834 12.4993 13.3653 12.4812 13.3471 12.4812C12.8756 12.3356 12.3135 12.2446 11.8057 12.2446C10.1192 12.2446 9.35751 13.0452 9.35751 14.8464C9.35751 16.6658 10.1192 17.4845 11.8057 17.4845C12.2228 17.4845 13.0751 17.3936 13.4741 17.2298C13.5104 17.2116 13.5285 17.1752 13.5104 17.1388L13.1658 16.1746ZM3.5 12.4084H0.0725389C0.0362694 12.4084 0 12.4448 0 12.4812V17.2662C0 17.3026 0.0362694 17.339 0.0725389 17.339H1.23316C1.26943 17.339 1.3057 17.3026 1.3057 17.2662V13.5546H3.0829C3.10104 13.5546 3.13731 13.5364 3.13731 13.5182C3.28238 13.1907 3.40933 12.845 3.5544 12.4993V12.4448C3.53627 12.4266 3.51813 12.4084 3.5 12.4084Z" fill="#1466AC"/>
<path d="M34.8186 24.0344V23.9617C34.8186 23.9253 34.8186 23.8707 34.8368 23.8343C34.8912 23.1611 34.9274 22.3424 34.9637 21.3963V21.3235C34.9819 20.6867 35 19.9953 35 19.2858C35 18.5762 34.9819 17.8848 34.9637 17.248V17.1753C34.9274 16.2474 34.8912 15.4104 34.8368 14.7372C34.8368 14.7009 34.8368 14.6463 34.8186 14.6099V14.5371C34.8186 14.4643 34.8005 14.4097 34.8005 14.337V14.2642C34.7461 13.5546 34.7098 13.118 34.6917 13.0816C34.6917 13.0088 34.6736 12.936 34.6736 12.8814V12.8269C34.6554 12.6995 34.6373 12.5903 34.601 12.463C34.601 12.4448 34.601 12.4266 34.5829 12.4084C34.2746 10.9347 33.4585 9.31539 32.443 8.09639C32.044 7.62334 31.6269 7.20487 31.1917 6.87738C31.1554 6.84099 30.6477 6.47711 29.8497 5.91309C28.9249 5.2763 27.601 4.38478 26.0958 3.51147C23.4119 1.92858 21.0363 0.818736 20.7098 0.691377C20.6917 0.691377 20.6917 0.673183 20.6917 0.673183C19.9844 0.363883 19.1321 0.145553 18.2072 0.0545824C18.0259 0.0363883 17.8446 0.0181941 17.6632 0.0181941C17.4819 0 17.3186 0 17.1554 0H16.9015C15.6684 0.0363883 14.5259 0.254718 13.6192 0.673183C13.4922 0.727765 11.0803 1.83761 8.34196 3.45688L8.23315 3.51147C5.42227 5.16713 3.22797 6.8046 3.1373 6.87738C2.44818 7.38682 1.8316 8.0418 1.26942 8.87873C1.14248 9.06067 1.14248 9.53372 1.68652 9.53372H3.08289C3.68134 9.53372 3.82642 9.16984 4.4974 8.6786C5.24092 8.13277 6.70984 7.04113 9.39377 5.44004C11.3342 4.29381 13.1477 3.38411 14.0363 2.96564C14.0544 2.96564 14.0725 2.94745 14.0907 2.94745C14.0907 2.94745 14.1088 2.94745 14.1088 2.92925C14.1088 2.92925 14.1269 2.92925 14.1269 2.91106C14.1451 2.91106 14.1632 2.89287 14.1632 2.89287C14.1813 2.89287 14.1995 2.87467 14.2176 2.87467C14.4352 2.76551 14.5803 2.71092 14.5803 2.71092C15.1969 2.43801 16.0673 2.25607 16.9922 2.23788H17.3549C17.6269 2.23788 17.899 2.25607 18.1528 2.29246C18.715 2.36524 19.2228 2.4744 19.6399 2.65634C19.6762 2.67454 19.7306 2.69273 19.7668 2.71092C19.7668 2.71092 19.785 2.72912 19.8394 2.74731C20.2565 2.92925 22.5052 4.00271 24.9534 5.44004C26.4041 6.29517 27.6917 7.15029 28.5803 7.76889C29.3601 8.31472 29.8316 8.6604 29.8497 8.6786C30.1943 8.93332 30.5388 9.2972 30.8653 9.69747C31.6813 10.7527 32.3523 12.1901 32.4611 13.2999C32.4611 13.3181 32.5155 13.7548 32.5699 14.5007C32.5699 14.5553 32.5699 14.5917 32.5881 14.6463V14.7554C32.5881 14.8282 32.6062 14.8828 32.6062 14.9556V15.0283C32.6062 15.0647 32.6062 15.1193 32.6243 15.1557C32.6243 15.2467 32.6425 15.3376 32.6425 15.4286C32.6425 15.4832 32.6425 15.5378 32.6606 15.5924V15.6288C32.6606 15.7015 32.6606 15.7561 32.6787 15.8289V15.9744C32.7331 16.9205 32.7694 18.0486 32.7694 19.2312C32.7694 20.4138 32.7331 21.5418 32.6787 22.4879V22.6335C32.6787 22.7063 32.6787 22.7609 32.6606 22.8336V22.87C32.6606 22.9246 32.6606 22.9792 32.6425 23.0338C32.6425 23.1247 32.6243 23.2157 32.6243 23.3067C32.6243 23.3613 32.6243 23.3976 32.6062 23.434V23.5068C32.6062 23.5796 32.5881 23.6342 32.5881 23.7069V23.8161C32.5881 23.8707 32.5881 23.9253 32.5699 23.9617C32.5155 24.7076 32.4611 25.1625 32.4611 25.1625C32.3523 26.2723 31.6813 27.7097 30.8653 28.7649C30.5388 29.1834 30.1943 29.5291 29.8497 29.7838C29.8316 29.7838 29.3601 30.1477 28.5803 30.6935C27.6917 31.3121 26.386 32.1672 24.9534 33.0223C22.5052 34.4779 20.2383 35.5331 19.8394 35.7151L19.7668 35.7515C19.7306 35.7696 19.6762 35.7878 19.6399 35.806C19.2228 35.9698 18.715 36.0971 18.1528 36.1699C17.899 36.2063 17.6269 36.2245 17.3549 36.2245H16.9922C16.0673 36.2063 15.1969 36.0426 14.5803 35.7515C14.5803 35.7515 14.4534 35.6969 14.2176 35.5877C14.1995 35.5695 14.1632 35.5695 14.1451 35.5513C14.1269 35.5331 14.1088 35.5331 14.0907 35.5149C14.0725 35.5149 14.0725 35.4967 14.0544 35.4967C14.0363 35.4967 14.0181 35.4785 14 35.4785C13.9819 35.4604 13.9637 35.4604 13.9275 35.4422H13.9093C12.9844 35.0783 11.2435 34.205 9.39377 33.1133C6.6917 31.5304 5.24092 30.4206 4.4974 29.8748C3.82642 29.3835 3.68134 29.0196 3.08289 29.0196H1.68652C1.14248 29.0196 1.14248 29.4927 1.26942 29.6746C1.8316 30.5115 2.44818 31.1665 3.1373 31.676C3.22797 31.7488 5.44041 33.3862 8.23315 35.0419C8.37823 35.1329 8.52331 35.2238 8.68652 35.2966C11.2798 36.7885 13.5104 37.8074 13.6373 37.8802C14.5259 38.2804 15.6865 38.517 16.9197 38.5534H17.1736C17.3368 38.5534 17.5 38.5534 17.6632 38.5352C17.8446 38.5352 18.0259 38.517 18.2072 38.4988C19.1321 38.4078 20.0026 38.1895 20.6917 37.8802C20.6917 37.8802 20.7098 37.8802 20.7098 37.862C21.0181 37.7164 23.4119 36.6066 26.0777 35.0419C27.5829 34.1504 28.9067 33.2771 29.8316 32.6403C30.6295 32.0762 31.1373 31.7124 31.1736 31.676C31.6088 31.3485 32.0259 30.93 32.4249 30.457C33.4404 29.238 34.2565 27.6187 34.5648 26.145C34.5648 26.1268 34.5648 26.1086 34.5829 26.0904C34.601 25.963 34.6373 25.8357 34.6554 25.7265V25.6719C34.6736 25.5991 34.6736 25.5264 34.6736 25.4718C34.6736 25.4354 34.728 24.9987 34.7824 24.2892V24.2164C34.8186 24.1618 34.8186 24.1072 34.8186 24.0344Z" fill="url(#paint0_linear)"/>
</g>
<defs>
<linearGradient id="paint0_linear" x1="18.0995" y1="0" x2="18.0995" y2="38.5866" gradientUnits="userSpaceOnUse">
<stop offset="0.398" stop-color="#1466AC"/>
<stop offset="0.659" stop-color="#EF4058"/>
</linearGradient>
<clipPath id="clip0">
<rect width="35" height="38.5897" fill="white"/>
</clipPath>
</defs>
</svg>
