<svg width="174" height="28" viewBox="0 0 174 28" fill="none" xmlns="http://www.w3.org/2000/svg">
<g clip-path="url(#clip0)">
<path d="M113.575 0.632717H99.3382C99.18 0.632717 99.1009 0.711807 99.1009 0.869989C98.7054 7.27635 97.5191 14.2364 95.7791 19.8518V20.0891C95.8582 20.1682 95.9372 20.1682 96.0163 20.1682H100.92C100.999 20.1682 101.157 20.0891 101.157 20.01C102.502 15.66 103.609 9.96544 104.005 5.1409H108.671V19.9309C108.671 20.0891 108.75 20.1682 108.908 20.1682H113.575C113.733 20.1682 113.812 20.0891 113.812 19.9309V0.94908C113.812 0.790898 113.733 0.632717 113.575 0.632717ZM173.763 0.632717H169.096C168.938 0.632717 168.859 0.711807 168.859 0.869989V15.5809C167.831 15.8973 166.803 15.9764 165.695 15.9764C162.611 15.9764 161.899 15.0273 161.899 10.9145V0.94908C161.899 0.790898 161.82 0.711807 161.662 0.711807H156.995C156.837 0.711807 156.758 0.790898 156.758 0.94908V11.5473C156.758 18.1909 158.973 20.8009 164.746 20.8009C167.989 20.8009 171.706 19.9309 173.842 19.14C173.921 19.14 174 18.9818 174 18.9027V0.94908C174 0.790898 173.921 0.632717 173.763 0.632717ZM75.2945 0.711807H70.5491C70.3909 0.711807 70.3118 0.790898 70.3118 0.869989C69.6 3.79635 68.0972 8.69999 66.0409 13.8409L61.2954 0.790898C61.2954 0.711807 61.1372 0.632717 61.0582 0.632717H56.3127C56.2336 0.632717 56.1545 0.711807 56.0754 0.711807C55.9963 0.790898 55.9963 0.869989 56.0754 0.94908L63.1936 20.4054C62.4818 21.9082 61.77 23.1736 61.1373 24.36C60.6627 25.23 60.1882 26.1 59.7136 27.0491C59.6345 27.1282 59.7136 27.2073 59.7136 27.2863C59.7927 27.3654 59.8718 27.4445 59.9509 27.4445H65.0918C65.1709 27.4445 65.25 27.3654 65.3291 27.2863C66.1991 25.6254 67.3063 23.2527 68.3345 20.88C71.34 13.7618 73.7918 7.11817 75.6109 1.02817C75.6109 0.94908 75.6109 0.869989 75.5318 0.790898C75.4527 0.711807 75.3736 0.711807 75.2945 0.711807ZM92.22 15.66C92.22 15.5809 92.1409 15.5018 92.0618 15.5018H91.8245C90.7172 15.8973 88.5818 16.2927 87.0791 16.2927C83.8363 16.2927 82.3336 15.4227 82.3336 10.44C82.3336 6.48544 82.8082 4.58726 87.0791 4.58726C88.2654 4.58726 89.4518 4.74544 90.8754 5.21999C91.0336 5.21999 91.1127 5.21999 91.1918 5.06181C91.7454 4.03363 92.3782 2.84726 93.09 1.26544V1.02817C93.09 0.94908 93.0109 0.869989 92.9318 0.869989C91.0336 0.237262 88.74 -0.0791016 86.7627 -0.0791016C79.9609 -0.0791016 76.9554 3.08453 76.9554 10.2818C76.9554 17.5582 79.9609 20.8009 86.7627 20.8009C88.4236 20.8009 91.8245 20.4054 93.4063 19.7727C93.5645 19.6936 93.5645 19.6145 93.5645 19.4564L92.22 15.66ZM136.432 0.711807H131.686C131.607 0.711807 131.449 0.790898 131.449 0.869989C130.737 3.79635 129.235 8.69999 127.178 13.8409L122.433 0.790898C122.433 0.711807 122.275 0.632717 122.195 0.632717H117.45C117.371 0.632717 117.292 0.711807 117.213 0.711807C117.134 0.790898 117.134 0.869989 117.213 0.94908L124.331 20.4054C123.619 21.9082 122.907 23.0945 122.275 24.36C121.8 25.23 121.325 26.1 120.851 27.0491C120.772 27.1282 120.851 27.2073 120.851 27.2863C120.93 27.3654 121.009 27.4445 121.088 27.4445H126.229C126.308 27.4445 126.387 27.3654 126.466 27.2863C127.336 25.6254 128.444 23.2527 129.472 20.88C132.477 13.7618 134.929 7.11817 136.669 1.02817C136.669 0.94908 136.669 0.869989 136.59 0.790898C136.59 0.711807 136.511 0.711807 136.432 0.711807ZM153.832 0.632717H140.07C139.912 0.632717 139.833 0.711807 139.833 0.869989V19.9309C139.833 20.0891 139.912 20.1682 140.07 20.1682H144.736C144.895 20.1682 144.974 20.0891 144.974 19.9309V5.21999H152.171C152.25 5.21999 152.408 5.1409 152.408 5.06181C152.962 3.79635 153.515 2.37272 154.069 1.02817V0.790898C153.99 0.711807 153.911 0.632717 153.832 0.632717Z" fill="#EE3F58"/>
<path d="M24.7555 16.4509C21.6709 16.4509 20.7218 15.5809 20.7218 10.44C20.7218 4.90364 21.75 4.42909 24.7555 4.42909C27.7609 4.42909 28.8682 4.90364 28.8682 10.44C28.8682 15.66 27.84 16.4509 24.7555 16.4509ZM24.7555 0.0790909C18.0327 0.0790909 15.4227 2.92636 15.4227 10.3609C15.4227 17.8745 18.0327 20.8009 24.7555 20.8009C31.4782 20.8009 34.1673 17.8745 34.1673 10.3609C34.1673 3.00545 31.4782 0.0790909 24.7555 0.0790909ZM52.6745 15.66C52.6745 15.5809 52.5955 15.5018 52.5164 15.5018H52.2791C51.1718 15.8973 49.0364 16.2927 47.5336 16.2927C44.2909 16.2927 42.7882 15.4227 42.7882 10.44C42.7882 6.48545 43.2627 4.58727 47.5336 4.58727C48.72 4.58727 49.9064 4.74545 51.33 5.22C51.4091 5.22 51.5673 5.22 51.6464 5.06182C52.2 4.03364 52.8327 2.84727 53.5445 1.26545V1.02818C53.5445 0.949091 53.4655 0.87 53.3864 0.87C51.5673 0.316364 49.2736 0 47.2964 0C40.4945 0 37.4891 3.16364 37.4891 10.3609C37.4891 17.6373 40.4945 20.88 47.2964 20.88C48.9573 20.88 52.3582 20.4845 53.94 19.8518C54.0982 19.7727 54.0982 19.6936 54.0982 19.5355L52.6745 15.66ZM13.9991 0.632727H0.237273C0.0790909 0.632727 0 0.790909 0 0.949091V20.01C0 20.1682 0.0790909 20.2473 0.237273 20.2473H4.90364C5.06182 20.2473 5.14091 20.1682 5.14091 20.01V5.22H12.3382C12.4173 5.22 12.4964 5.14091 12.5755 5.06182C13.1291 3.79636 13.6827 2.37273 14.2364 1.02818V0.790909C14.1573 0.711818 14.0782 0.632727 13.9991 0.632727Z" fill="#0065B1"/>
</g>
<defs>
<clipPath id="clip0">
<rect width="174" height="27.4445" fill="white"/>
</clipPath>
</defs>
</svg>
