<svg id="Layer_1" data-name="Layer 1" xmlns="http://www.w3.org/2000/svg" viewBox="0 0 590.76 544.93"><defs><style>.cls-1{fill:#e6e6e6;}</style></defs><title>кошелек</title><path class="cls-1" d="M330.44,210.6c.71-2.56.79-5.58,2.25-7.6,3.37-4.69,8.64-6.51,14.18-7.55,10.91-2.06,19.83-6.94,24-17.94,2.23-5.93,3.9-11.42-2.14-17.06-5.66-5.27-5.34-15.88-1-22.32s13.07-9.31,21.36-7,13.24,8.6,13.6,17.06c.38,9.16-3,16.15-11.47,20.41-1.1.56-2.53,2-2.5,3,.36,10.62-2.58,20.31-8.94,30.44,32.83-3.36,63.08,3.56,92.74,13.74,3.13-10-.35-16.2-9.84-18.31-2.27-.51-4.59-.81-6.88-1.21-15.86-2.76-28-17.31-27.72-33.18,0-2.91.31-5.41,4.13-5.45a3.48,3.48,0,0,0,2-1.22c4.12-4.28,4.34-13.41.51-18.67-4.08-5.58-11.17-7.16-17.91-4-6.43,3-9.73,9.51-7.85,16.06,1.71,5.94,5.27,10.15,11.56,11.93,1.31.37,3.21,2.92,2.94,4-3.07,12.42,1,22.87,8.12,32.71.9,1.24.93,3.1,1.37,4.67-1.44-.81-3.24-1.31-4.25-2.49-7.25-8.45-10.32-18.56-10.47-29.48,0-3.11-.62-4.53-3.47-5.95-9.46-4.7-13.32-16.59-9-26.62,3.79-8.88,14.52-13.27,24.44-10,12.81,4.21,16.57,21.37,6.48,31-2.78,2.66-3.09,5-2.47,8.31,2.34,12.57,9.39,20.62,21.93,23.7a82.07,82.07,0,0,1,10.55,3c9.31,3.67,14.45,14.12,11.13,22.67,1.14.54,2.3,1.12,3.48,1.63,11.88,5.2,24,10,35.61,15.65,24.81,12.05,47.63,27,66,48,14.19,16.23,23,34.61,20.8,56.92-.24,2.32-.21,4.82-1.13,6.87-2.61,5.79.12,8.79,4.61,12.08q19.54,14.32,38.5,29.43c27,21.63,42.54,50,47.58,84,5.88,39.63-.06,77.37-20.68,112.11-18,30.31-43.64,50.74-78.66,58.31a7.32,7.32,0,0,0-3.24,1.66c-1.85,1.67-3.17,4.16-5.26,5.26-15.64,8.22-32.5,12.79-49.9,15.08-49.44,6.51-99.13,9.51-149,7.71-43.58-1.58-87.13-4.27-130.07-12.6-33.11-6.42-65.09-16.28-92.7-36.28C120.61,591.83,101.13,549,105.13,496c2.09-27.73,14.42-51.64,30.71-73.68,17.33-23.45,38.41-43.33,60-62.72,2.7-2.43,3.94-4.46,3.17-8.4-3.78-19.35,1.58-36.69,13.3-52a147.31,147.31,0,0,1,18.45-20.28c27.49-24.64,56.33-47.4,90.78-61.88a190.27,190.27,0,0,1,47.86-13.49c3.56-.49,6.13-1.86,8-5,5.4-9.11,9.08-18.42,6-29.33-.32-1.15,1.79-4,3.29-4.46,7.43-2.43,12.83-10.37,11.48-17.72-1.38-7.58-8.35-12.57-16.64-11.79-5.78.55-9.45,4-11.23,9.28a15.76,15.76,0,0,0,2.56,15.11c.2.26.45.64.72.68,8.55,1.27,5.16,7.82,4.51,12-2.16,13.86-13.31,24.45-27.28,27-.82.15-1.66.2-2.48.34-7.14,1.21-14,2.85-15.56,12ZM419,216.11c-5.33-3-12.71-2.32-14.8,2.22-3,6.53-5.06,13.48-7.64,20.56,1.53.17,2.66.23,3.77.42,4.5.8,6.66-.51,8.44-5.39,2.35-6.4,6.8-12,10.35-18l-10.92,22.41c15.61,2.17,30.22,4.23,44.86,6.19a3.19,3.19,0,0,0,2.6-.78c4.41-6.55,8.68-13.2,13.62-20.8-12.51-2.3-24.22-4.67-36-6.51C428.57,215.7,423.73,216.16,419,216.11ZM184.55,611.86c.21-.39.42-.79.64-1.18,1.52.4,3.05.76,4.56,1.21,21.45,6.53,42.73,13.7,64.37,19.48,48.84,13,98.54,19.61,149.18,17.44,15.46-.67,30.94-1.47,46.35-2.91,22.53-2.11,45-4.93,67.5-7.31,20.05-2.12,40-5.09,59.2-11.15,9.38-3,18.34-7.19,27.5-10.85-4.93,3.57-9.82,7.68-15.46,9.66-9,3.16-12.11,11-16.27,18.41,2.46-.62,5.78-1.55,6.19-3.21.75-3,2.24-3.49,4.71-4,32.18-6.79,58.29-23.23,77.33-50.08,22.68-32,30.37-68,26.8-106.59-3.42-36.89-19.08-67.6-47.82-91.19-11.32-9.29-23.23-17.88-35-26.66-2.83-2.12-6.11-3.64-9.11-5.55a6.66,6.66,0,0,1-1.85-2.12c-1.3-2.15-2.5-4.36-3.88-6.79-3.9,3.09-6.46,2.21-9.3-.57-9.83-9.61-19.42-19.55-30-28.34-19.66-16.42-39-33.42-60.16-47.79-28-19.08-60.51-25.12-94.06-25.58-1.73,0-3.49,1.1-4.55,1.46-2.59-.59-4.71-1.56-6.78-1.46-5.95.29-11.87,1.31-17.82,1.51-15.71.55-30.43,5.08-44.75,11-26.16,10.81-48,28-67.6,48-25.89,26.36-51.15,53.33-76.74,80-15.71,16.35-31.14,32.92-43.59,52-12.87,19.74-21.44,41-22.26,64.8-1.4,40.63,13.27,74.53,43.81,101.31,7.54,6.61,16,12.12,24.2,18.2l6.94-8Zm54,32.49c.44.41.65.75.92.83,1.75.51,3.52,1,5.29,1.44,37.45,9.26,75.48,14.34,114,16.29a803.27,803.27,0,0,0,115.77-2.59c1.59-.14,3.31-1.71,4.47-3.05,2.39-2.77,4.45-5.84,6.65-8.78l1.29.78c-1.42,3.22-2.85,6.44-4.31,9.74,9.2.59,16.05-4.32,18.71-13.17a3.66,3.66,0,0,0-1-.17c-39.85,5-79.8,7.88-120,7-41.08-.85-81.76-4.92-121.56-15.27C249.66,635.06,243.46,635.75,238.59,644.35ZM437.06,213.52c-.85-.7-1.06-1-1.33-1.08-1.29-.35-2.58-.67-3.88-.95a170.37,170.37,0,0,0-83.48,2.67c-49.09,13.94-89.08,42.63-124.17,78.68a73.24,73.24,0,0,0-19,34.64c-1.77,7.61-2.58,15.29.25,23a10.2,10.2,0,0,0,1.49-4.32c.55-4,.8-8,1.58-11.86,4.28-21.4,16.24-38.42,31.22-53.56,33.56-33.92,83.38-59.29,131.17-66.22,12.94-1.88,26.16-2.23,39.27-2.53C418.85,211.79,427.59,212.93,437.06,213.52Zm113.29,49c-4.66,10.71-6.62,22.46-20.89,24l25.47,22.8c4.47-9.83,8.73-18.95,12.68-28.2a5.1,5.1,0,0,0-.91-4.61C561.59,271.83,556.18,267.46,550.35,262.55ZM321.81,249.62l-1.66-.94,6.8-14c-4.16,2.13-7.4,3.45-10.28,5.32-16.17,10.49-32.1,21.38-48.46,31.55-6.09,3.79-7.08,9.3-8.62,15.38a5.57,5.57,0,0,0,1.44-.37c1.47-1.08,2.91-2.21,4.36-3.33a210,210,0,0,1,52.13-30c5.89-2.31,11.9-3.78,12.87-11.6.26-2.12,2.26-4,3.36-6.06A28.79,28.79,0,0,0,335,231.9C329.14,237.62,328.47,246,321.81,249.62Zm80.41-31.28c-7,1.27-12.84,2.3-18.66,3.43-.93.18-2.24.6-2.56,1.29-2.46,5.31-4.72,10.71-7.19,16.42,6,0,11.13.17,16.24-.11a5.32,5.32,0,0,0,3.94-2.3C396.83,231.2,399.28,225.14,402.22,218.34Zm192.87,130c2.75-11.92,2.55-22.49-1.51-33.16-3.26,7.46-6.37,14.42-9.28,21.46a3.77,3.77,0,0,0,.5,3.39C587.84,342.79,591.14,345.23,595.09,348.37ZM527.76,642c-4.59.57-8.63,1.62-12.62,1.46-9.83-.39-11.63,7.5-15.53,13.35C512.57,659.09,520.27,651.67,527.76,642ZM498.17,263.25c5.61-7.42,10.9-14.39,16.62-21.94l-8.74-4.14c-4.2,8-8.12,15.43-12.16,23.09ZM250.73,275.1l-1.07-.92c-2.31,2.51-5.46,4.65-6.78,7.61-4.37,9.81-8.1,19.91-12,29.91-.54,1.37-.87,2.83-1.4,4.58,1-.2,1.19-.18,1.29-.27,8.76-8,10.49-19.62,15.2-29.7.9-1.92,1.48-4,2.31-5.95C249,278.57,249.9,276.85,250.73,275.1Zm330.16,59.74c3.19-7.21,6.11-14.21,9.38-21,1.88-3.94.68-6.89-2-10.07-3.49,8.14-6.65,16.1-10.32,23.81C576.43,330.76,576.74,332.71,580.89,334.84ZM236.31,287.71c-3.06,4.68-7.82,8-9.05,14.79-1.15,6.3-5.51,12-8,18.1-2,4.9-3.31,10.07-4.93,15.12l1.28.56c2-3,4.58-5.76,5.87-9C226.63,314.19,231.38,301,236.31,287.71Zm231.37-40.22.83,1.73c1.5-.29,3.67,0,4.41-.94,4.87-5.94,9.44-12.14,14.16-18.32-6.67-3.67-7-3.76-10.41,1.64C473.44,236.74,470.66,242.18,467.68,247.49Zm35.93,18.62c3.87,4,5.35,4.06,7.64.1,3.87-6.72,7.52-13.57,11.4-20.63l-4.41-2.27Zm63.94,55.2c4.08-9.29,8.24-18.31,11.9-27.52.67-1.69-.68-4.19-1.1-6.31l-1.58.14c-.66,1.65-1.27,3.33-2,5-3.08,7.13-5.79,14.46-9.47,21.27C563.39,317.41,563.83,319.18,567.55,321.31ZM463.16,247l13.59-20.95-4.9-1.63-14.62,20.92Zm-260,386.2c7.8,4.22,12.21,2.49,17-6.3C209.41,622.59,209.41,622.59,203.21,633.2ZM583.36,295.63c-4.25,9.36-8.5,18.46-12.4,27.7-.43,1,1.17,2.94,2.15,5.21,4.23-9.29,7.69-17.34,11.55-25.19C586.26,300.1,586.05,297.74,583.36,295.63ZM572.31,280.9c-5.21,10.79-9.82,20.15-14.14,29.63-.44,1,.89,2.74,1.41,4.14l1.61-.11c4.1-9.59,8.28-19.14,12.21-28.79C573.83,284.73,572.85,283.12,572.31,280.9ZM233,631.17c-9.3-3.95-11.09-3.18-17.17,7.19l9.72,2.95Zm324.62,6.36c-12-1.69-15.33,7.36-21.17,13.58C548.42,653.57,550.47,642.56,557.62,637.53ZM481,253.36l13.79-20.62-.62-1.42c-1.58.4-3.86.26-4.64,1.27-4.6,6-8.86,12.32-13.39,18.74Zm8.17,4.2c4.49-7.58,8.67-14.65,13.08-22.12l-4.3-1.92-12.68,21.8ZM206.94,622.64c-8.66-5-8.66-5-15.53,5.63l8.65,4Zm366.64,11.28c-11.21-.24-15,7.41-20.35,14.42C564.67,649.07,567.05,639.6,573.58,633.92ZM534,252.15c-4.42,8.41-8.74,16.36-12.7,24.47-.58,1.19.47,3.17,1,5.92,2.08-4.41,3.23-7.26,4.71-9.93,2.56-4.63,5.47-9.07,7.94-13.75C536.19,256.4,538.05,253.34,534,252.15Zm6.17,388.37c-9.51-.63-11.32,8.36-16.61,13C531.84,652.67,534.87,645.2,540.13,640.52Zm-298-6.69c-6.62-2.75-6.62-2.75-13.9,9.16,3-.22,6,.44,7.47-.76C238.27,640.11,239.91,636.85,242.12,633.83ZM513.77,274.42c.82,0,1.56.17,1.67,0q6.72-11.88,13.26-23.85c.22-.4-.53-1.33-.83-2-.76.41-1.91.62-2.22,1.25C521.67,257.87,517.81,266,513.77,274.42ZM293.54,245l-.8-1.23c-8.67,5.67-17.38,11.3-26,17.1-.77.53-.83,2.13-1.61,4.34Zm59.24-2.77c4.27-.38,12.13-11.32,12.65-17.84C359.45,228.7,357.32,235.86,352.78,242.24ZM188.09,626.61l7.35-8.83-5.24-2.31-6.62,8.67Zm157.18-397-2-1.18L334,246.32l1.16.68Q340.24,238.29,345.27,229.58Z" transform="translate(-104.62 -127.53)"/><path class="cls-1" d="M392.68,261.56c-8.83,1.22-17.71,2.19-26.48,3.74a55.39,55.39,0,0,0-13.05,4.08c-12.88,5.83-25.6,12-38.37,18.07A46.62,46.62,0,0,0,299,300.07c-16.37,19.53-33,38.82-49.62,58.16a28.47,28.47,0,0,1-6.71,5.86c13.26-21.94,31.83-39.52,48.28-59.25-17.78,14.1-35.8,27.26-50.59,44.45-15.5,18-34.65,31.93-54.69,44.69-6.2,3.95-11,10-16.44,15.23-1.91,1.83-3.63,3.87-5.43,5.81l-.94-.82c5.69-6.23,11-12.82,17.15-18.6,7.74-7.3,15.45-15,24.35-20.62,13.19-8.35,22.62-20.09,32.69-31.43,14.8-16.68,28.61-34.46,44.89-49.56,34.26-31.79,75.86-44.27,122.26-41.36a2.4,2.4,0,0,1,1.37.64c-24.66.67-48.93,3.39-72,12.9A182.13,182.13,0,0,1,392.68,261.56Z" transform="translate(-104.62 -127.53)"/><path class="cls-1" d="M549.65,617.82c-93.42,29-187.35,21.13-281.38,2.75,7.62,1.08,15.2,2.42,22.84,3.18,31.12,3.13,62.21,6.89,93.4,8.92,54.21,3.52,107.69-2.13,160.3-15.77,1.52-.4,3.12-.51,4.69-.76Z" transform="translate(-104.62 -127.53)"/><path class="cls-1" d="M607.15,606.9c43.75-38.46,66.34-85.81,61.23-146.17,6.9,17.1,5.53,53.53-7.34,83.5C649.66,570.74,632.91,592.56,607.15,606.9Z" transform="translate(-104.62 -127.53)"/><path class="cls-1" d="M126.13,493.42a129.8,129.8,0,0,0,14.44,69.23A149.91,149.91,0,0,0,175.78,607c1.15,1,1.63,2.8,2.42,4.22-1.6-.41-3.58-.34-4.73-1.28-34.35-28.09-52.37-63.52-48.55-108.67,0-.5.08-1,.16-1.5Q125.59,496.59,126.13,493.42Z" transform="translate(-104.62 -127.53)"/><path class="cls-1" d="M515.94,305.49c4.59,5.27,9,10.7,13.8,15.77,16.48,17.42,36.1,30.91,55.81,44.28,18.88,12.82,37.58,25.87,52.85,43.12a15.65,15.65,0,0,1,2.76,4c-6.57-5.9-12.71-12.37-19.78-17.58C603.31,381.78,584.84,369,566.51,356c-19.58-13.86-41.41-34.13-52.37-48.69Z" transform="translate(-104.62 -127.53)"/><path class="cls-1" d="M588.31,607.69c27.67-24.3,57-47.21,69.42-85.66C662.72,541,619.44,593.33,588.31,607.69Z" transform="translate(-104.62 -127.53)"/><path class="cls-1" d="M589.6,629.76c43.17-17.8,63.06-54.76,81.48-93.33C671.38,564.47,613.5,631.56,589.6,629.76Z" transform="translate(-104.62 -127.53)"/><path class="cls-1" d="M206.33,386.08c-11.58,11.93-22.88,24.16-34.83,35.71-17.89,17.29-28.27,38.3-33,62.46a119.58,119.58,0,0,1-4.32,16.05c.21-15.15,4.09-29.39,10.49-43,9.57-20.37,24.12-36.95,40-52.47,6.84-6.69,14-13.11,21-19.64Z" transform="translate(-104.62 -127.53)"/><path class="cls-1" d="M152.15,483.13c4.14-23.66,18.28-41.08,35.55-56.55l1.11.73c-6.62,8.88-13.89,17.36-19.67,26.76S158.91,474,153.89,484Z" transform="translate(-104.62 -127.53)"/><path class="cls-1" d="M142.66,533c1.05,33,21.59,51.42,48.54,64.46,11.9,5.75,24.79,9.48,37.24,14.1,1.37.51,2.81.86,4.22,1.29L232.3,614c-9.88-3.23-19.88-6.09-29.59-9.75-17.6-6.63-34-15.3-46.47-29.95A55.88,55.88,0,0,1,142.66,533Z" transform="translate(-104.62 -127.53)"/><path class="cls-1" d="M256.54,354.26l41.8-46.87,1.16,1c-12.63,16.79-25.11,33.71-41.11,47.56Z" transform="translate(-104.62 -127.53)"/><path class="cls-1" d="M184.57,421.88c-18.94,13.06-25.77,33.54-33,53.78-1.75,4.89-3.37,9.81-5.41,14.58C148.36,466.72,165.44,428.4,184.57,421.88Z" transform="translate(-104.62 -127.53)"/><path class="cls-1" d="M160.84,482.07c5.61-17.52,15.69-32.43,26.85-46.7l1.72,1-27,46.6Z" transform="translate(-104.62 -127.53)"/><path class="cls-1" d="M269,351.18l30-33.43,1.05.89c-8.1,12.78-17.14,24.77-29.41,34Z" transform="translate(-104.62 -127.53)"/><path class="cls-1" d="M423.81,255.82A157.36,157.36,0,0,1,477.09,277Z" transform="translate(-104.62 -127.53)"/><path class="cls-1" d="M175.06,478.35l18.4-32.61c.86,6-12.65,30.61-17.16,33.29Z" transform="translate(-104.62 -127.53)"/><path class="cls-1" d="M300.26,327c-.84,7.66-14.63,22.25-21.92,22.17Z" transform="translate(-104.62 -127.53)"/><path class="cls-1" d="M189.57,471.15l7.75-12.69,1.44.86q-3.78,6.51-7.55,13Z" transform="translate(-104.62 -127.53)"/></svg>