<svg width="12" height="13" viewBox="0 0 12 13" fill="none" xmlns="http://www.w3.org/2000/svg">
<g clip-path="url(#clip0)">
<path d="M2.67553 12.0244H0.641631C0.288015 12.0244 0 11.7467 0 11.405V5.98223C0 5.64081 0.288015 5.36304 0.641631 5.36304H2.67553C3.02915 5.36304 3.31716 5.64056 3.31716 5.98223V11.405C3.31716 11.7467 3.02915 12.0244 2.67553 12.0244ZM0.641631 5.99906L0.636022 11.405L2.67553 11.3882L2.68163 5.98223L2.67627 5.99906H0.641631Z" fill="#606060"/>
<path d="M9.80271 11.874H4.00853C3.96893 11.8739 3.92936 11.8717 3.89001 11.8672C2.98256 11.8184 2.67503 11.0573 2.69503 10.5578V5.92766C2.69506 5.85755 2.7182 5.78941 2.76088 5.73378C3.86684 4.29493 5.10962 2.57026 5.41568 2.14348C5.33593 1.34089 5.47372 0.745841 5.82612 0.37369C6.20022 -0.021872 6.66187 -0.00260599 6.71211 0.00178373C6.89363 0.0259204 7.06829 0.0869704 7.22532 0.181172C7.38235 0.275374 7.51843 0.400732 7.62517 0.549523C8.0122 1.07385 8.14169 1.90619 7.98952 2.89436C7.88436 3.56141 7.69209 4.21177 7.41763 4.82877H10.151C10.4061 4.82861 10.6547 4.90903 10.8614 5.05856C11.0681 5.20808 11.2223 5.41906 11.3019 5.6614C11.3816 5.90374 11.3827 6.16505 11.3051 6.40806C11.2275 6.65106 11.0751 6.86334 10.8697 7.0146C11.0552 7.25878 11.141 7.56438 11.1097 7.86947C11.0783 8.17456 10.9321 8.4563 10.7007 8.65758C10.8821 8.84966 10.9829 9.10401 10.9823 9.36822C10.9824 9.51999 10.9494 9.66996 10.8857 9.8077C10.822 9.94545 10.729 10.0677 10.6133 10.1659C10.7382 10.3194 10.817 10.5052 10.8405 10.7016C10.8641 10.8981 10.8315 11.0972 10.7465 11.2759C10.6616 11.4546 10.5277 11.6055 10.3604 11.7112C10.1932 11.8169 9.99936 11.873 9.8015 11.873L9.80271 11.874ZM3.33008 6.03667V10.5703C3.32666 10.7249 3.36178 11.2014 3.94342 11.2336L4.00853 11.238H9.80271C9.91176 11.238 10.0163 11.1947 10.0935 11.1176C10.1706 11.0405 10.2139 10.9359 10.2139 10.8268C10.2139 10.7178 10.1706 10.6132 10.0935 10.5361C10.0163 10.459 9.91176 10.4157 9.80271 10.4157C9.71834 10.4157 9.63742 10.3821 9.57776 10.3225C9.5181 10.2628 9.48458 10.1819 9.48458 10.0975C9.48458 10.0132 9.5181 9.93223 9.57776 9.87257C9.63742 9.81291 9.71834 9.77939 9.80271 9.77939H9.93636C10.0454 9.77939 10.15 9.73607 10.2271 9.65896C10.3042 9.58185 10.3475 9.47727 10.3475 9.36822C10.3475 9.25917 10.3042 9.15459 10.2271 9.07748C10.15 9.00037 10.0454 8.95705 9.93636 8.95705C9.92758 8.95705 9.91636 8.95705 9.90539 8.95705C9.82104 8.95705 9.74016 8.92355 9.68052 8.86391C9.62088 8.80427 9.58737 8.72338 9.58737 8.63904C9.58737 8.5547 9.62088 8.47381 9.68052 8.41418C9.74016 8.35454 9.82104 8.32103 9.90539 8.32103C10.0378 8.3212 10.1662 8.27566 10.269 8.19209C10.3717 8.10852 10.4425 7.99206 10.4693 7.86237C10.4961 7.73268 10.4773 7.59771 10.4161 7.48026C10.3549 7.36282 10.2551 7.27009 10.1334 7.21775C10.069 7.1903 10.0154 7.14228 9.98114 7.08118C9.94686 7.02009 9.93379 6.94936 9.94396 6.88005C9.95412 6.81074 9.98696 6.74675 10.0373 6.69807C10.0877 6.64939 10.1528 6.61877 10.2224 6.61099C10.3677 6.59295 10.5006 6.52022 10.5941 6.40761C10.6876 6.295 10.7347 6.15099 10.7257 6.0049C10.7168 5.85881 10.6525 5.72162 10.5459 5.62127C10.4393 5.52092 10.2986 5.46496 10.1522 5.46479H6.90501C6.84896 5.46507 6.79384 5.45049 6.74526 5.42253C6.69668 5.39457 6.65638 5.35423 6.62847 5.30562C6.60056 5.25702 6.58603 5.20188 6.58637 5.14583C6.58672 5.08978 6.60191 5.03482 6.63041 4.98655C6.63578 4.97729 7.16693 4.05179 7.36081 2.79755C7.48275 2.00179 7.39105 1.30309 7.11328 0.927283C6.98842 0.758279 6.83502 0.661949 6.64407 0.634635C6.50367 0.649956 6.37365 0.715835 6.27826 0.819978C6.12194 0.99069 5.95708 1.36845 6.05877 2.19152C6.06872 2.27072 6.04843 2.35075 6.00195 2.41564C5.98878 2.43491 4.58675 4.39516 3.33008 6.03667Z" fill="#606060"/>
</g>
<defs>
<clipPath id="clip0">
<rect width="11.3625" height="12.0242" fill="white"/>
</clipPath>
</defs>
</svg>
