<svg width="10" height="10" viewBox="0 0 10 10" fill="none" xmlns="http://www.w3.org/2000/svg">
<path fill-rule="evenodd" clip-rule="evenodd" d="M5 0C2.24 0 0 2.24 0 5C0 7.76 2.24 10 5 10C7.76 10 10 7.76 10 5C10 2.24 7.76 0 5 0ZM4.5 8.96498C2.525 8.71998 1 7.03998 1 4.99998C1 4.68998 1.04 4.39498 1.105 4.10498L3.5 6.49998V6.99998C3.5 7.54998 3.95 7.99998 4.5 7.99998V8.96498ZM7 6.99992C7.45 6.99992 7.82 7.28992 7.95 7.69492C8.6 6.98492 9 6.03992 9 4.99992C9 3.32492 7.965 1.88992 6.5 1.29492V1.49992C6.5 2.04992 6.05 2.49992 5.5 2.49992H4.5V3.49992C4.5 3.77492 4.275 3.99992 4 3.99992H3V4.99992H6C6.275 4.99992 6.5 5.22492 6.5 5.49992V6.99992H7Z" fill="black" fill-opacity="0.54"/>
</svg>
