<svg width="14" height="13" viewBox="0 0 14 13" fill="none" xmlns="http://www.w3.org/2000/svg">
<g clip-path="url(#clip0)">
<path d="M0.317737 12.0389C0.233654 12.0389 0.153015 12.0055 0.0935595 11.9461C0.0341039 11.8866 0.000701904 11.806 0.000701904 11.7219C0.000701904 7.00661 3.29836 3.44362 7.68612 3.39704V0.317656C7.6859 0.254747 7.7044 0.193195 7.73927 0.140833C7.77414 0.08847 7.82379 0.0476643 7.88192 0.0236078C7.94005 -0.000448623 8.00402 -0.00666829 8.06569 0.00574081C8.12737 0.0181499 8.18395 0.0486266 8.22825 0.0932923L13.6952 5.55971C13.7248 5.58918 13.7483 5.62421 13.7644 5.6628C13.7804 5.70139 13.7887 5.74277 13.7887 5.78456C13.7887 5.82636 13.7804 5.86774 13.7644 5.90633C13.7483 5.94492 13.7248 5.97995 13.6952 6.00941L8.22825 11.4763C8.18398 11.5214 8.12726 11.5521 8.06538 11.5647C8.00349 11.5773 7.93925 11.5711 7.8809 11.547C7.82255 11.5228 7.77274 11.4818 7.73786 11.4291C7.70299 11.3765 7.68463 11.3146 7.68515 11.2515V8.09234L7.63491 8.09112C6.66893 8.06819 5.75562 8.04576 4.31458 8.6969C2.41285 9.55558 1.21178 11.092 0.63526 11.8316L0.568195 11.9172C0.538462 11.9553 0.500445 11.986 0.457042 12.0071C0.413638 12.0281 0.365993 12.0391 0.317737 12.0389ZM7.77319 4.0316C4.00876 4.0316 1.10081 6.86053 0.686474 10.7557C1.39371 9.92456 2.49821 8.81957 4.05192 8.1177C5.62588 7.40754 6.65698 7.43388 7.65003 7.45607L8.00706 7.46339C8.0907 7.46454 8.17053 7.49858 8.22927 7.55814C8.28801 7.6177 8.32093 7.69799 8.32093 7.78164V10.4835L13.0204 5.78456L8.32141 1.08537V3.71359C8.32141 3.79767 8.28801 3.87831 8.22856 3.93777C8.1691 3.99722 8.08846 4.03063 8.00438 4.03063L7.77319 4.0316Z" fill="#606060"/>
</g>
<defs>
<clipPath id="clip0">
<rect width="13.7884" height="12.0393" fill="white"/>
</clipPath>
</defs>
</svg>
