<svg width="42" height="42" viewBox="0 0 42 42" fill="none" xmlns="http://www.w3.org/2000/svg">
<circle cx="21" cy="21" r="23" fill="#08296C"/>
<g clip-path="url(#clip0)">
<path d="M8.09753 27.8833H33.9023V30.09H8.09753V27.8833Z" fill="white"/>
<path d="M6.99162 29.3545H35.0083V31.5611H6.99162V29.3545Z" fill="white"/>
<path d="M5.88569 32.2964H36.1143V33.7675H5.88569V32.2964Z" fill="white"/>
<path d="M31.3218 17.2183H33.165V28.251H31.3218V17.2183Z" fill="white"/>
<path d="M27.6354 17.2183H29.11V28.251H27.6354V17.2183Z" fill="white"/>
<path d="M23.9494 17.2183H25.7927V28.251H23.9494V17.2183Z" fill="white"/>
<path d="M20.263 17.2183H22.1062V28.251H20.263V17.2183Z" fill="white"/>
<path d="M16.2078 17.2183H18.051V28.251H16.2078V17.2183Z" fill="white"/>
<path d="M12.89 17.2183H14.7332V28.251H12.89V17.2183Z" fill="white"/>
<path d="M9.20352 17.2183H10.6781V28.251H9.20352V17.2183Z" fill="white"/>
<path d="M6.9267 17.2183H35.1967L35.957 15.3045L21.0367 7.85742L6.15721 15.2927L6.9267 17.2183ZM21.0539 10.2921C21.3708 10.2921 21.6806 10.3859 21.9441 10.5615C22.2076 10.7372 22.413 10.9868 22.5342 11.2789C22.6555 11.571 22.6872 11.8924 22.6254 12.2025C22.5636 12.5126 22.411 12.7974 22.1869 13.021C21.9628 13.2445 21.6773 13.3967 21.3665 13.4584C21.0557 13.5201 20.7335 13.4885 20.4407 13.3675C20.1479 13.2465 19.8977 13.0416 19.7216 12.7787C19.5456 12.5158 19.4516 12.2068 19.4516 11.8906C19.4515 11.6807 19.4929 11.4728 19.5734 11.2788C19.6539 11.0849 19.7719 10.9086 19.9207 10.7602C20.0695 10.6117 20.2462 10.494 20.4406 10.4137C20.6351 10.3334 20.8435 10.2921 21.0539 10.2921Z" fill="white"/>
</g>
<defs>
<clipPath id="clip0">
<rect width="30.2286" height="25.9102" fill="white" transform="matrix(-1 0 0 1 36.1143 7.85742)"/>
</clipPath>
</defs>
</svg>
