<svg width="320" height="83" viewBox="0 0 320 83" fill="none" xmlns="http://www.w3.org/2000/svg">
<mask id="mask0" mask-type="alpha" maskUnits="userSpaceOnUse" x="0" y="0" width="320" height="83">
<rect width="320" height="83" fill="#48339A"/>
</mask>
<g mask="url(#mask0)">
<g clip-path="url(#clip0)">
<path d="M173.836 90.1086C140.216 76.0724 110.741 52.0151 74.8844 43.6494C51.1076 38.0951 13.1304 36.9938 -23 69.0748V115.247H319.014V80.3612C301.744 88.5027 283.489 94.3682 264.709 97.8108C234.42 103.358 202.476 102.065 173.836 90.1086Z" fill="#08296C"/>
<path d="M236.199 80.3067C207.141 80.2383 179.123 72.3925 152.925 60.1416C127.329 48.1642 102.683 33.9159 74.8844 27.4314C53.8506 22.52 21.7081 21.0904 -10.4412 43.034C24.109 23.1015 56.5935 27.4382 77.429 34.3195C104.537 43.2803 127.801 59.6901 152.214 73.9111C163.603 80.5664 175.44 86.4243 187.64 91.4427C202.326 97.4348 217.381 100.732 232.785 100.766C233.472 100.771 234.158 100.823 234.838 100.923C244.87 100.684 254.867 99.6525 264.736 97.8384C283.509 94.3848 301.754 88.5101 319.014 80.3615V62.7135C319.014 62.7135 263.929 80.3615 236.199 80.3067Z" fill="#005AA9"/>
<path d="M243.88 51.7279C215.151 56.1262 186.272 52.6718 158.5 44.5866C131.365 36.6929 104.824 26.3915 76.3551 24.2573C70.0009 23.7734 63.6176 23.8169 57.2707 24.3873C64.5212 24.4349 71.7511 25.1631 78.8655 26.5625C106.911 32.0347 132.008 45.4485 158.014 56.5092C184.623 67.8367 212.901 74.6975 241.945 73.7399C269.661 72.837 319.014 53.3353 319.014 53.3353V22C319.014 22 271.296 47.5279 243.88 51.7279Z" fill="#8DD7F7"/>
<path d="M238.914 58.3768C210.048 61.7559 181.305 57.296 153.835 48.2395C126.994 39.395 100.83 28.1701 72.4356 25.0304C66.0998 24.325 59.7165 24.1466 53.3512 24.4969C60.5986 24.7942 67.8016 25.7768 74.8639 27.4313C102.663 33.9159 127.308 48.1642 152.905 60.1416C179.103 72.3925 207.121 80.3067 236.178 80.3067C280.708 80.3067 319.014 62.7135 319.014 62.7135V31.3645C319.014 31.3645 266.453 55.1482 238.914 58.3768Z" fill="#00BCF1"/>
</g>
</g>
<defs>
<clipPath id="clip0">
<rect width="342.014" height="93.2467" fill="white" transform="translate(-23 22)"/>
</clipPath>
</defs>
</svg>
