<?xml version="1.0" encoding="utf-8"?>
<!-- Generator: Adobe Illustrator 24.0.1, SVG Export Plug-In . SVG Version: 6.00 Build 0)  -->
<svg version="1.1" id="Layer_1" xmlns="http://www.w3.org/2000/svg" xmlns:xlink="http://www.w3.org/1999/xlink" x="0px" y="0px"
	 viewBox="0 0 597.2 570.4" style="enable-background:new 0 0 597.2 570.4;" xml:space="preserve">
<style type="text/css">
	.st0{fill:#1E1E1E;}
</style>
<title>весы (а)</title>
<path class="st0" d="M14.2,435c-0.1-3.1,1.7-6,4.5-7.4c1.3-0.7,2.3-2.6,2.9-4.2c11.6-33.7,23.1-67.3,34.6-101
	c11-32.3,22-64.5,33-96.8c0.8-2.5,1.3-5.1,1.3-7.8c0.1-15.1,0-30.3,0-45.6c-3.3-1.1-6.5-2-9.5-3.4c-3.4-1.6-6.4-3.7-6.5-8
	s3-6.4,6.3-8.2c6.1-3.3,12.8-3.6,19.4-3.8c22.7-0.7,45.3-1.2,67.9-1.6c34.8-0.6,69.6-1.1,104.4-1.7c0.8,0,1.6-0.1,3-0.3
	c-0.2-2.7-0.1-5.3,0.1-8c0.7-4.7,1.8-9.4,2.6-14.1c0.2-1.7,0.4-3.4,0.4-5.2c0.1-2.1-0.7-4.8,0.3-6.3c3.2-4.9,1.4-10,1.4-15
	c0-13.3,0-26.6,0-39.9c0-1.3,0.2-2.8-0.3-3.9c-2.6-6.1-2.2-12.3-0.7-18.5c0.1-1.4-0.2-2.8-1-4c-6.6-12-1.3-25.2,11.8-29
	c5.6-1.7,11.6-1.6,17.2,0.2C319.8,5.4,325,18.6,318.5,30c-1,1.6-1.3,3.6-0.8,5.5c1.1,5.5,1.6,11.2-0.7,16.6
	c-0.5,1.2-0.7,2.5-0.6,3.9c2.1,16.1,1.1,32.3-0.5,48.4c0,0.2-0.1,0.4-0.1,0.5c2.9,6,1.6,12.7,3,19c0.9,4.2,1.8,8.4,2.3,12.7
	c0.2,2.9,0.2,5.7,0.1,8.6c0.9,0.2,1.8,0.3,2.7,0.4c30.5,0.4,61,0.6,91.4,1.3c29.5,0.6,58.9,1.5,88.3,2.7c5,0.4,9.8,1.8,14.1,4.2
	c6.6,3.4,6.5,10.3,0,14.1c-2.6,1.5-5.4,2.6-8.3,3.3c-2.2,0.6-3,1.6-3,3.8c0,15.2,0,30.3,0.1,45.5c0,2.4,1.1,4.8,1.9,7.2
	c22,64.7,44,129.4,66.1,194.1c1,3,2,5.7,5.2,7.3c1.7,0.9,2.4,3.7,3.9,6.3l3,0.7c11,2.7,13.9,12.2,5.9,20.5
	c-6.7,6.9-14.5,12.5-24,14.5c-10.5,2.4-21.2,4-32,5c-26.8,1.9-53.6,2-80.4,0c-9.1-0.6-18.1-2.3-27.2-3.8c-10.5-1.8-19.3-7-27.1-14
	c-2.9-2.6-5.2-5.6-5.6-9.7c-0.8-7,1.3-10.3,8.1-12.1c1.6-0.4,3.2-0.8,5-1.2c0.5-3.6,1.8-6.6,5.8-7.9c1.3-0.4,2.2-2.7,2.9-4.3
	c17.4-41.9,34.8-83.9,52.2-125.8c9.8-23.7,19.7-47.3,29.3-71c1.2-2.9,1.8-6,1.8-9.1c0.2-13,0.1-26,0.1-39v-5.3l-180.1,2.2v18.7
	c7.6,5.6,8.7,11.4,4.1,20.5c-1,1.9-1,4.5-1,6.8c0,74.3,0,148.7,0,223c0,7.5,0,15,0,22.5c0,4.1-0.3,8,2.8,11.7
	c2.3,2.8,1.9,6.8-0.5,9.8c-1.8,2.3-1.7,4.4-1.1,7c1.7,7.6,6.1,13,12.7,17.1c6.3,4,12.3,8.4,18.2,12.9c2.9,2.1,4.6,5.5,4.6,9.1
	c0.1,2.9,1.3,4.6,4.3,5.2c1.1,0.2,2.2,0.7,3.1,1.4c5.6,4.4,5.2,10.8,5.1,16.9c0.1,4.7-3.1,8.9-7.6,10.1c-4.1,1.5-8.3,2.4-12.6,2.6
	c-28,0.3-56,0.3-84,0.3c-9,0-18,0-27-0.3c-3.7-0.2-7.3-0.9-10.7-2c-6.9-2.2-9.6-6.3-9.2-13.6c0.1-3,0.6-5.9,1.4-8.8
	c0.9-3.5,3.7-6.2,7.2-6.9c2.8-0.6,3.9-2.2,4-4.8c0.2-4.9,2.8-8.3,6.8-10.9c6.6-4.4,13-9,19.5-13.7c5.6-4,8.5-9.8,9.5-16.4
	c0.2-1.5-0.6-3.5-1.4-4.9c-2.2-3.8-2.7-7.8,0.1-11.2c2.3-2.7,2.2-5.4,2.2-8.4c0-74,0-148,0-222c0-7.5,0-15,0-22.5
	c0-4.4,0-8.6-2.5-12.9c-3.2-5.5-0.8-12.1,4.4-16.5c0.8-0.8,1.2-1.8,1.3-2.9c0.1-5.5,0.1-11,0.1-16.9l-179.9-2.2
	c-0.1,1.6-0.3,3.2-0.3,4.8c0,13.3-0.1,26.7,0.1,40c0.1,2.5,0.6,4.9,1.5,7.2c27.4,66.3,54.8,132.5,82.3,198.7c0.7,2,2.1,3.7,3.9,4.7
	c2.3,1.3,3.6,4.2,5.4,6.3l-0.8,0.7c1.3,0.3,2.5,0.7,3.8,1c10.3,2.6,13.2,11.7,5.9,19.6c-6.2,6.7-13.4,12.4-22.4,14.4
	c-11.3,2.5-22.8,5.2-34.4,5.8c-21.8,1.1-43.6,1.2-65.4,0.9c-16.4-0.3-32.9-1.4-48.8-6.4c-8.3-2.6-15.1-7.6-21.4-13.3
	c-1.5-1.3-2.7-3-3.4-4.8c-3.1-8.5-0.9-14.2,7.6-15.9C10.5,435.9,12.1,435.5,14.2,435z M506.7,237.6l-1.2,0.1l-11.1,196.5h74.2
	c3.4-3.9,2.5-7.7,1.1-11.8c-17.5-50.9-34.8-101.9-52.1-152.9L506.7,237.6z M102.5,434.2c-3.8-65.8-7.5-131-11.2-196.2l-1.1,0
	c-0.6,1.5-1.3,3-1.8,4.5C68.1,302.3,47.7,362,27.3,421.8c-1.5,4.4-2.7,8.4,0.7,12.4H102.5z M500.5,239.7l-1.1-0.2
	c-0.5,1.2-1,2.3-1.5,3.5c-25,60.2-50,120.5-75,180.7c-1.6,3.8-2.5,7.1,0.2,10.5h66.3C493.2,369.1,496.9,304.3,500.5,239.7
	L500.5,239.7z M173.8,434.3c1.7-3,1.9-6.6,0.5-9.8c-25-60-50-120-74.8-180.1c-0.7-1.8-1.6-3.5-2.4-5.2l-0.8,0.3
	c3.7,64.8,7.4,129.8,11.1,194.7H173.8z M303.4,473l1.8-0.4V221l-25.6-1.7v253.4h18.9c0.4-81,0.8-161.8,1.2-242.4h1.4
	c0.6,20.6,1.6,41.1,1.7,61.7c0.3,42.8,0.3,85.6,0.3,128.4c0,15.8-0.5,31.6-0.6,47.5C302.6,469.6,302.9,471.3,303.4,473L303.4,473z
	 M187.6,449.2c-60.7,6-120.2,7.3-180.8-1.7c2.1,2.4,3.3,4.1,4.8,5.5c8.4,8.3,19.2,10.5,30.2,11.2c15.3,1,30.6,1.6,45.9,1.7
	c17.1,0.2,34.3-0.2,51.5-0.4c16.1-0.2,31.5-3.2,44.7-13.2C184.9,451.7,185.8,450.8,187.6,449.2L187.6,449.2z M410.3,449.8
	c7.3,7.2,16.7,11.9,26.9,13.5c11.3,1.7,22.8,2.6,34.2,2.7c24.3,0.2,48.6,0,72.9-0.9c9.9-0.4,19.8-2.4,29.4-4.8
	c6.6-1.7,11.9-6.3,15.9-12.7C529.5,456.5,470,455.2,410.3,449.8L410.3,449.8z M238.5,545.7c24.5,6.2,82.9,6.8,105,1.7
	c-2.6-0.2-5.3-0.2-7.9-0.2c-8.7,0.3-8.7,0.3-10.4-8.3c-1.2-6.2-3.4-7.9-9.9-7.6c-4.5,0.2-9,0.7-13.5,0.5
	c-17.1-0.8-34.2-1.9-51.3-2.8c-4.8-0.3-6.7,1.2-7.9,5.6C241.6,538.3,239.9,541.8,238.5,545.7z M305.1,196.2c0.1-1.1,0.3-1.7,0.3-2.4
	c0-20.2,0-40.3,0-60.5c0-2.2-0.3-4.3-1.1-6.4c-0.6-1.2-1.7-2.2-3.1-2.5c-3.9-0.6-7.8-0.6-11.6-1.1c-2.4-0.3-4,0.2-4.6,2.6
	c-0.8,3.4-2,6.8-2.1,10.1c-0.2,18.7-0.1,37.3-0.1,56c0,1.3,0.2,2.6,0.3,4.1L305.1,196.2z M279.1,493.6c-1.4,3.9-2.3,7.2-3.7,10.4
	c-3.1,7.3-9,11.8-15.7,15.5c-2.6,1.5-5.1,3.2-7.6,4.8l0.5,1.2c26.8,3.8,53.9,4.1,80.8,0.9v-1h-7.8c-12.2,0-12.4,0.1-16.3-11.8
	c-1.7-5.2-2.5-10.7-3.8-16c-0.2-0.9-1.3-1.5-1.9-2.3c-0.7,0.7-1.3,1.6-1.7,2.5c-0.1,1.2-0.1,2.3,0.1,3.5c0.3,3.4,0.7,6.9,1,10.3
	l-0.8,0.1c-0.9-5.4-1.7-10.7-2.6-16.4L279.1,493.6z M113.9,162.6l-10.6-1.8c48.6-0.6,97.1,1.5,146.1-0.1c-0.5-2.9-1-5.1-1.4-7.6
	c-3.1,0-5.9,0-8.7,0c-29.1,0.6-58.3,1.2-87.4,1.8c-18.3,0.4-36.6,0.8-54.9,1.4c-4.9,0.1-9.9,0.7-14.6,4.5
	C92.8,166.9,103.4,163.9,113.9,162.6L113.9,162.6z M483.1,162.6c8.5,3.6,26.3,2.3,30.7-2.5c-4.5-3.1-9.5-3.7-14.6-3.9
	c-20.1-0.6-40.2-1.3-60.4-1.8c-28.1-0.6-56.3-1-84.4-1.4c-6.3-0.1-7,0.9-5.7,7.8h145L483.1,162.6z M332.5,562.9c0-2,0-3.7,0-5.3
	c0.1-3.5-1.4-4.9-4.9-4.2c-0.8,0.1-1.7,0.1-2.5,0.1c-26.6,1.6-53.3,0.9-79.8-2c-4.9-0.5-9.7-0.9-14.5-1.4c-1.4,9,0,11.1,8,12.2
	c3.3,0.5,6.6,0.8,9.9,0.8c26,0.1,52,0.1,78,0C328.5,563.1,330.2,563,332.5,562.9z M287.6,57.3c-2.7,16.7-1.1,32.6,1,49.1
	c2.6,0,4.9-0.2,7.2,0c3.1,0.3,4.6-0.8,4.8-4c0.5-10.1,1.4-20.2,1.8-30.3c0.1-4.5-0.8-9.1-1.2-13.6L287.6,57.3z M313.2,15.5
	c-0.4-1.2-0.9-2.3-1.5-3.4c-5.4-7.8-21.4-7.9-26.9-0.2c-3,4.2-2.7,8.8-0.8,13.3s5.4,6,10,5.3c1.2-0.1,2.3-0.1,3.5,0
	c5.6,0,9.7-3.4,9.6-9.1c-0.1-3.9-1.6-7.8-2.6-12.3L313.2,15.5z M317.1,472.2c1.1-77.1,2-154.1-0.4-231.2
	C315.8,318,315.5,395.1,317.1,472.2L317.1,472.2z M323.9,482.8c0.1-3.5-1.7-5.6-5.5-5.7c-10-0.2-19.9-0.5-29.9-0.6
	c-3.8,0-7.6,0.2-11.4,0.6c-3.1,0.3-5,2.2-4.8,5.3c0.1,2.9,2.2,4.3,5,4.6c1.1,0.1,2.3,0.1,3.5,0.1h18.9c7.4,0,7.4,0,8.4-7.8
	C313.3,480.6,319.7,475.4,323.9,482.8L323.9,482.8z M99.5,442.2c-1.1-0.1-2.2-0.3-3.4-0.3c-20.1,0-40.3-0.1-60.4,0
	c-7.6,0.1-15.3,0.7-22.9,1.2c-1.6,0.1-3.1,0.9-4.6,1.4l0.2,1.3c2.1,0.2,4.2,0.5,6.3,0.5c7.3,0.1,14.7,0.1,22,0.1
	c19.3,0,38.6,0,57.9-0.1C97.3,446.3,100.1,446.5,99.5,442.2z M588.6,445.8c0-0.8,0-1.6,0.1-2.3c-30.4-3-60.8-0.9-91.2-1.6
	c-0.7,5,2.4,4.5,5,4.5c26.5,0,52.9,0,79.4,0C584.1,446.3,586.3,446,588.6,445.8L588.6,445.8z M111.7,442.5c-0.3,3.5,1.7,3.9,4.6,3.9
	c23.4-0.1,46.9,0,70.4-0.1c2,0,4.1-0.4,6.9-0.7C187.7,441.8,125.8,439.8,111.7,442.5L111.7,442.5z M404.1,443.9l0.1,1.8
	c2,0.2,4.1,0.6,6.1,0.6c8.7,0.1,17.3,0.1,26,0.1c14.8,0,29.6-0.1,44.4-0.1c2.8,0,4.9-0.4,4.3-4.5h-5c-10.2,0-20.3,0-30.4,0
	c-11,0.1-22,0.1-32.9,0.4C412.4,442.4,408.3,443.3,404.1,443.9L404.1,443.9z M308.7,202.3h-32.2c-0.7,7.8,0.4,9.1,7.6,9.1
	c6.5,0,13,0,19.5,0c1.2-0.1,2.3-0.3,3.5-0.5c0-0.4,0-0.9,0-1.3h-17.8c0-0.3,0-0.7,0-1l19.5-1.4L308.7,202.3z M300.9,35.9
	c-4,0-8-0.4-11.9,0.1c-7.4,0.9,1.1,8-3.6,10.1c1.1,1.3,2.1,3.6,3.3,3.7c4.2,0.5,8.4,0.2,12.8,0.2c-1.5-6.4-1.5-6.4-9.8-7.3
	C296.4,41.7,301.3,42.4,300.9,35.9z M314.9,189.3l1,0.2c0.2-0.6,0.3-1.3,0.3-1.9c0.3-18.1,0.6-36.2,0.7-54.3c0-2.1-1.1-4.3-1.6-6.4
	l-0.3,0.2L314.9,189.3z M310.2,99.1c3.3-12.8,4.4-25.7,0-38.5V99.1z M366,552.2c0.6-3,1.3-6-2.6-7.2c-5.1-1.4-7.6-4.8-8.3-9.9
	c-0.3-2.5-1-5.1-3.9-5.5c0.6,2.5,1.3,4.8,1.6,7.1c0.8,4.8,3.1,8.6,7.9,9.9C363.6,547.5,365.4,549,366,552.2L366,552.2z M302.1,115.3
	c-1.1-4.3-1.2-4.7-5.2-4.3c-3.9,0.4-9.2-2.5-11.5,4.3H302.1z M310.9,49.6c0.4-4,1-7.2,1.1-10.5c0-1-1.2-2-1.8-3
	c-1.1,2.5-2,4.5-2.7,6.2L310.9,49.6z"/>
<path class="st0" d="M312.7,535.7c-13.3,2.6-44.9,1.5-57.9-2L312.7,535.7z"/>
<path class="st0" d="M300.1,189.1c-0.3-10.1-0.8-20.3-0.8-30.4c0-10,0.5-19.9,0.8-30.6C303.4,136.8,303.6,176.5,300.1,189.1z"/>
<path class="st0" d="M313.4,557.9c-23.4,0.8-46.9,0.7-70.1-3.4l70,2.4L313.4,557.9z"/>
</svg>
