<svg id="Layer_1" data-name="Layer 1" xmlns="http://www.w3.org/2000/svg" viewBox="0 0 597.15 570.43"><defs><style>.cls-1{fill:#eaeaea;}</style></defs><title>весы (а)</title><path class="cls-1" d="M117,550.74a8.09,8.09,0,0,1,4.5-7.43c1.34-.74,2.32-2.64,2.86-4.21q17.35-50.48,34.55-101,16.51-48.39,33-96.8a25.49,25.49,0,0,0,1.29-7.79c.11-15.15,0-30.31,0-45.61-3.3-1.15-6.5-2-9.47-3.37-3.38-1.56-6.45-3.66-6.52-8s3-6.41,6.27-8.23c6.07-3.34,12.8-3.61,19.42-3.81q34-1,67.93-1.6c34.8-.63,69.6-1.13,104.4-1.7.8,0,1.6-.13,3-.25a59.26,59.26,0,0,1,.07-8c.66-4.73,1.76-9.39,2.57-14.1a42.37,42.37,0,0,0,.38-5.17c.09-2.14-.67-4.8.33-6.34,3.19-4.92,1.35-10,1.35-15,0-13.29,0-26.59,0-39.88,0-1.31.23-2.77-.25-3.91-2.56-6.13-2.17-12.26-.68-18.53a6.46,6.46,0,0,0-1-4c-6.64-12-1.33-25.18,11.84-29a29.45,29.45,0,0,1,17.24.18c12.52,3.94,17.68,17.16,11.14,28.53a7,7,0,0,0-.79,5.5c1.14,5.51,1.64,11.16-.66,16.65a8,8,0,0,0-.6,3.85c2.06,16.14,1.06,32.25-.53,48.35,0,.17-.12.37-.06.49,2.86,6,1.65,12.71,3,19,.89,4.19,1.77,8.41,2.3,12.66a70.34,70.34,0,0,1,.07,8.62,23.32,23.32,0,0,0,2.73.38c30.47.43,60.95.65,91.43,1.3q44.19.93,88.35,2.7a35.23,35.23,0,0,1,14.15,4.18c6.62,3.42,6.45,10.3,0,14.15a32.42,32.42,0,0,1-8.29,3.3c-2.21.58-3,1.59-3,3.77.05,15.16,0,30.33.13,45.49,0,2.41,1.11,4.84,1.91,7.2q33,97,66.11,194.08c1,3,2,5.66,5.24,7.33,1.69.87,2.37,3.71,3.86,6.27l3,.72c11,2.65,13.92,12.22,5.91,20.46-6.7,6.89-14.51,12.53-24.05,14.53a244.64,244.64,0,0,1-32,5,558.52,558.52,0,0,1-80.37.05c-9.09-.63-18.14-2.3-27.15-3.84-10.47-1.79-19.32-7-27.15-14-2.91-2.61-5.18-5.58-5.65-9.67-.81-7,1.33-10.28,8.08-12.11,1.6-.43,3.22-.79,5-1.24.55-3.59,1.75-6.57,5.75-7.89,1.29-.43,2.21-2.68,2.87-4.27q26.16-62.89,52.2-125.83c9.81-23.66,19.65-47.31,29.31-71a25.78,25.78,0,0,0,1.85-9.13c.2-13,.08-26,.08-39v-5.31l-180.07,2.18V309.3c7.63,5.65,8.68,11.44,4.11,20.47-1,1.93-1,4.49-1,6.76q-.07,111.48,0,223c0,7.5,0,15,0,22.5,0,4.1-.28,8,2.82,11.71,2.33,2.75,1.89,6.82-.46,9.79-1.83,2.3-1.72,4.42-1.14,7,1.73,7.6,6.14,13,12.71,17.12,6.28,4,12.25,8.44,18.22,12.88a11.29,11.29,0,0,1,4.58,9.06c.09,2.94,1.33,4.63,4.29,5.17a7.55,7.55,0,0,1,3.15,1.44c5.65,4.41,5.2,10.84,5.15,16.94A10.36,10.36,0,0,1,469,683.25a43.18,43.18,0,0,1-12.61,2.58c-28,.29-56,.28-84,.32-9,0-18,0-27-.3a41,41,0,0,1-10.74-2c-6.9-2.21-9.59-6.31-9.21-13.57a41.84,41.84,0,0,1,1.37-8.83,9.21,9.21,0,0,1,7.24-6.88c2.78-.58,3.9-2.15,4-4.84.23-4.89,2.79-8.26,6.82-10.94,6.6-4.41,13.05-9.05,19.49-13.68,5.6-4,8.47-9.79,9.5-16.41.24-1.55-.56-3.48-1.4-4.94-2.2-3.84-2.69-7.84.15-11.18,2.27-2.67,2.2-5.41,2.2-8.37q0-111,0-222c0-7.5,0-15,0-22.5,0-4.43.05-8.62-2.45-12.91-3.22-5.5-.81-12.12,4.44-16.5a4.24,4.24,0,0,0,1.29-2.88c.12-5.48.06-11,.06-16.9l-179.9-2.2c-.1,1.59-.29,3.19-.3,4.79,0,13.33-.09,26.67.06,40a19.87,19.87,0,0,0,1.51,7.2q41.07,99.38,82.26,198.71a8.52,8.52,0,0,0,3.91,4.69c2.25,1.28,3.6,4.15,5.35,6.32l-.78.73c1.27.33,2.54.67,3.82,1,10.26,2.57,13.16,11.73,5.87,19.63-6.16,6.68-13.4,12.38-22.38,14.4-11.32,2.55-22.82,5.17-34.35,5.75-21.76,1.1-43.61,1.23-65.41.87-16.45-.27-32.92-1.4-48.84-6.4-8.35-2.62-15.12-7.61-21.45-13.34a13,13,0,0,1-3.41-4.84c-3.12-8.49-.94-14.24,7.56-15.93C113.3,551.63,114.9,551.21,117,550.74ZM609.44,353.33l-1.18.14L597.12,550h74.21c3.4-3.9,2.55-7.66,1.12-11.83q-26.19-76.39-52.12-152.87ZM205.29,549.94c-3.75-65.79-7.46-131-11.17-196.21l-1.11-.05c-.6,1.51-1.28,3-1.8,4.53q-30.54,89.66-61.11,179.3c-1.5,4.39-2.69,8.41.73,12.43Zm398-194.48-1.07-.22c-.5,1.16-1,2.31-1.49,3.47q-37.46,90.35-75,180.66c-1.57,3.76-2.47,7.13.2,10.47h66.29Q597.79,452.34,603.28,355.46ZM276.56,550a10.75,10.75,0,0,0,.49-9.76q-37.53-90-74.8-180.07c-.72-1.75-1.57-3.46-2.36-5.2l-.81.29q5.53,97.26,11.07,194.74Zm129.56,38.76,1.75-.39V336.71L382.25,335V588.44h18.91Q401.78,467,402.4,346h1.41c.6,20.58,1.57,41.15,1.73,61.74.33,42.81.31,85.63.29,128.44,0,15.82-.46,31.63-.62,47.45A27.23,27.23,0,0,0,406.12,588.72Zm-115.75-23.8c-60.71,6-120.2,7.29-180.79-1.69,2.07,2.42,3.33,4.09,4.8,5.55,8.37,8.29,19.16,10.52,30.22,11.23q22.92,1.49,45.9,1.74c17.15.21,34.31-.16,51.47-.39,16.11-.22,31.46-3.18,44.7-13.17C287.66,567.44,288.54,566.54,290.37,564.92Zm222.74.57A48.93,48.93,0,0,0,540,579a253.26,253.26,0,0,0,34.23,2.74c24.3.19,48.61,0,72.89-.86,9.86-.36,19.78-2.42,29.39-4.84,6.59-1.66,11.87-6.25,15.86-12.73C632.26,572.26,572.75,570.9,513.11,565.49ZM341.22,661.43c24.5,6.19,82.91,6.76,105,1.7a77.53,77.53,0,0,0-7.92-.15c-8.73.3-8.72.32-10.38-8.3-1.19-6.2-3.43-7.92-9.88-7.63-4.48.21-9,.72-13.46.51-17.12-.82-34.22-1.87-51.33-2.85-4.83-.28-6.68,1.24-7.92,5.61C344.34,654,342.71,657.53,341.22,661.43Zm66.67-349.54c.12-1.08.25-1.72.25-2.37,0-20.16.05-40.33,0-60.49a18.46,18.46,0,0,0-1.07-6.35A4.64,4.64,0,0,0,404,240.2c-3.85-.6-7.78-.62-11.64-1.14-2.36-.32-4,.17-4.57,2.57-.8,3.36-2,6.76-2.07,10.15-.2,18.66-.1,37.33-.08,56,0,1.29.18,2.57.29,4.12Zm-26,297.49c-1.35,3.87-2.32,7.22-3.68,10.4-3.12,7.25-9,11.78-15.7,15.47-2.64,1.46-5.11,3.19-7.65,4.8l.49,1.17a315.89,315.89,0,0,0,80.81.94l0-1h-7.76c-12.17,0-12.35.06-16.3-11.83-1.72-5.17-2.46-10.66-3.8-16-.22-.88-1.26-1.55-1.92-2.31a9,9,0,0,0-1.68,2.53,11.28,11.28,0,0,0,.09,3.47c.31,3.44.66,6.88,1,10.32l-.84.09c-.86-5.36-1.73-10.73-2.65-16.43Zm-165.27-331L206,276.6c48.58-.57,97.1,1.47,146.07-.15-.55-2.89-1-5.09-1.44-7.58-3.12,0-5.93-.05-8.74,0q-43.7.86-87.38,1.75c-18.31.39-36.62.8-54.93,1.38-4.93.15-9.91.7-14.58,4.54C195.62,282.66,206.17,279.59,216.62,278.34Zm369.23,0c8.53,3.65,26.28,2.31,30.73-2.5-4.49-3.14-9.53-3.73-14.65-3.89-20.12-.63-40.24-1.34-60.36-1.75-28.13-.58-56.26-.95-84.38-1.36-6.3-.09-7,.87-5.67,7.75h145ZM435.31,678.58c0-2,0-3.66,0-5.28.1-3.46-1.44-4.92-4.93-4.2a17.11,17.11,0,0,1-2.49.1,474.93,474.93,0,0,1-79.81-2c-4.86-.53-9.74-.94-14.55-1.39-1.35,9.05,0,11.08,7.95,12.21a73.71,73.71,0,0,0,9.94.79q39,.09,78,0C431.22,678.82,433,678.68,435.31,678.58ZM390.37,173c-2.67,16.69-1.06,32.62,1,49.09,2.63,0,4.93-.16,7.2,0,3.08.27,4.64-.76,4.81-4,.54-10.08,1.44-20.16,1.76-30.25.15-4.52-.76-9.08-1.18-13.57ZM416,131.19a19,19,0,0,0-1.49-3.41c-5.35-7.78-21.43-7.92-26.93-.2-3,4.19-2.72,8.81-.82,13.31s5.36,6,10,5.3a25.53,25.53,0,0,1,3.5,0c5.62,0,9.73-3.44,9.65-9.06-.06-3.9-1.58-7.78-2.58-12.28Zm3.91,456.71c1.09-77.08,2-154.15-.36-231.21C418.6,433.76,418.28,510.83,419.94,587.9Zm6.79,10.58c.06-3.49-1.72-5.56-5.51-5.65-10-.24-19.9-.5-29.86-.58a111.74,111.74,0,0,0-11.42.64c-3.07.29-5,2.18-4.84,5.26.12,2.88,2.19,4.33,5,4.61,1.15.11,2.32.07,3.49.07h18.93c7.39,0,7.39,0,8.35-7.81C416.05,596.33,422.51,591.18,426.73,598.48ZM202.29,557.91c-1.11-.1-2.24-.28-3.38-.28-20.14,0-40.28-.12-60.42,0-7.64.06-15.27.67-22.9,1.18-1.56.11-3.08.92-4.62,1.4l.21,1.26c2.08.18,4.16.49,6.25.52q11,.13,22,.13,29,0,57.93-.09C200.09,562.06,202.85,562.26,202.29,557.91Zm489.08,3.6c0-.78,0-1.56.07-2.33-30.36-3-60.84-.9-91.24-1.64-.66,5,2.39,4.51,5,4.51q39.7,0,79.43,0C686.88,562,689.12,561.69,691.37,561.51Zm-476.9-3.31c-.34,3.5,1.7,3.9,4.57,3.89,23.45-.07,46.91,0,70.37-.07,2,0,4.08-.41,6.93-.72C290.51,557.49,228.56,555.56,214.47,558.2Zm292.43,1.41.07,1.77c2,.22,4.06.61,6.09.64,8.65.11,17.3.14,26,.14,14.8,0,29.6-.1,44.41-.09,2.78,0,4.89-.41,4.33-4.45h-5c-10.15,0-20.3,0-30.44,0-11,.06-21.95.07-32.92.39C515.2,558.14,511.06,559.05,506.9,559.61ZM411.5,318.07H379.3c-.73,7.75.44,9.08,7.58,9.09,6.49,0,13,0,19.47,0a23.33,23.33,0,0,0,3.5-.54c0-.44,0-.89-.05-1.34H392.05c0-.33,0-.67,0-1l19.46-1.36Zm-7.8-166.41c-4,0-8-.41-11.86.08-7.41.94,1.15,8-3.59,10.12,1.08,1.3,2.06,3.57,3.27,3.71,4.18.46,8.44.18,12.82.18-1.47-6.39-1.47-6.39-9.78-7.31C399.14,157.4,404.11,158.15,403.7,151.66Zm14,153.39,1,.24a11.84,11.84,0,0,0,.34-1.93c.27-18.09.58-36.19.69-54.29,0-2.14-1.07-4.29-1.64-6.44l-.34.23ZM413,214.85c3.28-12.84,4.4-25.67,0-38.5Zm55.73,453.09c.63-3.05,1.26-6.05-2.65-7.16-5.1-1.44-7.63-4.77-8.33-9.94-.33-2.48-1-5.09-3.91-5.5.58,2.45,1.26,4.75,1.65,7.1.8,4.8,3.14,8.56,7.87,9.93C466.41,663.26,468.13,664.76,468.69,667.94ZM404.89,231c-1.15-4.31-1.19-4.68-5.24-4.29-3.87.37-9.17-2.49-11.5,4.29Zm8.81-65.68c.44-4,1-7.2,1.06-10.47,0-1-1.18-2-1.78-3-1.08,2.47-2,4.52-2.71,6.23Z" transform="translate(-102.77 -115.73)"/><path class="cls-1" d="M415.42,651.43c-13.26,2.64-44.85,1.54-57.89-2Z" transform="translate(-102.77 -115.73)"/><path class="cls-1" d="M402.86,304.83c-.27-10.14-.75-20.28-.75-30.42,0-10,.48-19.91.76-30.63C406.13,252.56,406.4,292.23,402.86,304.83Z" transform="translate(-102.77 -115.73)"/><path class="cls-1" d="M416.2,673.63c-23.44.76-46.86.68-70.11-3.39l70,2.43Z" transform="translate(-102.77 -115.73)"/></svg>