<?xml version="1.0" encoding="utf-8"?>
<!-- Generator: Adobe Illustrator 24.0.1, SVG Export Plug-In . SVG Version: 6.00 Build 0)  -->
<svg version="1.1" id="Layer_1" xmlns="http://www.w3.org/2000/svg" xmlns:xlink="http://www.w3.org/1999/xlink" x="0px" y="0px"
	 viewBox="0 0 613.5 569.8" style="enable-background:new 0 0 613.5 569.8;" xml:space="preserve">
<style type="text/css">
	.st0{fill:#1E1E1E;}
</style>
<title>весы (c)</title>
<path class="st0" d="M509.5,141.5l-184,30.7c0,6.4,0,13,0.1,19.6c0.1,0.9,0.6,1.8,1.4,2.3c5.5,4.3,7.1,11.9,3.8,18
	c-1.2,2.2-1.8,4.6-1.9,7c-0.1,83.3-0.1,166.7,0,250c0.1,2.4,0.8,4.7,2.1,6.8c2.3,3.6,2.4,8.2,0.1,11.8c-1,1.8-1.4,3.9-1.1,5.9
	c1.4,7.6,5.7,13.2,12.2,17.4c6.5,4,12.7,8.4,18.5,13.3c2.4,2,3.8,5.7,4.6,8.9c0.7,2.7,1.4,4.4,4.3,5.2c8.1,2.3,8.1,9.3,8.5,15.8
	c0.4,6.6-2.1,11.1-8,12.9c-5.2,1.6-10.6,2.5-16.1,2.6c-35.7,0.2-71.3,0-107-0.1c-1.7,0-3.4-0.2-5-0.5c-13.8-2.6-18.2-9.5-14-22.9
	c1-3,4.1-6,7-7.6s4.1-3,4.7-6.1c0.6-2.9,2-6.3,4.2-8.1c5.6-4.7,11.5-8.9,17.7-12.7c7.1-4.4,12-10,13.5-18.3c0.2-2-0.2-4.1-1.2-5.9
	c-2.2-4.1-2.2-7.8,0.2-11.7c1.2-1.9,1.9-4.1,2-6.3c0.1-83.7,0.1-167.3,0-251c-0.1-2.1-0.6-4.2-1.6-6c-3.6-6.6-2.3-13.6,3.6-18.4
	c0.7-0.6,1.2-1.4,1.3-2.4c0.1-4,0.1-7.9,0.1-11.9l-183,25.4c0,5.1,0.4,10.6-0.1,16c-2,20.3,3.4,38.7,11.2,57.3
	c24.3,57.3,47.4,115.1,70.8,172.7c1.2,2.9,2.1,6,5.8,6.8c0.7,0.2,1.7,1,1.8,1.6c0.4,5.5,4.8,5.6,8.6,7c7.8,2.8,9.3,12.9,1.9,19.2
	c-6.3,5.4-13.5,11.2-21.3,13.3c-13.5,3.6-27.7,5.4-41.8,6.3c-28.9,2-58,1.4-86.8-2c-15.1-1.8-29.5-5.6-40.7-16.8
	c-1.9-1.8-3.6-3.9-4.8-6.3c-3.5-7.9-0.3-14,8.1-15.6c2.9-0.6,5.5-0.9,5.7-4.7c0.1-0.8,0.6-1.6,1.3-2c5.6-2.1,5.9-7.5,7.5-12.1
	C46,382.9,68,319.8,89.6,256.5c2.3-6.7,2-14.4,2.3-21.6c0.4-9.2,0-18.3,0.1-27.5c0-2.8-0.7-4.2-3.5-5c-3.5-0.9-6.4-2.8-7-6.9
	c-0.5-4.3,1.8-7.2,5.2-8.9c4.7-2.4,9.6-4.8,14.7-5.7c47.6-8.6,95.3-16.9,143-25.2c11.6-2,23.3-3.9,35.3-5.9c0-4.2-0.4-8.2,0.1-12.1
	c0.6-5.2,1.9-10.4,2.7-15.6c0.2-1.6,0.3-3.1,0.2-4.7c0.1-2.1-0.7-4.8,0.3-6.4c3-4.6,1.5-9.3,1.5-14c-0.1-13.8,0.1-27.6-0.1-41.4
	c-0.1-5-1.4-10.1-1.8-15.1c-0.2-1.9,0.5-3.9,0.5-5.9c0-1.7,0.1-3.6-0.6-5c-6.8-12.4-1.2-26.4,12.7-29.1c6.3-1.1,12.9-0.6,19,1.5
	c10.7,3.8,14.3,16.7,9,26.8c-0.9,1.8-0.8,4.1-0.9,6.3c-0.4,5.4-0.7,10.8-1,16.2c-0.1,1.3-0.6,2.6-0.6,3.9
	c-0.1,15.6-0.3,31.2-0.3,46.9c0.2,2.4,0.5,4.8,1.1,7.1c0.3,1.4,1.3,3,1.1,4.3c-1.9,9.8,5.5,18.4,2.4,28.7l28.5-3.8
	c31.5-4.2,63-8.5,94.5-12.7c16.7-2.2,33.3-4.4,50.1-6c5.4-0.5,10.9,0.1,16.2,1.8c7.5,2.3,8.6,9.4,2.4,14.1c-2.8,2.2-3.4,4.4-3.3,7.6
	c0.5,12.5,0.7,25,1.3,37.5c0.2,2.5,0.8,4.9,1.7,7.2c24.7,65,49.5,129.9,74.4,194.9c0.8,2.1,3,3.6,4.4,5.4c1.6,2,3,4.1,4.8,6.8
	c0.3,0.1,1.4,0.4,2.6,0.6c4.4,0.7,8.8,1.7,10.3,6.6c1.6,5.2,0.2,10-3.5,13.8c-6.2,6.4-12.9,12.5-21.7,14.5
	c-14.1,3.2-28.3,6.6-42.6,7.6c-24.2,1.7-48.6,2-72.9,2c-9.4,0-18.8-1.8-28.2-3.3c-9.7-1.5-17.8-6.4-25-12.7c-2.5-2.2-4.4-4.9-5.6-8
	c-2.4-6.8,0.1-11.4,7.1-13.4c3.2-0.9,6-1.6,6.2-5.6c0.1-1,0.7-1.9,1.6-2.4c4.8-1.5,5.4-5.8,6.8-9.6c24.5-65.7,49.2-131.4,73.3-197.3
	c2.2-6.1,0.9-13.4,1-20.2C509.6,158.9,509.5,150.3,509.5,141.5z M92.7,267l-1-0.1c-0.4,0.9-0.9,1.7-1.2,2.6
	c-8.2,23.7-16.4,47.4-24.7,71.1c-13.1,37.8-26.2,75.7-39.3,113.5c-1.9,5.5,0.7,9.3,6.3,9.3l55.9,0.2c4.4,0,8.9,0,14,0
	C99.4,397.8,96.1,332.4,92.7,267z M510.5,397.3l75.8-2.7c0-3.2,0.9-6.6-0.1-9.4c-22.8-60.2-45.7-120.3-68.7-180.4
	c-0.5-1.5-1.3-2.8-2-4.2l-1,0.2C513.2,266.1,511.9,331.4,510.5,397.3z M509,201.4c-1.2,3-1.9,4.7-2.5,6.4
	c-22.6,60.5-45.1,120.9-67.7,181.4c-1.4,3.8-2,7.2,0.8,10.8c20.8-0.7,41.8-1.5,62.7-2.1c3.7-0.1,3.4-2.4,3.4-4.7
	c0.6-26.8,1.1-53.6,1.7-80.4c0.5-26.3,1.1-52.6,1.5-78.9C509.1,223.5,509,213.2,509,201.4z M98.8,268.8l-1.1,0.2
	c0.7,14.4,1.4,28.9,2.1,43.3c2.5,48.9,5.1,97.7,7.6,146.6c0.2,4,1.4,5,5.3,5c18.5-0.1,37,0.1,55.5,0.3c7.7,0,9.5-2.6,6.5-9.8
	c-21.7-53.3-43.5-106.5-65.2-159.8C105.9,285.9,102.3,277.4,98.8,268.8z M284,218.7v253.4h20V230h1.5c0.6,20.5,1.5,40.9,1.7,61.4
	c0.3,42.6,0.3,85.3,0.3,127.9c0,16.2-0.5,32.3-0.6,48.4c0,1.6,0.7,3.2,1,4.7l1.5-0.3V220.4L284,218.7z M606.5,406.6
	c-30.6,6.8-60.3,9.1-90,9.8s-59.3,0.2-88.7,0.2c0.2,0.3,0.4,0.5,0.6,0.7c0.9,0.7,1.9,1.3,2.9,2c11.7,7.7,24.7,10.8,38.4,10.5
	c29.6-0.8,59.2-1.7,88.8-3.2c9.9-0.5,19.8-2.7,29.4-5C595.6,419.6,601.6,414.6,606.5,406.6z M186.8,480c-29.9,1.1-59.6,3-89.3,3
	s-59.7-1.2-89.4-6.4c1,1.9,2.3,3.7,3.8,5.2c9.3,9.3,21.5,11.3,33.6,11.7c33.9,0.9,67.8,1.3,101.7,1.1
	C161.7,494.6,175.8,489.4,186.8,480z M347.8,546.9c-0.6-0.1-1.3-0.2-1.9-0.2c-2.3,0-4.6,0-7,0.1c-8.1,0.4-8.1,0.4-9.1-7.5
	c-0.9-6.8-3.3-8.8-10.1-8.5c-4.5,0.2-9,0.7-13.5,0.5c-17.1-0.8-34.2-1.8-51.3-2.9c-3.8-0.2-6.4,0.8-7.7,4.7
	c-1.3,4.1-2.9,8.1-4.5,12.5C277.5,551.3,312.9,551.7,347.8,546.9L347.8,546.9z M309.8,195.6c0-21.9,0-43.2,0-64.5
	c0-4.4-1.1-8.2-7-7.5c-1.8,0.1-3.7,0-5.5-0.4c-7.1-0.8-8-0.2-9.6,6.9c-0.2,1-0.3,2-0.4,3c0,20.5,0,41,0.1,61.4c0,0.3,0.3,0.5,0.6,1
	L309.8,195.6z M256.6,524.1c26.8,4.5,54.1,4.9,81,1.3c-4.9-0.6-9.9-0.7-14.9-0.3c-3.2,0.3-4.8-0.8-5.6-3.5
	c-2.4-7.9-4.7-15.9-7.1-23.8c-0.4-1.1-1.5-2-2.3-3c-0.5,1.1-1.5,2.2-1.4,3.2c0.2,4.3,0.7,8.7,1.1,13c-1.5-4.1-2-8.4-2.8-12.6
	c-0.3-1.4-1.5-3.7-2.5-3.8c-6.2-0.8-12.5-1.1-19.2-1.6C281.2,509.5,269.1,516.8,256.6,524.1z M492,132l0.2,0.4l-10.6,3.6l0.3,1.2
	c9.9-2.4,21,0.3,29.7-8.4c-4.1-1.2-8.3-2.4-12.3-1.8c-48.7,6.2-97.3,12.5-146,18.9c-6.4,0.8-6.7,1.5-4.9,9.1L492,132z M108.6,191.7
	l0.1-0.5l145-21.2c-0.7-7.9-1.2-8.3-7.9-7.2c-23,4-45.9,7.8-68.9,11.8c-25.2,4.5-50.4,9.1-75.6,13.9c-4.1,0.8-8,3.1-12,4.7L90,195
	c11.1,4.6,21.4-1.3,32-3.3L108.6,191.7z M336.2,562.5c1.7-8.1,0.8-10-4.2-9.7c-28.3,1.7-56.6,1-84.8-2.1c-4-0.5-8.1-0.8-12.1-1.2
	c-1.4,9,0,11.1,7.9,12.2c3.3,0.5,6.7,0.8,10,0.8c26,0.1,52,0.1,78,0L336.2,562.5z M292.2,56.8c-2.4,10.7-2.3,35.7,0.5,46.4
	c0.3,1.1,2.9,2.5,4.3,2.4c2.7-0.3,6.8,2.3,7.8-2.7c2.8-13.9,3.1-28.1,1-42.1c-0.2-1.1-1.4-2.9-2.4-3
	C299.7,57.2,295.9,57.1,292.2,56.8L292.2,56.8z M317.5,14.8c0-0.5-0.2-1.1-0.4-1.6c-2.7-5.4-7.6-7.2-13.2-7.5
	c-6-0.3-11.7,0.9-15.3,6.4c-0.7,1.1-1.1,2.4-1.3,3.7c-1.5,9.2,2.9,14.1,12.5,14c10,0,14.8-7.7,10.5-16.7c-0.6-1.3-1.4-2.5-2.1-3.7
	l0.8-0.8L317.5,14.8z M320.7,471.5l1.3,0.1V240.4h-1.3V471.5z M99.8,471.2c-26.8,0-53.3-0.1-79.7,0.1c-3.9,0-7.8,0.9-11.7,1.4
	l0.1,1.6c1,0.2,2.1,0.4,3.1,0.5c8.7,0.3,17.3,0.6,26,0.7c19.5,0.1,39,0,58.5,0.2C99.4,475.8,100.1,474.3,99.8,471.2L99.8,471.2z
	 M328.7,483.4c-0.3-5-2.3-6.9-6.1-6.9c-13.3,0-26.6,0-39.9,0c-3.5,0-6.1,1.6-6,5.2s3,4.8,6.4,4.8h20.5c7.9,0,7.9,0,8.9-7.8
	C317.7,480,324.2,474.8,328.7,483.4L328.7,483.4z M605.1,405.4v-2.5c-30.5-1.7-60.9,1-91.3,1.8c-0.1,4.1,1.8,4.3,4.6,4.2
	c23.4-0.8,46.8-1.5,70.2-2.3C594,406.4,599.6,405.8,605.1,405.4L605.1,405.4z M501.5,405.7c-0.6-0.2-1.2-0.3-1.9-0.4
	c-24.2,1.1-48.5,2.2-72.7,3.4c-2.1,0.1-4.1,1.2-6.1,1.9c1.3,1,2.9,1.5,4.5,1.4c11.6-0.3,23.3-0.6,34.9-1c12.3-0.4,24.6-0.9,36.9-1.3
	C499.6,409.7,502.3,409.8,501.5,405.7z M112,471.1c-0.6,4.2,1.6,4.7,4.7,4.7c23.6,0,47.2,0,70.8,0c1.8,0,3.6-0.3,5.5-0.4l-0.1-2.2
	C166,469.9,138.9,472.1,112,471.1z M311.4,210.9c0-0.7,0-1.4,0-2.1H294v-0.8l18.7-1.3c0.9-5.2,0.9-5.2-3.5-5.3c-2,0-4,0-6,0H281
	c-0.9,8.1,0.3,9.5,7.3,9.5L311.4,210.9L311.4,210.9z M297.3,42.2c3.6-1.2,8.6-0.3,7.9-6.9c-3.7,0-7.3,0-11,0c-8.7,0.1,0.4,8-4.3,9.9
	c1,1.4,1.8,3.9,2.9,4c4.4,0.3,8.8,0.4,13.1,0.2C305.6,43.1,301.8,42.3,297.3,42.2L297.3,42.2z M319.3,188.6l1.4,0.2
	c1.1-20.8,2.2-41.6-1.4-62.3V188.6z M314.7,60.2v38.1C317.9,85.6,318.9,72.9,314.7,60.2L314.7,60.2z M370.7,550.5h1.1
	c-1.4-2-2.3-5.1-4.1-5.9c-4.9-1.9-7.5-5-8.4-10.2c-0.4-2.1-2-4-3.1-6c0,2.8,0.4,5.6,1.1,8.3c0.9,4.7,3.6,7.6,7.9,9.6
	C367.2,547.3,368.8,549.1,370.7,550.5L370.7,550.5z M289.9,114.6h16.8c-0.3-4.6-3.3-4.6-6.1-4.3
	C296.9,110.8,291.9,108.2,289.9,114.6z M315.4,35.8l-0.9,0.1l-2.6,6l3.5,7.2V35.8z"/>
<path class="st0" d="M259.9,533.2l56.4,1.9C297.5,537.4,278.5,536.8,259.9,533.2z"/>
<path class="st0" d="M304.3,188.4v-60.2c3.5,20,3.3,40.1,1.3,60.2L304.3,188.4z"/>
<path class="st0" d="M247.7,553.9l69.9,2.5l-0.1,1.9l-69.7-2.7C247.8,555,247.7,554.5,247.7,553.9z"/>
</svg>
