<svg id="Layer_1" data-name="Layer 1" xmlns="http://www.w3.org/2000/svg" viewBox="0 0 613.55 569.78"><defs><style>.cls-1{fill:#eaeaea;}</style></defs><title>весы (c)</title><path class="cls-1" d="M607.84,257.83l-184,30.71c0,6.35-.05,13,.06,19.59a3.61,3.61,0,0,0,1.39,2.32,14.3,14.3,0,0,1,3.81,18,15.77,15.77,0,0,0-1.87,7q-.15,125,0,250a14.21,14.21,0,0,0,2.1,6.78,10.85,10.85,0,0,1,.1,11.75,9.79,9.79,0,0,0-1.12,5.93c1.38,7.61,5.66,13.22,12.24,17.4a167.89,167.89,0,0,1,18.55,13.26c2.4,2,3.76,5.73,4.64,8.94.73,2.68,1.39,4.39,4.31,5.22,8.08,2.3,8.06,9.33,8.47,15.79.43,6.63-2.06,11.12-7.95,12.91A57.25,57.25,0,0,1,452.47,686c-35.67.16-71.33,0-107-.11a27.6,27.6,0,0,1-5-.48c-13.77-2.57-18.23-9.47-14-22.88,1-3,4.13-6,7.05-7.56s4.06-3,4.7-6.1c.58-2.9,2-6.27,4.22-8.1a148,148,0,0,1,17.69-12.74c7.06-4.36,12-10,13.46-18.25a9.8,9.8,0,0,0-1.17-5.92c-2.23-4.07-2.24-7.75.19-11.74a13,13,0,0,0,2.05-6.31q.17-125.49,0-251a13.16,13.16,0,0,0-1.63-6c-3.6-6.6-2.31-13.56,3.63-18.4a3.69,3.69,0,0,0,1.33-2.35c.13-4,.06-7.92.06-11.91l-183,25.42c0,5.12.45,10.64-.08,16.05-2,20.28,3.39,38.7,11.23,57.31C230.5,452.24,253.55,510,277,567.64c1.18,2.91,2.08,6,5.79,6.79.69.15,1.7,1,1.75,1.64.39,5.48,4.78,5.64,8.59,7,7.79,2.82,9.25,12.89,1.93,19.18-6.32,5.43-13.53,11.19-21.29,13.26-13.53,3.62-27.72,5.36-41.75,6.35a465.23,465.23,0,0,1-86.78-2c-15.13-1.76-29.49-5.57-40.72-16.8a22.35,22.35,0,0,1-4.75-6.29c-3.53-7.9-.34-14,8.13-15.59,2.95-.56,5.5-.94,5.67-4.71a2.67,2.67,0,0,1,1.31-2c5.63-2.12,5.94-7.53,7.52-12.07,21.94-63.15,44-126.26,65.54-189.54,2.29-6.7,2-14.36,2.32-21.6.37-9.16,0-18.33.15-27.5,0-2.75-.69-4.22-3.54-5-3.46-.93-6.45-2.76-7-6.91-.53-4.31,1.83-7.24,5.18-8.9,4.71-2.35,9.64-4.79,14.74-5.71,47.64-8.59,95.33-16.88,143-25.2,11.61-2,23.26-3.9,35.29-5.9,0-4.21-.35-8.23.09-12.15.59-5.23,1.85-10.37,2.72-15.57a33.41,33.41,0,0,0,.23-4.7c.06-2.15-.71-4.81.28-6.35,2.95-4.57,1.52-9.29,1.5-14-.06-13.79.13-27.59-.15-41.37-.1-5-1.36-10.07-1.83-15.12-.18-1.94.51-3.94.53-5.91,0-1.67.14-3.6-.61-5-6.77-12.44-1.16-26.44,12.74-29.09a37.57,37.57,0,0,1,18.95,1.53c10.7,3.84,14.32,16.71,9,26.81-.94,1.76-.75,4.15-.9,6.27-.4,5.4-.66,10.81-1,16.2-.09,1.3-.58,2.58-.6,3.87-.14,15.62-.28,31.24-.28,46.86a37.77,37.77,0,0,0,1.14,7.1c.29,1.45,1.32,3,1.06,4.29-1.9,9.76,5.52,18.38,2.35,28.73l28.55-3.81c31.5-4.23,63-8.53,94.51-12.66,16.66-2.19,33.34-4.38,50.07-6a42.53,42.53,0,0,1,16.16,1.76c7.46,2.31,8.57,9.39,2.43,14.08-2.85,2.17-3.39,4.37-3.26,7.57.51,12.48.73,25,1.26,37.45a23.71,23.71,0,0,0,1.72,7.22q37.1,97.47,74.37,194.85c.8,2.07,3,3.56,4.44,5.41,1.56,2,3,4.15,4.83,6.78.32.07,1.44.38,2.58.57,4.38.73,8.75,1.66,10.29,6.58,1.63,5.23.16,10-3.52,13.84-6.15,6.44-12.94,12.53-21.73,14.53-14.07,3.2-28.3,6.62-42.61,7.62-24.23,1.7-48.57,2-72.87,2-9.4,0-18.84-1.85-28.21-3.26-9.67-1.46-17.84-6.36-25.05-12.72a20.32,20.32,0,0,1-5.59-8c-2.41-6.78.13-11.38,7.08-13.42,3.15-.93,6-1.56,6.23-5.61a3.17,3.17,0,0,1,1.63-2.36c4.8-1.48,5.44-5.79,6.85-9.59C558,435.7,582.66,370,606.76,304.08c2.22-6.06.94-13.44,1-20.21C607.94,275.25,607.84,266.63,607.84,257.83ZM191.08,383.34l-1-.07c-.4.87-.86,1.73-1.18,2.63Q176.56,421.43,164.24,457q-19.68,56.75-39.33,113.5c-1.92,5.54.66,9.32,6.33,9.34l55.94.22c4.45,0,8.91,0,14,0C197.8,514.08,194.44,448.71,191.08,383.34Zm417.8,130.28,75.83-2.69c0-3.22.89-6.65-.13-9.35q-34.14-90.29-68.67-180.41c-.55-1.45-1.32-2.81-2-4.21l-1,.22C611.59,382.46,610.24,447.75,608.88,513.62Zm-1.52-195.91c-1.2,3-1.89,4.68-2.52,6.37Q571,414.79,537.18,505.47c-1.43,3.83-2,7.22.83,10.77,20.83-.73,41.78-1.53,62.74-2.14,3.68-.1,3.36-2.38,3.4-4.7q.86-40.2,1.68-80.42c.53-26.31,1.08-52.62,1.51-78.93C607.5,339.78,607.36,329.51,607.36,317.71ZM197.2,385.12l-1.11.16c.7,14.43,1.35,28.86,2.1,43.29,2.53,48.86,5.15,97.72,7.55,146.59.2,4,1.42,5,5.26,5,18.48-.07,37,.13,55.46.26,7.66.05,9.46-2.6,6.54-9.77q-32.59-79.89-65.21-159.79C204.29,402.25,200.73,393.69,197.2,385.12ZM382.34,335v253.4h20V346.26h1.48c.59,20.46,1.55,40.91,1.72,61.37.34,42.64.34,85.29.32,127.93,0,16.15-.48,32.29-.64,48.44,0,1.58.67,3.16,1,4.74l1.54-.35V336.69ZM704.9,522.93c-30.62,6.79-60.29,9.12-90,9.85s-59.28.16-88.72.16a2.76,2.76,0,0,0,.6.69c.93.69,1.9,1.33,2.87,2,11.67,7.66,24.71,10.82,38.42,10.47,29.61-.75,59.22-1.68,88.79-3.23,9.88-.53,19.77-2.67,29.42-5C694,535.91,700,530.88,704.9,522.93ZM285.14,596.34c-29.89,1.09-59.59,3-89.28,3s-59.66-1.16-89.39-6.42a20.42,20.42,0,0,0,3.8,5.22c9.29,9.35,21.52,11.35,33.62,11.67q50.85,1.36,101.75,1.06A60.63,60.63,0,0,0,285.14,596.34Zm161,66.82a16,16,0,0,0-1.94-.23c-2.32,0-4.65,0-7,.11-8.07.37-8.07.39-9.13-7.5-.91-6.76-3.34-8.79-10.09-8.48-4.48.21-9,.71-13.45.5-17.09-.82-34.17-1.83-51.25-2.89-3.81-.24-6.41.82-7.66,4.67-1.33,4.08-2.89,8.08-4.47,12.46A347.53,347.53,0,0,0,446.13,663.16Zm-38-351.23c0-21.91,0-43.21,0-64.52,0-4.42-1.14-8.16-7-7.48a24.08,24.08,0,0,1-5.47-.35c-7.15-.81-8-.2-9.57,6.92a14.17,14.17,0,0,0-.35,3q0,30.72.13,61.44c0,.27.31.54.61,1ZM355,640.4A268.89,268.89,0,0,0,436,641.68a75.55,75.55,0,0,0-14.87-.35c-3.19.32-4.78-.82-5.59-3.46-2.43-7.91-4.68-15.88-7.14-23.77-.35-1.13-1.51-2-2.29-3-.49,1.08-1.45,2.19-1.41,3.24.2,4.35.69,8.69,1.08,13-1.48-4.12-2-8.38-2.84-12.56-.3-1.44-1.51-3.67-2.53-3.8-6.2-.81-12.47-1.12-19.17-1.63C379.59,625.85,367.49,633.08,355,640.4ZM590.37,248.28l.2.44L580,252.27l.34,1.2c9.91-2.44,21,.28,29.74-8.42-4.1-1.22-8.32-2.35-12.33-1.84q-73,9.24-146,18.92c-6.4.84-6.74,1.52-4.86,9.08ZM207,308l.15-.49,145-21.18c-.73-7.93-1.24-8.3-7.92-7.16-23,3.95-45.93,7.76-68.87,11.83q-37.83,6.69-75.58,13.85c-4.14.79-8,3.1-12,4.7l.57,1.75c11.11,4.56,21.42-1.3,32-3.3ZM434.62,678.83c1.66-8.1.8-10-4.2-9.69A496.19,496.19,0,0,1,345.63,667c-4-.45-8.09-.78-12.08-1.16-1.38,9,0,11.07,7.91,12.21a72.15,72.15,0,0,0,10,.8q39,.09,78,0Zm-44-505.75c-2.36,10.67-2.26,35.69.47,46.4.29,1.14,2.88,2.53,4.26,2.4,2.68-.26,6.77,2.33,7.76-2.66a123,123,0,0,0,1-42.1c-.17-1.14-1.4-2.86-2.35-3C398.09,173.47,394.31,173.37,390.62,173.08Zm25.24-42a5.8,5.8,0,0,0-.35-1.6c-2.73-5.38-7.6-7.19-13.16-7.46-6.05-.29-11.66.89-15.29,6.42a9.54,9.54,0,0,0-1.32,3.7c-1.46,9.18,2.92,14.06,12.53,14,10,0,14.81-7.69,10.53-16.73-.6-1.28-1.39-2.46-2.1-3.69l.78-.85Zm3.2,456.71,1.28.08V356.73h-1.28Zm-220.87-.26c-26.82,0-53.28-.06-79.74.07-3.9,0-7.8.91-11.7,1.39l.11,1.63a22.57,22.57,0,0,0,3.12.52c8.66.27,17.31.63,26,.69,19.49.13,39,0,58.49.22C197.79,592.06,198.45,590.65,198.19,587.5Zm228.88,12.19c-.29-5-2.34-6.87-6.08-6.88q-20,0-39.91,0c-3.5,0-6.06,1.61-5.95,5.23s3,4.8,6.36,4.79H402c7.89,0,7.89,0,8.89-7.81C416.1,596.34,422.61,591.11,427.07,599.69Zm276.41-78,0-2.51c-30.48-1.66-60.89,1-91.34,1.83-.08,4.1,1.85,4.32,4.56,4.23,23.41-.83,46.82-1.48,70.22-2.31C692.43,522.75,698,522.12,703.48,521.7ZM599.83,522a8.32,8.32,0,0,0-1.88-.36c-24.24,1.1-48.48,2.19-72.71,3.42-2.07.11-4.09,1.23-6.14,1.87a6.78,6.78,0,0,0,4.54,1.42c11.64-.3,23.27-.6,34.9-1,12.29-.4,24.58-.89,36.88-1.3C598,526,600.64,526.08,599.83,522ZM210.34,587.37c-.55,4.21,1.57,4.73,4.7,4.72,23.61,0,47.21,0,70.82,0,1.82,0,3.64-.25,5.46-.39l-.06-2.24C264.39,586.22,237.3,588.4,210.34,587.37ZM409.77,327.16c0-.71,0-1.42,0-2.13H392.41v-.81l18.69-1.31c.92-5.16.92-5.18-3.55-5.28-2-.05-4,0-6,0H379.43c-.94,8.06.31,9.53,7.34,9.54h23Zm-14.1-168.68c3.56-1.18,8.59-.31,7.92-6.85-3.7,0-7.32,0-10.95,0-8.7.1.38,8-4.34,9.9.95,1.38,1.78,3.85,2.87,4a124.58,124.58,0,0,0,13.13.19C404,159.41,400.17,158.61,395.67,158.48Zm22.06,146.38,1.38.16c1.07-20.8,2.18-41.59-1.38-62.3Zm-4.62-128.32V214.6C416.24,201.9,417.27,189.21,413.11,176.54Zm55.95,490.3h1.08c-1.35-2-2.28-5.13-4.15-5.86-4.92-1.94-7.48-5-8.35-10.16-.36-2.12-2-4-3.12-6a34.82,34.82,0,0,0,1.07,8.31c.89,4.66,3.6,7.61,7.88,9.56C465.54,663.61,467.21,665.42,469.06,666.84ZM388.23,230.93H405c-.25-4.6-3.26-4.62-6.1-4.25C395.23,227.15,390.31,224.51,388.23,230.93Zm25.53-78.85-.9.12-2.59,6,3.49,7.18Z" transform="translate(-98.38 -116.31)"/><path class="cls-1" d="M358.27,649.47l56.37,1.94A178.33,178.33,0,0,1,358.27,649.47Z" transform="translate(-98.38 -116.31)"/><path class="cls-1" d="M402.7,304.72V244.53c3.49,20,3.29,40.12,1.3,60.21Z" transform="translate(-98.38 -116.31)"/><path class="cls-1" d="M346.06,670.22,416,672.68l-.07,1.88-69.68-2.65C346.16,671.35,346.11,670.79,346.06,670.22Z" transform="translate(-98.38 -116.31)"/></svg>