<svg id="Layer_1" data-name="Layer 1" xmlns="http://www.w3.org/2000/svg" viewBox="0 0 610.42 570.5"><defs><style>.cls-1{fill:#eaeaea;}</style></defs><title>весы (b)</title><path class="cls-1" d="M376.69,257.14c1.83-7.43,4.55-14.07,4.88-20.82.55-11.52,2.09-23,.75-34.7-1.1-9.65.54-19.59.46-29.4,0-5-1.78-10.08-1.66-15.1.14-5.7.3-11-2.09-16.55-1.49-3.48-.64-8.67.73-12.53,4-11.18,20.63-15.84,33.18-9.81,10.57,5.07,13.85,16.91,7.95,28.05-.67,1.25-.45,3-.51,4.54-.24,5.55-.38,11.11-.64,16.66-.07,1.46-.63,2.9-.65,4.35-.17,15.62-.33,31.24-.35,46.86a32.88,32.88,0,0,0,1.08,6.62c.33,1.61,1.36,3.25,1.18,4.77-1.32,10.83,5.81,20.77,2.22,32,10.74,1.71,20.58,3.17,30.38,4.85q57.57,9.86,115.1,19.85c13.28,2.3,26.58,4.52,39.72,7.46a44.29,44.29,0,0,1,14.89,6.49c6.6,4.51,5.4,11.76-2.21,14.41-3.56,1.24-4.53,2.92-4.34,6.41a85.16,85.16,0,0,1,0,15c-2.61,21.83,4.93,41.49,12,61.47,19.58,55.51,38.67,111.21,58.09,166.78.72,2.07,2.93,3.57,4.28,5.46s2.55,4,4.29,6.76c.43.1,1.86.48,3.3.81,10.59,2.46,13.57,11.75,6.12,19.84-8.64,9.37-19.41,15.39-32,17-15.16,2-30.43,3.93-45.68,4.21-22.44.42-44.94-.12-67.36-1.26-16.42-.83-32.5-4.07-45.16-16a25,25,0,0,1-5.57-6.9c-3.69-7.65-.84-13.49,7.34-15.62,2.78-.72,5.34-1.19,5.64-4.88a4,4,0,0,1,2.38-2.93c3.84-.84,4.55-4,5.72-6.85q40.14-98.43,80.2-196.88a22.69,22.69,0,0,0,1.66-8.16c.11-12.5-.15-25-.09-37.49,0-3.26-.81-4.47-4.38-4.9-25.12-3-50.22-6.11-75.28-9.57-31.49-4.34-62.93-9-94.38-13.58-4.44-.64-8.86-1.32-14-2.09,0,5.63-.08,10.91.08,16.18a4.09,4.09,0,0,0,1.67,2.63c5.21,3.86,6.69,11.64,3.62,17.72a17.15,17.15,0,0,0-2,7.43q-.15,124.76,0,249.5a16.19,16.19,0,0,0,2.29,7.23c2,3.71,2,7.1.29,10.92a13.71,13.71,0,0,0-1.23,7.27C430,618.59,435,623.81,441.71,628a150.34,150.34,0,0,1,17.69,12.75c2.28,1.94,2.92,5.71,4.56,8.5,1.11,1.9,2.31,4.53,4.06,5.15,7.92,2.8,8.1,9.45,8.54,15.93.44,6.65-2,11.2-7.82,13A56.14,56.14,0,0,1,452.61,686c-35.83.16-71.66,0-107.49-.11a29.51,29.51,0,0,1-4.95-.54c-16.9-2.93-16-12-13.45-23.16.67-2.91,4.28-5.71,7.21-7.36,2.45-1.38,4-2.42,4.18-5.34.22-4.69,2.73-8,6.58-10.56,6.59-4.43,13-9.06,19.51-13.66,5.62-4,8.55-9.71,9.65-16.32a8.18,8.18,0,0,0-1.24-5c-2.49-4.2-2.42-8,.33-12.11a10.35,10.35,0,0,0,1.81-5.4q.13-126,0-252a13.43,13.43,0,0,0-1.82-6,14.07,14.07,0,0,1,3.71-18,4.18,4.18,0,0,0,1.45-2.78c.12-6.81.07-13.61.07-20.45L203.56,258c-.3,8.91,0,18.27-1.11,27.44-1.38,11,1.57,20.86,5.36,31,23.52,62.58,46.74,125.28,70.21,187.89.88,2.34,3.26,4.14,5,6.17.74.88,2.2,1.69,2.23,2.56.12,4.62,3.5,5,6.8,6.17,8.19,2.76,10.08,12.12,3.57,18.93-8.3,8.68-18.64,13.74-30.49,15.83-21.82,3.84-43.83,3.51-65.78,2.48-18.43-.86-36.86-2.54-55.19-4.66-14.58-1.68-28.43-6.05-39-17.06-2.45-2.55-4.86-5.69-5.84-9C97,518,100.1,513.53,108,512.11c3-.55,6-.81,6.17-4.88a2.14,2.14,0,0,1,1.09-1.59c6.23-2.21,6.65-8.26,8.53-13.15C147.83,429.74,172,367,195.44,304.06c2.9-7.78,2-17,2.57-25.61.45-6.47.78-13,.64-19.46a10.56,10.56,0,0,0-2.76-6.22c-2.4-2.66-5.68-5.29-3.91-8.89,1.35-2.76,4.47-6,7.23-6.44a73.78,73.78,0,0,1,20.75-.85c42.79,5.29,85.52,11,128.26,16.61C357.94,254.47,367.64,255.88,376.69,257.14ZM201.47,513.62c-1.34-65.87-2.67-131.18-4-196.49l-1.26-.08c-.79,2-1.61,3.91-2.36,5.88q-33.69,88.26-67.46,176.49c-1.64,4.28-1.62,7.82.62,11.57ZM617.21,379.89l-1.12.23c-3.36,65.3-6.71,130.59-10.09,196.39,2.32.12,4.27.32,6.22.31q31.23-.2,62.46-.43c7.57,0,9.7-3,7.24-10.09q-28-80.85-56-161.68C623.07,396.36,620.12,388.14,617.21,379.89Zm-6.08,2.2-1-.12c-.48,1-1,2-1.42,3.07Q571.31,476.5,534.1,568c-1.06,2.61-.14,6-.14,8.56h67.17C604.48,511.36,607.8,446.73,611.13,382.09Zm-408-63.73-.88.44c.12,1.47.33,2.95.36,4.43q1,51.18,2,102.37.81,42.19,1.52,84.4c0,2.93.88,4.25,4,4.1,3.48-.16,7,0,10.49.18,17.27.67,34.55,1.37,53.21,2.11,0-3.24.82-6.44-.12-9q-34.25-92.64-68.83-185.15C204.39,320.92,203.71,319.66,203.12,318.36Zm203,270.35,1.52-.27V336.69L382,335V582.18a13.1,13.1,0,0,0,.12,4c.33,1,1.44,2.46,2.25,2.49,5.77.22,11.56.12,18,.12V346.46h1.47c.59,20.46,1.55,40.92,1.71,61.38.33,42.81.31,85.62.29,128.43,0,15.81-.46,31.63-.61,47.44A25.92,25.92,0,0,0,406.14,588.71ZM105.32,523.33c2.07,2.5,3.39,4.32,4.93,5.93,9.36,9.76,21.88,11.91,34.3,12.63,32.7,1.89,65.44,3.07,98.18,4.18a65.55,65.55,0,0,0,31.86-7c3.55-1.77,6.83-4.09,10.23-6.16-.17-.44-.34-.88-.52-1.31C224.75,535.3,165.42,534.34,105.32,523.33Zm595.89,66.09c-60,9.17-119.49,8.07-180.57,2.61,2.49,2,3.72,3,5,3.92a62,62,0,0,0,36.51,11.86c33.3.2,66.61-.25,99.9-1.07,7.85-.19,15.79-2.3,23.4-4.52C692.05,600.3,697.27,595.86,701.21,589.42Zm-360,72.39a371.82,371.82,0,0,0,105.77,1.93c-1-.46-1.27-.7-1.55-.7-4,0-8-.19-11.95.21-3.35.34-4.55-1.31-5.05-4-.33-1.79-.24-3.66-.67-5.42-1.41-5.73-3.25-7-9-6.78-4.48.2-9,.75-13.44.54q-25.89-1.21-51.75-2.87c-4-.25-6.7.8-7.95,4.94C344.36,653.59,342.77,657.43,341.17,661.81Zm67-349.91c0-20.28,0-40.08,0-59.88,0-11.34,0-11.34-10.94-12.26-.17,0-.33,0-.5-.07-8.42-.79-10.38.91-11,9.66-.1,1.32-.08,2.66-.08,4q0,26.49,0,53v5.59Zm-26.9,297.46c-1.56,16.47-13.84,23.75-26.44,31a267.79,267.79,0,0,0,81,1.31,66.65,66.65,0,0,0-14.45-.38c-3.44.4-5.06-.9-5.93-3.72-2.37-7.75-4.57-15.56-7-23.31-.36-1.18-1.4-2.15-2.13-3.22-.56,1.19-1.64,2.41-1.6,3.58.16,4.28.68,8.55,1.07,12.83l-.75.12c-.91-5.48-1.83-11-2.78-16.58ZM618.81,307.94c.18-.6.36-1.19.55-1.79-4.67-1.73-9.2-4.21-14-5.07q-71.45-12.81-143-25.12c-6.23-1.08-6.45-.76-7.29,7.18l146.76,21.42V305H587.71C598.06,306.77,608.07,312.88,618.81,307.94ZM363.39,271.18c1.92-7.64,1.38-8.28-5.71-9.22-21.41-2.85-42.81-5.87-64.24-8.65-27-3.51-54.08-7-81.15-10.16-3.89-.46-8,.68-11.95,1.08l0,2c8.78,7.31,19.84,5,30.13,6l-10.2-3.34.2-.51ZM333.67,665.76c-1.65,8.83-.24,11,7.63,12.23a59.78,59.78,0,0,0,8.95.8c26.83.06,53.65,0,80.48.09,3.26,0,5.08-.67,4.69-4.4-.33-3.1-.12-5.5-4.84-5.52-24.78-.07-49.57-.48-74.35-1.08C348.78,667.69,341.36,666.51,333.67,665.76ZM390.57,173c-2.2,11.15-2.08,37.12.56,46.55.33,1.19,3.19,2.38,4.83,2.32,2.52-.09,6.28,2.09,7.2-2.76A124.85,124.85,0,0,0,404.1,177a4.53,4.53,0,0,0-2.91-3A102.37,102.37,0,0,0,390.57,173Zm25.18-42.13c-2.05-5.8-6.5-8.77-13.75-8.92-6.47-.13-12.28,1.25-15.59,7.61a8,8,0,0,0-.67,2.38c-1.5,9,2.84,14.2,11.88,14.2,11.4,0,16-8.21,10.28-18.34-.39-.68-.83-1.33-1.24-2l.75-.91C410.22,126.92,413,128.93,415.75,130.89Zm4.61,225.92-1.2.24v230.8h1.2Zm6.75,243c-.36-5.14-2.45-7-6.19-7q-19.71,0-39.42,0c-3.63,0-6.5,1.39-6.37,5.34.13,3.73,3.1,4.74,6.44,4.73,6.83,0,13.66,0,20.49,0,7.74,0,7.74,0,8.88-7.84C416.14,596.4,422.72,591,427.11,599.78Zm-320.25-80.4,0,2a9.65,9.65,0,0,0,2.23.62c28.58,1.13,57.16,2.26,85.74,3.19,1.3,0,2.67-1.84,4-2.82l-.8-1.45C167.67,520.45,137.28,517.24,106.86,519.38Zm593.46,69c0-1,0-2.07,0-3.11-30.43-3-61-.53-91.83-.34,1.22,2,2.78,3.64,4.44,3.76,3.95.28,7.95-.28,11.93-.29q27.2-.06,54.37,0Zm-102.8-2.53c-.25-.41-.5-.82-.74-1.23a23.32,23.32,0,0,0-3.29-.42c-18.12.15-36.23.25-54.35.55-6.3.11-12.6.64-18.89,1.16-1.54.13-3,1-4.53,1.52.91,1.12,1.51,1.44,2.12,1.44,25.27,0,50.54,0,75.81-.19C594.94,588.67,596.23,586.84,597.52,585.85ZM292.2,528.38c-6-4.35-64.65-8.38-81.94-6.36-.18,2.82.85,4,3.94,4.1,23.93.67,47.86,1.49,71.79,2.26C287.68,528.43,289.38,528.38,292.2,528.38Zm100.23-203,0-1.11,18.88-1.32c1-3.79.23-5.58-3.87-5.34s-8.32.06-12.48.06H379.37c-.82,8.15.38,9.53,7.47,9.54h23v-1.83Zm11.7-159.55c.22-6.31-3.81-7-8.22-7.4,3.74-.91,8.23-.5,7.76-6.75-3.78,0-7.57-.19-11.33,0-8.23.51.72,8.13-4.08,10.14,1.21,1.32,2.31,3.61,3.67,3.79C395.94,166.11,400.05,165.78,404.13,165.78Zm13.64,139.34,1.31,0c1.13-20.74,2.23-41.49-1.31-62.14Zm-4.84-128.51v38.16C416.3,202,417.27,189.27,412.93,176.61Zm57.47,491c-1.6-2.62-2.44-5.88-4.23-6.54-5.2-1.93-7.72-5.21-8.6-10.53-.34-2-2.1-3.74-3.2-5.6a43,43,0,0,0,1.08,7.54,12.7,12.7,0,0,0,7.39,9.95C465.17,663.53,467.18,665.32,470.4,667.57ZM405.56,231.12c-3-7.2-8.6-3.79-12.76-4.28-1.41-.17-3.1,1.92-4.66,3l.82,1.3Zm8.2-65.76V152.08l-.89.12-2.61,6Z" transform="translate(-98.52 -115.57)"/><path class="cls-1" d="M415.4,651.43c-13.07,2.68-46.13,1.43-57.31-1.95Z" transform="translate(-98.52 -115.57)"/><path class="cls-1" d="M402.74,304.9V243.62C406.25,252.7,406.43,293.89,402.74,304.9Z" transform="translate(-98.52 -115.57)"/><path class="cls-1" d="M415.92,674.56l-69.76-2.65.06-1.67L416,672.68C416,673.3,415.94,673.93,415.92,674.56Z" transform="translate(-98.52 -115.57)"/></svg>