<?xml version="1.0" encoding="utf-8"?>
<!-- Generator: Adobe Illustrator 24.0.1, SVG Export Plug-In . SVG Version: 6.00 Build 0)  -->
<svg version="1.1" id="Layer_1" xmlns="http://www.w3.org/2000/svg" xmlns:xlink="http://www.w3.org/1999/xlink" x="0px" y="0px"
	 viewBox="0 0 610.4 570.5" style="enable-background:new 0 0 610.4 570.5;" xml:space="preserve">
<style type="text/css">
	.st0{fill:#1E1E1E;}
</style>
<title>весы (b)</title>
<path class="st0" d="M278.2,141.6c1.8-7.4,4.5-14.1,4.9-20.8c0.5-11.5,2.1-23,0.8-34.7c-1.1-9.6,0.5-19.6,0.5-29.4
	c0-5-1.8-10.1-1.7-15.1c0.1-5.7,0.3-11-2.1-16.6c-1.5-3.5-0.6-8.7,0.7-12.5c4-11.2,20.6-15.8,33.2-9.8c10.6,5.1,13.9,16.9,8,28.1
	c-0.7,1.3-0.5,3-0.5,4.5c-0.2,5.6-0.4,11.1-0.6,16.7c-0.1,1.5-0.6,2.9-0.6,4.4c-0.2,15.6-0.3,31.2-0.4,46.9c0.1,2.2,0.5,4.5,1.1,6.6
	c0.3,1.6,1.4,3.3,1.2,4.8c-1.3,10.8,5.8,20.8,2.2,32c10.7,1.7,20.6,3.2,30.4,4.9c38.4,6.6,76.7,13.2,115.1,19.9
	c13.3,2.3,26.6,4.5,39.7,7.5c5.3,1.2,10.4,3.4,14.9,6.5c6.6,4.5,5.4,11.8-2.2,14.4c-3.6,1.2-4.5,2.9-4.3,6.4c0.4,5,0.4,10,0,15
	c-2.6,21.8,4.9,41.5,12,61.5c19.6,55.5,38.7,111.2,58.1,166.8c0.7,2.1,2.9,3.6,4.3,5.5s2.5,4,4.3,6.8c0.4,0.1,1.9,0.5,3.3,0.8
	c10.6,2.5,13.6,11.8,6.1,19.8c-8.6,9.4-19.4,15.4-32,17c-15.2,2-30.4,3.9-45.7,4.2c-22.4,0.4-44.9-0.1-67.4-1.3
	c-16.4-0.8-32.5-4.1-45.2-16c-2.3-1.9-4.1-4.3-5.6-6.9c-3.7-7.7-0.8-13.5,7.3-15.6c2.8-0.7,5.3-1.2,5.6-4.9c0.3-1.3,1.1-2.4,2.4-2.9
	c3.8-0.8,4.5-4,5.7-6.8c26.8-65.6,53.5-131.2,80.2-196.9c1.1-2.6,1.6-5.4,1.7-8.2c0.1-12.5-0.2-25-0.1-37.5c0-3.3-0.8-4.5-4.4-4.9
	c-25.1-3-50.2-6.1-75.3-9.6c-31.5-4.3-62.9-9-94.4-13.6c-4.4-0.6-8.9-1.3-14-2.1c0,5.6-0.1,10.9,0.1,16.2c0.2,1.1,0.8,2,1.7,2.6
	c5.2,3.9,6.7,11.6,3.6,17.7c-1.2,2.3-1.9,4.8-2,7.4c-0.1,83.2-0.1,166.3,0,249.5c0.2,2.6,1,5,2.3,7.2c2,3.7,2,7.1,0.3,10.9
	c-1.1,2.3-1.5,4.8-1.2,7.3c1.4,7.9,6.4,13.2,13.1,17.3c6.2,3.8,12.1,8.1,17.7,12.8c2.3,1.9,2.9,5.7,4.6,8.5c1.1,1.9,2.3,4.5,4.1,5.2
	c7.9,2.8,8.1,9.5,8.5,15.9c0.4,6.7-2,11.2-7.8,13c-5.2,1.7-10.7,2.6-16.1,2.7c-35.8,0.2-71.7,0-107.5-0.1c-1.7,0-3.3-0.2-5-0.5
	c-16.9-2.9-16-12-13.5-23.2c0.7-2.9,4.3-5.7,7.2-7.4c2.5-1.4,4-2.4,4.2-5.3c0.2-4.7,2.7-8,6.6-10.6c6.6-4.4,13-9.1,19.5-13.7
	c5.6-4,8.5-9.7,9.6-16.3c0.1-1.8-0.3-3.5-1.2-5c-2.5-4.2-2.4-8,0.3-12.1c1.1-1.6,1.7-3.5,1.8-5.4c0.1-84,0.1-168,0-252
	c-0.1-2.1-0.7-4.2-1.8-6c-3.4-6.1-1.8-13.7,3.7-18c0.8-0.7,1.3-1.7,1.5-2.8c0.1-6.8,0.1-13.6,0.1-20.5L105,142.4
	c-0.3,8.9,0,18.3-1.1,27.4c-1.4,11,1.6,20.9,5.4,31c23.5,62.6,46.7,125.3,70.2,187.9c0.9,2.3,3.3,4.1,5,6.2c0.7,0.9,2.2,1.7,2.2,2.6
	c0.1,4.6,3.5,5,6.8,6.2c8.2,2.8,10.1,12.1,3.6,18.9c-8.3,8.7-18.6,13.7-30.5,15.8c-21.8,3.8-43.8,3.5-65.8,2.5
	c-18.4-0.9-36.9-2.5-55.2-4.7c-14.6-1.7-28.4-6-39-17.1c-2.4-2.5-4.9-5.7-5.8-9c-2.3-7.8,0.8-12.2,8.7-13.6c3-0.5,6-0.8,6.2-4.9
	c0.1-0.7,0.5-1.3,1.1-1.6c6.2-2.2,6.7-8.3,8.5-13.1c24-62.8,48.2-125.5,71.7-188.4c2.9-7.8,2-17,2.6-25.6c0.4-6.5,0.8-13,0.6-19.5
	c-0.2-2.3-1.2-4.5-2.8-6.2c-2.4-2.7-5.7-5.3-3.9-8.9c1.4-2.8,4.5-6,7.2-6.4c6.8-1.3,13.8-1.5,20.8-0.9c42.8,5.3,85.5,11,128.3,16.6
	C259.4,138.9,269.1,140.3,278.2,141.6z M103,398c-1.3-65.9-2.7-131.2-4-196.5l-1.3-0.1c-0.8,2-1.6,3.9-2.4,5.9
	C72.9,266.2,50.4,325,27.9,383.9c-1.6,4.3-1.6,7.8,0.6,11.6L103,398z M518.7,264.3l-1.1,0.2c-3.4,65.3-6.7,130.6-10.1,196.4
	c2.3,0.1,4.3,0.3,6.2,0.3c20.8-0.1,41.6-0.3,62.5-0.4c7.6,0,9.7-3,7.2-10.1c-18.7-53.9-37.3-107.8-56-161.7
	C524.5,280.8,521.6,272.6,518.7,264.3z M512.6,266.5l-1-0.1c-0.5,1-1,2-1.4,3.1c-24.9,61-49.8,122-74.6,183c-1.1,2.6-0.1,6-0.1,8.6
	h67.2C506,395.8,509.3,331.2,512.6,266.5L512.6,266.5z M104.6,202.8l-0.9,0.4c0.1,1.5,0.3,3,0.4,4.4c0.7,34.1,1.3,68.2,2,102.4
	c0.5,28.1,1,56.3,1.5,84.4c0,2.9,0.9,4.3,4,4.1c3.5-0.2,7,0,10.5,0.2c17.3,0.7,34.6,1.4,53.2,2.1c0-3.2,0.8-6.4-0.1-9
	c-22.8-61.8-45.8-123.5-68.8-185.1C105.9,205.4,105.2,204.1,104.6,202.8L104.6,202.8z M307.6,473.1l1.5-0.3V221.1l-25.6-1.7v247.2
	c-0.2,1.3-0.1,2.7,0.1,4c0.3,1,1.4,2.5,2.3,2.5c5.8,0.2,11.6,0.1,18,0.1V230.9h1.5c0.6,20.5,1.5,40.9,1.7,61.4
	c0.3,42.8,0.3,85.6,0.3,128.4c0,15.8-0.5,31.6-0.6,47.4C306.8,469.8,307.2,471.5,307.6,473.1L307.6,473.1z M6.8,407.8
	c2.1,2.5,3.4,4.3,4.9,5.9c9.4,9.8,21.9,11.9,34.3,12.6c32.7,1.9,65.4,3.1,98.2,4.2c11,0.4,22-2,31.9-7c3.5-1.8,6.8-4.1,10.2-6.2
	c-0.2-0.4-0.3-0.9-0.5-1.3C126.2,419.7,66.9,418.8,6.8,407.8z M602.7,473.9c-60,9.2-119.5,8.1-180.6,2.6c2.5,2,3.7,3,5,3.9
	c10.6,7.7,23.4,11.9,36.5,11.9c33.3,0.2,66.6-0.3,99.9-1.1c7.8-0.2,15.8-2.3,23.4-4.5C593.5,484.7,598.8,480.3,602.7,473.9
	L602.7,473.9z M242.7,546.2c35,5.7,70.6,6.3,105.8,1.9c-1-0.5-1.3-0.7-1.5-0.7c-4,0-8-0.2-12,0.2c-3.4,0.3-4.5-1.3-5-4
	c-0.3-1.8-0.2-3.7-0.7-5.4c-1.4-5.7-3.3-7-9-6.8c-4.5,0.2-9,0.8-13.4,0.5c-17.3-0.8-34.5-1.8-51.8-2.9c-4-0.3-6.7,0.8-8,4.9
	C245.8,538,244.3,541.9,242.7,546.2L242.7,546.2z M309.7,196.3c0-20.3,0-40.1,0-59.9c0-11.3,0-11.3-10.9-12.3c-0.2,0-0.3,0-0.5-0.1
	c-8.4-0.8-10.4,0.9-11,9.7c-0.1,1.3-0.1,2.7-0.1,4c0,17.7,0,35.3,0,53v5.6L309.7,196.3z M282.8,493.8c-1.6,16.5-13.8,23.8-26.4,31
	c26.8,4.5,54.1,5,81,1.3c-4.8-0.7-9.6-0.8-14.5-0.4c-3.4,0.4-5.1-0.9-5.9-3.7c-2.4-7.8-4.6-15.6-7-23.3c-0.4-1.2-1.4-2.2-2.1-3.2
	c-0.6,1.2-1.6,2.4-1.6,3.6c0.2,4.3,0.7,8.5,1.1,12.8l-0.8,0.1c-0.9-5.5-1.8-11-2.8-16.6L282.8,493.8z M520.3,192.4
	c0.2-0.6,0.4-1.2,0.5-1.8c-4.7-1.7-9.2-4.2-14-5.1c-47.6-8.5-95.3-16.9-143-25.1c-6.2-1.1-6.5-0.8-7.3,7.2L503.3,189v0.4h-14.1
	C499.5,191.2,509.6,197.3,520.3,192.4z M264.9,155.6c1.9-7.6,1.4-8.3-5.7-9.2c-21.4-2.9-42.8-5.9-64.2-8.6c-27-3.5-54.1-7-81.2-10.2
	c-3.9-0.5-8,0.7-11.9,1.1v2c8.8,7.3,19.8,5,30.1,6l-10.2-3.3l0.2-0.5L264.9,155.6z M235.2,550.2c-1.6,8.8-0.2,11,7.6,12.2
	c3,0.5,6,0.8,9,0.8c26.8,0.1,53.6,0,80.5,0.1c3.3,0,5.1-0.7,4.7-4.4c-0.3-3.1-0.1-5.5-4.8-5.5c-24.8-0.1-49.6-0.5-74.4-1.1
	C250.3,552.1,242.8,550.9,235.2,550.2z M292.1,57.4c-2.2,11.1-2.1,37.1,0.6,46.6c0.3,1.2,3.2,2.4,4.8,2.3c2.5-0.1,6.3,2.1,7.2-2.8
	c2.7-13.9,3-28.1,0.9-42.1c-0.4-1.4-1.5-2.5-2.9-3C299.1,57.9,295.6,57.6,292.1,57.4z M317.2,15.3c-2-5.8-6.5-8.8-13.8-8.9
	c-6.5-0.1-12.3,1.3-15.6,7.6c-0.3,0.8-0.6,1.6-0.7,2.4c-1.5,9,2.8,14.2,11.9,14.2c11.4,0,16-8.2,10.3-18.3c-0.4-0.7-0.8-1.3-1.2-2
	l0.8-0.9C311.7,11.3,314.5,13.4,317.2,15.3L317.2,15.3z M321.8,241.2l-1.2,0.2v230.8h1.2V241.2z M328.6,484.2c-0.4-5.1-2.5-7-6.2-7
	c-13.1,0-26.3,0-39.4,0c-3.6,0-6.5,1.4-6.4,5.3c0.1,3.7,3.1,4.7,6.4,4.7c6.8,0,13.7,0,20.5,0c7.7,0,7.7,0,8.9-7.8
	C317.6,480.8,324.2,475.4,328.6,484.2L328.6,484.2z M8.3,403.8v2c0.7,0.3,1.5,0.5,2.2,0.6c28.6,1.1,57.2,2.3,85.7,3.2
	c1.3,0,2.7-1.8,4-2.8l-0.8-1.5C69.2,404.9,38.8,401.7,8.3,403.8L8.3,403.8z M601.8,472.8c0-1,0-2.1,0-3.1c-30.4-3-61-0.5-91.8-0.3
	c1.2,2,2.8,3.6,4.4,3.8c4,0.3,8-0.3,11.9-0.3c18.1,0,36.3,0,54.4,0L601.8,472.8z M499,470.3c-0.3-0.4-0.5-0.8-0.7-1.2
	c-1.1-0.2-2.2-0.4-3.3-0.4c-18.1,0.2-36.2,0.3-54.3,0.5c-6.3,0.1-12.6,0.6-18.9,1.2c-1.5,0.1-3,1-4.5,1.5c0.9,1.1,1.5,1.4,2.1,1.4
	c25.3,0,50.5,0,75.8-0.2C496.4,473.1,497.7,471.3,499,470.3L499,470.3z M193.7,412.8c-6-4.3-64.6-8.4-81.9-6.4
	c-0.2,2.8,0.9,4,3.9,4.1c23.9,0.7,47.9,1.5,71.8,2.3C189.2,412.9,190.9,412.8,193.7,412.8z M293.9,209.8v-1.1l18.9-1.3
	c1-3.8,0.2-5.6-3.9-5.3s-8.3,0.1-12.5,0.1h-15.6c-0.8,8.1,0.4,9.5,7.5,9.5h23v-1.8L293.9,209.8z M305.6,50.3c0.2-6.3-3.8-7-8.2-7.4
	c3.7-0.9,8.2-0.5,7.8-6.8c-3.8,0-7.6-0.2-11.3,0c-8.2,0.5,0.7,8.1-4.1,10.1c1.2,1.3,2.3,3.6,3.7,3.8
	C297.4,50.5,301.5,50.2,305.6,50.3L305.6,50.3z M319.3,189.6h1.3c1.1-20.7,2.2-41.5-1.3-62.1V189.6z M314.4,61.1v38.2
	C317.8,86.4,318.8,73.7,314.4,61.1L314.4,61.1z M371.9,552.1c-1.6-2.6-2.4-5.9-4.2-6.5c-5.2-1.9-7.7-5.2-8.6-10.5
	c-0.3-2-2.1-3.7-3.2-5.6c0.1,2.5,0.5,5.1,1.1,7.5c0.6,4.4,3.4,8.1,7.4,10C366.7,548,368.7,549.8,371.9,552.1L371.9,552.1z
	 M307,115.5c-3-7.2-8.6-3.8-12.8-4.3c-1.4-0.2-3.1,1.9-4.7,3l0.8,1.3L307,115.5z M315.2,49.8V36.5l-0.9,0.1l-2.6,6L315.2,49.8z"/>
<path class="st0" d="M316.9,535.9c-13.1,2.7-46.1,1.4-57.3-2L316.9,535.9z"/>
<path class="st0" d="M304.2,189.3V128C307.7,137.1,307.9,178.3,304.2,189.3z"/>
<path class="st0" d="M317.4,559l-69.8-2.7l0.1-1.7l69.8,2.4C317.5,557.7,317.4,558.4,317.4,559z"/>
</svg>
