<svg id="Layer_1" data-name="Layer 1" xmlns="http://www.w3.org/2000/svg" viewBox="0 0 431.17 451.91"><defs><style>.cls-1{fill:#f4f4f4;}</style></defs><title>19. молитвенник</title><path class="cls-1" d="M382.88,330.88l-2.15,1.57.24.38,1.4-.84c-.14,1.42-1.57,1.55-2.13,2.42-.28.42-.37.66.14,1.21l-2.16,2.8c0-.1.15.26,0,.5-.45,1-.76,2.28-1.55,2.84s-.52,1.08-.8,1.57-.58,1.2-.86,1.8c-1.11,2.39-2.19,4.79-3.33,7.17-1.34,2.78-2.78,5.51-4.09,8.3-1,2.13-1.81,4.36-2.79,6.5s-2.17,4.36-3.22,6.56c-.61,1.27-1.13,2.58-1.72,3.86-1.35,2.94-2.74,5.85-4,8.79-1,2.13-1.74,4.33-2.71,6.45a86.63,86.63,0,0,1-4,8.27c-1,1.7-1.75,3.48-2.62,5.21a39.6,39.6,0,0,1-4.32,6.93c-1.35,1.69-2,3.67-3,5.46-.42.75-.73,1.55-1.17,2.28-1.07,1.77-2.22,3.48-3.27,5.26-1.29,2.2-2.55,4.41-3.76,6.66-.7,1.3-1.31,2.64-1.88,4-1.65,4-3.38,7.9-4.83,11.93-.75,2.05-2,3.76-2.92,5.68-.48,1-.73,2.13-1.16,3.17a46.82,46.82,0,0,1-5.68,10.74,20.48,20.48,0,0,1-4.78,4.74,18,18,0,0,1-6.29,2.72,11,11,0,0,1-3,.08c-1.85-.15-3.7-.34-5.54-.64-.79-.13-1.5-.69-2.29-.88s-1.71,0-2.48-.24c-3.73-1.17-7.42-2.45-11.14-3.64-1.39-.45-2.84-.74-4.26-1.12a6.38,6.38,0,0,1-.82-.33c-.55-.23-1.29-.82-1.62-.64-1.61.87-3.08-.11-4.59-.2a19.54,19.54,0,0,1-4.09-1.21l.86-.66-1.09-.27-.3.51a7,7,0,0,0-1.28-.11c-.56.05-.95.15-1.46-.43-.27-.3-1.22-.45-1.89-1l-.07,1.36-.74-1.12-.21.94c-.15,0-.32,0-.37,0-.45-.67-.77-1.09-1.86-.81a6.82,6.82,0,0,1-3.23-.51c-1.84-.52-3.64-1.15-5.47-1.73l-.64-.17-2.6-.57c-.51-1.13-1.9,0-2.48-1-1.47.14-2.24-1.69-3.84-1.32-1,.22-1.66-.87-2.78-.79a9.28,9.28,0,0,1-3-.67,4.11,4.11,0,0,1-2.39-1c-.21-.25-.71-.27-1.1-.33a8.11,8.11,0,0,1-4-1.47c-.19-.13-.66.17-1,.11a10.39,10.39,0,0,1-1.37-.52c-.09,0-.28.1-.31.06-1.63-1.82-4.13-1-6-2-.54-.28-1.14-.44-1.67-.73-3.52-1.93-7.42-2.74-11.23-3.83-1.87-.54-3.54-1.75-5.38-2.46a52,52,0,0,0-5.38-1.6c-2.76-.72-5.53-1.37-8.29-2.08-.54-.14-1-.39-1.57-.57a3.78,3.78,0,0,0-1.54-.29,10,10,0,0,1-3.17-.79c-2.32-.71-4.63-1.42-6.93-2.18-1.12-.37-2.18-.92-3.3-1.27-.86-.26-1.91-.1-2.65-.52a15.71,15.71,0,0,0-5.75-1.54c-.53-.08-1.44,0-1.32-1.06-.89.47-1.57-1-2.54-.25-.21.15-.74-.06-1.09-.19-3.26-1.23-6.5-2.52-9.78-3.69-2.54-.91-5.13-1.66-7.69-2.52-1.95-.66-3.87-1.39-5.81-2.08-1.59-.57-3.19-1.12-4.71-1.65l.3-.21a2.1,2.1,0,0,0-.34-.27c-.81-.29-2.12.73-2.42-.92l-2.7-.42c-.66-.1-1.34,0-1.65-.9-.07-.18-.75-.16-1.15-.2s-.69,0-1.34,0l1.08-1c-.71-.07-1.4-.36-1.7-.14a1.69,1.69,0,0,1-1.9,0c-1.87-.77-3.71-1.62-5.57-2.44-.1,0-.23-.16-.3-.13-1.79.78-2.87-.71-4.25-1.29-.9-.38-1.89-.54-2.81-.88-2.39-.89-4.75-1.83-7.14-2.72-7-2.57-13.9-5.12-20.85-7.7-.35-.14-.61-.54-.9-.83s-.44-.66-.75-.8c-2-.95-4.09-1.84-6.24-2.79a1.52,1.52,0,0,1-2.2.78,49.23,49.23,0,0,0-5.82-1.68c-1.57-.38-3.08-1.29-4.71-1.79-1-.3-1.73-1.3-2.67-1.85a16,16,0,0,0-2.52-.9c-.84-2.54-1.77-5.42-2.74-8.29-.07-.21-.43-.33-.52-.55-.23-.57-1-1.07-.07-2l-1,.2-.09-.13c-.49-.79.73-.53.62-1-.06-.23-.51-.34-.66-.59a7.58,7.58,0,0,1-.63-1.35c-.35-.9-1-1.77-.46-2.83,0-.11-.15-.36-.26-.53a4.07,4.07,0,0,1-.86-3c.12-.81-.59-1.75-1-2.62-.17-.41-.6-.8-.57-1.17.2-2-.71-3.76-1.28-5.56-1.55-4.85-1.73-9.89-2.27-14.88-.14-1.34-.05-2.67-.31-4.05-.72-3.86.38-7.47,2.26-10.85.69-1.24,1.29-2.53,2.66-3.26.49-.26.76-1,1.06-1.5.43-.76.46-1.78,1.58-2.06.18,0,.08-.82.3-1.12,2.08-2.8,2.83-6.21,4.34-9.26.89-1.79.88-3.84,1.87-5.59A8.89,8.89,0,0,0,50,309.64c.06-.66.91-.46.7-1.22-.15-.57.26-1.29.43-1.95s.35-1.15.52-1.73A34.89,34.89,0,0,1,53,300c1.26-2.84,1.65-6,3.38-8.68a14.31,14.31,0,0,0,.6-2c.82-1.81,1.77-3.57,2.54-5.41.43-1,.5-2.19.91-3.22s.17-2.25,1.63-2.5l-.59-.39c.51-1.42,1-2.74,1.46-4.05,1.55-4.22,3.13-8.43,4.65-12.66.41-1.13.63-2.32,1-3.45a5.77,5.77,0,0,1,.89-1.46c.25-.32.55-.33.2-1s.72-.28,1.14-.53l-.9-1c1.44-1.61,1.34-3.86,2.25-5.74,1-2.06,1.87-4.17,2.78-6.27a19,19,0,0,0,.85-2.28c.21-.77.67-1,1.65-.8L76.6,238c.43-1.16.78-2.23,1.22-3.27.3-.72.7-1.4,1.07-2.09,1.39-2.62,2.88-5.18,4.15-7.85a36.15,36.15,0,0,0,1.53-4.65c1.79-5.63,3.53-11.28,5.39-16.89a27.33,27.33,0,0,1,1.89-3.74,3.4,3.4,0,0,0,.41-.94,38.2,38.2,0,0,1,2.39-6.86c1.46-3.69,2.71-7.47,4.1-11.19.59-1.6,1.41-3.11,2-4.71.63-1.8,1.06-3.68,1.63-5.51.19-.57.6-1.07.84-1.64s.3-1.15.53-1.69c1.49-3.52,2.81-7.14,4.55-10.53a86.28,86.28,0,0,0,3.84-9.81,5.35,5.35,0,0,1,.47-1.29c2-2.73,2.62-6,3.62-9.09.36-1.13.9-2.2,1.33-3.31s.7-2.16,1.17-3.18c1.05-2.25,2.28-4.41,3.24-6.69,1.85-4.38,3.47-8.84,5.34-13.21a55,55,0,0,1,3.06-6.68,30.41,30.41,0,0,0,1.83-4.84q3.91-10.27,7.89-20.53c.63-1.63,1.51-3.18,2.18-4.8.81-2,1.47-4,2.31-6,.72-1.69,1.62-3.3,2.38-5,.21-.45.87-.78.39-1.49-.12-.19.26-.7.42-1.07.61-1.39,1.28-2.77,1.82-4.19.91-2.37,1.73-4.77,2.6-7.16a1.18,1.18,0,0,1,.26-.43C154,46.18,154,44,154.92,42.22a34.55,34.55,0,0,0,2.3-5.38c.69-2.09,1-4.31,1.74-6.38a8.53,8.53,0,0,1,3.27-4.37c.5-.33.93-.76,1.42-1.11s.95-.88,1.45-.9a38.39,38.39,0,0,1,4.67.12c.22,0,.42.44.63.67a2.42,2.42,0,0,1,3.1.29s0,.11,0,.17c.37,1.15,1-.48,1.49.15a12.89,12.89,0,0,0,1.07,1.15l.25-.84.81,1.47.12-.91a1.65,1.65,0,0,1,.46.14c2,1.33,4.23,1.68,6.5,2.07.33.05.78.09.94.31,1.17,1.59,3.07,1,4.56,1.57a7.53,7.53,0,0,1,1.26.45,1.61,1.61,0,0,0,1.36.28c.5-.1,1.13.49,1.86.85,1.67-.82,2.76.74,4.17,1.66.57-1,1.21-1.82,2.23-.51.06.08.33,0,.5,0,1.35,0,2.72-.1,3.87.89.16.14.6,0,1.13-.12l-.41,1.19c.72.54,1.3-.13,1.95-.22a24,24,0,0,1,3.05-.26,18.24,18.24,0,0,1,3.39.26,9,9,0,0,1,2,.82c1.41.12,2.57.15,3.7.34,2.4.41,4.79.88,7.18,1.36.23,0,.42.27.61.43s.4.48.47.44c1.21-.56,2.33,0,3.48.21.05,0,.13,0,.16,0,1.43.91,3.22.4,4.68,1.2.72-.73,1.23.86,2,.19a1.59,1.59,0,0,1,.46.46c.23.5.24.53.33.41.23-.3.44-.61.82-1.15l.33,1.08c.47.84,1.36-.48,2.19.41.51.56,1.65.59,2.52.76s1.93.3,2.9.42a6.29,6.29,0,0,0,3,.12c.43-.14,1.41.35,2.19.5,4.54.84,9.05,1.87,13.58,2.79,1.52.31,3,.79,4.51,1.17.32.07.52.67.8,1.07a5.73,5.73,0,0,1,4.94,1c.12.1.53-.22.76-.17s.69.37,1.06.45c1.18.27,2.38.49,3.86.79l-1,.37c.2.16.35.36.51.37a20.29,20.29,0,0,1,3.14.2c2.28.53,4.54,1.17,6.76,1.9.56.18.93.9,1.43,1.32a.86.86,0,0,0,.72.2,2.69,2.69,0,0,1,3.14.54c.28.36.26.57.57.08.06-.1.39-.1.56,0,1.22.44,2.44.89,3.66,1.36.42.16.82.41,1.24.58,1,.42,2.05.81,3.26,1.29,0,1.14,1.26.93,2.29,1.09l-.8-.71c1.42-.18,2.34,1.53,3.67.79.88,1.71,1.55,1.9,4.69,1.34l-.23.77h1.67l-.16.69c2.28-.08,7.18,1.62,8.59,2.45l-1,.3c.17.11.25.21.33.2l2.31-.32a.9.9,0,0,1,.46.06c.17,1,1,.42,1.57.72l-.49.34,0,.18c2,0,3.66,1.24,5.43,2a.53.53,0,0,0,.43,0c.81-.63,1.57-.23,2.28.13,1.17.62,2.28,1.38,3.46,2a2.55,2.55,0,0,0,1.35,0c1.22-.14,1.29-.12,1.84,1,1.68-.39,2.23-.25,3.79.92a.79.79,0,0,0,.47.18c3.06-.17,5.64,1.62,8.54,2.1,2.23.36,4.42.95,6.65,1.33,3.67.63,7.36,1.19,11,1.75,2.49.39,5,.64,7.46,1.12s4.92,1.25,7.4,1.75a10.58,10.58,0,0,0,2.79.21,17.56,17.56,0,0,1,4.54.7c.6.11,1.18.34,1.77.41a51.65,51.65,0,0,1,6.38.69c7.66,1.9,15.59,2.72,23.05,5.48,2.1.78,4.31,1.32,6.35,2.24a13.25,13.25,0,0,1,2.51,1c1.17.88,2.48,1.48,3.68,2.3,1.43,1,1.31,2.82,2.23,4.09-.86.61.36,1.14.07,1.81-.23.52.05,1.29-.22,1.78-.61,1.09-.44,2.72-2.16,3.15l1,.8c-.71,2.09-1.39,4.14-2.1,6.19-.24.66-.59,1.29-.83,1.95s-.33,1.26-.55,1.87c-.13.37-.42.7-.55,1.07-.61,1.7-.88,3.62-1.87,5s-.48,3.21-1.26,4.68a1.87,1.87,0,0,0,.33,2.23c.24.25.11.83.16,1.31l.56.15a1.42,1.42,0,0,1,.1.26c-1.09,1.15.28,2.17.22,3.29a8.36,8.36,0,0,0,.58,2.63c.27.92.62,1.82,1,3a24.43,24.43,0,0,1,3,.55c1.76.52,3.46,1.28,5.23,1.78,2.12.59,4.29,1,6.44,1.51.16,0,.34.05.5.1a54.24,54.24,0,0,1,7.19,2.43A9.42,9.42,0,0,1,464,148.5c.27.46.85.73,1.45,1.21a20,20,0,0,1-2,11.2c-1.28,2.46-2.5,4.94-3.69,7.44-2.21,4.65-4.43,9.29-6.55,14-1.2,2.68-2.17,5.45-3.35,8.14-1.05,2.38-2.27,4.69-3.35,7.05-.46,1-.74,2.08-1.12,3.12s-.84,2.33-1.31,3.47-1.08,2.39-1.64,3.57c-.17.36-.3.9-.59,1-1.23.49-1.52,1.6-2,2.64-.2.45-.74.84.11,1.18a2.63,2.63,0,0,1-.19.73c-1.14,2.48-2.31,4.94-3.42,7.43-.63,1.43-1.09,2.93-1.72,4.36-1.19,2.7-2.4,5.39-3.7,8.05-.28.56-.94.93-1.52,1.49-.11,3.1-4,11.69-5.4,12.38a6.29,6.29,0,0,1-.52,1.85c-2.07,2.74-3.14,6-4.67,9-1.26,2.47-2.34,5-3.49,7.56-1.38,3-2.72,6.09-4.13,9.11-1,2.17-2.11,4.28-3.14,6.43-.74,1.53-1.44,3.08-2.15,4.63-.07.15,0,.41-.14.48a5.34,5.34,0,0,0-1.54,2.35,21.81,21.81,0,0,1-1.91,2.85c-.59.9-1.16,1.81-1.71,2.74-.43.73-.81,1.5-1.27,2.35h-1.27l1,.83c-1.38,2.52-2.83,5.05-4.14,7.65a9.72,9.72,0,0,0-.43,2.4,3.35,3.35,0,0,1-.37.9c-.69,1.19-1.48,2.33-2.08,3.56-1,2.11-2,4.29-3,6.43a15.21,15.21,0,0,1-2.31,3.84c-.46.52-.39,1.48-.82,2.06s.18,1.66-.86,2.2a4,4,0,0,0-1.5,1.86A17.18,17.18,0,0,0,382.88,330.88ZM88.49,266.29c.1,1.6-1,3.12-2,4.54a23.63,23.63,0,0,0-2.85,4.26c-.83,2-1.78,3.9-2.66,5.86-1,2.16-2,4.31-2.84,6.51-1.52,3.81-2.94,7.66-4.41,11.49-.84,2.16-1.66,4.33-2.55,6.47-1.1,2.64-2.19,5.29-3.42,7.87a52.12,52.12,0,0,0-3.68,8.27c-.9,3.1-2.17,6.17-3.37,9.21-.31.77-.24.92.32,1.24.81.46,1.6.94,2.42,1.42l-1.76,4.5-2.93-.53c0,.85-.29,1.86.06,2.53.77,1.5,1,2.83.15,3.92l1,2.63c1.35.35,2.85.72,4.35,1.12,7.2,1.94,14.57,3.3,21.5,6.2.38.16.8.58,1.09-.18,0-.11.66-.12,1,0,2,.71,4.1.87,5.81,2.23a3.56,3.56,0,0,0,1.28.38c.87.22,1.77.38,2.62.68s1.91.86,2.9,1.18c2.34.78,4.71,1.45,7,2.23,3.11,1,6.19,2.15,9.28,3.23l-.28.27a5.17,5.17,0,0,0,.61,1.11,2.73,2.73,0,0,0,.93.42l57.32,24.15c3.13,1.32,6.23,2.7,9.39,3.94s6,3,9.46,3.48l-.1,1.35.78.23,32.62,9.88q18.24,5.5,36.49,11c2.14.65,4.23,1.45,6.38,2.07,1.68.48,3.49.57,4.8,2a1.45,1.45,0,0,0,.78.25,21.42,21.42,0,0,1,2.67.35c.78.2,1.54.52,2.33.73.49.13,1.33-.19,1.33.83,0,.1.48.26.75.28a39.66,39.66,0,0,0,4.86.32,6.73,6.73,0,0,0,3.69-.86,8,8,0,0,0,2.67-3.86,1.54,1.54,0,0,1,1.37-1.38c-.29-1.13.11-2.08.87-2.18.17.3.33.6.67,1.23v-1.25l1.24.07.05-.35c-.72,0-1.17-.92-2.13-.44a3.41,3.41,0,0,1,.54-.85,3.09,3.09,0,0,0,.45-.7c.26-.79.48-1.59.72-2.39.31-1,.36-2.26,1-3,1.26-1.6,1.57-3.45,2.11-5.29a41.73,41.73,0,0,1,2.28-5.61c.73-1.59,1.66-3.1,2.44-4.68.89-1.8,1.65-3.68,2.57-5.47a16.53,16.53,0,0,0,2-8,6,6,0,0,1,2.2-4.77,13.92,13.92,0,0,0,4.89-6.44c.22-.59.23-1.38.7-1.76,1.12-.9,1.26-2.18,1.65-3.41a16.36,16.36,0,0,1,1.08-2.28,47.12,47.12,0,0,0,2.31-4.81c1-2.83,1.85-5.7,4-8a4,4,0,0,0,.56-1.39,8.44,8.44,0,0,0,.34-1.08c.44-2,2.72-2.88,3-5.06.12-1,.92-1.86,1.3-2.84s1.37-1.57,1.12-2.74c0-.08.13-.18.18-.28.8-1.88,1.68-3.71,2.32-5.67a30.54,30.54,0,0,1,2.95-5.81c1-1.7,1.69-3.53,2.6-5.27,1.16-2.23,1.79-4.73,3.48-6.7a.61.61,0,0,0,.07-.48c-.3-1.05.5-1.86.76-2.73a22.93,22.93,0,0,1,2.82-6.06c.54-.81.34-1.59.72-2.33.64-1.26,1-2.67,1.6-3.95s2.06-2.27,1.52-4c-.06-.19.24-.5.4-.74s.42-.36.39-.48c-.53-1.95.83-3.42,1.38-5,1.24-3.7,2.88-7.26,4.29-10.9.65-1.68,1.16-3.41,1.7-5.12.88-2.75,2.3-5.26,3.27-8,1.57-4.42,3.63-8.65,5.51-13,.5-1.14,1.08-2.23,1.63-3.35,1.18-2.38,2.34-4.77,3.54-7.15,1.13-2.23,2.41-4.41,3.42-6.69a37.68,37.68,0,0,0,1.73-5.33c.21-.8.49-1.29,1.44-1-.17-.28-.37-.47-.34-.59a32.88,32.88,0,0,1,1.42-4.27c1.1-2.34,2.53-4.53,3.56-6.89a57.14,57.14,0,0,1,4.63-9.09,14.7,14.7,0,0,0,.95-2l3.66-7.86,3.63-7.78c.65-1.41,1.26-2.84,2-4.22s1.51-2.57,2.23-3.87,1.47-2.68,2.16-4a38.45,38.45,0,0,0,2.15-4.55,12.79,12.79,0,0,1,2.26-4.42,7.81,7.81,0,0,0,1.25-2.22,62.33,62.33,0,0,1,2.67-6.9,41.53,41.53,0,0,0,2.92-6.09c.61-1.72,1.72-3.26,2.45-4.94.94-2.16,2.41-4.11,2.61-6.57a2.6,2.6,0,0,1,.58-1.61,2.9,2.9,0,0,0,1-3.19,8.89,8.89,0,0,0,1.53-1.8c1.26-2.84,2.4-5.74,3.61-8.61,1.46-3.45,3-6.86,4.39-10.32a35.69,35.69,0,0,0,1.8-5.18c.92-3.89,1.67-7.83,2.45-11.53a4.37,4.37,0,0,1-1.11-.5c-.5-.47-.81-1.2-1.37-1.51-2.72-1.48-5.27-3.37-8.5-3.68a10.38,10.38,0,0,1-1.31-.4c-2.14-.53-4.27-1.09-6.42-1.58-2.82-.65-5.65-1.27-8.49-1.84-1.14-.24-2.21-.84-3.46-.64a4.57,4.57,0,0,1-1.31-.27c-2.56-.48-5.06-1.31-7.7-1.35a16.56,16.56,0,0,1-3.43-.47c-.63-.14-1.18-.76-1.81-.85-1.83-.27-3.68-.37-5.53-.54-1.19-.11-2.51.08-3.53-.39a12.27,12.27,0,0,0-3.79-.62c-1.51-.2-3-.28-4.53-.53-1.71-.27-3.39-.86-5.11-1a57.21,57.21,0,0,1-8.25-1.12c-5.19-1-10-3.11-15-4.92-.47-.17-.81-.44-1.33.11-.27.27-.93,0-.49-.7-1-.33-2.38.18-3.05-1.14-1.1.51-1.87-1-3.08-.48-.44.17-1.2-.71-1.86-.83a19.74,19.74,0,0,1-6.2-2,15.22,15.22,0,0,0-3.54-1.19,4.1,4.1,0,0,1-.82-.18c-4.07-2.37-8.71-2.81-13.14-4-1.17-.31-2.33-.64-3.48-1-.47-.15-.91-.36-1-.36a4.32,4.32,0,0,1-.5,0,1.64,1.64,0,0,0-1-.92c-.22-.08-.56.23-.78.15-2.35-.75-4.69-1.55-7-2.33-3.9-1.31-7.77-2.71-11.71-3.88-4.17-1.23-8.41-2.24-12.61-3.38a11.46,11.46,0,0,1-3.65-1.28,4.58,4.58,0,0,0-2-.81c-1.05-.19-2.11-.27-3.15-.5-1.45-.32-2.86-.81-4.31-1.09q-13.14-2.5-26.3-4.95-10.33-2-20.69-3.87c-4.29-.8-8.58-1.63-12.89-2.33-2.38-.38-4.85-.32-7.2-.8-4.33-.9-8.61-2.05-13-3.12-.67,2-1.19,3.77-1.89,5.49C177.31,45.59,175.11,50.78,173,56c-1.59,3.93-3.11,7.89-4.66,11.84-.89,2.25-1.75,4.51-2.66,6.76-.79,2-1.67,3.91-2.46,5.88-1.07,2.69-2,5.41-3.13,8.08s-2.27,5.43-3.45,8.13c-.5,1.15-1.16,2.24-1.6,3.42-.61,1.6-1,3.29-1.64,4.89-1.06,2.65-2.26,5.25-3.42,7.86-.55,1.23-1.16,2.47-1.58,3.74-.34,1-.88,1.86-1.24,2.79a31.3,31.3,0,0,1-1.91,4.36c-.05.09,0,.23,0,.34a23.46,23.46,0,0,1-.93,3.23c-.78,1.86-1.75,3.63-2.57,5.47a54.64,54.64,0,0,0-2.63,6.53,16.67,16.67,0,0,0-1,3.25c-.1,1-.17,2.48-1.25,2.82a32.44,32.44,0,0,1-1,3.32c-.42,1-.18,2.42-1.43,2.57,0,.7.24,1.51-.05,1.83-.86.95-.81,2.51-2.17,3.1a.77.77,0,0,0-.27.71c.27.55.3.89-.3,1.28-.21.13.05.88-.1,1.26-.26.67-.78,1.23-1,1.9-.33.93-.39,2-.76,2.87-.79,2-1.68,3.87-2.29,5.93a45.74,45.74,0,0,1-2.63,6,16.3,16.3,0,0,0-1.78,4.18c-.08.56-.68,1-1.07,1.59a2.8,2.8,0,0,1,0,.84,9,9,0,0,1-.68,1.74c-.19.35-.23,1.16-1,.57-.14.29-.41.83-.39.83.77.42.39.91.14,1.43-.8,1.74-1.67,3.46-2.35,5.25-1.51,4-2.92,8-4.39,11.95-.62,1.7-1.31,3.37-2,5.06-.56,1.41-1.11,2.82-1.73,4.2a10.39,10.39,0,0,1-1,1.49,8.73,8.73,0,0,1-.33,1.62c-.39.91-1,1.74-1.33,2.67-1,2.89-1.89,5.82-2.86,8.73-.22.68-.83,1.3-.84,1.95a11.91,11.91,0,0,1-1.74,5.55,5.87,5.87,0,0,0-.5.88c-.52,1.53-.95,3.09-1.54,4.6-.51,1.31-1.25,2.53-1.77,3.84-.88,2.16-1.47,4.46-2.54,6.52a23.11,23.11,0,0,0-1.88,4.65,13.12,13.12,0,0,1-1.71,3.51c-.26.41-.91.76-.76,1.25.3,1-.29,1.59-.6,2.34a14.11,14.11,0,0,1-.61,1.38A17.19,17.19,0,0,1,88.49,266.29ZM309.7,465.79c.43-1.22.48-2.39,1.05-2.75a4,4,0,0,0,1.41-1.83q9-18.27,17.92-36.53c2.13-4.33,4.35-8.62,6.48-13,2.88-5.87,5.7-11.77,8.56-17.65.23-.45.4-1,1.13-.95a2.62,2.62,0,0,0,.27-1c0-.11-.3-.37-.29-.38.91-.82.46-2.62,2.1-2.95.08,0,.83-.43.22-.92a.59.59,0,0,1-.05-.54c.43-1,.93-2,1.33-3s1.12-1.73,1.48-2.77a38.7,38.7,0,0,1,2.58-5.15,30,30,0,0,0,2.62-5.07,2.38,2.38,0,0,1,.41-.75,17,17,0,0,0,3.29-6.24,3.64,3.64,0,0,1,1.13-2.2c.82-.44.51-1.11.77-1.63,1.77-3.44,3.54-6.89,5.12-10.42.47-1,.91-1.65,2.2-1.46l-.89-.68c.44-1.05.73-1.94,1.17-2.76q3-5.55,6-11.05c.39-.71,1.11-1.25,1.48-2,.87-1.68,1.55-3.46,2.43-5.13,1.55-2.94,3.2-5.83,4.8-8.74q5.28-9.6,10.57-19.21a6.54,6.54,0,0,0,.26-.64l-1.4-1c2.79-5.56,5.54-11.08,8.33-16.57,1.2-2.35,2.56-4.63,3.74-7,.94-1.9,1.73-3.86,2.56-5.81,1.7-4,4.1-7.63,5.46-11.79a61,61,0,0,1,2.75-6.4c.48-1.05,1.16-2,1.64-3.05.57-1.24.8-2.71,1.59-3.77,2.21-3,2.62-6.71,4.66-9.71-.24-1.26.84-1.93,1.29-2.89,1.26-2.69,2.43-5.42,3.65-8.12q2-4.52,4.07-9c.51-1.1.8-2.64,1.67-3.12s1-1.09,1.29-1.79.18-1.62,1.31-1.72c.2,0,.55-.91.48-1-.71-.6-.1-1.09.06-1.61,1.32-4.47,3.57-8.55,5.55-12.74,1.12-2.37,2.55-4.6,3.64-7,2-4.26,3.75-8.62,5.7-12.9,2.22-4.86,4.55-9.68,6.8-14.53a5.2,5.2,0,0,0,.36-1.58c0-.32-.18-.7-.11-1a3.75,3.75,0,0,0-1.13-3.6,16.29,16.29,0,0,0-5.65-2.7c-3.15-1-6.47-1.48-9.22-3.5a5,5,0,0,0-3.24-1c-.08,0-.16.07-.23.1l1.11.81-.11.34-3.29-.27a9.26,9.26,0,0,1,.61,2.07,10.62,10.62,0,0,1-.36,2.18c1.08.29,2.25.56,3.39.92a2.83,2.83,0,0,1,1.5.73c.52.75,1.25.79,2,1s1.28.42,1.91.63a7.37,7.37,0,0,0,1.45.46,2.93,2.93,0,0,1,2.51,1,12.26,12.26,0,0,1,1.45,1.19c.69.86,1.61,1.71,1.26,3A34.79,34.79,0,0,1,453,161.6c-1.1,2.68-2.25,5.36-3.44,8a87,87,0,0,1-4.3,9.1c-1.29,2.17-2.15,4.49-3.29,6.7-1.61,3.12-3.15,6.29-4.73,9.43-.95,1.87-2,3.71-2.85,5.61-1.57,3.39-3,6.83-4.58,10.23-.52,1.14-1.17,2.23-1.67,3.38-1.09,2.49-2.07,5-3.19,7.51-1.22,2.69-2.54,5.35-3.83,8-1.95,4-3.92,8.07-5.88,12.1q-10.9,22.53-21.84,45c-2.08,4.27-4.31,8.46-6.42,12.71-.58,1.17-.94,2.45-1.52,3.62-1.2,2.41-2.49,4.76-3.72,7.15-1.64,3.22-3.25,6.44-4.89,9.66-.5,1-1.08,1.94-1.53,2.95-.28.61-.28,1.35-.56,1.95-1.36,2.88-2.75,5.76-4.2,8.6a20.57,20.57,0,0,1-1.66,2.36,11.44,11.44,0,0,0-1.23,1.74c-1.68,3.54-3.24,7.13-5,10.64-1.23,2.49-2.71,4.86-4,7.32-.9,1.69-1.65,3.46-2.52,5.18-1.75,3.5-3.53,7-5.31,10.46-1,2-2,4-3.12,6-.7,1.3-1.58,2.51-2.26,3.82-.93,1.79-1.69,3.66-2.62,5.45-1.26,2.42-2.75,4.73-3.9,7.2s-2,5.38-4.11,7.54l1.66,1.15c-1.83,3.27-3.59,6.44-5.36,9.6-5.66,10.11-11.6,20.07-15.82,30.92A85.81,85.81,0,0,1,311,451.5c-1.06,2-2.35,3.9-3.37,5.93a14,14,0,0,1-3.92,4.45c-3.12,2.55-6.93,2.58-10.66,2.11-3.49-.43-6.92-1.31-10.38-1.92-1.28-.23-2.51-1-3.92-.39-.28.12-.82-.26-1.19-.49-.21-.12-.29-.5-.49-.56-2.84-.91-5.7-1.77-8.54-2.68-1.78-.56-3.53-1.21-5.3-1.78-5.16-1.65-10.34-3.25-15.5-4.91-2.1-.67-4.18-1.4-6.26-2.15-2.65-1-5.28-2-7.93-3a22.06,22.06,0,0,0-3-1c-.93-.19-1.58-1.39-2.73-.76L219.4,442c-2.87-.81-5.74-1.64-8.61-2.46-1.84-.53-3.68-1.08-5.53-1.58-.82-.23-1.68-.36-2.51-.57-.39-.1-.77-.27-1.16-.41.35-.51,0-.5-.36-.53-1.06-.1-2.48.79-2.94-1-.88.27-1.38-1.43-2.45-.46-.17.15-.66,0-1-.07a18.1,18.1,0,0,1-2.51-.64c-.86-.32-1.86-.53-2.12-1.65a7.21,7.21,0,0,1-1.42-.31c-.63-.12-1.09-1.16-1.92-.39,0,.05-.35-.21-.55-.29-.53-.21-1.06-.42-1.6-.59l-5.62-1.75c-.86-.27-1.7-.57-2.54-.87-1.29-.45-2.58-.87-3.85-1.37-.62-.24-1.17-.88-1.77-.91-2.77-.12-5-1.82-7.7-2.28-.89-.15-1.74-1.14-2.52-1-1.24.16-2-.85-3.24-.76s-2.53-.84-3.82-1.24c-3.68-1.14-7.36-2.26-11.06-3.33-1.24-.36-2.54-.53-3.79-.86-.23-.06-.34-.51-.59-.91-1.3-.24-2.86,0-4.36-.67a25.92,25.92,0,0,0-4.47-1.34,23.61,23.61,0,0,0-2.34-.91c-.44-.06-.83.44-1.37-.11s-1.29-.56-2.08-.87c-.08-.06-.29-.34-.54-.4s-.79.08-1.15,0c-1.23-.36-2.42-.92-3.67-1.16a51.6,51.6,0,0,1-10-3.29c-2.46-1-4.64-2.65-7.37-3.08a18.32,18.32,0,0,1-3.11-1.27c-2-.71-4-1.34-5.92-2-1.79-.62-3.59-1.24-5.37-1.89s-3.41-1.23-5-2c-1.4-.61-3.32-.43-4.15-2.19-.06-.12-.46-.06-.7-.1a19.44,19.44,0,0,1-3-.42c-3-.89-5.93-1.92-8.92-2.82a8.86,8.86,0,0,0-3.44-.68,6.68,6.68,0,0,1-7.33-3.85c-.65-1.5-1.19-3.05-1.76-4.58-.79-2.12-1.65-4.22-2.32-6.38s-1.22-4.47-1.77-6.73c-.78-3.24-1.52-6.5-2.26-9.76a33,33,0,0,0-.91-4.13,8.84,8.84,0,0,1-.54-5.46c.06-.23-.25-.56-.23-.53a16.12,16.12,0,0,0,1.12-2,5,5,0,0,1,2.91-2.9,9.15,9.15,0,0,1,2.64-.36,1.63,1.63,0,0,0,1.67-1.3c.23-.72.74-1.66.47-2.16-.67-1.26.4-2.41-.23-3.87-1.82.16-3.81.39-5.8.51a5.88,5.88,0,0,0-5.56,4.19c-.28.75-.69,1.45-1,2.2a17.23,17.23,0,0,0-1.21,7.84c.48,3.54,1.27,7,2.08,10.51.91,3.91,1.9,7.79,3,11.64.91,3.16,1.58,6.42,3.18,9.37a31.38,31.38,0,0,1,1.28,3.2l-.92.08-.37.59c1.39-.61,1.56.3,1.84.86.62,1.24,1.06,2.56,1.59,3.84.07.18.14.43.28.49a15.89,15.89,0,0,0,3.93,1.65c3.13.45,6,2.06,9.27,1.86,1.84,1.16,4.37,1,5.76,3.05.1.15.51.28.59.21.73-.65,1.31,0,1.89.22,1.45.56,2.86,1.21,4.29,1.81,8.18,3.4,16.25,7.08,24.56,10.12,9.71,3.56,19.61,6.57,29.43,9.82,20.8,6.88,41.54,13.93,62.58,20,8.07,2.33,16.1,4.81,24.14,7.22.39.12,1.06.17,1.11.37.27,1.09,1,.33,1.4.34l.06.72a8.31,8.31,0,0,1,2.13,0q13.38,3.94,26.73,7.95l23.71,7.13c6,1.8,12,3.61,18,5.36,1.12.33,2.41.92,3.31-.58.09-.14.69,0,1,.05s.56.21.84.23a19.17,19.17,0,0,0,4.05-.69c1.08-.17,1.71,0,2.17.92l1.61-.94-1.18-.08c.61-.35,1.36-.28,1.77-.62A12.84,12.84,0,0,1,309.7,465.79ZM175.26,33.41c-.11-.13-.16-.27-.26-.3-2.42-.77-4.83-1.59-7.27-2.27-1.13-.32-1.4,0-1.62,1.2a8.84,8.84,0,0,1-.54,2c-1.29,2.93-2.83,5.76-3.88,8.76-1,2.81-2.95,5.23-3.17,8.33,0,.51-.53,1-.87,1.47s-1,.75-.94,1.08c.11,1.45-.73,2.57-1.14,3.82-.47,1.43-1.25,2.75-1.83,4.14s-1.2,3-1.78,4.51A81.92,81.92,0,0,1,148.91,74a44,44,0,0,0-2.2,5.67c-.42,1.23-1,2.4-1.46,3.62s-.73,2.61-1.22,3.86a9.8,9.8,0,0,1-1.78,3.41c-.89.87-.42,2.59-2,2.87a1.1,1.1,0,0,1,.17.32,6.27,6.27,0,0,1-.49,4c-.32.65-1,1.15-1.24,1.81a49,49,0,0,0-2.34,5.86,64.67,64.67,0,0,1-6.09,14c-.19.35-.51.73-.48,1.07.13,2-1,3.53-1.67,5.19-1.73,4.23-3.76,8.34-5.64,12.52-.41.92-.64,1.92-1,2.86-.5,1.27-1.07,2.52-1.61,3.78-1.42,3.33-2.28,6.86-3.81,10.18-2.19,4.75-3.88,9.73-5.76,14.62q-2.09,5.43-4.11,10.86c-.39,1-.59,2.15-1,3.16-.77,1.78-1.56,3.55-2.49,5.23-1.55,2.81-2.2,5.94-3.5,8.85-1.9,4.23-3.43,8.64-5,13-1.19,3.32-2.2,6.71-3.28,10.06A50.11,50.11,0,0,1,89.17,226a56,56,0,0,1-2.83,5,13.85,13.85,0,0,0-.92,1.63q-2.78,7-5.51,14c-3.68,9.4-7.4,18.79-11,28.22-1,2.67-1.71,5.47-2.64,8.18-1.18,3.44-2.45,6.85-3.7,10.26-.53,1.45-1.19,2.84-1.67,4.3-.37,1.12-.5,2.31-.84,3.44a9.3,9.3,0,0,1-1.28,3.31,10.94,10.94,0,0,0-1.41,2.93c-.4,1-1.29,1.91-.89,3.24a3.88,3.88,0,0,1-.33,2.24c-1,2.47-2,4.9-3,7.36a33.84,33.84,0,0,0-1.9,5.14c-.22,1-.65,1.37-1.4,1.37.88,1.32-.52,2.34-.3,3.57a11.37,11.37,0,0,0,5.49-.31A17,17,0,0,0,56,328c.82-2.15,1.59-4.32,2.39-6.49.13-.37.47-.79.39-1.11-.25-.95.49-1.19,1-1.53-.13-.34-.39-.66-.31-.83,1.45-3.14,2.94-6.25,4.51-9.57l-.45-.73,1.58-1.88-.72-.2a20.52,20.52,0,0,0,2.28-2.29,28.06,28.06,0,0,0,1.85-3.19L67,299.25l2-1.36-.68-.18c.76-1.86,1.53-3.7,2.25-5.57.42-1.06.72-2.17,1.13-3.24s.84-2,1.27-3c.36-.83.51-2.07,1.14-2.41,1.35-.73.42-2.6,1.85-3.1-.13-2.67,2.3-4.33,2.69-6.8,2.13-2.58,2.39-5.94,3.72-8.85.25-.55.89-1.17.77-1.58-.49-1.6.63-2,1.66-2.55l-.67-.23a23,23,0,0,1,.55-2.6c.38-1.12.89-2.21,1.37-3.3.6-1.37,1.19-2.75,1.87-4.09.87-1.74,1.82-3.45,2.74-5.17.39-.73,1.06-1.43,1.13-2.19a12.23,12.23,0,0,1,1-4.46,9.36,9.36,0,0,0,.38-1.95,12.09,12.09,0,0,1,.55-1.77,20.72,20.72,0,0,1,.92-2c.33-.62.57-1.46,1.1-1.77.87-.51.5-1.36.68-1.94.64-2.15,2-3.95,2.62-6.12a15.06,15.06,0,0,1,2-3.5l-.35-.66c.75-.21.26-.87.47-1.29.65-1.34,1.27-2.71,1.88-4.08.74-1.63,1.87-3.08,2.11-4.92a7.62,7.62,0,0,1,.23-1.6,29.66,29.66,0,0,1,1.76-4.12c.7-1.3.14-3.22,1.87-4.12a.45.45,0,0,1-.06-.15c-.06-.68.61-1.18.63-1.66a5.88,5.88,0,0,1,.57-2.34c.69-1.4,1.31-2.83,1.89-4.28.42-1,.68-2.15,1.12-3.18q1-2.23,2.09-4.38c.34-.65.43-1.66,1.57-1.55,0,0,.11-.13.21-.27l-.91-.17,0-.29,1.54.08c-.27-.33-.68-.43-.88-.68a1.56,1.56,0,0,1-.21-1c1-.43.68-1.46.94-2.23l.66.37-.35-1.63c1.57-.16.8-1.19.76-2.11l2.44.27-.74-1.69,1.56-1.21-.16-.28-2,1c0-1.67,1.68-.85,2.36-1.46l-.34-1.42c-1,.23-1,.22-.8-.54.15-.57.42-1.11.61-1.67.23-.71.41-1.43,1.45-1.13.14,0,.37-.18.75-.39l-1.51-.22c-.81-1.19,1.31-1,.8-2a88.74,88.74,0,0,0,4-9c.8-2.35,1.69-4.68,2.4-7.07a25.79,25.79,0,0,1,1-2.84,10.69,10.69,0,0,1,1.27-2.34,7.19,7.19,0,0,0,1.69-3.89,1.3,1.3,0,0,1,.13-.67c2-2.5,2.46-5.65,3.62-8.51,1.5-3.68,2.8-7.43,4.22-11.15,1.72-4.51,3.86-8.85,5.45-13.42a27.86,27.86,0,0,1,.77-2.85c1.44-3.11,2.72-6.29,4.17-9.4.79-1.68,1-3.59,2.2-5.11a2.79,2.79,0,0,0,.49-1.62c0-1.21.83-1.86,1.51-2.63.2-.22.56-.48.53-.68-.22-1.67.85-3,1.25-4.47.32-1.17,1.18-2.19,1.54-3.36s1.13-1.91,1.46-3a34.47,34.47,0,0,1,1.88-4.34c1.57-3.5,2.54-7.27,4.53-10.6.11-.18.08-.44.16-.66.82-2.36,1.57-4.74,2.48-7.06C171.73,43.14,174.14,38.57,175.26,33.41ZM357.1,314.2c-1.39-.74-.68-1.67-.25-2.17,1.08-1.25,1.5-2.85,2.62-4.13s1.48-3.18,2.18-4.81a6.84,6.84,0,0,1,.5-1.06,18.14,18.14,0,0,0,2.2-3.55c.92-2.74,2.57-5,4-7.48.55-.95,1.1-1.9,1.6-2.88,1.27-2.54,2.47-5.12,3.77-7.64s2.84-5.16,4.16-7.8c1.19-2.38,2.2-4.87,3.36-7.27,1-2.14,2.24-4.18,3.21-6.34.38-.85.44-1.79,1.41-2.29.24-.12.54-.7.45-.83-.67-1,.44-1.46.71-2.13.66-1.68,1.5-3.3,2.28-4.94.7-1.45,1.41-2.88,2.11-4.33.57-1.2,1.09-2.42,1.71-3.59.76-1.44,1.66-2.81,2.4-4.26.4-.79.48-1.76.93-2.51a48.74,48.74,0,0,0,3.36-6.1c.86-2,2-4,3-6,1.42-2.91,2.76-5.87,4.17-8.79,1.73-3.58,3.49-7.14,5.24-10.71a93.52,93.52,0,0,0,3.92-8.8c.81-2.21,1.94-4.29,2.9-6.46.49-1.12.9-2.27,1.34-3.42.7-1.81,1.47-3.61,2.08-5.45.65-2,1.77-3.75,2.37-5.81s1.19-4.41,2.77-6.17c.1-.12.08-.34.12-.52.24-1,.42-1.95.72-2.9a12.56,12.56,0,0,0,.9-2.18c.35-3.43,2.26-6.26,3.58-9.29a19.29,19.29,0,0,0,1.64-6.23,3.06,3.06,0,0,0-.7-2.24c-.13.26-.21.39-.26.53-1.44,3.5-2.9,7-4.05,10.59a62.66,62.66,0,0,1-3.16,8.68c-1.67,3.39-3,6.94-4.56,10.4-.49,1.11-1.54,2-1.18,3.43a.51.51,0,0,1-.21.42c-.7.38-.66,1-.87,1.7a64.33,64.33,0,0,1-2.51,6c-.7,1.57-1.39,3.15-2.15,4.7-.6,1.21-.42,2.83-1.87,3.62-.1.06-.13.31-.13.47a2.19,2.19,0,0,1-1.52,2.21,5.89,5.89,0,0,1-.18,1.46,6.14,6.14,0,0,0-.83,2.3,5.1,5.1,0,0,1-1,2.75,15.91,15.91,0,0,0-2.76,5.82c-.71,2.67-2.6,4.79-3.14,7.54-.09.48-1,.89-1,1.84,0,.62-.67,1.24-1.07,1.84-1.06,1.6-1.47,3.54-2.86,5a32.29,32.29,0,0,0-2.58,3.35c.11.6.22,1.23.31,1.75-.34.51-.71,1-1,1.51a8.65,8.65,0,0,1-.77,1.62c-1,1.15-2.13,2.21-3.38,3.48l1.21-.19.23.31c-.38.34-.77.67-1.12,1l.85.27c-1.53.05-1,1.2-1.3,1.82l-1.15.18a2,2,0,0,1-.93,2.3,1.69,1.69,0,0,0-.27.32c1.21.36-.12,1.16.3,1.61l-1.53.66,1.11.55a7.69,7.69,0,0,1-1.22,1c-.79.4-.7.81-.22,1.23-.38.17-.91.25-1.18.55-.63.71.55.68.56,1.15,0,.13-.15.28-.18.33-.46-.13-1-.47-1.26-.33-.72.32-.42.75.11,1.07-.14.16-.29.31-.43.48s-.31.36-.28.4c.8,1-.2,1.76-.56,2.48a16,16,0,0,1-1.9,2.5c.73,1.2-1.34,1.52-.85,2.65-1.72,2.17-2.33,4.91-3.71,7.25-1.64,2.79-3.22,5.6-4.59,8.53-1,2.21-2.08,4.4-3.19,6.56-.65,1.27-1.58,2.4-2.13,3.7a56.94,56.94,0,0,1-4.71,8.69c-1.11,1.72-2.09,3.53-3,5.35-.83,1.6-1.49,3.29-2.3,4.9q-3.27,6.48-6.61,12.9c-.7,1.36-1.54,2.64-2.21,4-1,2-1.84,4.14-2.85,6.16-1.85,3.72-3.78,7.39-5.64,11.1-1.3,2.59-2.63,5.17-3.77,7.83a94.92,94.92,0,0,1-4.6,10.18c-.14.25-.29.5-.41.76-1.47,3.16-2.92,6.34-4.42,9.5-.94,2-2,3.92-2.9,5.94a42.94,42.94,0,0,1-3.76,7.82,54.65,54.65,0,0,0-6.47,13.17,22.43,22.43,0,0,1-1.37,2.89c-.57,1.06-1.19,2.09-1.78,3.14,0,.06.09.19.09.29a4.16,4.16,0,0,1-1.58,3.83l.63.46c-.76.45-1.11,1.33-.75,1.85-1.52,1.09-1.52,1.09-.71,2.36l-1.81-.68c-1,.74.29,1.68.2,2.67l-1.72.62c1.23,1.6,1.15,1.62.33,3.14s-1.6,3.34-2.48,5.23h-2.29l0,.3,2.54.45c-1.95,4.05-3.83,8-5.75,11.89a3.15,3.15,0,0,1-.81.82c-1,.93-2.4,1.67-3.08,2.81-1.62,2.74-4.32,3.56-7,3.93-4.84.66-9.31-1-13.59-3.14a11,11,0,0,0-1.33-.66c-9.64-3-19.32-5.87-29.16-8.17a8.29,8.29,0,0,1-2.64-1c-1.2-.73-3-.55-4.58-.77l.22-1.07c-.51.17-1,.55-1.37.42a24.67,24.67,0,0,0-4.26-1.29c-2.88-.64-5.67-1.72-8.52-2.57a17.08,17.08,0,0,1-3.43-.89,26.57,26.57,0,0,0-4.05-1.63c-.76-.28-.88-.66-.8-1.12a3.65,3.65,0,0,1-1.51.1c-.45-.16-.78-.66-1.15-1l-.15.66c-2.2-.48-2.2-.48-2.75-1.55a7.56,7.56,0,0,1-.93.15c-.27-1.12-1.24-.26-1.8-.63a8.69,8.69,0,0,0-2.27-1c-1.52-.47-3.08-.82-4.6-1.27-.21-.06-.33-.42-.61-.82a3.68,3.68,0,0,1-1.68.21,24.62,24.62,0,0,1-3.64-1.62,26.94,26.94,0,0,0-3.05-1.69c-2-.71-4.07-1.2-6.11-1.78-.45-.13-1,0-1-.85,0-.25-.84-.57-1.31-.87l-.36.66c-1.29-.16-2.14-1.38-3.49-1.29-.24,0-.49-.25-.75-.36a19.82,19.82,0,0,0-4.24-1.76c-3-.5-5.41-2.47-8.38-3a21.05,21.05,0,0,1-4-1.62c-.79-.33-1.6-.61-2.35-1-.2-.09,0-.53-.62-.35-1.13.36-1.82-.5-2.48-1.26,0,0,0-.17,0-.27-1.27.29-2.2-.82-3.41-.83-.08,0-.16-.1-.24-.16l.57-.69-1.54-.55c0,.3.06.39.15.46s.12,0,.16,0,.07.08.24.32a4.38,4.38,0,0,1-1.6,0c-.77-.37-1.41-1-2.19-1.4a23,23,0,0,0-2.48-.78c-.14,0-.21-.29-.35-.35-.93-.36-1.88-.69-2.82-1-.08,0-.12-.17-.24-.36h1.35c-.49-.35-.58-1-1.52-.84-.53.12-2.1.67-2.43-.89,0-.08-.35-.2-.43-.15-.72.51-1.1-.14-1.65-.39-1.75-.8-3.56-1.5-5.33-2.26a17.16,17.16,0,0,1-3.66-1.75c-1.14-.88-2.18-1.59-3.67-1.31a.79.79,0,0,1-.47-.08l-4.68-2.29-3.36-1.65.49-.13-4.55-1.48,1.25-.41c-.8-.1-1.78.33-2.2,0a20.87,20.87,0,0,0-7.21-3.37,7.4,7.4,0,0,1-2-.41c-2.52-1.61-5.49-1.93-8.21-2.95-1.73-.64-3.63-.59-5.32-1.62a10.78,10.78,0,0,0-4.65-1.61c-1.89-.13-3.37-1.16-5.11-1.57-2.78-.67-5.47-1.66-8.23-2.42-1.53-.41-3.1-.62-4.71-.94-.22.83-.28,1.43.77,1.74a17.33,17.33,0,0,1,2,1.08,32.64,32.64,0,0,0,3.6,1.66c2.2.72,4.45,1.33,6.62,2.15,2.49.94,4.91,2.06,7.36,3.11,2,.86,3.91,1.82,5.92,2.57,2.87,1.06,5.81,2,8.71,3,.68.23,1.3.65,2,.88,1.52.49,3.09.82,4.57,1.38,3.82,1.45,7.61,3,11.4,4.5,3,1.22,6,2.42,9,3.77s6.05,2.05,8.57,4.13a1.72,1.72,0,0,0,1,.34c2.06.09,3.71,1.34,5.59,2A43.85,43.85,0,0,1,146,395.4c2.27,1.09,4.5,2.26,6.76,3.36,2,1,3.94,1.94,6,2.78,4,1.66,8,3.21,12,4.84,1.15.46,2.24,1.09,3.4,1.51,2.92,1,5.86,2,8.79,3q30.81,10.47,61.6,20.94c1.76.6,3.4,1.57,5.16,2.18,2.58.9,5.22,1.63,7.84,2.4.37.11.82-.06,1.18.05,1.66.55,3.29,1.18,5,1.72.61.2,1.29.24,1.54,1,1.15-.86,2,.57,3.09.41a1.43,1.43,0,0,1,1.21.47,1.84,1.84,0,0,0,1.93.71,9.53,9.53,0,0,1,2.23.34c1.92.29,3.39,1.78,5.48,1.83a20.26,20.26,0,0,1,5.19,1.16,9.9,9.9,0,0,0,6.89-.77c1.15-.49,2.67-1,2.79-2.84,0-.35.9-.64,1.39-.95.15-.1.42-.14.48-.27a19.72,19.72,0,0,1,2.62-3.9c1-1.41,1.49-3.2,2.31-4.78a54.55,54.55,0,0,0,2.19-5.57l1.65.3c-.48-.59-1-1-1.1-1.41-.23-1.09,1.21-1.75.9-2.93.94-.1.46-1,.74-1.35s.22-1.65,1.47-1.48c.35.05.85-.58.4-1.18-.15-.2-.28-.41-.2-.29a29.61,29.61,0,0,1,2.21-5.25c1.11-1.68,1.41-3.64,2.34-5.34s1.89-3.1,2.85-4.65c-.86-.21-.8-.72-.27-1.1a4.92,4.92,0,0,0,1.26-1.87c.32-.59.29-1.36,1.15-1.55.1,0,.27-.34.24-.37-.61-.67.1-.83.42-1.14-.81-.62.2-.82.31-1.23s.59-.82.66-1.27c.45-2.86,2.4-4.94,3.79-7.3.47-.8,1.6-1.57,1.54-2.28-.14-1.69,1.68-2.36,1.62-3.86,1.31.13,1.07-1,1.09-1.61a1.1,1.1,0,0,1,.75-1.14l1.1-.56c-1-.63-.4-1.16,0-1.64.11-.12.45,0,.7,0,.1-1.84.46-3.74,2.37-4.69a8.84,8.84,0,0,1,.24-1.84c.43-1.19,1-2.35,1.47-3.51s1-2.12,1.46-3.18l3.19-7c.51-1.13,1-2.28,1.53-3.42.26-.56.61-1.09.83-1.66.75-2,1.42-4,2.2-6,.7-1.77,1.48-3.5,2.24-5.24,1-2.35,2.06-4.69,3.12-7,.55-1.19,1.59-2.31,1.68-3.52a10.89,10.89,0,0,1,2-4.88c1.27-2,2.19-4.22,3.47-6.21.32-.5.73-1.22,1.62-1,.07,0,.21-.19.35-.32l-.59-.54ZM201,424.89c1.91.37,3.76.7,5.59,1.09a8.55,8.55,0,0,1,1.92.66c2.2,1.06,4.35,2.21,6.56,3.23,1.38.63,2.84,1.11,4.27,1.64s3.36.62,4.22,1.63c1.26,1.48,2.9.43,4.08,1.31.07.06.28,0,.32.05.78,1.13,2.08,1.1,3.19,1.44,9.19,2.76,18.6,4.74,27.65,8a54.31,54.31,0,0,0,9.76,2.36,36.87,36.87,0,0,1,11.63,3.42,1.39,1.39,0,0,0,.65.09h2.28l-1,.79a13.61,13.61,0,0,1,2.88,0c2.08.47,4.11,1.16,6.18,1.64a2.86,2.86,0,0,0,1.95-.28c1.7-1,3.48-2,4.39-3.88.14-.3.34-.76.59-.82,1-.24.85-1.06,1.09-1.73a21.71,21.71,0,0,1,1.31-3.05c.87-1.58,1.94-3.05,2.78-4.64,1.06-2,1.95-4,2.95-6.05,1.27-2.54,2.62-5,3.87-7.59.67-1.35.46-3,1.34-4.33a19.1,19.1,0,0,0,1.39-3.49,10.36,10.36,0,0,1,.68-1.52c.89-1.5,1.92-2.94,2.72-4.49,1.25-2.38,1.9-5,3.47-7.3a23.3,23.3,0,0,0,1.52-3.23c1.29-2.68,2.57-5.37,3.92-8,1.74-3.42,3.62-6.77,5.31-10.22,1.23-2.52,2.05-5.26,3.4-7.71s2.24-4.88,3.39-7.3c.84-1.77,1.33-3.75,2.41-5.35,2.43-3.6,4.13-7.57,6.17-11.35,1.05-1.93,1.92-4,3-5.88,1.2-2.23,2.56-4.38,3.72-6.63s2.15-4.56,3.25-6.83c.39-.8.95-1.51,1.32-2.31s.56-1.69.9-2.51c.71-1.72,1.55-3.39,2.12-5.16a11.08,11.08,0,0,1,.25-1.28c1.58-.38,1.27-2,2.1-2.84l-1.16-.53c2.21-.48,2.72-2.19,3-3.63.49-2.61,2-4.74,2.94-7.13.63-1.64,1.82-3.12,2.51-4.85,1.08-2.66,2.6-5.16,3.56-7.86.34-.95,1.76-1.22,1.33-2.47,1.17-2.48,2.31-5,3.52-7.44q9.43-19.19,18.9-38.36,9.74-19.71,19.46-39.4,9.51-19.28,19-38.55l3.72-7.58-1.54-1,.46-1.59-2.08-.91c-.3.64-.53,1.1-.74,1.57q-6.92,15.35-13.83,30.69c-2.35,5.2-4.77,10.38-7.15,15.57-.62,1.34-1.18,2.71-1.84,4-1.31,2.64-2.7,5.23-4,7.87-1,2.09-1.94,4.24-3,6.32-1.34,2.69-2.9,5.27-4.11,8a62.38,62.38,0,0,1-4.06,8.14,5.79,5.79,0,0,0-.37.75l-1.53,3.54c-1.06,2.49-3,4.52-3.74,7.19a12,12,0,0,1-1,1.75c-.55,1.16-1,2.39-1.59,3.5s-.82,2.45-2.06,3.07c0,.56.24,1.18,0,1.62s-1,.79-1.22,1.3.36,1.1-.26,1.58c-.35.27-.88.59-.91.93-.27,2.76-2.6,4.58-3.14,7.29-.37,1.83-1.67,3.48-2.56,5.21A31.86,31.86,0,0,1,377,279a22.74,22.74,0,0,0-1.9,3.62c-1.35,2.84-2.53,5.76-3.9,8.58-3.07,6.31-6.39,12.49-9.18,18.93-.66,1.55-1.43,3-2.16,4.57-.86,1.77-1.73,3.53-2.6,5.3a3.83,3.83,0,0,0-.48.85c-.47,2.29-1.84,4.18-2.78,6.25a35.53,35.53,0,0,0-1.81,3.41c-.86,2.53-2.42,4.76-3.47,7.24-.34.81-.2,1.79-.91,2.48a2.87,2.87,0,0,0-.95,2.07c0,.77-1.39,1.07-1,2.14-1.09,1.12-1,2.84-2.23,4-.89.86-1.25,2.3-1.8,3.5-.37.82-.62,1.69-1,2.5-.29.63-1,1.24-1,1.81.09,1.11-1.12.91-1.33,1.73a19.71,19.71,0,0,1-1.44,3.27q-2.36,5.06-4.74,10.1c-.54,1.14-1.09,2.28-1.7,3.37-.7,1.24-1.47,2.43-2.23,3.67l-1.36-.17c.35.67,1.42.57.65,1.77a60.87,60.87,0,0,0-3.43,7l-1-.24-.08.18,1,.75-1.55.95c0,.19.21.61.09.9a16.13,16.13,0,0,1-1.23,2.37,26.17,26.17,0,0,0-2.95,6.51,7.83,7.83,0,0,1-.62,1.42,35.78,35.78,0,0,0-2.61,5.12,45.55,45.55,0,0,1-3.26,6.92c-1,1.86-1.93,3.73-2.71,5.67-.56,1.38-.76,2.9-1.19,4.34a21.74,21.74,0,0,1-1,2.29c-1,2.35-1.95,4.7-2.95,7-.5,1.19-1,2.39-1.57,3.52-.77,1.47-1.09,3.24-2.71,4.16-.24.13-.54.35-.6.59-.51,2.22-2.84,3.06-3.78,5-.37.78-1.41,1.17-2.19,1.71a9.64,9.64,0,0,1-6.39,1.32,43.23,43.23,0,0,1-7.2-1.55c-1.07-.27-2.08-.76-3.15-1-.78-.18-1.64-.05-2.41-.25-3.05-.78-5.9-2.15-9.09-2.57a58.18,58.18,0,0,1-8.55-2.16c-4-1.14-7.89-2.41-11.85-3.56-2.22-.65-4.49-1.13-6.71-1.78-1.68-.49-3.32-1.12-5-1.69-5.22-1.79-10.44-3.6-15.68-5.36-1-.35-2.17-.47-3.25-.73a6.2,6.2,0,0,1-1.19-.41c-1.46-.65-2.53-2-4.2-2.32a2.08,2.08,0,0,1-1.14-.65c-.56-.71-.64-.78-1.36-.65a7.88,7.88,0,0,1-1.38,0l-.15-1.19c-1,.55-1.83,0-2.68-.3a3,3,0,0,0-.82-.25c-.47-.05-1.05.14-1.37-.08s-.37-.82-.55-1.29l-1.46.62-2.49-1.05.85-.48c-1.67-1.59-4,.21-5.74-1.21l.77-.37,0-.27-1.88.29a1.06,1.06,0,0,0-.24-.22c-.72-.53-1.59-1.6-2.13-1.45a2.85,2.85,0,0,1-2-.1c-1.22-.55-2.36-1.27-3.56-1.89A16.6,16.6,0,0,0,179,412.6c-3.28-1.06-6.57-2.08-9.85-3.11l-11.39-3.6c-.47-.15-1-.53-1.38-.4-.65.22-.94-.06-1.35-.41s-1-.81-1.25-.7c-1,.38-1.6-.19-2.38-.61-2.45-1.31-5.29-1.47-7.82-2.55-.13-.05-.34.12-.49.09-1.13-.21-2.26-.42-3.37-.7-.88-.23-1.71-.6-2.58-.84-2.62-.71-5.28-1.29-7.88-2.1s-5.1-1.82-7.66-2.72c-4.86-1.72-9.73-3.41-14.59-5.14-2-.7-3.9-1.49-5.86-2.19-2.29-.81-4.62-1.52-6.9-2.36-1.26-.46-2.44-1.17-3.7-1.63-1.65-.6-3.37-1-5-1.6-3.88-1.39-7.75-2.84-11.62-4.28-.63-.24-1.21-.58-1.83-.83l-5.86-2.32L66,375c.84.63,1.66,1.28,2.52,1.89,1.72,1.22,3.43,2.45,5.2,3.59a20.06,20.06,0,0,0,3,1.52c1,.42,2,.72,3.06,1.08s2.07.81,3.14,1.11,1.23,1.45,2.46,1.31a6,6,0,0,1,2.42.55,13.61,13.61,0,0,0,2.24,1,6.71,6.71,0,0,1,1.85.7c.45.22.81.62,1.27.81.27.11.67-.1,1,0,.15,0,.18.55.33.58a13.57,13.57,0,0,0,3.41.68c1.79,0,3,1.66,4.87,1.35.08,0,.19.27.32.36s.43.35.6.32c2-.39,3.54.87,5.18,1.6a46.73,46.73,0,0,0,5.23,2c1.86.58,3.72,1.21,5.59,1.79.75.23,1.52.37,2.28.55.6.15,1.22.26,1.8.46,3.15,1.07,6.29,2.17,9.4,3.25l-.49.3c1.56-.36,2.67,1.68,4.45.5l-.44,1.41,2.17-.14c.05.13.1.47.25.52.94.36,1.89.69,2.85,1a12.13,12.13,0,0,1,2.91.84c.69.42,1.06.35,1.52-.11a22.26,22.26,0,0,0,6.43,2.63,4.77,4.77,0,0,1,1.06.16c1.39.43,2.78.88,4.16,1.35,2,.69,4.05,1.46,6.11,2.06,1.06.3,1.93,1.38,3.24.83.2-.08.55.11.81.22,1.34.57,2.75.94,4.09,1.59,1.69.82,3.7,1,5.53,1.54,1,.31,1.93.94,2.94,1.31,1.45.53,2.94,1,4.41,1.44a19.73,19.73,0,0,1,3.46,1.13,5.19,5.19,0,0,0,3,1c.21,0,.46.29.68.45s.51.51.63.46c1.54-.65,2.35,1.1,3.83,1.11,1.64,0,3.27.93,5,1.49ZM142.33,381c-1.2-.13-1.15-.22-3.64-1.69-.51-.3-1.15-.47-1.71-.86a7.84,7.84,0,0,0-1.81-.59c-1.36-.5-2.72-1-4.07-1.53-1.59-.59-3.2-1.14-4.76-1.8a29,29,0,0,1-6.3-3.21c-1.1-.82-3.11-.74-3.81-1.71-.85-1.19-2.69.19-2.9-1.57-1,.1-1.74-1.17-2.89-.64a.81.81,0,0,1-.69-.35c-.27-.76-.81-.69-1.46-.82a43.16,43.16,0,0,1-4.83-1.44c-.61-.2-1.14-.63-1.74-.83s-1.35-.23-2-.44a7.21,7.21,0,0,1-1.2-.68c-1.46-.8-3.22-.45-4.71-1.32a17.8,17.8,0,0,0-3.57-1.27c-1.72-.53-3.45-1-5.18-1.52-1.36-.39-2.73-.69-4.08-1.11-.86-.26-1.65-.77-2.51-1-1.54-.33-3.12-.5-4.68-.76s-3.06-.88-4.68-1.12A68.56,68.56,0,0,1,60,352.4a2.65,2.65,0,0,0-2.5.25L59,355.52c2,.43,3.85.8,5.73,1.26,2.47.61,4.94,1.23,7.39,1.93a35.3,35.3,0,0,1,3.68,1.35c.54.22,1,.6.57,1.47,1.26-.9,2.35-.14,3.44.19,3.26,1,6.49,2.06,9.76,3,2.23.64,4.56.94,6.75,1.68,3.59,1.21,7.1,2.66,10.65,4,.21.08.43.14.63.23,2.33,1.16,4.61,2.42,7,3.44,4.17,1.78,8.44,3.33,12.61,5.13,3.68,1.58,7.26,3.42,10.92,5.07,1.69.76,3.49,1.31,5.21,2,1.93.81,3.82,1.75,5.75,2.55,3,1.24,6,2.41,9,3.61l12.15,4.86c1.22.49,2.43,1,3.66,1.46a46.22,46.22,0,0,1,5.95,2.4,45,45,0,0,0,8.14,3.5c11.63,3.87,23.24,7.78,34.9,11.56s23.09,8,34.89,11.22c1.87.51,3.77.92,5.64,1.42,1.58.42,3.15.9,4.86,1.4l-.9.54c1.37.11,2.33,1.61,3.81,1a.56.56,0,0,1,.42.14c1.31,1,3,1.16,4.46,1.73s2.83,1.7,4.59,1.62c.12,0,.25.25.4.3,1.26.42,2.52.83,3.8,1.18a1,1,0,0,0,.76-.3,2.63,2.63,0,0,0-.24-3.26c-.73-.51-1.42-1.07-2.16-1.58-.37-.25-.92-.69-1.18-.57-1.21.55-1.93-.24-2.8-.76a16.75,16.75,0,0,0-2.18-.92,27.64,27.64,0,0,1-2.95-1.28,3,3,0,0,0-3.08-.33c-.2.11-.61.18-.71.07-.93-1-2.23-.83-3.36-1.18-4.6-1.44-9.18-2.94-13.77-4.4-1.13-.36-2.29-.61-3.4-1a22.55,22.55,0,0,0-2.35-1.19c-2.18-.52-4.41-.86-6.61-1.3-.12,0-.21-.23-.36-.41l1.19-.33-.51-.86a2.55,2.55,0,0,1-3.17.22c-.29-.17-.75,0-1.11-.07a7.36,7.36,0,0,1-2.68-.71,3.56,3.56,0,0,0-2.46-.84c-.7.05-1.51.05-1.6-1-2,.78-3.59-.14-5.23-1a18.81,18.81,0,0,0-2-.72c-.56-.21-1.1-.46-1.66-.67-1.58-.6-3.14-1.52-4.77-1.7a23.35,23.35,0,0,1-5.16-1.46c-2.61-.91-5.1-2.17-7.68-3.16-2.33-.89-4.71-1.61-7.07-2.42-2.66-.92-5.32-1.83-8-2.77a35.25,35.25,0,0,1-5.61-2.12C181,397.63,179,397,177,396c-1.06-.52-2.29-.67-3.36-1.17a9.89,9.89,0,0,0-3.55-1.36,6,6,0,0,1-2-.92,2.43,2.43,0,0,0-.9-.36,8,8,0,0,1-3.29-1.16c-1-.5-2.07-1-3.12-1.49-2.26-1-4.54-1.92-6.79-2.92q-5.3-2.37-10.56-4.82A6.82,6.82,0,0,1,142.33,381Zm207.94-34.54c0,.17,1.79.64,0,1.19.42.93-1.09.9-.85,1.44.32.75-.17,1.06-.43,1.52-1.07,1.84-2.18,3.67-3.23,5.53-.52.91-.93,1.88-1.42,2.81a8.44,8.44,0,0,0-1.12,2.08c-.58,2.95-2.74,5.15-3.58,8-.68,2.33-2.2,4.43-3.37,6.62-.57,1.07-1.32,2.06-1.79,3.17-.78,1.81-1.33,3.71-2.1,5.52-.85,2-1.85,4-2.85,6.09a5,5,0,0,0,.65-.09c1.76-.59,2.34-2.29,3.11-3.66a74.6,74.6,0,0,0,3.21-7c1.32-3.07,3.45-5.78,4.17-9.13A2.92,2.92,0,0,1,341,370c1.49-2.82,3-5.64,4.44-8.48.41-.79.57-1.71,1-2.5a30.09,30.09,0,0,1,2.22-3.65,23.66,23.66,0,0,0,2-3.44c1.29-2.54,3.33-4.59,4.57-7.22,1.12-2.37,2.91-4.4,3.87-6.91.55-1.42,1.45-2.7,2.1-4.08,1.05-2.21,1.93-4.5,3-6.69,1.54-3,3.22-6,4.82-9a15.66,15.66,0,0,1,.65-1.57,37.21,37.21,0,0,0,4.12-7.63c1.13-3,3.31-5.38,4.29-8.47a44.14,44.14,0,0,1,3-6.24c.84-1.67,1.77-3.3,2.56-5,1.73-3.7,3.41-7.42,5.08-11.14,1.56-3.46,3.06-7,4.64-10.42.5-1.09.81-2.31,2-3a1.68,1.68,0,0,0,.56-1.36c-.1-1.5.64-2.72,1.19-4,.42-1,.85-2,1.3-3,1.15-2.52,2.32-5,3.47-7.56,1.07-2.33,2.24-4.62,3.15-7,.6-1.55.72-3.23,1.56-4.76s1.11-3.24,1.9-4.73c1.92-3.62,4-7.13,6-10.72,1.8-3.29,3.51-6.61,5.25-9.93.21-.39.28-.87.49-1.26,1.45-2.69,3-5.34,4.36-8.06,1.61-3.18,3.11-6.42,4.6-9.66,1.84-4,3.88-7.91,5.47-12,1.3-3.34,2.93-6.56,4.43-9.82q1.16-2.47,2.39-4.91a35.28,35.28,0,0,0,3.3-7.53c.39-1.65.39-1.65-1.41-2-.42.82-.87,1.63-1.25,2.48-.52,1.16-1,2.34-1.48,3.51-.58,1.37-1.17,2.73-1.76,4.1-.44,1-.87,2-1.32,3-.72,1.64-1.47,3.27-2.17,4.91-1.11,2.59-2.16,5.19-3.3,7.76-.33.75-1,1.36-1.3,2.12a29.13,29.13,0,0,1-3.31,6.45,13,13,0,0,0-1.39,2.7c-1,2.4-1.86,4.83-2.85,7.22-.34.83-.94,1.55-1.35,2.35-1.16,2.32-2.21,4.71-3.45,7s-2.33,4.26-3.61,6.34C411.22,221.9,408,228,404.67,234c-.46.83-1,1.63-1.37,2.48-.6,1.26-1.12,2.55-1.7,3.82s-1.27,2.28-1.72,3.54c-.67,1.88-1.62,3.65-2.42,5.48-.43,1-.58,2.24-1.29,2.91-1,.92-1.12,2.08-1.6,3.14s-1.05,2.22-1.6,3.31-1.25,2.28-1.8,3.45c-.34.7-.37,1.62-.85,2.17-1,1.19-1.19,2.65-1.65,4-.17.48-.3,1-.5,1.44-1.05,2.42-2.29,4.77-3.12,7.27a36.77,36.77,0,0,1-3.19,7.5,5.4,5.4,0,0,0-.75,1.31A56.57,56.57,0,0,1,375,299.13c-.65,1.11-1.29,2.23-1.87,3.38-.89,1.74-1.71,3.52-2.57,5.28a5.52,5.52,0,0,1-1.15,1.22c.14.24.48.58.41.76a6.37,6.37,0,0,1-1.12,2.22,10.15,10.15,0,0,0-2.32,4c-.87,2.54-2.8,4.45-3.62,7-.1.3-.59.47-.9.71a3.83,3.83,0,0,1-.42,2.22c-1.4,2.31-2.38,4.84-3.68,7.2s-3,4.84-3.75,7.69a14.38,14.38,0,0,1-2,3.86A12.36,12.36,0,0,1,350.27,346.42Zm80.82-213.73a3.57,3.57,0,0,1-.24.89c-1.43,2.12-1.46,4.84-3.24,6.88-.71.83-.69,2.37-1.43,3.49a16.51,16.51,0,0,0-1.37,3.25c-.54,1.45-1,2.94-1.58,4.37A40.52,40.52,0,0,0,421,157a17.23,17.23,0,0,1-1.68,3.24c-.41.8-.76,1.64-1.14,2.46l-4.84,10.68c-.27.61-.46,1.26-.75,1.87-1,2.05-2,4.07-3,6.14-1.17,2.59-2.13,5.28-3.37,7.83-1.58,3.26-3.48,6.36-5,9.63-1.79,3.83-3.31,7.79-5,11.67-.5,1.14-1.13,2.23-1.73,3.33-.32.58-.74,1.11-1.06,1.7-.53,1-1,2-1.53,3s-1.32,1.84-1.79,2.85c-1.75,3.83-3.41,7.69-5.13,11.54-.26.58-.67,1.11-1,1.69a37.64,37.64,0,0,1-2.13,4.54c-1.51,2.33-3.07,4.59-3.37,7.46a2.57,2.57,0,0,1-.25.8c-1.59,3.35-3.19,6.68-4.78,10-1.36,2.85-2.73,5.7-4,8.57-.72,1.6-1.33,3.25-2,4.88q-2.09,5.2-4.14,10.42a1.4,1.4,0,0,0,.62,2c.51-.66,1-1.32,1.53-2a18.78,18.78,0,0,0,1.71-3.45c.86-1.66,1.82-3.28,2.55-5,.87-2.06,1.83-4.09,2.63-6.19a93.81,93.81,0,0,1,5.05-10c1.53-2.92,3.12-5.81,4.64-8.73,2.59-5,5.1-10,7.72-14.91,1.27-2.41,2.7-4.73,4-7.1.64-1.15.95-2.47,2.12-3.34a3,3,0,0,0,1-1.9c.25-2.26,1-4.18,3-5.35a2.31,2.31,0,0,1,.1-2.23c.9-1.67,2.4-3,3-4.83.09-.28.59-.44.84-.62-.13-.23-.41-.54-.35-.67.82-1.66,1.7-3.29,2.55-4.94a6.45,6.45,0,0,0,.21-.62c.48-1.28.94-2.57,1.47-3.83.26-.62.52-1.5,1-1.71.86-.38.3-1.07.62-1.54a12.86,12.86,0,0,0,1.13-2.33c.52-1.26,1-2.56,1.52-3.8.13-.3.62-.44.68-.48,0-.46-.11-.82,0-1,2.31-3.72,3.62-7.89,5.36-11.86,1.09-2.49,2-5.08,2.94-7.62.61-1.58,1.18-3.17,1.84-4.72.12-.27.63-.37,1-.57-1.05-.56-.52-1.5-.14-2.11a47.6,47.6,0,0,0,2.34-5.15c2.86-6,4.44-12.32,6-18.68A2.8,2.8,0,0,0,431.09,132.69ZM130.37,403.07a58.51,58.51,0,0,1-6.28-1.72,33.59,33.59,0,0,0-6.14-1.24c-2.5-.47-5-1.2-7.43-1.82a13.41,13.41,0,0,1-1.66-.41c-2.07-.79-4.12-1.66-6.21-2.4-.76-.28-1.66-.2-2.43-.48-2.76-1-5.47-2.18-8.25-3.15-3.48-1.22-7-2.29-10.49-3.46-1.39-.47-2.73-1.11-4.14-1.53-3.2-1-6.33-2.24-9.8-1.95-1.71.14-1.72,0-2.09,2.08,1.94.78,3.89,1.62,5.89,2.32A8.66,8.66,0,0,1,74,390.53c.2.18.54.46.67.4,1.11-.56,1.89.36,2.8.59,2.31.6,4.33,2.06,6.83,2.19a12.3,12.3,0,0,1,3.27.91c1.66.56,3.31,1.15,4.94,1.79s3,1.31,4.57,2c.19.08.39.23.57.22,1.39-.08,2.37.92,3.78,1.1-1,1.08-1,1.08.65,1.86a5.3,5.3,0,0,1,.41-.42c.86-.7,1.7-.55,1.62.15a16.57,16.57,0,0,1,1.89.33c.15,0-.1.61.5.47,2.18-.49,3.9.87,5.79,1.54.52,1.43,2.08,1,3.08,1.6a17.24,17.24,0,0,0,5.3,1.37c.87.15,1.63,1.23,2.65.41a2.29,2.29,0,0,0,.14.27c.87,1.08,2.14,1,3.34,1.15.21,0,.52-.11.63,0,1.81,1.59,4.19,1.81,6.27,2.68.93-1.1,1.14-1.12,2.22-.41a5.15,5.15,0,0,0,1,.38c.3.13.85.28.85.4-.07.93.7.55,1.07.68s.8-.2.95,0c.87.81,2,.62,3,1a10.22,10.22,0,0,0,2.77.68,14.74,14.74,0,0,1,4,1.41c1.35.52,2.66,1.16,4,1.57,2,.58,4,1,6.05,1.48.1,0,.28.05.28.09.1,1.26.88.86,1.62.73.26,0,.59.18.88.3a13.41,13.41,0,0,0,1.39.65c1.81.59,3.69.89,5.52,1.53,4.06,1.44,8.24,2.56,12.39,3.76q21.64,6.23,43.31,12.41a13.1,13.1,0,0,0,2.13.19c-.26-.53-.37-.88-.45-.87-2,.14-3.67-1.15-5.54-1.58-.81-.19-1.52-.77-2.33-1-2.6-.77-5.28-1.32-7.83-2.23-3.73-1.33-7.37-2.9-11.06-4.37-.9-.36-1.81-.71-2.72-1a26.8,26.8,0,0,1-2.75-.9c-.69-.34-1.21-1-1.88-1.43-1.69-1.07-3.94-.65-5.52-2-2.06.29-3.63-.72-5.22-1.82a6.56,6.56,0,0,0-2.45-.85,24.89,24.89,0,0,0-2.84-.32l.51-1-2.27.3c-.93-1.19-.93-1.18-2.53-1.2-.1,0-.2-.13-.3-.19-.7-.4-1.51-1.26-2.07-1.11-1.57.39-2.68-.58-4-.91-1.57-.41-3.09-1.05-4.67-1.38s-3-.62-3.84-1.79c-.74-.18-1.25.74-2-.12-.25-.31-1.22.07-1.66-.19a18,18,0,0,0-4.63-1.67c-3.08-.89-6.1-2-9.16-3-1.34-.44-2.93-.49-4-1.26s-2.3-.74-3.51-1A16.55,16.55,0,0,1,129,403.5ZM385,294.71c-.78-.11-1.2.32-1.55,1-.65,1.28-1.37,2.52-2.08,3.77-1.22,2.16-2.87,4-3.87,6.37s-1.77,4.55-3.52,6.33c-1,3.7-3.43,6.67-5.08,10-2.11,4.31-4.37,8.55-6.56,12.82l-.25.45c-1.42,2.95-2.73,6-4.3,8.83s-3.6,5.62-4.89,8.74c-.42,1-.35,2.44-1.84,2.83-.15,0-.2.48-.3.73a8.22,8.22,0,0,1-.54,1.41c-1.46,2.49-3,5-4.41,7.45a69.39,69.39,0,0,0-3.4,6.06c-2,4.38-3.77,8.86-5.71,13.26-1.12,2.53-2.41,5-3.6,7.49-.15.31-.13.71-.28,1-.61,1.2-1.3,2.35-1.87,3.56a43,43,0,0,0-2.59,5.54,38.87,38.87,0,0,1-2.12,4.36c-.93,2.07-1.71,4.21-2.68,6.25-2.42,5.09-5,10.12-7.37,15.22-3.21,6.82-6.94,13.39-9.52,20.5-.43,1.21-.95,2.39-1.42,3.59l1.79.83,2.34-1.21c.88-2.7,1.85-5.65,2.78-8.61a19.22,19.22,0,0,1,.64-2.59q11.16-23,22.38-46.05c4.09-8.4,8.28-16.75,12.27-25.2,1.57-3.33,3.76-6.44,4.26-10.23a.8.8,0,0,1,.16-.3c1.43-2.42,2.79-4.89,4.32-7.25a60.28,60.28,0,0,0,3.78-7.59,22.88,22.88,0,0,1,2.07-3.16,1.6,1.6,0,0,0,.07-.33,6.22,6.22,0,0,1,.3-1.22c.66-1.47,1.33-2.95,2.07-4.38s1.64-3,2.5-4.53a7.47,7.47,0,0,1,1.41-2,2.21,2.21,0,0,0,.7-1.77,5.65,5.65,0,0,1,.76-1.62l1-.39-1,.05-.12-.34,2.37-1.37-.22-.55,1.62-.5c-.5-.52-.07-1.33-.91-1.66l1.75-.18-1.38-.47c.87-.56,1.61-1,1.43-2.12-.06-.4.52-1,.91-1.37a1.38,1.38,0,0,0,.34-1.79s0-.11.05-.16c.9-1.59,1.77-3.21,2.72-4.77.3-.49,1.25-.92,1.18-1.24-.22-1.09.41-1.12,1-1.08a4.57,4.57,0,0,1-.07-1.74,25.18,25.18,0,0,1,1.79-3.46c.75-1.22,1.16-2.73,2.63-3.29C383.43,297.19,386.06,296.18,385,294.71ZM326.84,396.87l-.48-.17c-.2.29-.41.58-.61.88s-.48.92-.62.89c-1.15-.25-1.15.71-1.46,1.31-.61,1.18-1.17,2.37-1.74,3.56q-9.85,20.93-19.75,41.83c-.81,1.7-1.23,3.7-3.13,4.85l1,.18a65.93,65.93,0,0,1-10.55,5c.2-1.13-.19-1.5-1.12-1.49a8.22,8.22,0,0,1-2.16-.22Q272.62,450,259,446.43c-2.34-.61-4.71-1.13-7-1.89s-4.61-.76-6.84-1.77-4.61-1.22-6.9-1.9c-1.5-.44-3-.94-4.47-1.48a4.69,4.69,0,0,0-3.16-.1l7.9,2.33-.3,1.71c2,.69,4,1.32,6,2.05,3,1.11,6,2.35,9,3.42,1.76.62,3.6,1,5.4,1.54s3.33,1.11,5.08,1.47c3.06.64,6,1.66,9.06,2.46a37.86,37.86,0,0,1,3.87.78c3,1.12,6.29,1.06,9.25,2.31.46.2,1.1,0,1.55.2a8.37,8.37,0,0,0,4.91,1c1.87-.33,3.84-.51,5.16-2.22.2-.26.76-.22,1.12-.38,1.71-.78,3.16-1.67,3.62-3.81.24-1.1.22-2.51,1.57-3.33a3.1,3.1,0,0,0,1.2-2.23c.06-1.5,1.18-2.41,1.76-3.57.36-.72.35-2,1.59-2.24.11,0,.26-.53.2-.75-.34-1.12.46-1.83.91-2.65s1.54-1,.88-2.08c1-.69.79-1.92,1.21-2.87,1.17-2.69,2.29-5.4,3.54-8.05,1.16-2.47,2.56-4.83,3.68-7.32,1.43-3.18,2.94-6.31,4.06-9.63.81-2.39,2.17-4.59,3.13-6.94A22.44,22.44,0,0,0,326.84,396.87ZM450.3,158.76c-1.7-1.51-2.06-1.45-2.95.41-1.61,3.34-3.18,6.7-4.79,10q-5.81,12.14-11.64,24.25Q425,205.75,419.09,218a9.71,9.71,0,0,1-1.34,1.65c.33.5.33.5-.09,1.36-.59,1.25-1.2,2.49-1.8,3.73s-1.18,2.63-1.9,3.87-1.07,2.34-1.63,3.5Q400.08,257.55,387.87,283a1.79,1.79,0,0,0-.11.38l1.09,1c-1,2.18-.94,2.38.55,3.35,1.74-3.53,3.57-7,5.18-10.58,1.24-2.76,2.15-5.68,3.76-8.27,1.3-2.09,1.77-4.69,3.81-6.34.14-.11.14-.39.2-.59a41.56,41.56,0,0,1,1.37-4.31c1.07-2.45,2.33-4.82,3.46-7.24.72-1.53,1.44-3.07,2-4.66s1.76-2.79,2.09-4.45a10.61,10.61,0,0,1,.65-2.58q5.71-12.06,11.53-24.07c1.27-2.63,2.66-5.21,3.91-7.84,2.61-5.46,5.13-11,7.73-16.42,3.09-6.47,6.22-12.92,9.33-19.38C446.38,166.93,448.31,162.89,450.3,158.76Zm-309.07,238,.17-.49c-1.62-1.12-3.73-1-5.43-2-1.38-.81-3.09-1.07-4.46-1.89-.74-.45-1.42-1.26-2.25-1.19a3.38,3.38,0,0,1-2.6-.79c-1.57-1.28-3.64-1.34-5.37-2.29s-4.1-1-6-2.09a37,37,0,0,0-5-2,1.76,1.76,0,0,0-1-.17,2.38,2.38,0,0,1-1.91-.46,8.53,8.53,0,0,0-1.91-.61c-.88-.25-1.89-.27-2.24-1.15-.48.06-1.07.28-1.19.13a4.41,4.41,0,0,0-3.11-1.45L98,379.09c-.37,1.22-1,.7-1.5.46a7.77,7.77,0,0,1-1.3-1l-.21.23.36.78c-1.83-.54-3.47-1-4.08-2.81-1.7-.31-3.4-.61-5.09-.93a.71.71,0,0,1-.44-.24c-.5-.84-1.19-.63-2-.23l-.26-1.12-2.91-.69.8-.65c-1.08-.18-2-.36-2.89-.48-.43-.06-.92.12-1.3,0a22.39,22.39,0,0,1-3.81-1.77c-.73-.47-1.6-.38-2.23-.83-1.11-.81-2.92.31-3.68-1.38,0,0-.22,0-.33,0l-2.43.44c1.47,1,2.7,1.91,4,2.64a54.86,54.86,0,0,0,5.2,2.46c2.62,1.09,5.28,2.08,7.93,3.11.52.2,1.1.6,1.57.5,1.15-.25,2,.4,2.87.81A22.73,22.73,0,0,0,89.59,380c2.43.73,4.76,1.77,7.18,2.52s4.73,2,7.27,2.63,4.95,2.16,7.45,3.18a108.7,108.7,0,0,0,12.61,3.89c2.88.79,5.8,1.43,8.68,2.2S138.41,396,141.23,396.79ZM60.07,372c-.36-1.56-.59-3-1.06-4.44a29.44,29.44,0,0,0-1.6-3.3c-.49-1-.87-2.09-1.44-3.05-.92-1.54-2-2.95-2.93-4.51a30.91,30.91,0,0,1-1.49-3.67l-1.46-.54c-1,.87-.62,1.77-.34,2.69s.55,2.11.83,3.17l.78,3a12.65,12.65,0,0,1,.79,3.15c0,1.11.77,1.84.85,2.89a17.32,17.32,0,0,0,.85,3.15,8.74,8.74,0,0,1,.66,3c-.12,1.13.77,1.72.9,2.7a20.84,20.84,0,0,0,1.2,4.49c.4,1.05-.18,2.8,1.8,2.92.06,0,.08.32.16.47.2.33.42.66.63,1,.95-.67,1.37-1.2,1.34-2.14,0-1.41.14-2.82.13-4.22,0-.36-.4-.71-.58-1l.63-.18c-.08-1.27-.18-2.48-.22-3.69,0-.92-.26-1.57-1.36-1.49,0,0-.12-.15-.18-.22ZM296.56,459a4.54,4.54,0,0,0,.09.61c.54,1.65.75,1.81,2.25,1.1,1-.47,2.36-.33,2.8-1.86.14-.52,1.17-.8,1.71-1.13l-.27-2a7.33,7.33,0,0,0-1.92.49C299.66,457,298.17,458,296.56,459Z" transform="translate(-34.42 -24.05)"/><path class="cls-1" d="M294.3,111.37a7.51,7.51,0,0,1-.81,4.41c-.85,2-1.73,4-2.59,6-.49,1.14-1,2.27-1.46,3.42-.94,2.3-1.74,4.66-2.81,6.89-1.9,4-2.76,8.34-4.51,12.36-.31.73-1.19,1.21-1.8,1.81l.86.47-1,1.64c1,.17,2.08.28,3.16.57,1.95.52,3.86,1.15,5.8,1.71,3.65,1.06,7.25,2.43,11,3.06,4,.68,7.64,2.22,11.45,3.29,2.26.64,4.44,1.57,6.69,2.27a9.11,9.11,0,0,0,2.46.3,14,14,0,0,1,5.85,2,1.05,1.05,0,0,1,.46.87c-.42,1.46-.94,2.89-1.47,4.47a128.15,128.15,0,0,1-18.38-5.17,42.34,42.34,0,0,0-5.23-1.38c-2.67-.56-5.05-2-7.77-2.44-3.15-.56-6.23-1.55-9.35-2.3-2.17-.53-4.35-1-6.7-1.49.43,1.28-1.07,1.54-1.21,2.69a5.11,5.11,0,0,1-1.9,3.75c.6,1.29-.64,2-1,3a13.85,13.85,0,0,1-1.88,4c-.75.92-.67,2-1.28,2.92-.06.08.17.37.29.58-1.61.3-1.74,1.94-2.57,3a.65.65,0,0,0,0,.61c.76.57.22.93-.16,1.33a3,3,0,0,0-.64,2.82c0,.49-1.29-.44-.81.94.33,1-.38,2.38-.84,3.51s-1.31,2.26-1.9,3.42a8.05,8.05,0,0,0-.86,2.34,6.89,6.89,0,0,1-2.37,4.31c.42.56.61.95.11,1.6a17.83,17.83,0,0,0-2.49,5.38A86,86,0,0,1,254.24,212c-1.17,2.38-1.93,5-2.89,7.44a4.62,4.62,0,0,1-.56.85l-4.91-1.2c.13-.82.24-1.59.36-2.35.33-2.07.51-4.15,1.66-6a9.94,9.94,0,0,0,1-3c.2-.84.58-1.56,1.39-1.65s-.58-1,.49-1.06c.3,0,.63-1.22.79-1.92a10.68,10.68,0,0,0,0-2.06c.72-.27,1.44-.67,1-1.93a1.84,1.84,0,0,1,.55-1.65c1.18-.79.78-2,1.08-3,.06-.21-.12-.52,0-.67.31-.46,1-.86,1-1.31a2.18,2.18,0,0,1,.5-1.66,5.61,5.61,0,0,0,.71-1.87l.76.34c.22-.66-.62-1.74.77-1.86l-.65-1.16,1.06-.17c-.74-1.11-.68-1.34.24-1.63-.06-.49-.29-1.17-.13-1.29.78-.54.7-1.4,1-2.11a16.31,16.31,0,0,1,1.1-1.82c.11-.18.3-.35.32-.54.32-2.79.32-2.78,1.71-4.73.1-.13,0-.38.05-.57.06-.54,0-1.08.88-1.09.31,0,.61-.58.72-1l-1.12.43c.83-1.8,2-3.17,2.48-4.85l-.3-.11a1.1,1.1,0,0,1,0-.32c.79-1.57,1.48-3.2,2.4-4.7.59-1,.67-2.08,1.33-3s.56-2.3,1.1-3.31a2.91,2.91,0,0,0,.56-1.38c0-1.55-.24-1.88-1.78-2.06-.85-.1-1.92,0-2.47-.45a7.19,7.19,0,0,0-3.51-1.33c-.78-.18-1.32-.86-2-1.17a29.24,29.24,0,0,0-3.89-1.19c-1.39-.42-2.77-.89-4.16-1.29q-5.86-1.68-11.75-3.31c-2.94-.81-5.9-1.54-8.84-2.36-.76-.21-1.44-.68-2.2-.94a16.66,16.66,0,0,0-4.37-1.24c-1.81-.12-2.09-.9-1.61-2.66a3.69,3.69,0,0,1,3-3.06l-1.61-.12c.45-1.13,1.13-1.31,2.89-.76l-.1.64c.12,0,.27.11.3.08.59-.72,1.34-.39,1.84-.05a6.9,6.9,0,0,0,3.05,1,20,20,0,0,1,3.42,1c4.72,1.6,9.44,3.2,14.15,4.84,1.7.59,3.37,1.28,5.06,1.9.39.15,1.05.12,1.21.22,1.51.92,3.6.28,4.86,1.82a1.37,1.37,0,0,0,1,.46c1.56-.31,2.88.5,4.31.79s2.75.76,4.13,1.14c.71.2,1.42.38,2,.53,3.06-6,5.33-12.32,7.79-18.52,2.39-6,4-12.34,7.36-18.08Z" transform="translate(-34.42 -24.05)"/><path class="cls-1" d="M234,401.17l1.12.33.06-.4a4.53,4.53,0,0,0-1.59-.07,1.33,1.33,0,0,1-1.62-.46,2.9,2.9,0,0,0-1.75-.66c-1.81-.24-3.74-.19-5.42-1.19a12.59,12.59,0,0,0-2.26-.67c-.54-.18-1-.49-1.55-.7a1.21,1.21,0,0,0-.78-.1c-.9.36-.83-.38-1-.77a13.23,13.23,0,0,1-2.4-.21c-.57-.15-1.5.17-1.62-.87-2.16.87-3.34-1.49-5.31-1.58a23.79,23.79,0,0,1-5.64-1.31c-2.21-.68-4.36-1.54-6.56-2.27a12.14,12.14,0,0,1-2.32-.6c-2.55-1.53-5.56-1.67-8.21-2.88-1-.43-1.93-.88-2.92-1.26a16.28,16.28,0,0,0-2-.56c-.16-.05-.38,0-.51,0-.67-.45-1.3-1.26-2-1.3a2.41,2.41,0,0,1-2-.9c-.28-.36-1.05-.3-1.57-.5a15.49,15.49,0,0,1-2-.92c-.13-.07-.08-.46-.12-.79-1.07,0-2.31.21-3-1.14a.73.73,0,0,0-.42-.25,87.7,87.7,0,0,1-8.42-3.12,58.77,58.77,0,0,1-6.93-2.75c-3.29-1.81-6.92-2.73-10.3-4.26-2.18-1-4.42-1.81-6.63-2.72-.25-.1-.66-.2-.7-.38-.27-1.1-.92-1.13-1.81-.78-.09,0-.31-.42-.54-.54-2.12-1.11-4.25-2.22-6.41-3.26a5,5,0,0,0-1.57-.19,6.82,6.82,0,0,0-1-1.07,7.44,7.44,0,0,0-1.69-.79,20.41,20.41,0,0,1-4.81-2.4,9.62,9.62,0,0,0-2.11-.63c-2.65-1-5.28-2-7.92-3-.59-.22-1.17-.46-1.77-.66-3.41-1.13-6.8-2.31-10.15-3.6-1.16-.45-2.36-.8-3.55-1.18-3.48-1.11-7-2.24-10.45-3.32-5.53-1.71-11.07-3.39-16.72-5.12.46-1.3,1-2.69,1.49-4.16,2.63-.5,5,.32,7.32,1.31.82.35,1.65.71,2.5,1,3.42,1.21,7,2.14,10.25,3.68,2.79,1.31,5.83,1.68,8.6,2.94,1.06.48,2.15.87,3.23,1.31l.62.24c1,.41,2,.84,3.08,1.24.57.22,1.15.41,1.72.62,2.47.93,4.94,1.88,7.42,2.77a3.6,3.6,0,0,0,2.83.16,1.91,1.91,0,0,1,1.61.49l-1.61.2c0,.25,0,.59.08.64a13.82,13.82,0,0,0,5.51,1.48,17.71,17.71,0,0,1,3.6.85c0,.12.08.57.3.69,1.43.84,2.87,1.67,4.36,2.38,5.47,2.6,11,5.15,16.44,7.71a4.18,4.18,0,0,0,.79.34c3.51.76,6.39,3,9.66,4.25,2.34.92,4.68,1.83,7,2.8a4.21,4.21,0,0,1,1.41.93,5.64,5.64,0,0,0,3.33,1.38c1.59.14,1.59,0,2.79,1.31.2.23.6.28.91.4,1,.36,2.45-.25,3,1.32,0,.12.74,0,.85,0,.28.47.38.91.62,1,.85.34,1.77.48,2.61.83,2.39,1,4.74,2,7.13,3,2,.82,4.13,1.57,6.22,2.26.75.24,1.64.06,2.37.33,3.51,1.34,7.3,1.66,10.82,3.11,2,.83,3.82,2.13,6,2.71s4.09,1.41,6.13,2.09c.92.3,1.87.5,2.8.75,2.85.77,5.71,1.51,8.55,2.32a24.33,24.33,0,0,1,2.69,1c2.13.89,4.6.75,6.54,2.23a1.36,1.36,0,0,0,1.28.07c.71-.54.84.27,1.21.42a4,4,0,0,0,1.71.48,10.58,10.58,0,0,1,3.32,1c1.36.48,2.7,1,4.07,1.49.66.22,1.38.27,2.05.48q5.86,1.86,11.72,3.76l1.34.44c-.64.54-1.21,1-1.81,1.51s-1,.76-.95,1.66c-.12,0-.35,0-.48-.1-1.37-1.15-3.06-1.17-4.71-1.4a7,7,0,0,1-1.4-.53c-2.74-1-5.45-2.13-8.23-3-2.59-.84-5.25-1.44-7.88-2.16a4.2,4.2,0,0,1-1.08-.43c-1.17-.72-2.24-1.66-3.81-1.18-.32.09-.75-.2-1.13-.31Z" transform="translate(-34.42 -24.05)"/><path class="cls-1" d="M298.77,385.69c0,1.23-1.18,2,0,3.08.11.11,0,.55-.12.82-.27.8-.59,1.59-.87,2.4-1.62,4.53-3.26,9.05-4.81,13.6-.61,1.79-.93,3.68-1.52,5.47a3.78,3.78,0,0,1-1.36,2.45c-.39.24-.46,1-.64,1.53-.25.75-.46,1.51-.65,2.11-.87.22-1.61.33-2.29.58-2.68,1-5.15,0-7.64-.74-.88-1.62-2.58-1.59-4.05-2.08-.46-.16-.78-.71-1.08-1l-3-.28c.18-.29.47-.53.44-.7a2.75,2.75,0,0,1,1.87-3.35,2.52,2.52,0,0,0,.85-.67c1.33-1.21,2.49-2.72,4-3.59,1.86-1.05,3.06-2.69,4.56-4.05s2.76-2.95,4.19-4.38c2.3-2.29,4.53-4.66,7-6.73a32.14,32.14,0,0,0,3.63-3.56A5.73,5.73,0,0,1,298.77,385.69Z" transform="translate(-34.42 -24.05)"/><path class="cls-1" d="M405.54,145.1l-.38-.43c.29-.61.5-1.14.79-1.62s.09-1.58,1-1.93a5.57,5.57,0,0,0-.19-1,1.14,1.14,0,0,0,.87-1.36,5.2,5.2,0,0,1,.63-2.18,61.19,61.19,0,0,1,2.65-6c1-1.92,1.94-4,2.84-5.91s1.46-4.11,2.33-6.09c.41-.94.86-1.9,1.34-2.82.57-1.08,1.12-2.17,1.62-3.29.23-.52.23-1.16.49-1.66a3.88,3.88,0,0,1,1.07-1.36c1.4-1,2.54-.46,2.65,1.26a6.34,6.34,0,0,1-.24,2.38c-.62,1.75-1.38,3.46-2.08,5.18-.1.27-.14.56-.23.89l-1.47-.16,1.34.86c-.34.69-.7,1.38-1,2.09s-.58,1.62-.91,2.41-.67,1.45-1,2.19-1,.9-.78,1.88c.13.49-.66,1.2-1,1.74a3.93,3.93,0,0,0-.95-.11c-.07,0-.11.46-.17.7l1.4.1-1.61,1.18.67.29v.23h-1.56l-.09.36,1.08.36c.09,1.08-.53,1.43-1.33,1.37.11.33.38.72.29,1a9.43,9.43,0,0,1-1.06,2.3,56.28,56.28,0,0,0-5.33,11.12c-.63,1.61-1.54,3.11-2.26,4.56l-2.46-1.16a23.78,23.78,0,0,0,1.52-4C404.47,146.19,404.34,146.17,405.54,145.1Z" transform="translate(-34.42 -24.05)"/></svg>