<svg id="Layer_1" data-name="Layer 1" xmlns="http://www.w3.org/2000/svg" viewBox="0 0 220.07 450.09"><defs><style>.cls-1{fill:#f4f4f4;}</style></defs><title>8. туз</title><path class="cls-1" d="M140.87,400.15c-1.27-.17-1.15-1.22-1.41-2-.2-.58-.26-1.2-.43-1.79a9.29,9.29,0,0,1-.55-1.61c-.27-2.83-.64-5.66-.66-8.48,0-6.54.09-13.09.17-19.63,0-3.22.12-6.45.19-9.67a2.84,2.84,0,0,1,.08-.72c.79-2.51.65-5.1.69-7.67,0-.72.14-1.44.14-2.17,0-1.51-.06-3,0-4.53s.12-2.89.28-4.33c.11-1,.38-1.9.57-2.86a1.09,1.09,0,0,0,.06-.43c-.68-3.1-.05-6.2,0-9.29,0-1.75-.1-3.5-.15-5.25,0-.25,0-.49,0-.74.05-4,.11-8.05.14-12.08,0-2,0-4.08,0-6.12a10,10,0,0,1,.22-1.88c.35-1.81-.21-3.57-.23-5.35,0-2.49.11-5,.17-7.46.09-4.33.15-8.67.25-13,.05-2.09.18-4.18.23-6.27,0-1.31-.05-2.62-.08-3.93,0-.63-.07-1.27,0-1.89.3-3.41.68-6.8.92-10.21s.39-6.6.46-9.91c0-2.27-.17-4.54-.17-6.81,0-1.85.19-3.7.22-5.55,0-1.55-.09-3.09-.13-4.64a3.52,3.52,0,0,1,0-.86c.62-3,.09-6,.45-9-.54-.82,0-1.65,0-2.47-.06-1.87-.15-3.74-.19-5.62a4.12,4.12,0,0,1,.17-1,4.62,4.62,0,0,0,0-2.73c-.18-.48.06-1.12-.08-1.63a1.42,1.42,0,0,1,.22-1.48c.15-.18.1-.55.1-.84,0-4.77,0-9.54,0-14.31,0-1.36.26-2.73.26-4.09,0-2.38-.13-4.76-.14-7.14,0-1,.35-2.06.25-3.05-.4-3.9.21-7.76.15-11.64s.18-7.69.29-11.53c.1-3.62.07-7.23.17-10.85,0-1.46.38-2.91.34-4.36a26.31,26.31,0,0,1,.38-5.17c.14-.81.08-1.71.16-2.57.09-1.14-.15-2.3.41-3.38.06-.1,0-.29-.07-.42-.71-1.43-.5-3-.45-4.47.07-2.15.33-4.28.42-6.42.1-2.43.08-4.87.16-7.3.09-2.82.23-5.65.33-8.47.08-2,0-4.08.22-6.11.38-4.18-.12-8.4.78-12.54a1.34,1.34,0,0,0-.07-.69,1.87,1.87,0,0,1-.08-1.69.78.78,0,0,0,.05-.43c-.05-1.31-.18-2.61-.16-3.92,0-2.88.09-5.77.22-8.64.08-1.91.32-3.8.45-5.7.2-3.06.36-6.13.55-9.19a9.43,9.43,0,0,1,.81-4,1.25,1.25,0,0,0,.15-.71,9.19,9.19,0,0,1,1.54-5.43,23.92,23.92,0,0,0,1.6-3.15,7.85,7.85,0,0,1,3.78-4.1c.25-.14.6-.25.7-.47.35-.74,1-.84,1.68-1.06.36-.12.71-.28,1.07-.39a4,4,0,0,1,1.06-.25,13.25,13.25,0,0,0,3.9-.34,4.1,4.1,0,0,1,2.29.15c1.63.49,3.19,1.19,4.82,1.69,4.71,1.45,9.44,2.85,14.17,4.24s9.47,2.74,14.21,4.06c2.49.7,5,1.28,7.5,1.91.38.09.76.19,1.13.31,3.32,1.11,6.62,2.26,10,3.32,2.88.91,5.81,1.68,8.71,2.56,4.29,1.31,8.55,2.7,12.85,4,7.82,2.33,15.66,4.57,23.48,6.91,4.07,1.21,8.1,2.55,12.15,3.83,1.75.55,3.5,1.12,5.37,1.72.58,5,1.15,10,1.73,15.15l2.19-.34c-.16-1.63-.25-3.19-.49-4.72a1.71,1.71,0,0,1,.51-1.68c.74-.78,1.33-1.69,2.07-2.48a5.81,5.81,0,0,1,1.49-1.1,4.82,4.82,0,0,1,4.44-.29c2,.86,4.16,1.37,6.22,2.1,1.28.45,2.52,1,3.78,1.52.4.16.82.29,1.24.42,3.17,1,6.35,1.92,9.5,2.94,3.39,1.1,6.73,2.31,10.12,3.41,5.85,1.9,11.69,3.83,17.58,5.57a19.27,19.27,0,0,1,6.52,3.57,32.08,32.08,0,0,1,6.37,7c.77,1.12,1.47,2.3,2.24,3.42,1.14,1.67,1.35,3.63,1.76,5.52.05.22-.12.47-.14.71a4.44,4.44,0,0,0,0,1.15c.23,1.09.52,2.17.79,3.25a1.11,1.11,0,0,1,.05.44c-.39,1.72.2,3.48-.1,5.18-.49,2.76-.37,5.56-.67,8.32-.23,2.08.13,4.17-.26,6.25a13.64,13.64,0,0,0,0,3.06,32.05,32.05,0,0,1-.69,7.11,4.21,4.21,0,0,0-.08.87c0,2.87.08,5.74,0,8.6,0,2-.24,4-.4,5.95s-.4,4.17-.6,6.25c-.06.58-.11,1.17-.14,1.75-.05,1.16-.08,2.32-.11,3.48,0,.88,0,1.76-.08,2.64-.24,3.9-.46,7.81-.74,11.71-.38,5.46-.82,10.91-1.21,16.37-.31,4.43-.59,8.87-.89,13.3-.17,2.59-.35,5.17-.52,7.75-.33,5-.65,10.05-1,15.07-.3,4.39-.48,8.8-1,13.16-.34,2.85-.38,5.72-.71,8.57-.06.53-.24,1-.27,1.57-.07,1.21,0,2.43-.14,3.63-.14,1.5-.41,3-.56,4.5-.16,1.69-.25,3.38-.38,5.07-.07,1-.18,2-.23,3.06s-.06,1.86-.11,2.78a11.05,11.05,0,0,1-.17,1.27,2.46,2.46,0,0,0-.15.56c.26,2.84-.5,5.61-.6,8.42s-.43,5.56-.65,8.34c-.26,3.26-.53,6.53-.76,9.8-.14,1.94-.19,3.88-.33,5.82-.21,2.72-.45,5.43-.69,8.14-.37,4-.77,8.06-1.09,12.09-.16,1.94-.06,3.9-.25,5.83-.33,3.29-.86,6.55-1.21,9.84-.28,2.66-.44,5.33-.61,8,0,.82-.68,1.7.17,2.47,0,0,0,.19,0,.28a5.72,5.72,0,0,0-.2,3,10.49,10.49,0,0,1-.34,2.3,33,33,0,0,1-.72,5.49,9.5,9.5,0,0,0-.17,2.73c0,2.39-.7,4.7-.73,7.09,0,1.74-.08,3.49-.21,5.22-.11,1.36-.4,2.7-.54,4.05-.39,3.83-.8,7.66-1.09,11.5q-.78,10.53-1.44,21.06c-.59,9.23-1.14,18.46-1.7,27.69-.19,3.29-.4,6.58-.53,9.88-.1,2.33-.07,4.66-.15,7a4.41,4.41,0,0,1-.37,1.17c-.09.27-.29.55-.26.8a2,2,0,0,1-.88,1.74,1.71,1.71,0,0,0-.52.65c-.86,2.52-2.65,4.43-4.38,6.3-.76.82-1.52,1.91-2.82,2.16-.08,0-.21.11-.21.18-.08,1.33-1.28,1.2-2.06,1.48-1.15.42-2.17,1.27-3.46,1.25-1.76,0-3.53.5-5.27-.35a5.15,5.15,0,0,0-2.09-.26,21.94,21.94,0,0,1-7.72-1.93c-.67-.26-1.39-.42-2.07-.68-3.44-1.28-6.92-2.5-10.32-3.91a59.34,59.34,0,0,0-7.44-2.55c-1.37-.37-2.67-.94-4-1.38s-2.81-.8-4.19-1.26c-1.06-.36-2.07-.85-3.12-1.25-2-.77-4-1.5-6-2.27-2.76-1.07-5.5-2.16-8.26-3.22-.45-.18-.93-.28-1.39-.44a4.73,4.73,0,0,1-2.58-1.26,2.8,2.8,0,0,0-1.16-.56c-.53-.21-1.1-.34-1.61-.59-.23-.11-.37-.41-.62-.71-.61.11-1.31.21-1.76-.63a1.42,1.42,0,0,0-.85-.51c-3.16-.83-5.93-2.6-9-3.64-1-.35-1.92-1-2.93-1.27-3.2-.89-6-2.63-9.13-3.75s-6.09-2.53-9.16-3.7c-1.48-.57-3.05-.84-4.5-1.53-1.09-.53-2.25-.9-3.38-1.33-1.3-.49-2.62-1-3.92-1.48a11.07,11.07,0,0,1-4-2c-.41-.39-1.27-.3-1.89-.51-1.31-.43-2.63-.86-3.89-1.4-1.11-.48-2.14-1.11-3.21-1.65-.25-.13-.4-.6-.84-.15-.14.14-.72-.09-1.06-.24-2.43-1.09-4.82-2.28-7.28-3.29a10.67,10.67,0,0,1-3-1.38c-.36-.31-1-.22-1.52-.42-.91-.38-1.79-.85-2.68-1.28-1.57-.76-3.32-1.17-4.61-2.45,0,0-.09-.07-.13-.06-1.35.14-2.17-.91-3.23-1.41a4.65,4.65,0,0,0-1.1-.33c-.24-.06-.58,0-.71-.09-1.27-1.25-3.09-1.26-4.57-2.07-1.64-.91-3.46-1.5-5.19-2.25-.84-.37-1.66-.81-2.49-1.22-2.48-1.2-5-2.4-7.44-3.63a4.74,4.74,0,0,1-2.33-2.28c-.07-.15-.22-.41-.28-.4-1,.26-1.09-.57-1.4-1.12a4.51,4.51,0,0,0-1.19-1.73C140.67,401.8,140.79,401,140.87,400.15ZM146,151.91h0c0,1.71,0,3.42,0,5.13s-.1,3.7-.2,5.55a35.18,35.18,0,0,0-.29,5.4,46.61,46.61,0,0,1,0,5.54c0,1.06-.39,2.11-.41,3.16,0,1.8.14,3.6.12,5.39,0,2.25-.15,4.49-.21,6.74-.09,3.06-.17,6.12-.22,9.19-.07,4.24-.11,8.49-.15,12.73,0,3.08,0,6.15-.06,9.22l0,8.18c0,1.36,0,2.72,0,4.08s-.23,2.89-.29,4.34c0,.87.08,1.75.06,2.62-.06,3.2-.17,6.39-.23,9.58,0,1.8,0,3.6,0,5.4q-.18,5.64-.44,11.28a12.11,12.11,0,0,0-.27,2.28c.37,2.7-.08,5.36-.15,8,0,1.26-.11,2.53-.15,3.79,0,1,0,2-.06,3a10.5,10.5,0,0,0-.09,2.84,6.16,6.16,0,0,1,.13,2.13c-.12,1.34-.3,2.69-.3,4,0,2.77.09,5.55.14,8.32,0,.15,0,.3,0,.44a24.09,24.09,0,0,0,.07,4.5,31.59,31.59,0,0,1,.14,4.76c.06,1.38-.57,2.78.09,4.16a.63.63,0,0,1,0,.57c-.37.49-.13,1-.12,1.52,0,1.58,0,3.18,0,4.77a1.51,1.51,0,0,0,0,.56,7.13,7.13,0,0,1,.17,3.72,48.39,48.39,0,0,0-.63,6.37c0,2.47,0,4.95-.08,7.42-.06,1.5-.35,3-.56,4.49-.38,2.7.3,5.4-.11,8.09a.56.56,0,0,0,0,.29A5.07,5.07,0,0,1,142,354c-.21,3.34-.34,6.69-.41,10-.2,8.45-.31,16.91-.54,25.36-.08,2.94.94,5.61,1.71,8.35a19.5,19.5,0,0,0,2.06,4.17c.81,1.44,1.55,2.9,3.36,3.31a2.48,2.48,0,0,1,.53.24c2,1,4,2.1,6,3,4.43,2,8.87,4.07,13.34,6,3.49,1.51,7.05,2.85,10.55,4.34,2.28,1,4.55,2,6.75,3.13a16.93,16.93,0,0,0,4.5,1.89,5.81,5.81,0,0,1,1.34.57c1.61.8,3.2,1.65,4.84,2.41.49.23,1.14.13,1.65.35,1.54.66,3,1.44,4.57,2.1,2.27,1,4.59,1.8,6.84,2.81,4.85,2.17,9.79,4.09,14.81,5.82.9.31,1.68,1,2.72.89.14,0,.28.25.44.33a9.55,9.55,0,0,0,2.87,1.44,4.93,4.93,0,0,1,2.65,1.1c.13.11.37.06.55.12,1.22.42,2.47.78,3.66,1.28,1.36.58,2.64,1.34,4,1.94,1.65.73,3.33,1.39,5,2.07l3.66,1.48,3.23,1.3a45.11,45.11,0,0,0,6.23,2.34c3.17.71,5.9,2.43,8.93,3.46,1.37.46,2.62,1.29,4,1.78,1.86.67,3.81,1.09,5.66,1.77,3.23,1.17,6.41,2.5,9.64,3.66,4.46,1.59,8.95,3.11,13.44,4.62a33,33,0,0,1,4.74,1.44,16.86,16.86,0,0,0,4.29,1.33,8.93,8.93,0,0,0,5.81-.62,11.07,11.07,0,0,0,4.37-4,66.88,66.88,0,0,0,3.76-6.09,9.45,9.45,0,0,0,1.32-5.86,33.88,33.88,0,0,1,.13-9.22c.49-3.83.93-7.66,1.14-11.52.35-6.79.76-13.58,1.1-20.37a45.42,45.42,0,0,0,0-6.7,18.57,18.57,0,0,1,.51-5.33c.31-1.67.62-3.35.81-5s.24-3.7.43-5.54c.58-6,1.21-12.07,1.81-18.1q.84-8.39,1.65-16.79c.34-3.52,1.34-7,1.06-10.57a11.34,11.34,0,0,1,0-2.18c.16-1.5.48-3,.57-4.5.33-5.59,1.18-11.12,1.79-16.69q.41-3.78.78-7.58c.15-1.62,0-3.23.19-4.88a54.53,54.53,0,0,0,0-7c0-2.38.06-4.78.19-7.16.12-2,.4-4,.58-6s.31-3.7.47-5.55c.23-2.52.53-5,.7-7.56.12-1.83-.4-3.7.29-5.51a1.25,1.25,0,0,0,0-.57,4.87,4.87,0,0,1,.24-3.34,1.52,1.52,0,0,0,.07-.71c0-1,0-2,0-2.93.32-3.34.6-6.7,1.06-10a191.75,191.75,0,0,0,1.24-19.16c.08-2.1.33-4.19.52-6.27.11-1.07.31-2.13.39-3.2.27-3.22.51-6.44.74-9.66q.54-8,1.06-16c.25-3.89-.18-7.84,1.17-11.61a1.32,1.32,0,0,0,0-.44c0-1.2-.15-2.41-.1-3.6.18-4.54.44-9.08.64-13.63.12-2.44.14-4.88.29-7.32.47-7.71,1-15.41,1.46-23.11.27-4.25.55-8.5.74-12.75.18-4,.27-8.11.34-12.16,0-1.56-.18-3.12-.15-4.67.05-2.28.23-4.55.33-6.82a1.55,1.55,0,0,0-.19-1c-.65-.71-.6-1.62-.86-2.44A15.38,15.38,0,0,0,347,95.48c-1.42-2.42-3.81-4-5.2-6.46A12.6,12.6,0,0,0,341,88c-.23-.31-.4-.73-.71-.91a16.9,16.9,0,0,0-2.84-1.45c-2.48-.88-5-1.62-7.49-2.46a23.89,23.89,0,0,1-4.37-1.66,35.19,35.19,0,0,0-6.54-2.73c-1.93-.65-3.9-1.22-5.86-1.76-.93-.26-1.9-.36-2.85-.54a30.69,30.69,0,0,1-3.86-.79c-2.18-.73-4.27-1.69-6.43-2.43-2.71-.93-5.58-1.34-8.23-2.52-1.2-.53-2.52-.78-3.77-1.2-2.71-.91-2.35-.45-2.79,1.81a30.08,30.08,0,0,1-.79,3.56,3.74,3.74,0,0,1-2.46,2.52c-.6.2-1.09.24-1.45-.24a10,10,0,0,1-1.8-2.77c-.7-2.42-1.17-4.92-1.66-7.4A1.9,1.9,0,0,0,276,65.45a11.18,11.18,0,0,0-1.11-.38c-2.88-1-6-1.36-8.65-2.93a5.13,5.13,0,0,0-1.1-.39q-5.81-1.76-11.62-3.48-1.62-.48-3.24-.93c-2.35-.67-4.67-1.48-7.05-2a34.87,34.87,0,0,1-7.63-2.53c-2.24-1-4.45-2-7-1.9a3.79,3.79,0,0,1-1.29-.21c-2.22-.74-4.43-1.5-6.65-2.26-5.4-1.84-10.78-3.75-16.22-5.51-4.64-1.5-9.35-2.81-14-4.25-2.29-.7-4.53-1.53-6.81-2.24q-7.41-2.28-14.85-4.5a27.38,27.38,0,0,0-9.51-1.37,1.66,1.66,0,0,1-.84-.18,1.93,1.93,0,0,0-2.08.21,8.25,8.25,0,0,0-3.16,2.73,20.55,20.55,0,0,1-1,1.92,9.37,9.37,0,0,0-1.55,5.4c0,.64,0,1.27-.11,1.9-.18,1.75-.47,3.49-.56,5.24-.1,2.18,0,4.38-.09,6.57s-.24,4.58-.46,6.87A81,81,0,0,0,149,71.94a5,5,0,0,0,.55,2.54,2.21,2.21,0,0,1,.17,1.4,7.39,7.39,0,0,1-1.29,3.54,2.9,2.9,0,0,0-.38,1.49c-.07,1-.05,2-.07,2.93,0,1.27-.06,2.54,0,3.81,0,1.06.17,2.13.16,3.19,0,3.13-.09,6.26-.14,9.39,0,1.51,0,3-.06,4.54-.06,2.1-.11,4.2-.22,6.3-.12,2.55.27,5.08-.28,7.67-.48,2.21-.2,4.57-.23,6.87a9.26,9.26,0,0,1,0,2.47c-.59,1.83-.29,3.69-.49,5.52-.26,2.54.88,5.15-.37,7.64a.59.59,0,0,0,0,.14Zm206.83-24.64c-1.9.24-2.06.4-2.12,1.75s-.15,2.93-.21,4.39,0,2.64-.11,4c-.13,2.59-.32,5.17-.47,7.75-.12,2.09-.21,4.18-.34,6.27-.07,1.31-.19,2.62-.26,3.93-.13,2.43-.23,4.87-.37,7.3,0,.92-.21,1.84-.25,2.77-.22,4.86-.39,9.73-.61,14.6-.09,1.9-.38,3.8-.39,5.7a28.54,28.54,0,0,1-.67,7,6,6,0,0,0,0,1.74c.07,1.27.25,2.53.22,3.79-.08,2.93-.3,5.85-.38,8.78a111.56,111.56,0,0,1-1.56,16c-.32,1.92-.54,3.86-.77,5.79-.12,1-.19,2.05-.24,3.07-.08,1.8-.11,3.6-.21,5.4,0,.76-.25,1.51-.3,2.27-.1,1.75-.12,3.5-.21,5.25-.26,4.83-1.1,9.59-1.74,14.38-.19,1.44-.11,2.92-.16,4.38-.11,2.82-.78,5.62-.38,8.46a3.69,3.69,0,0,1-.07.87c-.27,2.18-.58,4.36-.82,6.54-.39,3.58-.8,7.16-1.09,10.76-.22,2.72-.29,5.45-.4,8.18s-.19,5.56-.26,8.33a2.91,2.91,0,0,0,.31.9,5.23,5.23,0,0,0,2-2.91,15.59,15.59,0,0,0,.22-3.55,11.19,11.19,0,0,1,.61-5,1.31,1.31,0,0,0,0-.56,19.71,19.71,0,0,1-.05-2.17c.14-1.7.4-3.39.52-5.09.23-3.3.35-6.61.61-9.91.35-4.55.8-9.1,1.2-13.65.27-3.16.52-6.31.79-9.46.39-4.48.81-9,1.15-13.44.27-3.56.45-7.12.67-10.68.09-1.37.16-2.74.3-4.1,0-.44-.1-1.1.56-1.19s.74-.52.76-1c.05-1.32.09-2.64.15-4q.72-14.28,1.44-28.58.35-6.89.73-13.78c.22-4,.49-8,.69-12,.17-3.46.26-6.93.41-10.4.13-3.07.3-6.15.46-9.22.29-5.67.6-11.34.86-17A17.73,17.73,0,0,0,352.84,127.27Zm-12.4,182.45a3.11,3.11,0,0,0-1.41,2.22c-.43,4.82-.82,9.64-1.25,14.46q-1.14,12.71-2.3,25.41c-.12,1.27-.17,2.55-.37,3.8-.16,1-.65,1.93-.75,2.92Q333.11,370.76,332,383c-.37,3.88-.68,7.76-1,11.64,0,.53,0,1.07,0,1.6a14.39,14.39,0,0,1-.12,1.74c-.27,1.87-.69,3.73-.85,5.61-.28,3.26-.42,6.53-.59,9.8-.2,3.76-.36,7.52-.57,11.27-.17,3-.39,6-.57,8.93a2.63,2.63,0,0,0,.47,2.25c.63-.46.66-1.54,1.68-1.36l1-13.14,1.11-14.48q.47-6.14.92-12.28c0-.34.14-.79,0-1-.52-.68-.25-1.4-.22-2.1.05-1.07.19-2.13.32-3.19.07-.53.23-1,.3-1.58a19.87,19.87,0,0,0,.38-3.89,13.93,13.93,0,0,1,0-2.74c.23-1.89.84-3.73.6-5.66a3.54,3.54,0,0,1-.06-1.44,18.77,18.77,0,0,0,.61-5c0-.22.08-.61.21-.65,1-.31.77-1.13.83-1.82.44-4.42.86-8.85,1.3-13.28q.81-8.25,1.63-16.49.84-8.54,1.67-17.08c.24-2.43.46-4.86.69-7.35C341,311.08,340.29,310.94,340.44,309.72ZM167,28.69a8.76,8.76,0,0,0,1.22.64q7.26,2.28,14.53,4.52c2.65.81,5.32,1.56,8,2.37,2.14.65,4.27,1.33,6.4,2,1.81.58,3.62,1.16,5.41,1.79,1.5.53,2.95,1.21,4.46,1.7,2.7.87,5.43,1.63,8.13,2.48,3.17,1,6.3,2.08,9.47,3.06s6.1,1.73,9.13,2.66,6,2.08,9.08,2.85,6.19,2.07,9.31,3a34.75,34.75,0,0,0,4.59,1.43,13.09,13.09,0,0,1,4.42,1.42,6.23,6.23,0,0,0,1.37.51l11.79,3.36,1.45.4.6-2c-.91-.31-1.73-.61-2.55-.87q-8.94-2.85-17.87-5.68Q245.28,51,234.65,47.72c-2.89-.89-5.81-1.69-8.7-2.56-2.57-.78-5.13-1.62-7.69-2.41-3.55-1.09-7.1-2.19-10.66-3.24-1.2-.35-2.46-.5-3.68-.78-.85-.2-1.69-.46-2.53-.7-.33-.09-.63-.26-1-.35-2.2-.61-4.42-1.17-6.6-1.83-3.13-.94-6.23-2-9.35-2.92-2.8-.85-5.63-1.61-8.43-2.45-2.1-.63-4.17-1.34-6.26-2a6.69,6.69,0,0,0-1.73-.24C167.78,28.25,167.5,28.47,167,28.69Zm175.48,54.9c-.68,1.46-.65,2.1.31,2.74A18.66,18.66,0,0,1,347.12,91c.29.39.49,1.06.85,1.15,1.08.3,1.1,1.22,1.44,2s.62,1.32.93,2a13.57,13.57,0,0,1,1.15,6.25,3.47,3.47,0,0,0,.33,2.4,1.22,1.22,0,0,1,.12.7c-.09,3-.17,6-.3,9.06-.11,2.82-.28,5.64-.42,8.45a.93.93,0,0,0,.61,1c1.12.45,1.78.07,1.82-1.19s0-2.42,0-3.63,0-2.7.05-4c0-2.92-.1-5.85.15-8.75a27.87,27.87,0,0,0,0-7,16.91,16.91,0,0,0-1.1-3.26,12.74,12.74,0,0,0-.9-1.66c-.41-.7-.82-1.41-1.26-2.1-.26-.41-.58-.78-.87-1.17-1.51-2-3-4.09-4.54-6.09A5,5,0,0,0,342.46,83.59ZM320.16,469l.2.4c.28-.05.66,0,.83-.16a15.06,15.06,0,0,0,1.83-2.08c1.6-2.35,3.22-4.7,4.68-7.15a8.47,8.47,0,0,0,1.42-4.12c.13-4.35.49-8.69.75-13,0-.63,0-1.26,0-1.82l-1.75-.87a3.27,3.27,0,0,0-.28.65c-.53,2.71-.49,5.49-1,8.2a12.78,12.78,0,0,0,.17,2c-.06,1.7-.2,3.4-.29,5.11a14.63,14.63,0,0,1-3.62,9C322,466.41,321.12,467.75,320.16,469ZM286.84,66.77c1.27.4,2.43.75,3.58,1.14s2.28.87,3.43,1.27c1.93.67,3.88,1.31,5.83,1.95s3.7,1.21,5.55,1.79L312,75c1.54.47,3.07,1,4.62,1.4.44.13.93.34,1.36-.2a1.7,1.7,0,0,0-1.42-1.61c-.66-.17-1.33-.31-2-.53-2.68-.92-5.32-1.92-8-2.75-1.39-.43-2.86-.56-4.29-.88a16.56,16.56,0,0,1-3.93-1.09c-3-1.57-6.19-2.35-9.29-3.53C288.1,65.43,287.55,65.73,286.84,66.77Zm52,17.3c.21-.42.45-.84.63-1.28a.68.68,0,0,0-.47-1c-1.11-.37-2.18-.83-3.3-1.16-2.75-.83-5.52-1.62-8.29-2.39a8.24,8.24,0,0,0-3.12-.5.86.86,0,0,0,.7,1.14c1.1.36,2.22.7,3.3,1.11C331.74,81.29,335.18,82.64,338.84,84.07Z" transform="translate(-137.81 -24.19)"/><path class="cls-1" d="M326.06,181.79c.43.61.23,1.53.14,2.43-.3,2.91-.61,5.81-.86,8.73-.15,1.74-.18,3.5-.27,5.25,0,.24-.1.58,0,.69.69.67.38,1.46.33,2.22-.3,4.09-.59,8.19-.92,12.29-.15,1.89-.38,3.78-.54,5.67-.09,1.07-.11,2.14-.15,3.21a21.09,21.09,0,0,1-.23,4.65c-.42,1.57.31,3.24-.62,4.7a.63.63,0,0,0,0,.43c.4,2-.3,3.93-.34,5.91q-.09,3.63-.3,7.25c-.06,1-.29,1.93-.43,2.89a63.57,63.57,0,0,0-.46,12.41,22.82,22.82,0,0,1-.19,3.5c-.13,1.3-.39,2.6-.53,3.9-.06.57.1,1.15.06,1.72-.14,1.88-.36,3.76-.46,5.64-.05.81.18,1.62.21,2.44.06,1.46,0,1.47-1,2.34a98.52,98.52,0,0,1-.55,12.95,17.17,17.17,0,0,0-.15,1.9,58.94,58.94,0,0,1-.76,7.84c-.32,2.52-.4,5.07-.6,7.6-.14,1.8-.3,3.59-.45,5.39,0,0,0,.1,0,.14.62,1.45-.2,2.83-.25,4.25s-.39,2.9-.53,4.36-.21,2.92-.29,4.38c-.23,4.1-.48,8.2-.66,12.3-.25,5.46-.5,10.93-.62,16.4a58.23,58.23,0,0,1-.83,6.61,5.42,5.42,0,0,0,0,.57,45.32,45.32,0,0,1-.52,8.14c-.17.9-.19,1.84-.27,2.76s-.13,2-.28,3a139.14,139.14,0,0,0-1.34,15.91c-.09,2.83-.12,5.65-.23,8.48,0,.65-.29,1.3-.36,2-.14,1.31-.26,2.62-.32,3.94-.17,3.45-.29,6.91-.45,10.37-.13,2.67-.31,5.35-.43,8-.21,4.42-.36,8.86-.59,13.28-.08,1.65-.32,3.3-.47,4.94-.07.79-.27,1.43-1.2,1.59-.3.05-.54.36-.76.52-.37-.26-.65-.62-1-.65a28.06,28.06,0,0,1-5.79-1.6,35,35,0,0,1-4.61-2c-.77-.38-1.66-.95-2.7-.3a2.1,2.1,0,0,0-1.37-1.15c-1.35-.47-2.72-.77-4.08-1.16A31.6,31.6,0,0,1,282.5,439c-.87-.39-1.66-.95-2.51-1.37a16,16,0,0,0-1.9-.69c-.63-.2-1.3-.29-1.91-.54-1.61-.66-3.2-1.38-4.79-2.08-.67-.29-1.32-.6-2-.91-.18-.08-.34-.25-.52-.26-2.17-.2-3.94-1.5-5.92-2.22s-4.19-1.43-6.23-2.29c-1.12-.47-2.19-1.08-3.28-1.63a.22.22,0,0,0-.13-.06c-2.18-.24-3.9-1.67-5.94-2.27-.55-.16-1.09-.32-1.64-.5a25.62,25.62,0,0,1-4.43-2.1,28.76,28.76,0,0,0-3.27-1.17c-1.35-.53-2.67-1.15-4-1.73-.75-.33-1.5-.69-2.27-1a65.91,65.91,0,0,1-6.36-2.47,37.85,37.85,0,0,0-4.23-1.88c-2-.74-4-1.53-6.05-2.22-2.58-.88-5.2-1.65-7.77-2.56a41.77,41.77,0,0,1-4.55-2c-1.41-.71-2.7-1.68-4.13-2.32-3.39-1.5-6.83-2.9-10.27-4.31-5.24-2.15-10.51-4.24-15.74-6.42-2.61-1.08-5.16-2.32-7.73-3.48a5.81,5.81,0,0,0-1.22-.5c-3-.56-4.07-2.71-4.38-5.34a65.92,65.92,0,0,1-.28-6.89c0-4.25,0-8.5,0-12.75,0-1.56.23-3.11.26-4.66.06-4.06,0-8.12.09-12.17.07-3.67.23-7.33.32-11s.12-7.22.21-10.82c.08-2.78.18-5.56.35-8.34.16-2.57.49-5.14.65-7.71A35.25,35.25,0,0,1,161,306a24.44,24.44,0,0,0,.17-3.61c0-.72-.24-1.45-.18-2.16.58-6.74,0-13.48-.11-20.21-.08-5.19-.23-10.37-.35-15.56a1.55,1.55,0,0,1,.55-1.54c.31-.23.27-1,.28-1.53.06-2.19,0-4.38.11-6.57.17-5.12.47-10.24.52-15.37.05-5.69.35-11.38.5-17.07.14-5.08.23-10.17.32-15.25.06-3.08.08-6.15.1-9.23,0-.82-.07-1.64-.09-2.46q-.09-3.5-.15-7c0-.53.07-1.06.1-1.59.06-1,0-2.06.19-3.07.29-2.09-.13-4.17-.06-6.25,0-1.17-.11-2.34-.07-3.5a24,24,0,0,1,.34-2.55c-.11,0-.16-.08-.2-.07s-.07.06-.1.1-.08.15-.32.17a16.25,16.25,0,0,0,.47-1.69,6,6,0,0,0,.11-1.74,26.54,26.54,0,0,1,0-7,32.47,32.47,0,0,0,.09-3.95c0-4-.09-8.09-.1-12.13a17.45,17.45,0,0,1,.34-2,24.77,24.77,0,0,0,.25-2.72c.1-4,.21-8,.2-12,0-1.6.14-3.18.27-4.77s-.07-2.92,0-4.37c.05-1.8.23-3.6.31-5.4s.1-3.6.15-5.4c0-.44.11-.87.1-1.31a8,8,0,0,0-.17-1.38c-.06-.33-.29-.65-.26-1,.14-1.88.35-3.75.49-5.63.18-2.38.36-4.77.44-7.15.12-3.07.1-6.14.22-9.2.18-5.11.45-10.22.63-15.33.07-2.19-.09-4.39,0-6.58.1-2.53.34-5,.52-7.67a6.12,6.12,0,0,1,1.16-.11c1.95.22,4,.14,5.67,1.41a1.51,1.51,0,0,0,.95.33c1.34-.16,2.43.48,3.62.89a31.43,31.43,0,0,0,3.88.81,1.25,1.25,0,0,0,.86,1,36.13,36.13,0,0,0,5.78,1.51,12.42,12.42,0,0,1,1.4.64c.76.26,1.59.35,2.33.65,1.21.51,2.66.31,3.72,1.27a.7.7,0,0,0,.52.17,1.56,1.56,0,0,1,2,.92c1.71-.61,3,.14,4.28,1,.81.5,1.69,1.26,2.53,1.25a9,9,0,0,1,3.29,1c.65.23,1.35.42,2,.68,2,.86,4.35,1,6.25,2.35.73.52,1.85.47,2.76.75,1.2.38,2.36.87,3.56,1.23.92.29,1.89.43,2.82.7,1.39.39,2.8.78,4.16,1.27,1.51.53,3,1.29,4.48,1.75,2.17.66,4.41,1.12,6.61,1.71.84.23,1.64.62,2.47.92,1.35.49,2.64,1.32,4.19.91a1.19,1.19,0,0,1,.58.08l11.44,3.08a4,4,0,0,0,1,.25c3,0,5.47,1.6,8.08,2.74a4,4,0,0,0,.54.21c3.74.93,7.33,2.29,11,3.52,3,1,6,1.82,9.07,2.74,2.42.73,4.82,1.54,7.25,2.26,2.25.67,4.52,1.23,6.76,1.92,3.45,1,6.89,2.16,10.32,3.27,2.69.87,5.37,1.77,8.05,2.67,1.24.42,2.46.89,3.71,1.29a8.45,8.45,0,0,0,2.1.44,2.33,2.33,0,0,1,2.07,1.31,5.06,5.06,0,0,1,.62,3.19c-.26,4.58-.51,9.17-.72,13.76-.55,12.1-1.07,24.21-1.63,36.32-.05,1.07-.29,2.13-.44,3.19,0,.24-.17.51-.1.71.55,1.58,0,3.09-.2,4.62s-.26,3.11-.39,4.66c-.09,1.07-.22,2.13-.28,3.19-.12,2-.19,4-.32,6C326.33,180.32,326.18,181,326.06,181.79Zm-2.57-73.43c-1.38-.4-2.61-.69-3.81-1.09-4.17-1.38-8.33-2.79-12.49-4.2l-7-2.42c-1.33-.47-2.63-1-4-1.42-2.39-.66-4.72-1.49-7.19-1.94-3.2-.58-6.32-1.59-9.48-2.43a6.32,6.32,0,0,1-.81-.34c-2.34-1-4.64-2-7-2.87-4.57-1.56-9.19-3-13.79-4.43Q254,86,250,84.84c-1.82-.54-3.67-1-5.49-1.54-1.64-.52-3.22-1.27-4.88-1.72-2-.54-4.07-.8-6.08-1.32-2.73-.72-5.43-1.55-8.14-2.39-3.34-1-6.68-2.1-10-3.16l-8.9-2.84c-.78-.25-1.57-.48-2.35-.75-2-.71-4-1.47-6-2.13-1-.32-2.06-.38-2.88-1.22a2.81,2.81,0,0,0-1.72-.77,10.64,10.64,0,0,1-3.45-1,59,59,0,0,0-6.1-1.9c-2.3-.63-4.65-1-6.92-1.77-1.48-.47-3.25-.29-4.39-1.69-.07-.1-.35,0-.54,0-.21,1.25-.42,2.45-.6,3.65a5.12,5.12,0,0,0,0,.87,20,20,0,0,1,.1,2.18c-.14,2.24-.58,4.46-.05,6.7a3,3,0,0,1,0,.73q-.26,6.07-.52,12.15c-.11,2.33-.25,4.67-.37,7,0,.59,0,1.17,0,1.76-.07,2.28-.14,4.57-.23,6.85-.08,1.94-.18,3.88-.27,5.82l-.24,5.37a28.76,28.76,0,0,0-.16,5.55,23.47,23.47,0,0,1-.28,6.11c-.29,3.11-.26,6.22-.25,9.32,0,1.13.07,2.25.07,3.37,0,.47-.16.95-.17,1.43-.05,1.63-.11,3.26-.07,4.89,0,1-.54,2,0,3,.15.26,0,.67,0,1-.12,3-.3,5.92-.36,8.89,0,1.64.25,3.29.24,4.93,0,2.73-.21,5.45-.26,8.18,0,1.94,0,3.89.09,5.84s.21,3.89.3,5.83a7.07,7.07,0,0,1-.11,1,28.63,28.63,0,0,0-.2,4.82,21.86,21.86,0,0,1-.17,7.08,1.14,1.14,0,0,0,.07.84,3.46,3.46,0,0,1,.35,2.27c0,2.28-.08,4.57,0,6.85a70.55,70.55,0,0,1-.28,10.07c-.2,1.49-.13,3-.2,4.52a5.32,5.32,0,0,1-.22,1.71,1.47,1.47,0,0,0-.09,1.24,2.05,2.05,0,0,1,0,.86,22.37,22.37,0,0,0-.13,3,54.12,54.12,0,0,1,.12,8.15l0,.71c-.12,2-.23,4-.35,5.95,0,.91-.1,1.82-.16,2.73,0,.23-.12.45-.13.68,0,.6-.28,1.39,0,1.77.53.73-.11,1.2-.09,1.78a9.79,9.79,0,0,0,.17,2.57,13.43,13.43,0,0,1,.13,3.76c0,1.7-.09,3.39-.19,5.08-.07,1.16-.28,2.32-.32,3.49-.12,2.95-.18,5.91-.28,8.87-.07,2.38-.24,4.75-.25,7.13,0,4.49,0,9,0,13.47,0,3.76.06,7.52.05,11.28,0,2.83-.08,5.66-.12,8.49,0,.73,0,1.46,0,2.19,0,2.29.11,4.59,0,6.88-.09,2.87-.35,5.73-.47,8.61-.06,1.6.08,3.21.06,4.81-.05,3.7-.22,7.41-.19,11.11s.16,7.32.38,11c.14,2.23-.23,4.47.16,6.7a5.23,5.23,0,0,1-.06.87q0,5.06,0,10.1c0,1.3.36,2.63-.37,3.87a1.42,1.42,0,0,0-.07.72c0,1.4.08,2.8.12,4.25L301.67,438.5c.07-.41.11-.6.13-.79.57-6.87,1.17-13.74,1.71-20.62.38-4.87.66-9.76,1-14.64.44-6.49,1-13,1.33-19.47.32-5.66.92-11.28,1.7-16.89.31-2.18.45-4.38.63-6.57.13-1.65.19-3.3.33-4.95s.44-3.49.52-5.24c.18-3.56.21-7.13.38-10.69s.4-7.22.64-10.82.72-7.5.78-11.26c.07-3.95.24-7.89.59-11.82s.64-7.78.94-11.67c.2-2.48.4-5,.56-7.44.5-7.66,1-15.32,1.47-23,.29-4.92.5-9.85.74-14.77.07-1.41.16-2.82.19-4.22s0-3,0-4.51.08-2.83.18-4.23c.08-1.17.3-2.32.39-3.49.16-2.27.22-4.56.42-6.83.13-1.5.5-3,.63-4.49.27-3.26.48-6.52.68-9.79.33-5.57.64-11.14,1-16.71q.68-11.87,1.37-23.73.5-8.58,1-17.15.68-11.86,1.37-23.74.39-6.51.77-13C323.23,113.47,323.35,111,323.49,108.36Z" transform="translate(-137.81 -24.19)"/><path class="cls-1" d="M214.34,207.54a9.68,9.68,0,0,0,1.35-.42,2,2,0,0,0,.64-.59c1.35-1.67,2.67-3.35,4-5,.52-.64,1.11-1.23,1.65-1.86,2.17-2.5,4.35-5,6.49-7.52.59-.7,1-1.54,1.59-2.26,1.45-1.83,2.93-3.64,4.4-5.44,1.72-2.12,3.48-4.21,5.18-6.34,1.12-1.4,2.17-2.85,3.25-4.29a3.12,3.12,0,0,0,.34-.47c.73-1.3.73-1.3,2.4-1,.51,1.18,1.11,2.43,1.58,3.72a44.82,44.82,0,0,0,3.14,7,29.22,29.22,0,0,1,1.61,3.45,75,75,0,0,0,4.57,9.42,14.46,14.46,0,0,1,1.94,4.87,3,3,0,0,0,.54,1.33c2.3,2.86,3.55,6.26,5,9.56s2.89,6.83,4.38,10.22q5,11.42,10.09,22.79c.91,2,2,4,2.93,6.06.37.78.62,1.63,1,2.42,1.38,2.9,2.68,5.85,4.24,8.65.7,1.24,1,2.6,1.69,3.83.41.77.32.94-.47,2.19a4,4,0,0,0-3.15,1.69,42.29,42.29,0,0,1-3.38,3c-1.22,1.09-2.42,2.2-3.63,3.31l-1.82,1.68c-3.8,3.5-7.61,7-11.39,10.5-2.9,2.7-5.78,5.42-8.61,8.18-3.95,3.85-7.85,7.74-11.76,11.63-1.52,1.5-2.94,3.11-4.51,4.55-1.2,1.1-2.57,2-3.93,3.06-.87-1.4-2.35-2.07-2.75-3.56s-1.79-2.36-1.88-3.92a6.11,6.11,0,0,1-2-3.84c-1.59-1.46-2.34-3.46-3.33-5.29s-1.8-3.78-2.77-5.63-2.05-3.76-3.1-5.63c-.9-1.6-1.85-3.18-2.72-4.79-.29-.54-.34-1.2-.62-1.75-.72-1.47-1.48-2.93-2.28-4.35-.38-.67-.62-1.3-.29-1.79a13.6,13.6,0,0,1-1.28-1.86c-1.14-2.41-2.21-4.85-3.29-7.29a4.44,4.44,0,0,1-.24-1c-.06-.22,0-.5-.17-.66-1.92-2.39-2.86-5.28-4.19-8-1.2-2.43-2.64-4.75-4-7.13-1.19-2.16-2.9-4-3.6-6.46a3.83,3.83,0,0,0-.45-.75,29.34,29.34,0,0,1-3.18-7.5c-.38-1.59-.34-1.52.9-2.53a30.4,30.4,0,0,0,5.42-5.62c1.78-2.46,3.8-4.76,5.72-7.13,1.24-.26,1.22-1.6,2-2.31a28.83,28.83,0,0,0,1.95-2.32c1.08-1.31,2.15-2.64,3.24-3.94A5.14,5.14,0,0,0,214.34,207.54Z" transform="translate(-137.81 -24.19)"/><path class="cls-1" d="M181.51,112.32A73.94,73.94,0,0,1,173,110.5c.47-1.36.85-2.58,1.31-3.77.36-1,.82-1.86,1.2-2.8a18.32,18.32,0,0,1,1.19-3.1c1-1.59,1.66-3.36,2.6-5,.66-1.12,1.57-2.09,2.33-3.15.37-.51.66-1.07,1-1.61.07-.13.05-.33.15-.41a11,11,0,0,0,2.05-3.15c1.07-1.79,2.28-3.49,3.44-5.23.08-.13.12-.29.23-.37,1.91-1.6,2.91-3.94,4.63-5.7.49-.51,1-.71,1.52-.27a6.27,6.27,0,0,1,1.88,1.77c.77,1.59,2,2.86,2.78,4.41l.08.12c.86,2.38,2.53,4.36,3.4,6.73.31.87.5,1.78.81,2.65.4,1.14.91,2.24,1.3,3.39.75,2.25,1.45,4.52,2.17,6.78.85,2.64,1.76,5.27,2.5,7.94a29.38,29.38,0,0,1,.55,3.89,8.58,8.58,0,0,0,.18,1c.14.54.32,1.08.45,1.63s.21,1,.29,1.56c.12.87-.32,1.39-1.17,1.17a25,25,0,0,1-5.55-1.71,6.11,6.11,0,0,1-3.2-4.4,51.65,51.65,0,0,0-1.34-5.35,1.72,1.72,0,0,0-1-.94c-1.55-.58-3.12-1.13-4.71-1.56-2.16-.59-4.34-1.08-6.52-1.57-1.57-.36-1.73-.32-2.41,1.1C183.9,107.07,182.76,109.61,181.51,112.32Zm13.91-15.74a9.45,9.45,0,0,0-2.11-6,22.19,22.19,0,0,0-1.55,2.26c-.41.79-1.5,1.15-1.43,2.26C191.73,96.46,193.6,96.28,195.42,96.58Z" transform="translate(-137.81 -24.19)"/><path class="cls-1" d="M273.35,382.1c.06.22.19.58.28.94a27.62,27.62,0,0,0,.89,3.53,20.38,20.38,0,0,1,1,4.55c.15,1,.38,1.37,1.34,1.62.57.15,1.16.19,1.73.33,2.26.57,4.51,1.17,6.76,1.75,1.32.33,1.68.08,2.25-1.12.68-1.44,1.23-3,2.61-4a1.84,1.84,0,0,0,.39-.44c1.07-1.42,1.08-1.44,2.65-.76,1.74.75,3.46,1.57,5.2,2.35,1.31.58,1.64,1.55.74,2.7a2.29,2.29,0,0,0-.61,1.41,1,1,0,0,1-.34.76c-1.11.51-1.25,1.77-2,2.53a25.06,25.06,0,0,0-2.14,2.35,11,11,0,0,1-2.4,2.7c-.23.16-.3.58-.44.88-.71,1.52-1.41,3-2.16,4.54a8.62,8.62,0,0,1-.91,1.29c-1.29,1.7-2.6,3.38-3.88,5.08s-2.62,3.61-4,5.35a15.72,15.72,0,0,1-2,1.88c-.93.81-1.62.28-1.61-.62a3.93,3.93,0,0,0-1.1-2.7,7.22,7.22,0,0,1-.67-2.06c-.68-1.87-1.43-3.72-2.07-5.6-1.13-3.28-2.2-6.58-3.29-9.88-1.51-4.59-3.06-9.17-4.49-13.79a58.21,58.21,0,0,1-1.32-5.85.93.93,0,0,1,1.05-1.21A12.51,12.51,0,0,1,269,381,42.77,42.77,0,0,0,273.35,382.1Zm4.35,20.16a9.09,9.09,0,0,0,1.49,4.36,12.49,12.49,0,0,0,2.47-3.85Z" transform="translate(-137.81 -24.19)"/><path class="cls-1" d="M270.4,358.69c.78-2,2.33-3.12,3.73-4.38,2.16-2,4.34-3.9,6.59-5.76,1.36-1.13,2.53-2.57,4.39-3,.65-.14,1.29-.34,2-.54a8.79,8.79,0,0,1,1,1.65,16.5,16.5,0,0,0,3,5,25.49,25.49,0,0,1,2,3.34c.92,1.66,1.83,3.33,2.71,5,.31.59.5,1.25.8,1.86a7.84,7.84,0,0,0,.85,1.46,1.46,1.46,0,0,1,0,2.08,4.33,4.33,0,0,1-.74.68c-1.56,1.08-3.16,2.1-4.69,3.22-1.13.83-2.18,1.78-3.27,2.67a8.16,8.16,0,0,1-1.52,1.12,13.44,13.44,0,0,0-3.55,2.51c-.88.85-1.28.83-2-.13-1.48-1.9-2.79-4-4.44-5.72a32.63,32.63,0,0,1-2.18-3.18,9.63,9.63,0,0,1-.83-1.67c-.11-.21-.2-.56-.35-.59-1-.2-1.18-1.12-1.56-1.8C271.62,361.23,271,359.92,270.4,358.69Z" transform="translate(-137.81 -24.19)"/><path class="cls-1" d="M176,136l14.67-13.41c.64.73,1.36,1.49,2,2.3,1,1.25,2,2.5,2.93,3.82,1.75,2.58,3.42,5.21,5.12,7.82.27.41.52.83.8,1.23a4.27,4.27,0,0,1-.65,6.12c-1.74,1.64-3.58,3.18-5.35,4.78-.9.82-1.75,1.69-2.61,2.56s-1.45,1.57-2.22,2.31c-.39.38-.82.36-1.44.21-1.3-.31-1.8-1.3-2.44-2.23-1.16-1.69-2.28-3.41-3.53-5-.55-.71-1.43-1.16-1.51-2.22,0-.17-.31-.37-.52-.48-1.13-.55-1.57-1.67-2.18-2.65a7.52,7.52,0,0,0-1.69-2.29C176.47,138.11,176.49,136.92,176,136Z" transform="translate(-137.81 -24.19)"/></svg>