<svg id="Layer_1" data-name="Layer 1" xmlns="http://www.w3.org/2000/svg" viewBox="0 0 451.89 321.27"><defs><style>.cls-1{fill:#f4f4f4;}</style></defs><title>17. свеча</title><path class="cls-1" d="M475.24,306.57c0,4.87.06,9.74,0,14.61a21.84,21.84,0,0,1-.79,3.84c-.11.55,0,1.37-1,.62a7.68,7.68,0,0,0-.66.66c.22.21.48.63.63.59,1.5-.38.55.7.47.92-.24.67-.87,1.26-.94,1.93a26.47,26.47,0,0,1-2,8.11c-.7,1.62-1.31,3.28-1.95,4.93-.48,1.22-.93,2.46-1.41,3.68-.07.19-.22.5-.34.51-2.1.09-1.61,2.13-2.35,3.2-.61.89-3.15,4.53-4,5.15-.15.11-.13.46-.17.7s0,.67-.13.73c-2.12,1.07-3.31,2.93-4.73,4.77a29.94,29.94,0,0,1-6.53,5.67,104.52,104.52,0,0,1-10.84,7A99,99,0,0,1,425.67,380c-6.58,2.42-13.29,4.52-20,6.62-4.26,1.34-8.57,2.58-12.92,3.59-6.69,1.55-13.45,2.78-20.15,4.3-3.58.81-7.08,2-10.64,2.9a24.41,24.41,0,0,1-4.33.69c-4.77.37-9.54.62-14.31,1-3.44.27-6.88.66-10.31,1-6.62.68-13.26,1.21-19.85,2.08-6,.79-12.16.66-18.07,2.37-1.19.34-2.55,0-3.82.17-7.38.65-14.7,1.9-22.14,2.11-6.05.17-12.12.59-18.15,1.19-4.64.47-9.21,1.57-13.85,2.06-3.67.39-7.39.27-11.09.39-1.68.05-3.37.25-5,.14-3-.19-6.09-.61-9.15-.82-.67,0-1.37.49-2.07.5q-3.9.08-7.81,0c-3.57-.11-7.15-.33-10.73-.45-9.19-.3-18.39-.55-27.59-.88-5.81-.22-11.63-.4-17.42-.89-3.39-.29-6.72-1.2-10.08-1.75-2.7-.45-5.41-.82-8.12-1.16-4.73-.6-9.51-.93-14.19-1.76-10.59-1.87-21.29-2.15-32-2.55a41.15,41.15,0,0,1-13.09-2.34c-3.45-1.29-7-2.4-10.53-3.38a34.52,34.52,0,0,1-13.79-7.51c-2.28-2-5-3.73-6.74-6.16a81.22,81.22,0,0,1-8.33-14,71,71,0,0,1-4.31-13.32,41.87,41.87,0,0,1-.64-7.27c-.11-2.29-.72-4.73-.14-6.84.51-1.84.72-3.73,1.21-5.56.69-2.6,1.24-5.23,2-7.8.22-.74,1.05-1.28,1.45-2,2.15-3.89,3.89-8.07,6.47-11.64,3.41-4.73,6.85-9.57,11.64-13.11,4.6-3.4,9.3-6.68,14-9.91,1-.67,2.33-.78,3.42-1.35a66.55,66.55,0,0,1,15.33-5.53c4.52-1.08,8.94-2.61,13.41-3.89a8.07,8.07,0,0,1,3.49-.6c2.39.47,3-1.15,3.27-2.69,1-6.51,1.72-13.07,2.71-19.59,1-6.3,2-12.6,3.24-18.86,2.42-12.24,4.9-24.47,7.61-36.65.58-2.61,2.09-5.06,3.44-7.43a43.72,43.72,0,0,1,3.42-4.34,26.32,26.32,0,0,1,7.1-6.51c2.86-1.81,5.13-4.59,7.6-7,4.67-4.57,10.42-7.23,16.51-9.18,6.61-2.11,13.31-3.91,19.91-6,1.89-.61,3.52-2,5.36-2.85,5.69-2.67,11.44-5.23,17.14-7.91,3.33-1.57,6.56-3.38,9.91-4.91,1.63-.75,3.44-1.08,5.14-1.67,1-.36,1.47-1,.76-2.1-2.9-4.47-5.58-9.1-8.72-13.39-2.36-3.24-2.8-7-3.72-10.62a49.3,49.3,0,0,1-1.09-7.29,2.09,2.09,0,0,1,.93-1.7c2.33-.88,4.74-1.56,7.12-2.3.53-.17,1.08-.27,1.61-.44a42,42,0,0,1,5-1.59,7,7,0,0,1,3.31.42c1.15.39,1,1.73,1.46,2.51a22.26,22.26,0,0,1,1.59,4.39c1,3.13,1.61,6.66,3.53,9.14,2.22,2.86,3.76,6.15,6.14,8.84a50.29,50.29,0,0,0,3.69,3.89c.32.29,1.24.14,1.79-.07q7.29-2.79,14.55-5.68,6.06-2.4,12.1-4.87c2.66-1.09,5.38-2.09,8-3.35,5-2.43,10.36-3.73,15.53-5.62,4.07-1.49,8.2-2.82,12.25-4.38a7.88,7.88,0,0,0,2.29-2.05c1.76-1.8,3.91-3.39,5.14-5.5,2-3.39,5.2-5.12,8.17-7.06,4.63-3,9.52-5.07,15.51-4.79,14.53.68,28.66,3.78,42.93,6.1a5.58,5.58,0,0,1,2.37.85c3.5,2.53,7,5.07,10.36,7.82a4.53,4.53,0,0,1,1.26,3.17c0,3-.3,5.9-.59,8.84a31.58,31.58,0,0,0,1.16,12.17c2.19,7.38,4,14.86,6.05,22.3,1.46,5.39,3.06,10.75,4.37,16.18.81,3.38.91,6.94,1.86,10.27a127.32,127.32,0,0,1,4.43,22.51c.77,8.09,1.44,16.18,2.13,24.26.08.88.15,1.38,1.26,1.79.7.26,1,1.93,1.27,3,1.18,5.06,2.39,10.11,3.37,15.21.45,2.33,1.6,2.37,3.52,2.05,1.21-.2,2.54.34,3.82.53a4,4,0,0,0,.92,0c.88-.07,2.16-.58,2.56-.18,1.67,1.67,3.52.85,5.37.87,1.62,0,3.23.47,4.85.63,4.87.49,9.69,1.12,14.3,3,3,1.18,6.17,1.86,9.11,3.13A22.92,22.92,0,0,1,463,263.2c.94,1.49,2.46,2.61,3.4,4.1,1.08,1.71,1.79,3.65,2.71,5.47a27.81,27.81,0,0,0,1.46,2.54c2.12,3.2,2.25,7,3.05,10.54a77.67,77.67,0,0,1,1.36,8.73c.42,4,.65,8,.95,12Zm-293.86,51.8v-.14c1.28,0,2.55,0,3.83,0a9.76,9.76,0,0,0,7.81-3.63c3.95-4.79,4.85-10.59,3.9-16.59-1-6.32-2.38-12.58-3.54-18.89-.7-3.86-1.53-7.73-1.89-11.64-.59-6.31-.87-12.65-1.24-19-.17-2.95-.3-5.91-.31-8.86,0-2.65.29-5.29.25-7.93,0-3-.41-5.93-.45-8.9s.32-3.12,3.15-3c7.37.28,14.74.7,22.11.87a5.68,5.68,0,0,1,5.27,3.19c1.4,2.43,2.87,4.82,4.44,7.15,3.3,4.92,8.58,6.94,14.13,5.3a5.48,5.48,0,0,0,3.82-3.25c1.94-4.62,4.27-9.07,6.27-13.66,1.86-4.27,5.26-6.36,9.59-7.12a9,9,0,0,1,4.34.42A4.27,4.27,0,0,1,265,255c.17.38-.75,1.61-1.43,1.92-1.79.84-3.74,1.35-5.6,2.08-.92.37-2.17.7-2.58,1.43a41,41,0,0,0-3.79,8.15A25.23,25.23,0,0,1,245.31,279a14.62,14.62,0,0,1-5.78,4.06,17,17,0,0,1-12-.33,15.2,15.2,0,0,1-8.22-8.37c-1.18-2.67-4.31-3.84-4.69-6.95,0-.29-1-.61-1.48-.67q-6.67-.72-13.38-1.34c-.77-.08-1.56,0-2.33-.05-2-.26-2.19,0-2,2.05.42,5.53,1.06,11.05,1.11,16.58.09,9.4.21,18.76,2.14,28,1.45,7,2.69,14,3.8,21,.58,3.69.73,7.45,1,11.18.07,1.21,1.19,2.08,2.2,1.21,1.25-1.09,2.25-.09,3.35-.1.42,0,.84.26,1.26.28,3.32.13,6.64.36,9.95.3,4-.08,8,.41,12.08-.65,5-1.3,10.31-1.41,15.5-1.91,3.73-.35,7.48-.38,11.2-.76,6.57-.66,13.13-1.43,19.69-2.23,3.79-.46,7.56-1.08,11.34-1.58,2.76-.37,5.54-.66,8.31-1,.7-.08,1.4-.1,2.1-.19,5.35-.75,10.69-2,16.05-2.1A90.47,90.47,0,0,0,328.75,334c3.1-.49,6.05-1.81,9.13-2.48,1.62-.36,3.16-.33,3.78-2.31.47-1.5,1.61-2.86,1.79-4.36a66.27,66.27,0,0,0,0-7.46c0-1.43.7-3.38,0-4.2-3.09-3.72-2.27-8.37-3.4-12.51-.63-2.33-.2-4.93-.39-7.39-.38-4.88-1.08-9.74-1.23-14.62-.21-6.54.2-13.1-.06-19.63-.37-9.57-1.13-19.12-1.65-28.68-.1-1.92.26-3.86.14-5.77-.13-2.15-.61-4.27-.85-6.4-.37-3.2-.65-6.41-1-9.61a14.73,14.73,0,0,0-.65-2.31,11.36,11.36,0,0,0-2.71,1c-2.71,1.86-5.34,3.86-8,5.8-1,.71-1.92,1.21-2.78-.22-1.21-2-1.12-3.15.14-4.21,2.91-2.46,5.65-5.11,8.63-7.47,1.47-1.17,3.27-2.47,5-2.61,2.47-.19,4.33,1.73,5,4a91.23,91.23,0,0,1,2.55,10.84c.35,2,0,4.11.15,6.16.32,5,.75,9.93,1.11,14.89.21,2.82.33,5.64.59,8.45.34,3.7,1,7.38,1.12,11.09.12,4-.32,8.07-.32,12.1,0,3.81.19,7.63.39,11.44.28,5.42.54,10.85,1,16.27.29,3.47.88,6.91,1.36,10.37.45,3.26,2.39,6.42.69,9.85-.06.12.3.46.47.69,0-.29,0-.59,0-.88s.06-.5.09-.74c.25.05.68.05.72.17a17.66,17.66,0,0,1,.7,2.66c0,.08-.64.28-1,.43a4.42,4.42,0,0,1,1.1.1c.18.07.33.41.37.65a56.6,56.6,0,0,1,.89,5.62c.35,5.35.35,10.74.92,16.06.46,4.35,2.3,8.16,6.8,9.8s9,3.12,13.5,4.53a5.42,5.42,0,0,0,6.37-3c.42-.81.93-1.58,1.27-2.42,1.33-3.3,2.79-6.8,1.19-10.2-1.12-2.38-3.35-4.23-5.06-6.34-1.09-1.33-2.67-2.53-3.1-4.06a73.32,73.32,0,0,1-2.29-11.57,68.63,68.63,0,0,1,0-9.07c.07-3.1.25-6.2.3-9.3a52.75,52.75,0,0,0-.06-8.62c-1.21-8.12-2.63-16.22-4.17-24.29-1.2-6.26-2.88-12.44-4-18.71-1.23-6.64-2.21-13.33-3.09-20-.57-4.33-.8-8.7-1.12-13.06-.23-3.37-.51-6.74-.5-10.11,0-6.28.06-12.55-1.27-18.74-1.85-8.55-3.61-17.12-3.92-25.9a41.7,41.7,0,0,0-.29-5.93,107.76,107.76,0,0,0-2.64-11.84c-1.24-4.14-3-8.12-4.44-12.21-.39-1.14-1.64-2.31-.29-3.69a3,3,0,0,1,5.1.75c1.6,3.52,3.46,7,4.55,10.67a133.15,133.15,0,0,1,4.93,26.22c.38,4.21,1.3,8.38,2,12.57.32,2,.7,4,.92,6,.18,1.75-.38,3.81.37,5.2,1.56,2.9,1.32,6,1.59,9,.38,4.08,0,8.22.22,12.32.3,7,.66,14.1,1.22,21.13a123.21,123.21,0,0,0,1.73,12.69c1.12,6,2.29,11.95,3.83,17.82,1.32,5,3.08,9.86,2.7,15.15,0,.09.2.17.24.28a38,38,0,0,1,1.74,5.69,108.54,108.54,0,0,1,1.19,10.94,110.57,110.57,0,0,1,.16,12.87,64.81,64.81,0,0,0,2,19.18c.38,1.6,1.05,2.5,2.9,2.15,1.51-.29,3.08-.26,4.6-.51a7.67,7.67,0,0,0,3.37-1c.44-.34,0-1.8,0-2.74,0-.56.1-1.13,0-1.68-.32-3.25-.77-6.48-1-9.74-.25-3.43-.11-6.91-.53-10.32a78.31,78.31,0,0,0-1.93-8.76c-.48-2-1.08-4-1.58-6s-1-3.81-1.37-5.74c-1.08-6.25-1.95-12.53-3.14-18.75-.75-3.89-2.29-7.64-2.82-11.55-1.37-10.24-2.46-20.53-3.52-30.82-.63-6.14-.89-12.33-1.51-18.48-.54-5.35-1.31-10.68-2.06-16-.3-2.15-1-4.26-1.18-6.41-.5-7.41-3.13-14.31-4.86-21.42-.61-2.51-1.3-5-1.88-7.5-.26-1.18-.3-2.41-.52-3.6s-1-2.64-.65-3.61-.22-1.76-.34-2.44a92.48,92.48,0,0,0-2.37-9.48c-.31-1.13-.51-2.51-1.27-3.27a61.4,61.4,0,0,0-6.49-5.56c-4-3-8.51-2.48-11.83,1.56-.54.66-1.12,1.29-1.64,2-1.81,2.33-3.71,4.63-2.3,7.91.82,1.92,1.62,3.85,2.37,5.8a18.24,18.24,0,0,1,1.39,4.19,23.37,23.37,0,0,1-.35,4.38c-.33,4.64-.69,9.28-.93,13.92a145.13,145.13,0,0,1-2.94,23.78A10.3,10.3,0,0,1,334.2,187a73.39,73.39,0,0,1-7.67,8.28c-3.58,3.23-7.51,6.07-11.25,9.13-.4.33-.86,1.07-.75,1.48.83,3.3,2.14,6.52,2.62,9.86.84,5.82,1.32,11.71,1.68,17.58.22,3.66-.33,7.37-.05,11,.57,7.43,1.51,14.84,2.19,22.27.16,1.72-.18,3.49-.18,5.24q0,6.42.11,12.83c.06,4.35,1.94,8.73.07,13-2,4.53-4.14,9-9.61,10.28-2.24.53-4.58.69-6.76,1.39-3.42,1.09-6.25-.46-8.59-2.24-4.84-3.7-5.76-9.16-5.31-14.92,0-.44.63-1.08.49-1.27a7.63,7.63,0,0,1-1.29-5.68c.17-1.41-1.28-3.17.77-4.25,0,0-.08-.32-.13-.5a5.92,5.92,0,0,1-.5-1.81c.12-2.44.45-4.87.54-7.31.06-1.68-.25-3.37-.22-5.05.06-3.63.28-7.27.35-10.91,0-.86-.47-1.73-.47-2.59,0-3.49.56-7-.56-10.46-.35-1.08.1-3.29.88-3.7,2.68-1.46,7.06,2.1,6.61,5.15-.11.77-.76,1.48-.8,2.23a102.66,102.66,0,0,0-.19,11.36c.48,6.5-.15,12.92-.6,19.37a29.19,29.19,0,0,0,.21,5.68c.53,4.15,1.06,8.32,1.89,12.42.48,2.34,1.05,5,2.48,6.72,2,2.44,8.1,2.35,10.5.31,1.17-1,2-2.42,3-3.53,2.52-2.6,2.47-5.8,2.23-9.05-.12-1.59-.4-3.18-.47-4.77-.32-7.26-.59-14.51-.89-21.77-.14-3.45.09-7-.51-10.34a107.19,107.19,0,0,1-1.22-20.63,43.47,43.47,0,0,0,0-5.82c-.4-3.31-1.12-6.58-1.63-9.88-1.17-7.65-7.2-10.83-13.92-6.61a18.93,18.93,0,0,1-2.89,1.21c-3,1.26-6.32,2.09-7.91,5.46-.92,1.95-1.92,3.86-3,5.75-2.66,4.72-5.94,8.72-11.19,10.92-6.14,2.57-12.13,5.51-18.17,8.32-1.11.52-2.06,1-3.35.22-.49-.29-1.56.19-2.29.51s-1.2,1.08-1.9,1.27c-3.26.88-5.69,3.06-8.2,5.09-1.69,1.37-3.38,2.31-5.59,1.63-1.15-.35-2.29,0-3.43-.07-9.83-.49-19.66-1.12-29.49-1.56-5-.23-9.93-.7-14.21-3.69-.28-.19-.83-.31-.86-.52-.29-1.92-1.67-1.28-2.77-1.21-.85.06-1.69.24-2.53.35-4.64.61-9.29,1.18-13.92,1.86-.57.08-1.45.67-1.52,1.13a5.27,5.27,0,0,1-4.63,4.64c-1.75.26-3.51.46-5.27.74-11.67,1.86-11.66,1.84-22.22-1.43-2.61-.81-4.37-2.23-4.8-5.09a29,29,0,0,0-1.13-4.59,47.72,47.72,0,0,1-2.16-21.6c.68-4.66,2.58-9.17,4.13-13.67a18.38,18.38,0,0,1,8-10.28,52.08,52.08,0,0,1,9.2-4c6.93-2.41,13.93-4.6,20.9-6.9,2.51-.83,5.08-1.54,7.5-2.6,2.25-1,4.27-2.48,6.51-3.5,8.44-3.83,16.91-7.57,25.39-11.3,4.35-1.91,8.75-3.69,13.1-5.6,2.41-1.05,2.95-3.16,1.51-5.25a62.13,62.13,0,0,0-4.24-6.16c-.74-.85-2.58-1.61-3.47-1.27-4.44,1.71-8.77,3.72-13,5.79-5.22,2.53-10.32,5.3-15.54,7.84-3.36,1.64-6.8,3.16-10.29,4.51-4,1.57-8.11,2.9-12.17,4.32a7.62,7.62,0,0,1-1.41.34,26.65,26.65,0,0,0-4.58.71,53.79,53.79,0,0,0-6.09,2.67,40.32,40.32,0,0,0-6.47,3.34c-3.93,2.85-7.71,5.91-11.39,9.08a50.68,50.68,0,0,0-6.86,6.88c-2.33,3-4.59,6.07-5.33,9.92-.3,1.58-.49,3.18-.89,4.74-1.21,4.68-2.69,9.3-3.67,14-.66,3.17-.4,6.52-1,9.71-1.4,7.57-2.14,15.22-4.26,22.71-2.28,8-3.19,16.42-4.68,24.65-1.61,8.83-3.32,17.64-4.74,26.49-.56,3.42-1.79,6.69-2,10.21-.09,1.9-1.15,3.74-1.47,5.66-.86,5.15-1.38,10.36-2.38,15.48-.84,4.32,1.1,6.73,5.92,6.77a40.5,40.5,0,0,0,10.09-.64c3.3-.79,6.72.56,10.07,1.34,2.72.64,5.63.49,8.46.69l17.22,1.21,17.91,1.2c.93.07,2.16.61,1.14-1.34-.6-1.16-.5-2.74-.55-4.13-.17-5.08.23-10.2-1.42-15.15a23.16,23.16,0,0,1-1.28-5.52c-.41-5.41-.73-10.85-.84-16.28-.15-6.73-.08-13.48-.05-20.22,0-5.27.14-10.55.21-15.82,0-1,0-2,0-3.08a12.87,12.87,0,0,1,2.56,1.4c1.22,1.09,2.9,2.21,3.26,3.6a45.19,45.19,0,0,1,.81,8.5c.19,3.31.43,6.63.35,9.93-.11,4.28-.76,8.55-.75,12.82a136.55,136.55,0,0,0,.85,13.85c.49,4.66,1.34,9.29,2,13.93a12.65,12.65,0,0,1,.43,3.86c-.75,4.17-.55,8.06,2.17,11.54a2.37,2.37,0,0,1,.45,1.34c0,2.21.07,4.44-.14,6.64-.25,2.55.28,3.67,2.68,4.06C177.56,358.16,179.48,358.2,181.38,358.37ZM30.5,346.54c-.75,4.89.91,9.72,3.13,14.61,3.22,7,6.4,14.06,11.88,19.69a31.24,31.24,0,0,0,5,3.74c1.43,1,3,1.81,4.47,2.64,1.78,1,3,2.77,5.48,2.76,1.84,0,3.63,1.37,5.51,1.82a129,129,0,0,0,22.22,3.05c6.21.41,12.43.76,18.63,1.35,5.83.56,11.65,1.32,17.45,2.12,2.84.4,5.61,1.32,8.45,1.62,6.13.64,12.29,1.07,18.44,1.5,9.49.67,19,1.45,28.48,1.83,10.27.41,20.55.5,30.82.56,5.59,0,11.17.3,16.76.09a35.84,35.84,0,0,1,5.77.2c2.64.33,5.07-.78,7.64-.9,3.29-.16,6.59-.43,9.87-.76,5.37-.53,10.73-1.2,16.11-1.7s11-.7,16.55-1.33c4-.47,8.1-.55,12.12-1.69,3.8-1.08,7.92-1,11.88-1.63,1.21-.18,2.63.2,3.66-1a1.52,1.52,0,0,1,1.4-.18c2.69,1.26,5.41.27,8.07.08,6.69-.46,13.37-1.17,20-1.88,5.88-.63,11.76-1.33,17.61-2.15,4-.57,8-1.35,11.95-2.14,6.34-1.27,12.7-2.46,19-4,4.95-1.22,9.78-2.95,14.69-4.38,2.83-.83,5.74-1.43,8.55-2.33,2.11-.68,4.1-1.72,6.18-2.51,2.59-1,5.32-1.66,7.82-2.83,3.36-1.58,6.53-3.55,9.83-5.27a56.5,56.5,0,0,1,5.54-2.54,10.31,10.31,0,0,0,3.79-3.16,10.83,10.83,0,0,1,1.56-1.47c1.47-1.07,3.22-1.87,4.44-3.16a86.22,86.22,0,0,0,5.69-7.07,45.23,45.23,0,0,0,4.75-6.61c1.73-3.36,3-7,4.4-10.48a26.33,26.33,0,0,0,1.81-5.3,62.54,62.54,0,0,0,1.22-11.11c-.15-7.27.76-14.5-.07-21.83a64.71,64.71,0,0,0-3.55-14.16c-1.74-4.94-2.92-10.29-7.44-13.88-2.4-1.92-4.21-4.61-6.68-6.41A27.63,27.63,0,0,0,439,255.3c-3-.44-5.92-1.78-8.95-2.18-4.52-.58-9.12-.53-13.64-1.08-1.95-.23-4.24.69-5.87-1.24-.08-.09-.6.21-.92.33.35.74-.26,1.74.7,2.34.21.13.2.65.25,1,.42,2.47.86,4.93,1.22,7.41.86,5.86,1.66,11.74,2.56,17.59.07.45.82,1.21,1.11,1.15,4.66-1.06,9,.29,13.43,1.44a9.36,9.36,0,0,1,6.1,4.52,22.79,22.79,0,0,1,2.56,7.14c.53,3.09-.06,6.24-.42,9.38-.44,3.86-1.25,8.1,3.68,10.38,4.19,1.95,5,6.78,7.75,10a2.22,2.22,0,0,1,.48,1.74c-1,3.3-1.5,7-3.34,9.73-2.67,4-6.42,7.19-11.84,7.1a2.54,2.54,0,0,0-1,.34c-2.64,1.11-5.27,1.8-7.85-.17-.14-.11-.52-.15-.58-.07-1,1.45-2,.22-2.91-.14-1.69-.64-3.31-1.49-5-2-2.57-.81-4.57.71-6.47,2.05-6.8,4.77-14.56,7.42-22.23,10.27a6.75,6.75,0,0,0-2.93,2.11c-3.43,4.6-8,6-13.46,5.13a10.91,10.91,0,0,0-4.06-.11c-2.36.54-4.61,1.5-6.95,2.18s-4.88,1.26-7.32,1.88c-5.91,1.51-11.77,3.27-17.74,4.46-7.72,1.55-15.53,2.7-23.31,3.93-4.23.67-8.48,1.23-12.73,1.72-3.35.39-6.73.58-10.1.89a34.25,34.25,0,0,0-4.41.53A97.83,97.83,0,0,1,266.44,377c-2.23.08-4.46.12-6.68.29-4.61.36-9.22.89-13.84,1.16-3.64.21-7.29.07-10.94.18-2.14.07-4.28.41-6.43.46-4.5.11-9,0-13.5.18-5.57.16-11.13.59-16.7.68-4.27.06-8.55-.4-12.82-.36-10.68.1-21.32,0-31.9-1.7-4.24-.68-8.55-.9-12.82-1.41-6-.71-11.95-2-17.94-2.14-8.25-.15-16.21-1.85-24.26-3.09-5.94-.92-11.44-3.17-16.83-5.64a21.24,21.24,0,0,1-12.49-15.33,17.68,17.68,0,0,1-.79-4.19c.09-3.46.4-6.91.72-10.36A23.75,23.75,0,0,1,79.6,317.63c2.55-1.77,6.05-2.16,9.1-3.21.49-.17,1.32-.53,1.3-.75-.08-1.21-.11-2.14,1.57-1.84.13,0,.52-.87.62-1.37.85-3.89,1.63-7.8,2.48-11.7.15-.7.6-1.34.75-2.05.65-3,1.14-6.12,1.9-9.13.55-2.19.35-2.65-1.77-2.18-6.61,1.47-13.32,2.61-19.74,4.65A70.15,70.15,0,0,0,61.1,296.8c-8.42,5.05-15.93,11.3-21.15,19.8a107.11,107.11,0,0,0-7.22,13.26C30.53,334.94,30.14,340.48,30.5,346.54Zm99.39-122.65a34.42,34.42,0,0,0,.56,4.56c1.25,4.78,2.6,9.53,4,14.27a4.13,4.13,0,0,0,1.54,2.41,14.82,14.82,0,0,0,8.72,1.53c2.41-.27,4.8-.67,7.21-.89,3.3-.3,6.92.2,9.24-2.85s5.37-4.29,9.14-5.06c6.73-1.38,13.25-2.17,19.66.95,1.1.53,1.94,1.58,3,2.12a25.18,25.18,0,0,0,11.93,2.75c8.73-.18,17.47.06,26.2,0a17.07,17.07,0,0,0,6-1c1.46-.57,2.45-2.25,3.86-3.07a53.39,53.39,0,0,1,7.33-3.58c1.94-.76,4.09-1,6.1-1.59,5.71-1.74,10.44-5.4,15.69-8a14,14,0,0,0,6.38-5.63c1.07-2,2-4,3.14-5.9,1.31-2.2,2.35-4.87,4.27-6.35,2.77-2.13,6.23-3.37,9.4-5,1.42-.72,2.85-1.4,4.25-2.15,3.05-1.64,6.2-3,9.74-2.13,2.86.68,6.86-1.39,7.38-4.32.59-3.38.44-6.94,1.35-10.21,1.43-5.14,1.31-10.36,1.71-15.56a74.66,74.66,0,0,0,.49-8.3,47.34,47.34,0,0,1,.33-5.22c.2-2.69-1-4.33-2.89-5.86-1.21-1-2.26-2.15-3.38-3.24a4.49,4.49,0,0,0-5.67-.63c-3.24,2.15-6.36,4.48-9.71,6.43a56.92,56.92,0,0,1-10.75,5.33c-4.69,1.52-9.47,3.08-14.56,3-2.29,0-4.72-.29-6.84.35a129.34,129.34,0,0,0-12.65,4.87,3.8,3.8,0,0,0-1.61,2.29,21.75,21.75,0,0,0-.22,3.45c-.14,1.27.23,1.42,1.38,1,3.85-1.53,7.7-3,11.62-4.35a9.12,9.12,0,0,1,4.16-.23c3,.47,6,1.23,8.95,1.83,2.27.45,4.26.82,5.68,3.28,3,5.21,6.3,10.23,3.71,16.55-1.73,4.22-3.37,8.33-8.19,10.57-11.18,5.18-22,11.08-33.16,16.35A104.34,104.34,0,0,1,229,222.2c-4.22,1.23-8.69,1.6-13,2.53-4.05.87-8,1-11.69-1.14a14.28,14.28,0,0,0-3.46-1.6c-3.59-.89-5.13-3.26-6.49-6.63a13.72,13.72,0,0,1,.33-12.25,11,11,0,0,1,5.86-5.65,53.69,53.69,0,0,0,5.48-2.72c5.26-2.93,10.47-6,15.72-8.9,1.51-.85,3.75-1.21,4.45-2.46s-.09-3.4-.14-5.16c0-1-.31-1.22-1.27-.87-3.42,1.25-7,2.11-10.23,3.76-2.28,1.18-1.82-.07-1.7-1.21.17-1.5-.87-3.41,1.18-4.35,3.69-1.7,7.43-3.3,11.13-5,.75-.33,1.88-.72,2-1.29.56-2.16-.95-3.58-2.42-4.82-.3-.26-1.26.07-1.82.34q-16.17,7.57-32.32,15.2c-6.45,3-12.77,6.4-19.38,9-9.72,3.87-19.69,7.15-29.48,10.86a9.66,9.66,0,0,0-4.59,3.45C133.23,209.59,129.74,216.1,129.89,223.89ZM332,96.19a20.94,20.94,0,0,1-4,0c-5.84-1.16-10.59,1.65-15.08,4.5-3.08,2-5.48,5-8.17,7.55-1.29,1.22-3.17,2.24-3.7,3.73-1,2.95-3.69,3.6-5.83,4.46-3.4,1.37-7.26,1.58-10.75,2.78-5.87,2-11.91,3.85-17.33,6.77-5.73,3.09-12,4.46-17.88,6.93-4.26,1.79-8.53,3.57-12.81,5.3-.91.36-1.05.61-.4,1.44,1.86,2.37,3.55,4.88,5.43,7.24,1.33,1.67,3.24,1.78,5.36.69a31.36,31.36,0,0,1,4.23-1.89c4.09-1.38,8.25-2.59,12.34-4a25.56,25.56,0,0,1,10-1.6,7.13,7.13,0,0,0,2.87-.53c4.41-1.76,8.8-3.58,13.18-5.42a9.08,9.08,0,0,0,2.57-1.43c6.22-5.69,13-10,21.92-9.31a4.5,4.5,0,0,0,.63-.07,10.38,10.38,0,0,1,6.16,1.08c2.09,1.06,4.29,1.88,6.41,2.87,1.08.5,1.36.2,1.68-.92a13.69,13.69,0,0,1,2-4.5c2.09-2.77,4.54-5.28,6.7-8a9.12,9.12,0,0,1,7-3.58c3.81-.27,7.32,0,10.41,2.45,2.52,2,5.12,3.87,7.42,6.07a12.52,12.52,0,0,1,3.28,4.81c.89,2.76,1,5.77,1.66,8.61,1.91,7.94,4,15.85,6,23.77,1.68,6.61,3.49,13.18,4.08,20,.4,4.66,1.15,9.28,1.73,13.93.56,4.45,1.17,8.89,1.63,13.35.28,2.75.24,5.53.46,8.29s.59,5.41.85,8.11c.42,4.24.7,8.5,1.22,12.72a91.94,91.94,0,0,0,1.83,11c.67,2.64.74,5.34,1.49,8,1.79,6.35,3,12.88,4.37,19.34.9,4.17,1.68,8.37,2.68,12.52.56,2.37,1.45,4.65,2.18,7a32,32,0,0,1,1.17,12,33.41,33.41,0,0,0,.1,7.28c.28,2-.21,4,.75,5.91a6.19,6.19,0,0,1,.45,2c.38,3,1.92,5.94.95,9.12-.31,1,.35,1.42,1.2,1.74,5.57,2.05,11.11,4.18,16.69,6.19s9.43,3.25,15.05,1.74c3.93-1.06,7.13-3,9-6.87,1.36-2.85.1-7.82-2.59-9.42a53.69,53.69,0,0,0-13.85-6.16A17.69,17.69,0,0,1,412,302.75c-2.38-5.71-3-11.7-3.82-17.69-.53-4-.72-8-1.45-11.95-1.32-7.1-2.83-14.18-4.46-21.22-1-4.47-2.45-8.85-3.7-13.27-.46-1.62-1.52-3.32-1.27-4.81.42-2.62-.78-4.74-1.24-7.07-.82-4.2-2.18-8.27-1.87-12.68.23-3.33-.49-6.63-.38-10,.15-4.65-1.61-9.38-2.65-14.05s-2.55-9.26-3.22-14a199.55,199.55,0,0,0-6.5-27.85q-3.08-10.59-5.75-21.29a23.3,23.3,0,0,1-.23-11.14c1-4.21.46-8-3.82-10.36a3.39,3.39,0,0,1-.63-.57c-2.86-2.71-6.37-3.89-10.18-4.42-4-.55-8.13-.77-12-1.8A66.28,66.28,0,0,0,332,96.19Zm-2.9,266.64,1.72-.67c-.78-1.29.35-.87.87-1,1.57-.31,3.16-.51,4.7-.93,5.65-1.53,11.29-3.13,16.93-4.73.87-.25,1.72-.61,2.58-.91a10.84,10.84,0,0,1-2-1.28c-3.86-3.86-8-7.53-9.53-13.1-.18-.65-1.24-1.6-1.79-1.54-3.82.44-7.62,1.1-11.42,1.7-4.5.7-9,1.54-13.49,2.07-7.34.85-14.71,1.47-22.07,2.23-3.14.33-6.27.7-9.39,1.19-2.39.37-4.74,1.09-7.13,1.43q-8.93,1.26-17.87,2.32c-4.33.52-8.67,1-13,1.33-5.1.38-10.21.52-15.31.84-2.36.14-4.71.52-7.08.68s-4.79.18-7.18.26c-3.16.11-6.31.28-9.47.29s-6.47-.05-8.72,2.89c-.81,1.05-1.57,2.15-2.4,3.18-2.13,2.64-4.37,5.08-8,5.58-2.13.3-4.19,1.06-6.4.4-.55-.17-1.24.21-1.86.2a23.3,23.3,0,0,1-4.18-.24c-2.12-.4-4.17-1.14-6.29-1.57-3.78-.77-6.31-2.62-6.52-6.81a1.68,1.68,0,0,0-1-1.19,19.24,19.24,0,0,0-4.69-1c-6.15-.25-12.31-.3-18.47-.47-2.71-.08-5.42-.18-8.12-.45-5.07-.49-10.12-1.11-15.18-1.69-1.87-.22-3.74-.57-5.62-.72-3.4-.26-6.81-.44-10.22-.61-1.44-.07-3,.32-4.3-.09a51.31,51.31,0,0,1-6.32-2.8c-2.69-1.26-4.19-5.74-3.17-8.11,2.09-4.82,1.63-10.1,2.82-15.07.33-1.39-.61-1.73-1.82-1.31-.33.11-.65.48-.94.44-3.73-.47-5.69,2-7.39,4.61a28.84,28.84,0,0,0-5,17.6,11.27,11.27,0,0,0,2.88,7.63c4.94,5.2,11.19,7.92,17.85,9.94a86.1,86.1,0,0,0,22.11,3.84,64.42,64.42,0,0,1,7.1.18c5.33.82,10.75.7,16,2.25,4.54,1.32,9.39,1.61,14.13,2.24a108.08,108.08,0,0,0,10.9,1.07c5.17.13,10.38.95,15.55-.2a.76.76,0,0,1,.6,0c1.85,1.78,4.07.35,6.08.56,3.08.34,6.27-.49,9.42-.55s6.34.37,9.51.35c6.45-.05,12.89.31,19.35-.76,4.85-.8,9.86-.68,14.8-.92,1.84-.09,3.69.07,5.51-.08,4-.33,8-.85,12-1.19,3.43-.29,6.89-.41,10.33-.65,8.89-.63,17.78-1.23,26.67-1.95,3-.24,6-.8,9-1.2,5.46-.73,10.73-2.61,16.31-2.64a3.32,3.32,0,0,0,1-.3c1.64-.6,3.28-1.21,4.93-1.77a.72.72,0,0,1,.6.34C327.93,362.42,328.24,362.81,329.05,362.83ZM269.13,173.65c-5.77.09-10.39,1.9-14.81,4.18-3.56,1.83-4,3.4-3.57,7.35.44,4.17.61,8.38.75,12.57a2.39,2.39,0,0,1-1.24,1.78c-6.5,2.65-13,5.17-19.56,7.77-1,.41-1.44.37-1.63-.89-.67-4.57-1.62-9.11-2.13-13.7-.21-1.85-.82-1.25-1.72-.78-4.38,2.26-8.77,4.5-13.14,6.81-3.52,1.86-7,3.76-10.47,5.75a3.51,3.51,0,0,0-1.57,2c-1.38,6-.25,8,4.62,11a9.46,9.46,0,0,0,4.9,1.27,63.64,63.64,0,0,0,11.22-.79,78.19,78.19,0,0,0,10.56-3.21c3.06-1,6.08-2.18,9.09-3.36q7.29-2.85,14.52-5.82c2.8-1.14,5.63-2.23,8.34-3.57a79.58,79.58,0,0,0,8.21-4.62,38.78,38.78,0,0,0,6.78-5.19,8,8,0,0,0,2-6.63c-.44-3.83-2.47-6.61-5.3-9C273.08,175.06,271.37,173,269.13,173.65Zm40.52-35.77c4.92,0,4.93,0,5.92,1,2.67,2.65,5.37,5.27,8,8,1.2,1.26,2.1,2.71,1.53,4.67a5.26,5.26,0,0,0,.06,2.46c.75,3.72.23,7.4-.17,11.09-.3,2.8-.57,5.6-.95,8.39a57.33,57.33,0,0,1-1.4,8.08c-.82,2.82-2.19,5.48-3.25,8.23a23.18,23.18,0,0,0-.73,3c.8-.55,1.62-1.07,2.39-1.65,5.36-4,8.86-9,9.05-16.08.15-5.81.69-11.61,1.11-17.41.35-4.78,1-9.54,1.08-14.32a7.43,7.43,0,0,0-3.51-6.76,35.73,35.73,0,0,1-4.68-3.42c-4.25-3.8-8.93-6.31-14.85-5.4a5.39,5.39,0,0,0-1.94.7c-6.74,4.06-13.55,8-20.17,12.27-4.47,2.89-9.45,3.87-14.49,4.93-6.83,1.42-13.7,2.69-20.13,5.57-4.67,2.09-5.16,3.19-4,7.41.36,1.38.63,1.33,1.74.84,3.65-1.62,7.31-3.25,11.07-4.59a17.84,17.84,0,0,1,5.19-.59c1.32-.06,2.7.37,4,.15,3.92-.68,7.81-1.54,11.69-2.39a25.39,25.39,0,0,0,12.51-6.37,33.41,33.41,0,0,1,4.63-3.3C302.6,140.12,305.56,137,309.65,137.88Zm-98.34-23.72.39-.11a35.53,35.53,0,0,0-2.26-5.71c-.16-.29-2.38.57-3.63.94a8.57,8.57,0,0,0-2.33.88c-.44.28-1,1.17-.81,1.49,1.33,2.86.39,6.52,3.12,8.89.18.15.07.63.09,1a4.66,4.66,0,0,0,.16,1.86c.93,1.61,2,3.12,3.05,4.69,2.07,3.21,4.18,6.4,6.15,9.67,3,5,6.11,9.93,10.33,14,2.91,2.83,5.53,5.79,7.07,9.72a10.91,10.91,0,0,1,.32,6.08,26.25,26.25,0,0,0-.29,5.6c.23,3.48,1.23,7,.92,10.41a40.65,40.65,0,0,0,.89,12.27c.26,1.22.91,2.64.52,3.64-.57,1.51.31,1.1.88,1a21.88,21.88,0,0,0,3.63-1.15c2.17-.93,4.32-1.93,6.41-3a2.19,2.19,0,0,0,.67-1.65,38.43,38.43,0,0,0-.3-4q-.81-7.5-1.67-15c-.32-2.87-.67-5.73-1-8.6-.65-5.41-3.1-10.22-5.6-14.87-2.24-4.16-5.61-7.69-8-11.79-2.95-5.06-7.12-9.1-11.05-13.22-3.38-3.53-4.66-8.08-7.49-11.77C211.25,115.08,211.35,114.57,211.31,114.16ZM431.64,297.35l-.3,0a16,16,0,0,0,0-3.39,8.36,8.36,0,0,0-1.45-3.31c-2.51-3.21-6.19-4.28-10-4.76-1.4-.17-2.89.37-4.34.58.17,1.06.28,2.14.52,3.19.9,3.81.53,7.89,2.53,11.49.94,1.7,1.86,3.35,3.8,4q3.67,1.29,7.39,2.45c.17.05.69-.43.73-.71C430.89,303.72,431.26,300.54,431.64,297.35Zm-43.31,42.93-.54.2c.18,1.32.44,2.65.52,4,.06,1,.36,1,1.14.61,1.67-.88,3.36-1.72,5.08-2.5,2.89-1.3,5.81-2.51,8.69-3.81a6.23,6.23,0,0,0,1.25-1,5.88,5.88,0,0,0-1.22-1.08c-1.32-.65-2.69-1.19-4-1.79-3.63-1.63-6.92-4.24-11.22-3.86a24.1,24.1,0,0,0-3,.65c.27.84.5,1.69.83,2.51C386.62,336.22,387.48,338.25,388.33,340.28Z" transform="translate(-24.06 -89.37)"/><path class="cls-1" d="M147.69,291.49c-.58-3.14-1.18-6.26-1.74-9.4a29.5,29.5,0,0,0-.5-3.57c-.48-1.56-.92-3.35-2-4.45-.7-.72-2.48-.52-3.78-.5-4.73,0-9.23-.44-13.45-3-2.35-1.44-4.43-2.91-5.67-5.4-.25-.5-.72-1-.76-1.48a27.67,27.67,0,0,1,0-3.28,14.27,14.27,0,0,1,3,.9c2,1.12,3.9,2.5,5.92,3.63.66.37,1.61.16,2.35.42,4,1.38,8.07.75,12.12.49.43,0,1-.22,1.25,0,2.64,2.29,6,4.34,6.47,8,1.24,10.2,2.55,20.45,2.79,30.71.14,6.11,1.21,12,1.87,18,.16,1.43-.24,1.69-1.6,1.41-4-.83-3.89-.79-4.3-4.91-.73-7.4-1.64-14.78-2.39-22.18a52.23,52.23,0,0,1,0-5.31Z" transform="translate(-24.06 -89.37)"/><path class="cls-1" d="M310,323a10.76,10.76,0,0,1-2.29-.63c-.54-.28-.87-.94-1.3-1.43a9.78,9.78,0,0,0,1.29-.66,97.19,97.19,0,0,0,8.83-6.43c2.07-1.86,3.54-4.37,5.28-6.6.18-.22.29-.54.51-.67,4.29-2.48,3.59-6.95,4.25-10.83a41,41,0,0,0,.5-5.65c.05-1.53,1.06-1.75,2.14-1.69s2.16.21,2.58,1.87c1.46,5.71-.08,10.86-2.84,15.65a45.39,45.39,0,0,1-10.19,12.66c-2.11,1.73-4.74,2.83-7.16,4.16A5.26,5.26,0,0,1,310,323Z" transform="translate(-24.06 -89.37)"/><path class="cls-1" d="M122.72,309.46c.2,3.67,0,7.44.74,11a31.43,31.43,0,0,0,3.9,8.71c.8,1.37,1.59,2.36.31,3.69-1,1.07-2.6.9-4-.34a19.21,19.21,0,0,1-6.29-13.65c-.23-4.32-.35-8.64-.46-13a8.63,8.63,0,0,1,.45-2,33.07,33.07,0,0,0,.81-3.62c.22-1.83,1.08-2.95,2.52-2.79,1.67.18,2.21,1.29,2.19,2.85,0,3.05,0,6.1,0,9.16Z" transform="translate(-24.06 -89.37)"/><path class="cls-1" d="M228.83,289.21a20,20,0,0,0,12-2c2.36-1.12,4.61-2.48,6.87-3.81.42-.25.62-.86.93-1.3s.27-2,1.64-.91a2.38,2.38,0,0,0,1.1-1c1.15-3.52,4.35-5.32,6.58-7.92.58-.68,1.27-.35,1.53.55a5.83,5.83,0,0,1-1.08,5.54c-1.83,2.23-3.82,4.32-5.66,6.55-3.13,3.79-7.58,5.38-11.83,7.35a20,20,0,0,1-12.46,1.27,4.07,4.07,0,0,1-1.92-.7,21.37,21.37,0,0,1-2.15-2.48c1.13-.39,2.25-.8,3.39-1.14A3.16,3.16,0,0,1,228.83,289.21Z" transform="translate(-24.06 -89.37)"/><path class="cls-1" d="M138,221.74c.28-6.79,3.6-11.09,8.13-14.77a33.12,33.12,0,0,1,11.59-5.81c10-3,19.31-7.71,28.45-12.71.8-.43,1.91-1.31,2.43-1.06a13.3,13.3,0,0,1,3.21,2.72,1.86,1.86,0,0,1-.65,1.1c-5,3-9.85,6.18-14.91,9-3.11,1.75-6.47,3-9.71,4.56L155,210.25a8.3,8.3,0,0,1-1.9.81c-4.66.95-6.38,4.81-7.81,8.53-.66,1.7.1,4,.43,6,.55,3.3,1.3,6.57,1.9,9.87.05.27-.35.89-.57.9a32.45,32.45,0,0,1-5.31,0,2.42,2.42,0,0,1-1.68-1.5C139.23,230.3,138.59,225.72,138,221.74Z" transform="translate(-24.06 -89.37)"/></svg>