<svg id="Layer_1" data-name="Layer 1" xmlns="http://www.w3.org/2000/svg" viewBox="0 0 224.76 455.96"><defs><style>.cls-1{fill:#efefef;}</style></defs><title>13. ножик</title><path class="cls-1" d="M131.11,479.77c-.72-4.31-1.67-8.67-2.15-13.08-.61-5.73-.92-11.5-1.21-17.26-.48-9.61-.8-19.22-1.27-28.83-.31-6.51,1.45-12.71,2.56-19,.39-2.21.7-4.45,1.26-6.63a22.5,22.5,0,0,1,1.62-3.59c3.43-7.42,6.72-14.91,10.31-22.25q8.45-17.31,17.21-34.46c5-9.89,10.13-19.74,15.43-29.48a8.87,8.87,0,0,0,.89-7.24,10.76,10.76,0,0,1,1-8.4c5.1-10.1,9.86-20.37,15.07-30.4,4.5-8.67,9.45-17.11,14.18-25.66,2.47-4.47,4.87-9,7.34-13.45a1.76,1.76,0,0,0-.08-2.19,7.16,7.16,0,0,1-.51-6.51c.83-2.53,1.68-5.06,2.65-7.54a30.23,30.23,0,0,1,2.53-5.25,51.89,51.89,0,0,1,4-5q11.82-14.3,22.57-29.41c5.64-7.91,11.82-15.44,17.46-23.35a127,127,0,0,0,7.61-13c.43-.8,0-2.1-.11-3.15-.25-2.19-.61-4.37-.84-6.56a29.67,29.67,0,0,1-.29-4.7,25.54,25.54,0,0,1,6.84-16.84,29.29,29.29,0,0,1,10.58-7.08c.21-.08.51-.07.62-.22,1.78-2.46,4.78-3,7.16-4.49a30.32,30.32,0,0,0,3.23-2.28c.3-.25.33-.88.4-1.36.63-4.43,1.17-8.87,1.89-13.28.29-1.8,1.21-3.52,1.36-5.32.23-2.93-.1-5.9.09-8.83.23-3.46.25-6.94,1.52-10.3a13.62,13.62,0,0,1,3.81-5.78c3.57-3.06,6.84-6.46,11-8.86a40,40,0,0,1,14.49-4.56c1.6-.23,3.32.5,5,.66,4.6.45,7.73,3,10.34,6.64a24.5,24.5,0,0,1,3.83,10.17,36.11,36.11,0,0,1,.74,8.09A87.44,87.44,0,0,1,349.87,59c-.11.68-.3,1.35-.45,2-.69,3.19-.86,6.62-2.19,9.53-1.47,3.23.42,5.63.81,8.4.63,4.46,1.54,8.9,1.79,13.37.27,4.85-.06,9.74-.14,14.61a48.73,48.73,0,0,1-2.4,15.32,117.58,117.58,0,0,1-4.76,11.16c-1.44,3.05-3.17,6-4.72,9s-.15,6.06.58,9.11c1.09,4.51,2.45,9,2.33,13.73-.05,1.89.2,3.79.31,5.69.06,1,.12,2,.19,3.18a4.11,4.11,0,0,1-1.14.08,17.18,17.18,0,0,1-10-5.08,24.56,24.56,0,0,0-3.32-3.29,14.1,14.1,0,0,0-3.52-1.25c-1.32,2.83-2.62,5.6-3.89,8.39-5.33,11.63-10.63,23.27-16,34.89-2.5,5.42-4.91,10.9-7.73,16.15-2.59,4.81-5.6,9.39-8.57,14a26.84,26.84,0,0,1-4,4.5,11.82,11.82,0,0,1-2.83,1.45l1,1.25c-2.33,2.19-4.66,4.44-7.07,6.58a13.33,13.33,0,0,1-3,1.94c-.44.21-1.11,0-1.91-.1-.65,1.29-1.39,2.74-2.1,4.2-3.92,8.12-7.56,16.38-11.83,24.3-2.87,5.33-4.65,11.09-7.3,16.47-1.74,3.54-3.81,6.91-5.75,10.36-.45.81-1,1.59-1.41,2.41a27.09,27.09,0,0,1-7.73,8.86c-1.7,1.31-3.1,3.11-4.95,4.08-4.53,2.36-5.55,7.13-7.82,11-7,11.7-13.43,23.7-20.4,35.39-14.69,24.62-29.57,49.12-44.38,73.67-6.75,11.2-13.53,22.37-20.2,33.61C134.38,479.58,133.34,480.48,131.11,479.77Zm65.57-191-.69-.48c3.7-10.41,9.12-20.05,13.92-30,4.87-10.07,9.9-20.06,14.91-30.18l-5.92-3.54c-1.53,2.3-3,4.47-4.44,6.66-7,10.61-12.79,21.91-18.64,33.17-.68,1.31-.43,2.12.23,3.36,1.18,2.23,2.38,4.57,1.16,7.32a5.63,5.63,0,0,1-5.32,3.61c-3.25,0-4.86,1.64-5.81,4.42-.16.46-.54.85-.66,1.32a17.45,17.45,0,0,0-.36,2.28c-.15,1.18.23,2.52-1.63,2.88-1.45.28-2.85,3.56-2.09,4.56,1.3,1.72,2.53,3.49,4.76,4.26a32.37,32.37,0,0,1,4.13,2q12.27,6.19,24.54,12.43c.44.23,1,.84,1,1.18a1.76,1.76,0,0,0,1.32,2.13c2.89,1.17,5.78,2.31,8.55,3.4.5-.53.76-1,1.15-1.19a18.3,18.3,0,0,0,7.88-7.79c3.7-7,7.26-14.05,10.85-21.1q8.17-16.06,16.3-32.16c.86-1.69,1.69-3.4,2.55-5.15-3-2.1-6-4.28-9.07-6.28a3.27,3.27,0,0,1-1.52-3.35,9.83,9.83,0,0,1,2.46.43c2.65,1.28,5.16,2.89,7.88,4,1.61.63,4,1.24,5.19.51,2.59-1.55,4.69-3.93,6.89-6.06,1.2-1.16,2.21-2.5,3.29-3.77,1.67-2,3.44-3.9,4.95-6,2-2.74,3.88-5.56,5.6-8.48s3.1-5.87,4.63-8.81c1.44-2.76,3.33-5.28,4.24-8.33a36.47,36.47,0,0,1,1.74-3.33c1-2.32,1.68-4.75,2.73-7,1.77-3.8,3.8-7.48,5.58-11.27,1.57-3.34,2.93-6.77,4.43-10.15,1.38-3.11,2.75-6.23,4.26-9.28,1-1.94,2.17-3.75,3.28-5.6.51-.86,1.12-.64,1.78-.14q2.64,2,5.31,3.92c2.34,1.7,4.41,4,7.89,3.57a41.13,41.13,0,0,0-2.67-11.54c-1.49-3.57-1.42-7.32-.75-11.15s2.57-6.85,4.07-10.17c1.73-3.81,4-7.39,5.54-11.25a37.7,37.7,0,0,0,2.92-15c-.06-3.52-.53-7.06-.28-10.55a46.82,46.82,0,0,0-1-13c-.59-2.87-1.75-5.73-1.77-8.59a43.55,43.55,0,0,1,1.48-10.29c1.34-5.6,3.24-11.06,2.87-17-.33-5.49-.61-10.93-4.92-15.12-2.24-2.18-4.11-4.93-7.68-5A20.73,20.73,0,0,0,324,29.94l-.23-.76a20.94,20.94,0,0,1-2.08,1.43,28.53,28.53,0,0,0-3.25,1.54c-1.67,1.18-3,2.93-4.82,3.8-3.15,1.52-5,4.19-7,6.77-3.09,4.09-1.59,9.06-2.23,13.63,0,.09.07.2.09.31a8.29,8.29,0,0,1,.41,2.56q-1.8,12-3.8,23.91a3,3,0,0,1-1.16,1.79c-7.06,4.66-14.17,9.25-21.26,13.86a9.16,9.16,0,0,0-2.18,1.62c-1.82,2.25-2.39,5-3.29,7.7-1.45,4.27-.94,8.57-1.06,12.88a2.94,2.94,0,0,0,.31,1.09c1,2.31,2,4.62,3,6.9,1.15,2.51.72,4.42-1.49,6.21l-1.73-1c-5.85,8-11.62,15.94-17.49,23.83q-14.2,19.1-28.49,38.13c-1.73,2.32-3.8,4.51-5,7.08-1.44,3.1-2.09,6.55-3.14,9.83a2,2,0,0,0,.73,2.4c3.63,3,7.17,6.17,10.81,9.19a2.75,2.75,0,0,1,.84,3.58c-1.56,3.23-3.27,6.39-4.91,9.59-4.53,8.85-9.19,17.64-13.55,26.57a139.16,139.16,0,0,1-13.91,22.9A21,21,0,0,1,196.68,288.8ZM134.05,470.61l.38,0,.85-1.38q26.64-44.94,53.27-89.87Q203.76,353.72,218.9,328a8.63,8.63,0,0,0,.83-4.35c0-.39-1.57-.76-2.42-1.14-.14-.07-.28-.18-.42-.26-1.94-1.16-3.58-2.7-5.71-3.7-5.66-2.66-11.1-5.78-16.63-8.72-4.59-2.44-9.2-4.87-14-7.42-1.8,3.57-3.55,7-5.29,10.51Q155.09,353.33,135,393.72a12.76,12.76,0,0,0-1.1,3.75c-.78,5.27-1.54,10.55-2.16,15.84-.46,3.92-1.14,7.88-.94,11.78.6,11.42,1.6,22.81,2.44,34.21Q133.62,465,134.05,470.61Zm60.24-198.39c-.54-.8-.75-1.48-1.13-1.58a2.17,2.17,0,0,0-1.6.36c-.61.41-1.37,1-1.52,1.6a10.25,10.25,0,0,0,.11,2.91c.68-.1,1.59,0,2-.34A20.71,20.71,0,0,0,194.29,272.22Z" transform="translate(-126.45 -24.06)"/><path class="cls-1" d="M269.48,180.72a9.89,9.89,0,0,1,2.56,5.82c1.57,10,2.84,20,4.55,29.89.46,2.64,2.05,5.12,3.28,7.6,1.46,2.92,1.16,4.44-1.54,6.35-2.1,1.5-2.41,1.43-3.1-1.15s-1-5.19-1.84-7.69c-1.69-5.27-1.79-10.86-3.11-16.15-2-8.08-.58-16.12-1-24.16A2.72,2.72,0,0,1,269.48,180.72Z" transform="translate(-126.45 -24.06)"/><path class="cls-1" d="M304.39,183.15c-2.25-.85-2.05-2.44-2.13-4.26-.2-4.5-.92-9-1.29-13.48-.27-3.34-.32-6.69-.49-10-.06-1.2-.21-2.38-.25-3.58-.15-3.95-.34-7.91-.35-11.87a19.29,19.29,0,0,1,.8-3.88c.85-.16,1.35.08,1.54,1.17,1,5.67,2.19,11.31,3.11,17,.41,2.6.28,5.29.51,7.92s.59,5.26.85,7.89a21.57,21.57,0,0,1-1.49,11.17C304.89,181.87,304.63,182.56,304.39,183.15Z" transform="translate(-126.45 -24.06)"/><path class="cls-1" d="M284.38,217.83a11.05,11.05,0,0,1-1.4-1.37c-2.73-3.6-3.74-7.77-4.22-12.18-.69-6.28-1.79-12.51-2.32-18.79a114,114,0,0,1,.06-12.26,17,17,0,0,1,.5-3.16,1,1,0,0,1,.58-.59c.09,0,.46.25.52.44a28.16,28.16,0,0,1,1.18,4c.46,2.9.7,5.83,1.12,8.73.59,4.05,1.35,8.08,1.89,12.13.71,5.29.9,10.66,2.55,15.79a17.49,17.49,0,0,0,1.58,4c.58.93.14,1.25-.39,1.73Z" transform="translate(-126.45 -24.06)"/><path class="cls-1" d="M260.74,199.68c1.24,4,2.75,8,3.67,12,1.7,7.66,3,15.4,4.61,23.08.3,1.45.48,3.13,2.19,4a1.71,1.71,0,0,1,.38,1.59c-1.21,1.3-2.26,3-4.4,2.77a2.16,2.16,0,0,1-1.55-1.2c-.42-2.3-.58-4.65-.9-7a13.82,13.82,0,0,0-.65-2.83c-.33-.94-.89-1.67-.44-2.87.26-.72-.56-1.8-.76-2.75-1.09-5.27-2.29-10.52-3.14-15.82a63.86,63.86,0,0,1-.45-9.08,5.85,5.85,0,0,1,.77-2Z" transform="translate(-126.45 -24.06)"/><path class="cls-1" d="M287.85,152.19a16.1,16.1,0,0,1,.66,1.47,79,79,0,0,1,3.8,15.86c.53,4.3.73,8.63,1.11,12.95.09,1.08.36,2.14.47,3.22.34,3.52.27,7.15,1.08,10.56,1,4.29-1.49,6.84-4,9.7l-3.84-53.56Z" transform="translate(-126.45 -24.06)"/><path class="cls-1" d="M318.88,116.45c-.21-3.72-.41-7.22-.61-10.72,1.66-1.69,2.1-4.12,4-5.83,1.28-1.17,2.72-2.06,4-3.12.67-.53,2-1.08,2.5-.77.79.46,1.18,1.65,1.67,2.57.23.41.18,1,.48,1.34,2.56,2.57,1.77,5.41.85,8.33-1.13,3.56-3.59,5.48-7.13,6.33C322.82,115,321,115.74,318.88,116.45Zm3.86-5.4a5.73,5.73,0,0,1,1.32-.23c3.2.23,5.59-4.19,4.7-7a3.38,3.38,0,0,0-1.91-2c-.49-.15-1.41.86-2,1.45a10.13,10.13,0,0,0-1.37,1.81C322.23,106.9,321.48,108.83,322.74,111.05Z" transform="translate(-126.45 -24.06)"/><path class="cls-1" d="M327.38,127.93c.61-1,1.2-2.05,1.82-3.06.32-.53.69-1,1-1.56a40.67,40.67,0,0,0,2.77-4.53,41.64,41.64,0,0,0,2.45-6.67,24.08,24.08,0,0,0,.82-6,31.83,31.83,0,0,0-.75-6.36c-.51-2.52-1.34-5-1.87-7.5a2.05,2.05,0,0,1,.76-1.73,1.38,1.38,0,0,1,2.12.35,19.74,19.74,0,0,1,3.85,10.87,56,56,0,0,1-.39,9c-.72,4.83-2.21,9.32-5.91,13-1.57,1.54-3.28,2.87-4.92,4.3-.31.27-.89.22-1.35.32Z" transform="translate(-126.45 -24.06)"/><path class="cls-1" d="M246.24,226.6l-2.37,2.05L232,214.8c-.25-.29-.47-.61-.72-.9-2-2.3-3-2.76-5.31-.63a8.84,8.84,0,0,1-.77.6c-.49-.26-1-.49-1.42-.77-1.59-1-1.74-2.15-.54-3.62s1.49-3.15,3.25-4a4.24,4.24,0,0,1,4.12.34,54.87,54.87,0,0,1,11.31,14.51A60,60,0,0,0,246.24,226.6Z" transform="translate(-126.45 -24.06)"/><path class="cls-1" d="M278.44,139.91c1.14-1.53,2.35-3,3.44-4.62s1.84-2.94,1.55-4.94c-.81-5.72-1.44-11.48-2.1-17.22a5.12,5.12,0,0,1,.15-2.41c.26-.64,1-1.56,1.55-1.55,4.93.15,9.85.47,14.94,1.1-.47.35-.9.9-1.42,1-2.18.52-4.38,1-6.6,1.34a6.13,6.13,0,0,1-2.39-.28c-1.29-.33-2.13.09-2.2,1.38a23.85,23.85,0,0,0,1.09,9.36c.5,1.45.22,3.16.31,4.75a4.39,4.39,0,0,0,.21.79c.06.29.22.62.14.88a29.86,29.86,0,0,1-1.65,5.08,30,30,0,0,1-3,4.24,16.79,16.79,0,0,1-1.16,1.35C280.12,141.45,279.66,141.4,278.44,139.91Z" transform="translate(-126.45 -24.06)"/><path class="cls-1" d="M310.55,49.78A22.12,22.12,0,0,1,312.27,52c1.2,2,2.3,4.06,2.1,6.48-.52,6.18-1,12.36-1.78,18.5-.19,1.46-1.47,2.84-2.45,4.1a20.78,20.78,0,0,1-2.73,2.48c-1.16-.76-.41-1.33,0-2,2.46-3.7,2.59-7.95,2.85-12.16,0-.06,0-.13,0-.17,1-1.64-.22-3.23-.12-4.82.11-1.82.64-3.62.89-5.43a9.65,9.65,0,0,0,0-2.46c-.29-2.15-.65-4.29-1-6.44Z" transform="translate(-126.45 -24.06)"/><path class="cls-1" d="M317.45,147.5a60.67,60.67,0,0,1-4.55-5.35c-2.44-3.58-4.88-7.23-5.17-11.77,0-.43.32-1.2.61-1.25a1.83,1.83,0,0,1,1.54.45c1.25,1.68,2.4,3.44,3.5,5.23,1.21,2,2.42,4,3.46,6a26.63,26.63,0,0,1,1.76,4.73c.15.54-.31,1.24-.49,1.87Z" transform="translate(-126.45 -24.06)"/><path class="cls-1" d="M331.91,41.71c-1.77.17-3.27,1.33-4.77,0a2.51,2.51,0,0,1-.82-1c-.75-2.34-1.43-4.7-2.23-7.37l6.58-1.87C331.12,35.17,331.5,38.36,331.91,41.71Zm-4.6-6.6c.55,1.62.88,2.75,1.34,3.83a1.07,1.07,0,0,0,1,.42,1,1,0,0,0,.5-.92,13.48,13.48,0,0,0-1.19-2.82C328.76,35.34,328.1,35.34,327.31,35.11Z" transform="translate(-126.45 -24.06)"/><path class="cls-1" d="M343,48.09c-2.36-5.17-4.54-10-6.93-15.22,1.08.3,2.05.29,2.59.76,3.84,3.36,5.85,7.55,5.25,12.75A5.86,5.86,0,0,1,343,48.09Z" transform="translate(-126.45 -24.06)"/><path class="cls-1" d="M226.33,309.06l5.6-8.52.37,0a3.57,3.57,0,0,1,.07,1.29,27.45,27.45,0,0,1-1.7,4.73,10.74,10.74,0,0,1-2.54,2.81C227.88,309.6,227.12,309.22,226.33,309.06Z" transform="translate(-126.45 -24.06)"/></svg>