<svg id="Layer_1" data-name="Layer 1" xmlns="http://www.w3.org/2000/svg" viewBox="0 0 452.26 402.93"><defs><style>.cls-1{fill:#f2f2f2;}</style></defs><title>12. марля</title><path class="cls-1" d="M23.87,451.21c.68,0,1.36.12,2,.12h-.38c-.56,0-1.11.08-1.66.13Z" transform="translate(-23.87 -48.53)"/><path class="cls-1" d="M343.9,285.23a50.42,50.42,0,0,1,3.84,4q4.36,5.61,8.49,11.4c2.76,3.84,5.44,7.74,8.08,11.66.8,1.19,1.3,2.57,2,3.81a14.78,14.78,0,0,0,1.37,1.76l-3.81,3.25c-.61-1.06-1.19-2.06-1.76-3.07-1.1-2-2.18-4-3.28-6a60.51,60.51,0,0,0-3.11-5.43c-2.35-3.35-4.84-6.6-7.32-9.85-1.76-2.31-3.58-4.56-5.42-6.81-1.33-1.63-2.78-3.17-4.1-4.81-1.68-2.07-3.27-4.22-4.91-6.32-.84-1.07-1.77-2.07-2.54-3.19-2.28-3.32-4.46-6.71-6.75-10-1.4-2-2.92-3.95-4.39-5.91l-1.95-2.54a27.59,27.59,0,0,0-2.43,1.84,1.17,1.17,0,0,0-.06,1.12c1.15,1.64,2.47,3.16,3.55,4.85,1.29,2,2.41,4.14,3.57,6.23,1.42,2.58,2.77,5.2,4.23,7.75,1.24,2.17,2.56,4.3,3.91,6.4,1.21,1.88,2.57,3.66,3.74,5.57,1,1.61,1.74,3.34,2.65,5a17.88,17.88,0,0,0,1.29,1.84c1.3,1.72,2.6,3.44,3.92,5.14s2.67,3.49,4.12,5.15c2.46,2.83,5,5.56,7.51,8.38,2,2.28,3.91,4.62,5.82,7a.9.9,0,0,1-.1.89c-.91.85-1.86,1.66-2.84,2.43-.66.52-1.74,0-2.53-1.17-1.13-1.74-2.06-3.62-3.32-5.25-2.2-2.84-4.62-5.5-6.86-8.32-1.57-2-2.95-4.09-4.48-6.09-1.25-1.65-2.68-3.18-3.88-4.87-.85-1.19-1.4-2.58-2.15-3.84-1.84-3.11-3.7-6.19-5.57-9.28s-3.89-6.38-5.84-9.58c-1.53-2.51-3.07-5-4.59-7.55-.86-1.41-1.69-2.84-2.33-3.93-.18-.74-.16-1.31-.43-1.61-1-1.13-2.18-2.18-3.24-3.21-2.29,1.85-4.56,3.69-6.91,5.57,1.3,1.85,2.66,3.74,3.95,5.68,1.57,2.34,3,4.8,4.66,7.07,1.3,1.77,2.92,3.3,4.33,5,1.07,1.29,2,2.69,3,4,1.82,2.29,3.71,4.53,5.5,6.85.33.43,1.14.94.45,1.74,0,0,.17.45.28.45,1.3,0,1.63,1.18,2.21,2,1.38,1.83,2.75,3.66,4,5.61,1.47,2.41,2.73,4.95,4.16,7.4.43.75,1.16,1.32,1.63,2.06,1.27,2,2.36,4.19,3.75,6.14,1.82,2.55,3.87,4.93,5.79,7.41.75,1,1.43,2,2.21,3.07l-3.43,2.85c-.88-1.13-1.72-2.14-2.49-3.2C343,328.85,340.94,326,339,323c-1.24-1.86-2.16-3.92-3.36-5.8-2.71-4.23-5.41-8.46-8.28-12.58-2.58-3.71-5.37-7.26-8.07-10.89-1.27-1.7-2.56-3.39-3.8-5.13-.2-.28-.13-.75-.18-1.07-.26,0-.6,0-.74-.09a18.07,18.07,0,0,1-1.79-2c-3.51-4.83-7-9.67-10.47-14.56-.72-1-1.31-1.07-2.15-.32-2,1.79-4,3.56-5.91,5.42-.24.23-.15,1.11.09,1.49,2.21,3.48,4.45,6.94,6.77,10.35,1.64,2.41,3.45,4.71,5.14,7.09,1.06,1.48,2,3,3,4.55,2.39,3.57,4.75,7.17,7.2,10.7,1.57,2.25,3.36,4.35,4.93,6.6,2.32,3.35,4.52,6.78,6.8,10.16.8,1.2,1.7,2.34,2.5,3.55,1.08,1.62,2.09,3.29,3.15,4.92,1.29,2,2.61,4,4,6.06l-3.53,2.42c-.59-1.13-1.08-2.23-1.71-3.23-1.75-2.79-3.76-5.44-5.29-8.35s-4.15-4.77-5.69-7.56c-.9-1.63-1.77-3.29-2.75-4.87-.53-.86-1.32-1.55-1.87-2.4s-1-2-1.57-2.91c-1-1.73-2.1-3.45-3.25-5.11-3.13-4.5-6.31-8.95-9.45-13.44-1.63-2.32-3.27-4.64-4.78-7-2.06-3.25-4-6.58-6-9.87a6,6,0,0,0-.62-.71l-7.58,5.79a17,17,0,0,0,1.55,2.32c1.7,1.81,2.7,4.05,4.06,6.07,1,1.54,2.41,2.84,3.53,4.33,3.33,4.4,6.37,9,9.27,13.69A98.88,98.88,0,0,1,308.74,324a36.14,36.14,0,0,0,4.11,7.38c2.24,3.06,4,6.46,6,9.7,1.79,2.89,3.62,5.77,5.42,8.65a4.25,4.25,0,0,1,.27.63l-2.63,1.8-1.3-1.67-.16.07.8,2-.33.15c-1.21-2.3-2.35-4.65-3.66-6.89-.93-1.59-2.1-3-3.15-4.56-.47-.69-.92-1.4-1.35-2.11-1.88-3.08-3.92-6.07-5.58-9.27-2.18-4.18-4-8.55-6.09-12.79a70.34,70.34,0,0,0-3.74-6.6c-1.6-2.49-3.37-4.86-5.07-7.29-1.47-2.08-3-4.15-4.38-6.26-1-1.47-1.85-3-2.83-4.51-1.21-1.83-2.47-3.64-3.78-5.4a1.2,1.2,0,0,0-1.15-.17,11.7,11.7,0,0,0-1.73,1.51c-1,.92-1.88,1.93-2.92,2.76-.77.61-.9,1-.3,1.86q3.76,5.4,7.38,10.91a29.14,29.14,0,0,1,1.68,3.57c1.8,3.84,3.75,7.63,5.39,11.54s2.93,7.95,4.46,11.9,3.22,7.92,4.78,11.91a28.56,28.56,0,0,1,.85,3.21s0,.09,0,.13a20.29,20.29,0,0,0,1.11,3.53v-.81l.21-.12c2.41,4.16,4.83,8.31,7.3,12.56l-4.43,3c-.6-1.29-1.18-2.5-1.75-3.72-2-4.33-4-8.64-6-13-1.5-3.32-3-6.64-4.31-10-.55-1.38-.54-3-1-4.41s-1.21-2.52-1.68-3.83c-1-2.78-1.81-5.64-2.86-8.41-1.13-3-2.31-6-3.73-8.91a81,81,0,0,0-4.71-8.18c-2-3.09-4.22-6-6.52-9.31,0,.12,0,.36-.14.46-1.5,1.36-1.44,1.32-.32,3.14,1.95,3.15,3.81,6.35,5.71,9.53a67.76,67.76,0,0,1,5.91,14c.69,2.14,1.57,4.21,2.31,6.33a16.52,16.52,0,0,1,.47,2.11,2.94,2.94,0,0,0,.13.75c2.33,4.15,2.64,9,4.57,13.29,1,2.23,1.84,4.53,2.73,6.82,1,2.65,1.94,5.35,3.05,8,1.17,2.79,2.5,5.51,3.78,8.3l-3.67,2.47c-.62-1.69-1.19-3.28-1.8-4.85-.74-1.92-1.56-3.82-2.28-5.75-1.42-3.8-2.79-7.61-4.2-11.41-.57-1.54-1.29-3-1.78-4.6-.85-2.65-1.55-5.35-2.36-8-.47-1.53-1.08-3-1.52-4.54-.58-2-.86-4.07-1.59-6-2-5.19-4-10.35-6.22-15.44a40.16,40.16,0,0,0-3.37-5.24c-1.16-1.81-2.3-3.63-3.66-5.8-.88,1.29-1.7,2.41-2.4,3.59-.12.2.21.69.39,1,1.51,2.85,3,5.7,4.56,8.52a8.28,8.28,0,0,1,1.18,5,1.14,1.14,0,0,0,.08.63c1.59,3.49,1.77,7.31,2.51,11,.32,1.58.8,3.12,1.11,4.7.6,3,1.1,6,1.7,9s1.19,5.91,1.88,8.84c.6,2.55,1.29,5.09,2,7.61s1.51,4.75,2.31,7.11c.66,2,1.41,3.92,2,5.9.27.86.68,1.35,1.56,1.25-.22,1.17-.38,2.29-.66,3.38-.33,1.35-1.52,1.51-2.61,1.62-1.7.17-1.85-.11-1.71-1.78a5.26,5.26,0,0,0-.49-2c-1-2.81-2.11-5.56-2.9-8.41s-1.21-5.77-1.87-8.64c-.28-1.2-.77-2.35-1.16-3.53a18.75,18.75,0,0,1-.65-2.05c-.49-2.35-.94-4.7-1.38-7.06-.51-2.71-1-5.43-1.49-8.13-.61-3.07-1.29-6.14-2-9.2-.44-2-1.31-4-1.31-5.94,0-2.86-1.09-5.35-2-7.88-1.13-3.14-2.68-6.12-4.16-9.41l-1.83,2.2c-1.69,0-2.45,1.13-2.26,3,.27,2.7.34,5.42.41,8.13.1,3.62.11,7.24.18,10.86,0,2.37.28,4.75.13,7.1-.11,1.69.48,3.24.48,4.89,0,2.4.27,4.8.44,7.2.07.89.13,1.79.28,2.67.64,3.7,1.35,7.4,1.94,11.11.09.57-.44,1.22-.41,1.83.07,1.81.31,3.61.41,5.42.05.88-.17,1.78-.12,2.66.1,1.72.42,3.43.46,5.14,0,2.53-.09,5.05-.13,7.58,0,1.07-.53,1.58-1.6,1.54a6.1,6.1,0,0,1-1.92-.06c-.59-.23-1.39-.77-1.48-1.29a29,29,0,0,1-.34-4.76c0-.4.36-.8.56-1.2s.5-.68.49-1c-.06-4.87,0-9.75-.31-14.62-.28-4.36-1.09-8.68-1.43-13-.47-6-.8-12-1.05-18-.34-7.82-.55-15.65-.82-23.56l-2.88-.52c-1,2.68-2.78,5.16-2.71,8.16.11,5-1.37,9.91-1.19,14.94a14.16,14.16,0,0,1-.65,3.22c-.34,1.66-.53,3.35-1,5-.74,2.51-1.74,4.93-2.51,7.43-1,3.12-2,6.23-2.66,9.42-.93,4.27-1.67,8.6-2.32,12.93-.37,2.42-.39,4.9-.56,7.36,0,.51,0,1,0,1.54-.17,1.74-.85,2.09-2.37,1.27-2.7-1.47-2.75-1.49-2.22-4.54s1.22-6.28,1.8-9.43a11.21,11.21,0,0,0,.14-1.92,20.45,20.45,0,0,1,1.48-6.24c.79-2.34,1.06-4.85,1.73-7.24s1.55-4.75,2.29-7.13c.48-1.53.89-3.08,1.3-4.63.45-1.75.88-3.52,1.31-5.28.57-2.42,1.27-4.81,1.66-7.26a36.21,36.21,0,0,0,.16-5.42,38,38,0,0,1,1.61-10.33c.09-.33.14-.67.23-1,.76-2.68.65-2.89-2.09-4.11a29.37,29.37,0,0,0-4.46,7.84c-1.61,4.11-3.44,8.14-5.39,12.09a70.45,70.45,0,0,0-5.7,15.45c-.39,1.69-1.08,3.3-1.57,5s-.81,3.21-1.32,4.79c-.57,1.77-1.36,3.48-1.89,5.27-.94,3.12-1.73,6.27-2.61,9.41-.58,2-1.2,4-1.87,6.29-1.29-.72-2.64-1.42-3.91-2.23-.22-.14-.28-.79-.18-1.13.72-2.44,1.44-4.87,2.28-7.27,1-2.84,2.19-5.62,3.18-8.47,1.16-3.35,2.18-6.75,3.27-10.12,2-6,3.48-12.22,6.34-17.92,2-4,4.1-7.87,6.09-11.83.68-1.35,1.15-2.79,1.76-4.17s1.18-2.57,1.8-3.84c.38-.77.45-1.25-.59-1.63-1.49-.56-2.89-1.37-4.4-2.1-1.25,1.48-2.52,2.83-3.62,4.31-3,4-5.76,8.26-8.94,12.15a94.24,94.24,0,0,0-10.48,16.35c-1.5,2.88-2.57,6-4.31,8.72-1.18,1.82-1.95,3.77-3,5.63-1.28,2.34-2.74,4.59-4,6.94-.86,1.59-1.53,3.28-2.37,5.09l-4.24-2.28c2.52-4.48,5.09-8.88,7.49-13.36,2.48-4.63,4.72-9.4,7.24-14,1.41-2.59,3.16-5,4.75-7.49,1.77-2.76,3.39-5.63,5.35-8.26,3.49-4.7,7.15-9.27,10.82-13.83,1-1.24.9-2.26-.47-3.11-2.88-1.8-5.74-3.63-8.56-5.52-1.36-.91-2.12-.84-3.13.77s-2,3.52-3.05,5.29c-1.13,2-2.35,3.95-3.36,6-1.41,2.84-2.67,5.75-4,8.63q-2.15,4.76-4.25,9.51c-.07.16-.21.34-.18.48.6,2.42-1.19,4.14-1.82,6.2A27.35,27.35,0,0,1,200,330c-1.06,2.32-2.12,4.64-3.38,6.85-1.39,2.44-3,4.76-4.51,7.13l-4.9,7.64-3-1.7c1.26-2.32,2.45-4.65,3.78-6.89,1-1.75,2.26-3.4,3.36-5.12a6.93,6.93,0,0,0,.43-1.31c.66-1.72,1.26-3.46,2-5.12.36-.77,1.23-1.29,1.63-2.05.63-1.24,1.06-2.57,1.59-3.87,1.44-3.52,2.91-7,4.3-10.56.37-.94.41-2,.75-2.95a17,17,0,0,1,1.19-2.38c1.2-2.23,2.41-4.46,3.6-6.69,1.55-2.91,3.05-5.84,4.65-8.71,1.39-2.49,2.91-4.89,4.33-7.36a1,1,0,0,0-.05-.93c-1.13-1-2.33-2-3.51-3-.88-.74-1.65-.41-2.31.33-1.48,1.64-2.9,3.34-4.41,4.95-.63.68-1,1.58-2,2.05-.53.25-.55,1.46-.9,2.18-1.67,3.48-3.42,6.92-5.06,10.41-1,2.22-1.94,4.52-2.91,6.77s-2,4.76-3.15,7.06c-.59,1.18-1.57,2.16-2.27,3.3-.37.61-.46,1.39-.78,2a15.61,15.61,0,0,1-1.34,2.31c-2.79,3.86-5.65,7.69-8.44,11.55-1.7,2.36-3.32,4.78-5,7.24l-3.66-2.37c1.72-2.21,3.41-4.33,5-6.51.77-1,1.35-2.2,2.11-3.23,2.16-2.95,4.45-5.8,6.53-8.8a34.84,34.84,0,0,0,2.47-4.83c1.82-3.81,3.55-7.66,5.41-11.45,1.51-3.09,3.16-6.13,4.75-9.19,1.38-2.66,2.61-5.41,4.18-7.95,1.81-2.94,3.93-5.7,6-8.65l-9.06-7.65c-1.8,2.46-3.41,5-5.4,7.25s-3.49,4.56-5.65,6.44l.16.08c-2.18,3-4.44,6-6.53,9.09-1.74,2.56-3.31,5.23-4.91,7.88a74.56,74.56,0,0,0-4.27,7.45c-1.49,3.27-3.46,6.27-4.91,9.56-1.74,3.94-3.78,7.75-5.7,11.6a21.68,21.68,0,0,1-1.17,1.84c-1.07-.69-2.09-1.29-3-2a1.15,1.15,0,0,1-.17-1.08q2.07-4.57,4.24-9.12,1.65-3.51,3.38-7c.58-1.18,1.24-2.32,1.86-3.47a56.5,56.5,0,0,1,3.89-7.1c1.55-2.1,2.56-4.46,3.94-6.61,1.52-2.37,3.5-4.45,5.15-6.75,1.4-2,2.58-4.07,3.94-6.06a40.74,40.74,0,0,1,3.18-4.21c1.53-1.71,3.37-3.15,4.78-4.94a43,43,0,0,0,3.36-5.54c.1-.18-.11-.69-.32-.86a37.16,37.16,0,0,0-3.23-2.37,1.14,1.14,0,0,0-1.1.28c-2.26,3.25-4.6,6.47-6.66,9.85-1.65,2.71-2.9,5.67-4.44,8.46-1.87,3.4-3.84,6.74-5.81,10.08-1.58,2.67-3.23,5.3-4.85,7.95-2.15,3.54-4.35,7.06-6.44,10.64-2.76,4.71-5.43,9.47-8.14,14.2-.19.33-.41.65-.66,1l-3.4-2.19c1.35-2.31,2.68-4.5,3.92-6.75,1-1.73,1.79-3.53,2.7-5.3,1.41-2.75,2.81-5.53,4.3-8.24,1.3-2.38,2.7-4.7,4.09-7,.48-.8,1.07-1.53,1.58-2.32,1.78-2.76,3.53-5.53,5.31-8.29,2.15-3.35,4.34-6.67,6.47-10,.57-.91.93-1.95,1.42-2.92a33.24,33.24,0,0,1,4.05-6.69,44.42,44.42,0,0,0,3.71-6.05l-12.66-8.79c-1.39,1.71-2.7,3.21-3.88,4.82-.59.8-1,.81-1.43.29-1.11,2-2.23,4.14-3.47,6.2a25.63,25.63,0,0,1-1.88,2.19c-.52.67-.86,1.49-1.42,2.14-2.61,3-5.24,6-7.92,9-2.07,2.3-4.26,4.5-6.31,6.83-2.95,3.37-5.85,6.77-8.68,10.24-1.39,1.71-2.49,3.66-3.85,5.39-1.62,2.05-2.65,4.51-4.59,6.36a12.55,12.55,0,0,0-1.67,2.94,2.45,2.45,0,0,1-.52.46c-1.4-1-2.77-1.94-4.49-3.14a24.31,24.31,0,0,0,2.48-2.16c1.13-1.3,2.15-2.69,3.16-4.08,2.4-3.3,4.74-6.66,7.17-9.94,1.43-1.92,3-3.71,4.5-5.59,1.71-2.16,3.27-4.46,5.1-6.52s4.12-4.09,6.15-6.16c.67-.68,1.18-1.5,1.78-2.24.34-.43.72-.83,1.1-1.23,2.31-2.42,4.77-4.71,6.9-7.29,2.5-3,4.71-6.31,7-9.49.25-.34.46-.71.78-1.2l-4.22-1.73a1,1,0,0,0-.34.31c-1.61,2.53-4.33,4-5.83,6.78-.95,1.74-3,2.87-4.47,4.32-2.18,2.11-4.3,4.28-6.49,6.38-2.51,2.4-5.13,4.68-7.58,7.14-3,3-6,6-8.71,9.24-2.46,2.92-4.54,6.17-6.84,9.24-.62.83-1.52,1.47-2.09,2.33-.69,1-1.14,2.24-1.74,3.34-.9,1.66-1.84,3.3-2.83,5.06l-3.82-2.65c2-2.85,3.78-5.66,5.74-8.36,2.8-3.86,5.44-7.83,9-11.13,1.17-1.09,1.85-2.67,2.95-3.84,2.22-2.38,4.6-4.61,6.87-6.93,1.36-1.4,2.54-3,4-4.27,2.92-2.58,6-4.93,8.93-7.54,2.09-1.89,4-4,5.89-6.09,1.52-1.66,2.93-3.41,4.3-5-4.28-3-8.38-5.88-12.43-8.79-.91-.66-1.44-.63-2.2.28a56.8,56.8,0,0,1-4.35,4.57c-2.74,2.63-5.46,5.31-8.39,7.72a23,23,0,0,0-3,2.87c-.16.19-.47.25-.71.38s-1,.37-1.09.68c-.77,2.21-2.89,3.23-4.25,4.91-.94,1.16-2.27,2-3.3,3.1-.35.37-.8.58-1.15,1-2.16,2.51-4.55,4.83-6.77,7.29a109.77,109.77,0,0,0-8.31,9.64c-1.53,2.16-2.82,4.54-4.53,6.61l-1.68,2a11.36,11.36,0,0,1-2.38-1.36,1.7,1.7,0,0,1-.07-1.59,23.47,23.47,0,0,1,2-2.6c2.7-3.43,5.37-6.88,8.11-10.28.91-1.12,2.3-1.92,3-3.15,1.52-2.79,4-4.75,5.94-7.14a82,82,0,0,1,7.11-7.34c3.31-3.14,6.72-6.16,10.12-9.21.81-.72,1.78-1.27,2.57-2s1.07-1.45,1.69-2.1c2.26-2.39,4.57-4.74,6.82-7.14a1,1,0,0,0-.13-.93c-2.16-1.64-4.36-3.23-6.46-4.77-3,3.29-5.81,6.6-8.86,9.67-3.27,3.27-6.75,6.34-10.16,9.46q-4.83,4.43-9.74,8.77c-1.9,1.68-4,3.21-5.83,4.92-2.8,2.54-5.57,5.12-8.25,7.79-2.36,2.35-4.59,4.82-6.84,7.27a3,3,0,0,0-1,2.64c0,.27-.24.6-.54,1.27-.93-.92-2.17-1.62-2.51-2.62a4.09,4.09,0,0,1,.68-3.22c1.6-2.13,3.5-4,5.29-6,.66-.73,1.31-1.47,2-2.16,2.54-2.47,5.06-5,7.7-7.36,1-.9,2.42-1.32,3.45-2.19,2.94-2.49,5.78-5.11,8.67-7.67,2-1.79,4-3.54,6.07-5.32,2.29-2,4.61-4,6.84-6.1,1.33-1.25,2.5-2.66,3.76-4,.84-.88,1.73-1.71,2.55-2.61,1.28-1.42,2.51-2.88,3.9-4.47-1.78-1.13-3.45-2.12-5.05-3.2-1.24-.83-2.41-1.76-3.59-2.66-1.51-1.15-1.79-1.07-3.16.22-2.14,2-4.31,4.05-6.59,5.91a86.2,86.2,0,0,1-9.44,7.13c-2,1.24-2.11,3.27-3.23,4.84-.42.6-.74,1.27-1.13,1.9-1.57,2.52-3,5.11-4.75,7.55s-3.69,4.82-5.54,7.23c-.42.54-.76,1.14-1.17,1.68-2.89,3.68-5.85,7.31-8.67,11A25.73,25.73,0,0,1,77.82,277c-.78-.57-1.55-1.07-2.24-1.67a1,1,0,0,1,0-.89,21.29,21.29,0,0,1,3.5-4.41,31.39,31.39,0,0,0,3.9-4.65c2.88-3.54,5.9-7,8.58-10.65a100.27,100.27,0,0,0,5.72-9.46c-9.48,7.51-17.69,16.29-25.89,25.06-.83-.71-1.58-1.3-2.26-2a.87.87,0,0,1,0-.83A29.08,29.08,0,0,1,71,264.85a46,46,0,0,1,3.74-4.48c2.34-2.28,4.86-4.36,7.27-6.57.93-.86,1.69-1.9,2.64-2.74.6-.53,1.48-.76,2.09-1.29a32,32,0,0,0,2.41-2.52,34.71,34.71,0,0,1,2.76-3c3.43-2.95,7-5.76,10.39-8.73a9.68,9.68,0,0,0,1.52-2.44,79.79,79.79,0,0,0,4.18-7.12,32.67,32.67,0,0,1,4.79-7c1.17-1.44,2.54-2.71,4-4.23-2.43-2.34-4.76-4.61-7.12-6.89-2.77,2.69-5.32,5.21-7.92,7.67-2,1.92-4.08,3.79-6.16,5.63-2.54,2.23-5.09,4.44-7.7,6.59-3.28,2.7-6.67,5.29-9.94,8-1.59,1.33-3,2.86-4.52,4.29-1.29,1.22-2.69,2.34-3.88,3.65-2.2,2.42-4.32,4.91-6.4,7.44-1.75,2.13-3.38,4.37-5.06,6.55l-2.34,3-3.93-2.36c2.94-3.42,5.67-6.75,8.57-9.94,3.2-3.52,6.45-7,9.84-10.34,2.46-2.41,5.18-4.55,7.77-6.83,3.88-3.42,7.67-6.94,11.64-10.25,3-2.48,6.21-4.63,9.22-7.06a53,53,0,0,0,4.77-4.59c1.19-1.24,2.23-2.62,3.4-4l-12.71-9.52a66.84,66.84,0,0,1-5.52,6c-2.31,2-3.81,4.8-6.6,6.33-.83.45-1.22,1.64-1.89,2.42-2,2.35-4.13,4.6-6.07,7-2.41,3-4.65,6.05-7,9-3.45,4.35-7,8.62-10.41,13-.71.89-.93,2.24-1.75,2.94-3.42,2.91-5.79,6.77-9.09,9.78-.7.64-1.09.93-1.88.21s-1.76-1.36-2.83-2.18l1.84-1.17c-.1-1.1,1.1-1.2,1.73-1.78l-.23.64a3.62,3.62,0,0,0,2.12-2.67c.08-.35.51-.62.78-.92,1-1.1,2.06-2.17,3-3.3,2.27-2.66,4.56-5.31,6.76-8,1.87-2.31,3.64-4.7,5.42-7.08,1.49-2,3-4,4.37-6.08,3-4.55,6.71-8.48,10.33-12.48,3.09-3.41,6.36-6.64,9.54-10,1.25-1.29,2.48-2.6,3.7-3.91a13.84,13.84,0,0,0,.84-1.13L88,189.63c-2.14,2.1-4.32,4.26-6.54,6.38-.91.87-1.92,1.65-2.84,2.51-.27.25-.32.72-.57,1s-.71.52-1,.82-.84.81-1.24,1.24c-.55.61-1,1.3-1.63,1.86-1.29,1.17-2.69,2.24-4,3.43-2.8,2.65-5.56,5.33-8.31,8-3.09,3-6.29,6-9.2,9.2-3.73,4.11-7.26,8.4-10.78,12.69-2.35,2.86-4.54,5.85-6.83,8.82-.88-.67-1.75-1.37-2.67-2-.7-.49-.52-1-.09-1.5,1.49-1.89,2.95-3.81,4.45-5.69s3-3.81,4.58-5.64c1-1.15,2.18-2.14,3.22-3.26a17.3,17.3,0,0,1,1.53-1.93c1-.82,1.51-2.13,2.77-2.85,1-.57,1.6-1.85,2.47-2.73,3.05-3.1,6.15-6.15,9.19-9.25,1.16-1.18,2.19-2.49,3.36-3.66,1-1,2.15-1.79,3.13-2.78,1.21-1.22,2.31-2.55,3.48-3.85l1.1.89,1-1.38-.14-.15-.9.73-.25-.13a3.31,3.31,0,0,1,.54-1c2.45-2.22,5.13-4.14,7.25-6.78a50.55,50.55,0,0,1,5.7-5.31c-.21-1.34-.69-2.59-.5-3.73a6.26,6.26,0,0,1,1.76-2.67c2-2.17,4.06-4.28,6.13-6.38,3-3,6-6,8.94-9,1.57-1.65,2.95-3.48,4.49-5.16,1.76-1.92,3.6-3.77,5.38-5.66,2.48-2.64,4.93-5.31,7.41-8,4.87-5.18,10.45-9.56,15.95-14a53.93,53.93,0,0,0,5.51-4.4c2.46-2.58,5.75-3.88,8.46-6s5.56-4.1,8.4-6c1.74-1.19,3.64-2.14,5.37-3.34,2.24-1.54,4.38-3.21,6.56-4.84,2.85-2.12,5.72-4.22,8.53-6.39,3.61-2.79,7.15-5.66,10.77-8.44,2.24-1.72,4.6-3.29,6.84-5,2.66-2,5.21-4.24,7.85-6.32,2.21-1.74,4.51-3.35,6.71-5.09,1-.76,1.77-1.71,2.67-2.54,1.93-1.75,3.88-3.46,5.65-5.37,1-1.12,2.64-1.73,3.63-2.88,3-3.47,7.12-5.49,10.53-8.4a42,42,0,0,1,8.82-5.5c1.53-.76,2.89-1.88,4.36-2.78a4.76,4.76,0,0,1,4.55-.26c2.82,1.24,5.63,2.52,8.33,4,2.41,1.32,4.68,2.9,6.95,4.45a16.2,16.2,0,0,1,2.05,2c.15.15.34.41.48.39,2.37-.29,3.64,1.63,5.26,2.72A68.8,68.8,0,0,0,280,67.35c4.09,2,7.93,4.51,11.87,6.81L294.92,76,301,79.56l12.73,7.63c1.75,1,3.54,2,5.27,3.14q3.92,2.51,7.77,5.12c3.3,2.24,6.57,4.53,9.85,6.8l-.34.91,1.34.64c.06-.09.1-.13.1-.14l-.39-.5c.23,0,.35,0,.41,0,2,1.44,4,2.81,5.95,4.35,2.78,2.22,5.47,4.56,8.2,6.84s5.26,4.3,7.81,6.53c1,.84,1.64,2,2.57,2.89,2.57,2.49,5.31,4.82,7.79,7.4,3.22,3.33,6.23,6.86,9.39,10.25,1.12,1.19,2.52,2.11,3.62,3.3,2.09,2.27,4,4.68,6.09,7,1.48,1.63,3,3.2,4.62,4.71,2.35,2.24,4.79,4.37,7.14,6.6,1.78,1.68,3.45,3.49,5.22,5.19,1.56,1.48,3.36,2.75,4.78,4.35,1.79,2,3.24,4.34,5,6.44a28.27,28.27,0,0,0,3.46,3.46q3.45,2.94,7,5.73c1.53,1.19,3.12,2.31,4.75,3.36s3.66,2,5.33,3.22,3.16,2.78,4.75,4.16c2.27,2,4.74,3.76,6.82,5.92,4,4.17,7.77,8.58,11.7,12.82,2.65,2.85,5.45,5.58,8.16,8.38a22.05,22.05,0,0,1,1.39,1.79l-3.88,3.59c-5.31-8.34-12.18-15.16-18.54-22.42-.37-.43,0-1.57-1-1.16a9.36,9.36,0,0,0-1.08-1,15.22,15.22,0,0,1-2.11-1.29,54.16,54.16,0,0,0-9.38-7.21c-1.4-.84-2.66-1.9-4-2.84-1.81-1.28-3.66-2.51-5.44-3.83-3-2.19-5.9-4.44-9-6.79-.34.72-.71,1.51-1.09,2.34,1.95,1.24,3.87,2.31,5.6,3.63s3.18,2.82,4.77,4.24,3.17,2.75,4.68,4.2a38,38,0,0,0,3.82,3.57,9.15,9.15,0,0,1,1.55,2,1.24,1.24,0,0,0,.28.19,26.14,26.14,0,0,1,3.35,2.2c2.59,2.27,5.44,4.26,7.52,7.09.69,1,1.76,1.62,2.5,2.53,2.26,2.82,4.5,5.66,6.66,8.56s4.33,6,6.48,9a2.5,2.5,0,0,1,.22.62l-3.4,3a16.12,16.12,0,0,1-1.71-2.72,13.92,13.92,0,0,0-2.49-3.9c-1.47-1.78-2.74-3.74-4.11-5.61-2.91-4-5.7-8.07-9.46-11.33-1.23-1.06-2.59-2-3.8-3-2.18-1.94-4.3-4-6.44-5.94-2.31-2.13-4.59-4.29-7-6.36-.91-.8-2.1-1.28-3-2.09s-1.46-1.78-2.24-2.62a18.5,18.5,0,0,0-1.73-1.43c-1.31-1.08-2.64-2.15-3.93-3.25-.62-.53-1.18-.75-1.9-.15q-4.59,3.78-9.21,7.54c-.65.52-.63.89-.09,1.52,2.87,3.41,5.61,6.93,8.58,10.26,1.69,1.89,3.74,3.47,5.6,5.23,1.24,1.16,2.39,2.41,3.63,3.57s2.36,1.94,3.44,3,1.8,2.75,3.06,3.33c1.94.89,3.16,2.42,4.61,3.76,1.29,1.2,2.49,2.5,3.7,3.8,1.69,1.82,3.39,3.64,5,5.54,2,2.39,4,4.86,6,7.28.45.56.95,1.09,1.43,1.63.71.78.38,2.37-.54,2.55-.21,0-.57,0-.66-.1-1.71-2.6-4.27-4.36-6.44-6.49-4.72-4.64-9.68-9-14.32-13.74-8.5-8.62-16.85-17.39-25.26-26.1l-1-1.06-2.9.55c.86,1.1,1.7,2,2.37,3.08,1.81,2.77,3.93,5.42,5.2,8.43,1.58,3.7,4.29,6.55,6.34,9.87,1.38,2.22,2.83,4.42,4.37,6.54,2.77,3.79,5.57,7.55,8.46,11.25,1.68,2.15,3.61,4.11,5.33,6.23,1.21,1.5,2.23,3.16,3.42,4.68a11.48,11.48,0,0,0,1.71,1.45c1.16,1,1.25,2.46,1.57,3.8.19.8.23,1.64.34,2.44-2,.57-2.68-1.11-3.77-1.93-3.21-2.45-4.92-6.17-7.51-9.15-1.11-1.28-2.19-2.6-3.26-3.91s-2.24-2.73-3.29-4.14c-2.63-3.54-5.22-7.11-7.81-10.69-.55-.75-1-1.61-1.46-2.39-2.37-3.58-4.72-7.18-7.16-10.72-1.5-2.16-3.21-4.19-4.72-6.35-.88-1.27-1.56-2.69-2.35-4-.27-.47-.61-.9-1-1.52l-6.87,4.83c2.76,3.64,5.4,7.28,8.21,10.78a54.37,54.37,0,0,0,6.63,7.47c3.57,3,6.49,6.66,9.69,10,1.87,2,3.46,4.23,5.23,6.31,1.21,1.43,2.55,2.74,3.74,4.17.47.56.6,1.4,1.08,1.93s.48,2,1.88,1.27c0,0,.29.27.43.43,2.24,2.65,4.53,5.27,6.7,8a13.35,13.35,0,0,1,1.46,2.87.76.76,0,0,1-.16.57c-1.47,2.14-3,2.07-4.4,0s-2.92-3.66-4.41-5.48c-2.67-3.27-5.31-6.58-8.06-9.81-1.64-1.92-3.48-3.68-5.17-5.56-.85-.93-1.58-2-2.26-2.85-.39,0-.93.11-1.09-.07-.81-1-1.47-2.08-2.3-3-1.2-1.38-2.55-2.62-3.73-4-1.38-1.61-3.46-2.6-4.16-4.8-4.6-4.51-7.62-10.21-11.51-15.26a10.7,10.7,0,0,1-.86-1.56l-.33.72c-1.17.71-2.35,1.41-3.5,2.15s-2.51,1.61-3.69,2.51c-.2.15-.18.89,0,1.2,1.37,2.4,2.92,4.7,4.21,7.14,2.1,4,5.07,7.33,7.77,10.86,3.08,4,6.47,7.77,9.64,11.71q5.15,6.39,10.14,12.92c2.26,3,4.35,6.07,6.55,9.09a18.12,18.12,0,0,0,1.76,1.86c1.8,1.83,1.82,1.85.09,3.46-.6.55-1.27,1-2,1.59-1.39-1.81-2.84-3.61-4.2-5.48-2.69-3.68-5.26-7.45-8-11.09-2.45-3.25-5.06-6.39-7.59-9.59-2.05-2.58-4.11-5.16-6.14-7.77-1.75-2.27-3.51-4.54-5.17-6.87-2.11-3-4.12-6-6.19-9-1.65-2.39-3.32-4.76-5.08-7.29-2.72,1.71-5.32,3.37-8,5-.95.59-1,1.08-.37,2,1.5,2.22,2.75,4.6,4.24,6.82s3,4,4.49,6c.81,1.07,1.74,2.05,2.5,3.16a84.78,84.78,0,0,0,7,8.17c.54.6,1,1.25,1.57,1.83,1.63,1.73,3.32,3.41,4.92,5.17.91,1,1.64,2.18,2.51,3.22,1.71,2.06,3.5,4.06,5.17,6.14,1.07,1.34,2,2.8,3,4.2l-.67-.39-.11.15,3.39,4.61.21-.14-.17-.46c1,.66,2.14,1.23,2.1,2.77,0,.29.48.71.84.9a5.09,5.09,0,0,1,3.06,3.61l-3.52,2.92c-1.06-1.54-2.05-3-3.05-4.43-.7-1-1.39-2-2.14-3q-2.13-2.73-4.34-5.38c-1-1.22-2.12-2.36-3.13-3.58-1.59-1.92-3.09-3.92-4.73-5.8s-3.19-3.35-4.75-5.06a121.15,121.15,0,0,1-9.94-12.07c-3-4.36-6.37-8.49-9.51-12.76-1-1.4-1.91-2.93-2.81-4.42a3.43,3.43,0,0,1-.17-1.18l-7,4c.59.63,1.15,1.19,1.68,1.77a2.86,2.86,0,0,1,.67.89c.79,2.33,2.79,3.75,4.24,5.56,3.07,3.82,6.24,7.56,9.45,11.27,1.54,1.78,3.28,3.38,4.88,5.12q4,4.4,8,8.86a34.66,34.66,0,0,0,2.37,3,5.78,5.78,0,0,1,2.09,3.4c0,.15.2.27.3.4,1.75,2.08,3.44,4.21,5.26,6.23.84.94,2,1.55,2.91,2.49,1.42,1.56,2.69,3.25,4,4.9.21.27.34.6.55.87,1.48,2,1.48,2.09-.43,3.7l-2.11,1.79c-1.32-2.06-2.53-4.08-3.88-6a31.38,31.38,0,0,0-2.23-2.4c-.42-.49-.66-1.13-1.05-1.64-1-1.36-2.16-2.64-3.14-4-.78-1.1-1.38-2.33-2.07-3.5a7.54,7.54,0,0,0-1.48-1.92l.4.74-.26.21c-.44-.53-.9-1-1.31-1.58-.81-1-1.54-2.14-2.4-3.15-.57-.68-1.34-1.2-1.39-2.23,0-.24-.29-.5-.49-.71-2.36-2.55-4.76-5.07-7.09-7.64-1.51-1.67-2.93-3.42-4.38-5.14-1.87-2.22-3.74-4.44-5.58-6.67q-4.49-5.44-8.93-10.92c-.35-.42-.67-.87-1.06-1.38l-3.39,1.81,5.92,8c.91,1.22,1.72,2.52,2.72,3.66,1.27,1.44,2.73,2.71,4,4.13,1.08,1.2,2,2.53,3.05,3.76a6,6,0,0,0,1.5,1.39A4.26,4.26,0,0,1,364,259.1a3.19,3.19,0,0,0,.78,1.28c1.88,2.24,3.81,4.45,5.68,6.71,1.56,1.89,3.11,3.8,4.57,5.78,1.73,2.36,3.33,4.82,5,7.2.71,1,1.61,1.86,2.31,2.85.95,1.35,1.76,2.79,2.7,4.14.63.9,1.4,1.7,2.06,2.58.89,1.2,1.75,2.42,2.6,3.63.52.74.71,1.39-.24,2s-1.72,1.41-2.82,2.32a8.4,8.4,0,0,1-1.24-2.44c-.21-1.88-1.9-2.62-2.7-4-.36-.64-.77-1.26-1.19-1.87-.93-1.38-1.9-2.72-2.8-4.11-1.74-2.7-3.27-5.55-5.19-8.11a68.42,68.42,0,0,0-9.43-10.85c-2.4-2.11-4.26-4.86-6.28-7.37-2.26-2.81-4.45-5.67-6.64-8.52-1-1.31-1.95-2.67-2.91-4-.1-.14-.18-.4-.29-.41-2.59-.34-2.83-2.84-4-4.44a45.06,45.06,0,0,1-2.51-4.38c-2.07,1.42-4.13,2.82-6.17,4.26-1.13.8-1.13,1.26-.29,2.38,1.26,1.69,2.4,3.47,3.68,5.15s2.89,3.47,4.27,5.25c2.06,2.65,4,5.35,6.07,8,1.8,2.39,3.57,4.79,5.41,7.15s3.67,4.45,5.42,6.74,3.33,4.66,5,7,3.59,4.8,5.35,7.23c.63.86,1.14,1.8,1.69,2.71,1.65,2.76,3.28,5.54,5,8.28a21.67,21.67,0,0,0,1.5,1.85,1.06,1.06,0,0,1-.24,1.74c-.79.59-1.52,1.26-2.56,2.12-13.1-21.83-29.21-41.39-44.7-61.79-1.82,1.54-3.46,2.9-5.07,4.29-1.22,1.07-2.39,2.19-3.59,3.28s-1.16,1.49-.38,2.69,1.26,2.2,2,3.23c.6.86,1.36,1.6,2,2.43.9,1.2,1.79,2.4,2.61,3.65,1.81,2.78,3.55,5.61,5.38,8.38.6.9,1.45,1.64,2.11,2.51,1.28,1.7,2.43,3.51,3.79,5.14,1.14,1.36,2.52,2.52,3.77,3.79a4.23,4.23,0,0,1,.49.73l-1.53-1.11c.39,1.48,2.53,3.6,3.56,3.74ZM306.42,163.39c2.07.07,4.15.35,6.13-.61.29-.14,1,0,1.12.22.47,1.15,1.4.85,2.25.86.66,0,1.31,0,2,.06,2.2.17,4.4.41,6.61.54,1.93.1,3.86.07,5.79.13,3.28.1,6.56.27,9.85.33a19.91,19.91,0,0,0,9.66-1.77c1.79-.9,3.73-1.49,5.57-2.3a1.67,1.67,0,0,0,.84-1.11c0-.29-.45-.78-.82-1-1.33-.61-2.68-1.16-4.06-1.66a45.54,45.54,0,0,0-11.78-2.78q-2.88-.22-5.78-.37c-3.87-.2-7.75-.36-11.63-.56-.7,0-1.41-.21-2.11-.18-1.19,0-2.37.25-3.56.3-1.9.09-3.81,0-5.71.18-1.47.12-2.93.44-4.57.69a6.91,6.91,0,0,0,.15-1c-.1-2.2.47-2.91,2.67-3.19a19.6,19.6,0,0,1,2.65-.13q5.44,0,10.89.13c2,0,3.92.16,5.88.19.89,0,1.79-.2,2.67-.16,1.93.07,3.85.33,5.77.35,4.81.06,9.52.58,13.88,2.81,3.12,1.59,6.26,3.15,9.29,4.89a3.45,3.45,0,0,1,1.55,2.28c.05.48-1.07,1.24-1.8,1.63-1.88,1-3.81,1.9-5.75,2.79a29.84,29.84,0,0,1-10.14,3.05c-2,.16-4.1.38-6.14.36-2.22,0-4.43-.29-6.6-.46-.07.25-.13.34-.11.41.58,2,1.16,3.94,1.81,5.88.07.23.6.46.9.45,3.36-.2,6.73-.68,10.08-.61,3.5.08,6.63-1.28,9.86-2.1a36.21,36.21,0,0,0,11.39-5.48c1.29-.89,2.71-1.57,4-2.46s2.24-1.74,3.45-2.69c-2.11-1.59-4.25-3.18-6.37-4.79a71.06,71.06,0,0,0-11.74-7.15c-4-2-8.44-2.7-12.84-3.26a40.4,40.4,0,0,0-9.9-.39,71.76,71.76,0,0,1-9.16,0c-3.56-.05-7.12-.28-10.67-.18s-7.12,0-10.66.46c-1.4.17-2.09.75-1.94,2.17.09.83.42,1.64.5,2.47.15,1.61.18,3.24.31,4.85a1.53,1.53,0,0,0,.49,1.05,27.52,27.52,0,0,0,3.49,2,2.76,2.76,0,0,1,1.74,2.79,6.48,6.48,0,0,0,.66,2l-6.75,1.93,4,3.64,1.39-1C307.06,166.61,307.44,165.33,306.42,163.39ZM92.92,179.52c.79.68,1.25,1.11,1.75,1.49,1.85,1.4,3.77,2.71,5.55,4.19,1.93,1.59,3.74,3.32,5.59,5,2.46,2.23,4.93,4.45,7.34,6.73,2.19,2.07,4.24,4.29,6.46,6.32s4.55,3.69,6.62,5.73a38.21,38.21,0,0,0,5.49,4.28q5.22,3.53,10.43,7.07c2,1.36,3.92,2.77,5.9,4.13.48.34,1.1.48,1.56.83,3.67,2.75,7.3,5.54,11,8.3,1.79,1.35,3.56,2.75,5.44,4,1.66,1.08,3.5,1.88,5.2,2.9s3.53,2.31,5.31,3.44c3.24,2.05,6.53,4,9.73,6.13,1.56,1,2.93,2.33,4.47,3.39,2,1.4,4.12,2.67,6.18,4a4.93,4.93,0,0,1,.49.42c2.16,1.79,4.29,3.62,6.49,5.36,1.66,1.3,3.42,2.48,5.11,3.74.45.33.78.84,1.23,1.16.71.51,1.51.88,2.2,1.4,1.13.86,2.15,1.87,3.29,2.7,2.47,1.79,5,3.57,7.5,5.25q6.1,4,12.31,7.91c2.7,1.69,5.43,3.35,8.25,4.81,3,1.55,6.1,2.87,9.18,4.26a.8.8,0,0,0,.68-.17c3-2.64,6-5.28,9-7.95,2.6-2.3,5.16-4.65,7.78-6.94.63-.55,1.45-.87,2.12-1.38,1.4-1.08,2.75-2.24,4.14-3.33q4.47-3.48,8.95-6.92c1.2-.94,2.4-1.88,3.63-2.79.81-.61,1.71-1.11,2.48-1.76,2.56-2.17,5-4.44,7.64-6.56,3.63-3,7.41-5.75,11-8.74,3-2.48,5.78-5.2,8.75-7.71,2.69-2.27,5.5-4.4,8.28-6.57,1.33-1,2.69-2,4-3,1.95-1.42,3.86-2.9,5.88-4.22,2.35-1.53,4.84-2.84,7.2-4.36,3.76-2.41,7.51-4.83,11.17-7.39,2.48-1.73,4.73-3.78,7.19-5.54,3.93-2.82,7.92-5.54,11.93-8.25,3.14-2.13,6.48-4,9.48-6.3,5.18-4,10.19-8.19,15.23-12.34,1.64-1.34,3.15-2.83,4.76-4.2,1-.9,2.16-1.71,3.24-2.56L407,176c-2.42-2.71-4.78-5.46-7.26-8.11-1.54-1.63-3.3-3.05-4.86-4.66-2.26-2.34-4.42-4.77-6.63-7.15-2.08-2.23-4.14-4.48-6.25-6.68s-4.34-4.42-6.49-6.66-4.17-4.51-6.34-6.68q-6.51-6.51-13.12-12.91a68.62,68.62,0,0,0-8.48-7.41c-2.62-1.81-5.27-3.57-7.89-5.37-1.11-.77-2.22-1.54-3.27-2.4s-1.9-1.89-3-2.66c-2.16-1.54-4.41-3-6.64-4.42-1.62-1.06-3.26-2.11-4.88-3.15-.25.52-.46.87-.6,1.25-.55,1.47-1.12,2.94-1.58,4.44a1.21,1.21,0,0,0,.46,1c1.93,1.25,3.92,2.4,5.84,3.67.36.25.45.89.7,1.41-.18.07-.09,0,0,0,1.61.63,2.07,2.29,3.06,3.48,0,0-.08.23-.15.33-.35.59-.67,1.2-1.06,1.76a30.22,30.22,0,0,1-2.89,4c-1.38,1.41-3,2.54-4.55,3.82a3.26,3.26,0,0,0-.34,2.83,17.28,17.28,0,0,1,2,2.85,42.88,42.88,0,0,1,2,5.94,1.57,1.57,0,0,1-1.46,2.16,11.33,11.33,0,0,0-1.88.75c-1.55.54-3.1,1.08-4.68,1.55-1.32.39-2.67.68-3.89,1l-.21,1.51c.94.13,1.87.31,2.81.36.5,0,1-.31,1.53-.3,2.14.07,4.27.23,6.41.31,2.33.09,4.66.11,7,.2,4.35.16,8.73.08,13,.6a43.62,43.62,0,0,1,9,2.42c3,1,5.88,2.41,8.77,3.73a28.46,28.46,0,0,1,4.1,2.3c.58.38.81,1.34,1.4,1.65a48.42,48.42,0,0,1,8.45,6.1c.93.78,1.84,1.66,1.52,2.86s-.69,2.89-2.54,3.15a2.8,2.8,0,0,0-1,.54c-2.88,1.89-5.73,3.82-8.63,5.66a20.21,20.21,0,0,1-2.85,1.26c-.3.05-.43.51-.71.65-1.53.75-3.12,1.39-4.66,2.11a21.31,21.31,0,0,1-6.94,1.67c-2.28.23-4.55.61-6.82.87-1.52.18-3,.28-4.88.44.51.42.76.68,1.05.87,1.14.71,2.34,1.33,3.42,2.13.56.41,1.16,1.06.69,1.91a28.2,28.2,0,0,1-1.78,2.88c-.66.9-1.44,1.7-2.09,2.46,2.36,1.59,4.59,3,6.76,4.59.49.35,1.15,1.16,1,1.52a5.63,5.63,0,0,1-1.64,2.64,76.24,76.24,0,0,1-7,4.6c-.74.44-.84.75-.67,1.47a13.14,13.14,0,0,1,.28,6.23c-.1.39-.11.93-.36,1.12a4.77,4.77,0,0,1-3.95,1.14L326,210a14.16,14.16,0,0,1-1.11,1.46c-1.6,1.67-3.36,3.21-4.82,5-.66.8-1.13.67-1.66.27-2-1.46-3.91-3-5.79-4.52-1.07-.89-2.4-1.33-3.27-.74-1.2.81-2.32,1.75-3.53,2.55a31.33,31.33,0,0,1-3.61,2c-.42.21-1.28.28-1.51,0a27.39,27.39,0,0,1-3.22-4.18c-.7-1.2-1.58-2.46-1.15-4l-5.24,2a.79.79,0,0,1-.14.41,12.51,12.51,0,0,0-1.45,2.1,8.87,8.87,0,0,1-2.89,3.79c-2.32,1.74-4.95,1.1-7.5,1a13.22,13.22,0,0,1-2.42-.54c.3-.37.57-.58.54-.7-.44-1.42.51-2.41,1.12-3.46,1-1.76,1.4-3.29.08-5.25a6,6,0,0,0-5.47-2.51,19.44,19.44,0,0,0-6.22,2,2,2,0,0,0-.72.48c-2.64,3.28-3.62,8.35-1.18,12.35,1,1.59,2.3,2.88,4.48,2.38,1.6-.37,3.21-.74,4.81-1.13,2-.49,5.8,1.16,6.17,3.09s.43,4.07-1,5.66a2.78,2.78,0,0,0-.62,2.87,8.75,8.75,0,0,1-1.88,8c-1,1.18-2.43,2-3.53,3.17a7.39,7.39,0,0,1-3.91,2.14c-.22,0-.48.56-.49.87a10,10,0,0,1-2.29,5.57,5.4,5.4,0,0,1-2.18,1.72,37.13,37.13,0,0,1-4.17,1.29c-.24,3.18-.45,6.11-.68,9-.41,5.14-2.77,9.44-5.91,13.35-.56.69-1.12,1.47-2.36,1.28a3.77,3.77,0,0,1-2.51-1.12c-.53-.6-1.1-1.16-1.61-1.77a24.65,24.65,0,0,1-5.73-13.57c-.16-1.49.07-3-.09-4.5a2.83,2.83,0,0,0-1-2,15.4,15.4,0,0,0-3.66-1.12,8.94,8.94,0,0,1-4.18-2.16c-2-1.88-2.58-4.4-3.2-6.9a2.18,2.18,0,0,0-.57-1.2,13.58,13.58,0,0,1-3.77-3.64c-2-3.23-1.33-6.47-.44-9.69.32-1.2.6-2.29,0-3.3-.74-1.17-.37-2.29-.11-3.39.31-1.3,2.82-2.61,4.65-2.49,2.81.19,5.62.69,8.34-.51,2-.88,4.32-1.3,5.12-3.8a3.39,3.39,0,0,1,.4-.64c1-1.52.84-5.46-.24-6.88a2.31,2.31,0,0,0-.6-.47,7.73,7.73,0,0,0-8.65-.18,2.94,2.94,0,0,0-1.12,1.31,8.08,8.08,0,0,0,0,7c.76,1.73.38,2.41-1.37,3-2.49.86-4.38-.66-6.39-1.66-.56-.28-.85-1.07-1.72-.73a13,13,0,0,0-1.83.54,5.34,5.34,0,0,0-1.6,1.39,48.73,48.73,0,0,1-3,4.26c-1.13,1.21-2.15,1-3.23-.26-.76-.88-1.43-1.84-2.17-2.74-.36-.45-.73-1.12-1.41-.46a48.6,48.6,0,0,0-4.17,4.2,1.44,1.44,0,0,1-2.18.33,20.08,20.08,0,0,1-5.77-4.35c-.51-.6-1.09-1.14-2-.53-1.74,1.12-3.51,2.21-5.33,3.2a4.7,4.7,0,0,1-1.75.18l0-.22.5-.27-1.41-.88,1.05-.37,0-.25h-1.19c-.9-1.94-1.88-4-2.81-6l-7.87,3.23c-.24-1.47-.43-2.62-.63-3.77a22.84,22.84,0,0,1,.07-7.24c.05-.38-.13-1.1-.36-1.17-1.07-.33-1.34-1.54-2.61-1.87s-2.21-1.77-3.27-2.75c-1.56-1.46-1.64-1.59-.16-3.21a57.89,57.89,0,0,1,4.29-4,2.15,2.15,0,0,1,1.19-.6c1.13,0,1-.76.89-1.41-.24-1.62-.55-3.24-.84-4.89a4.06,4.06,0,0,0-.59-.19c-1.56-.18-3.14-.28-4.69-.54a36.14,36.14,0,0,1-10.24-3c-3-1.47-6.25-2.3-8.85-4.61a14.59,14.59,0,0,0-4.17-3.1,3.09,3.09,0,0,1-2.1-2.71c0-.3-.61-.78-1-.82-.88-.09-.91,0-1.32-.49a12.25,12.25,0,0,1-.84-1.16l-1.81-2.7a30.72,30.72,0,0,0,3.64-3.28,39.94,39.94,0,0,1,10.4-9.08c2-1.23,4.11-2.24,6.12-3.42a37.31,37.31,0,0,1,10.3-4.49c2.26-.53,4.58-.79,6.88-1.15.81-.13,1.64-.18,2.4-.27-.65-2.74-2.9-2.83-4.94-2.93a13.07,13.07,0,0,1-7-2.35c-1.91-1.31-2.72-3-2.14-5a10.45,10.45,0,0,1,5-6.5,14.76,14.76,0,0,0,1.53-.92,1.27,1.27,0,0,0,.11-2.21c-.73-.62-1.56-1.14-2.34-1.7-1.43-1-3.13-1.85-3.82-3.65-.47-1.22-1.24-2.4-.29-3.79a6.67,6.67,0,0,1,4.17-2.94c2.1-.51,4.14-1.31,6.33-2l-1.8-4.41c-2,1.6-3.71,3.13-5.58,4.45-2.36,1.66-4.86,3.12-7.26,4.72-3.13,2.1-6.29,4.19-9.33,6.42s-5.63,4.47-8.48,6.66c-3.47,2.66-7,5.28-10.49,7.89a81.23,81.23,0,0,0-13.22,12c-3.64,4.21-7.58,8.15-11.36,12.23-3,3.25-6,6.54-8.94,9.81-.58.63-1.12,1.29-1.74,1.87C96.11,176.64,94.61,178,92.92,179.52Zm187.69,34.92c4.79,1,8.44-3.85,7.53-7.44a16.27,16.27,0,0,0-.8-3.18,7.22,7.22,0,0,0-2.26-3.07c-1.07-.63-.32-1.6-.94-2.14.64-.36,1.32-1.1,1.9-1,2.87.35,5.72.86,8.55,1.43,2.5.51,5,1.32,7.46,1.73,1.73.29,3.61.94,5.26-.4a21.74,21.74,0,0,0,2.12-1.81,5.91,5.91,0,0,1,4.63-1.95,42.85,42.85,0,0,1,6,1c1.41.26,3.92-1.13,4.76-2.55a4,4,0,0,0-.69-4.8c-1.86-2.05-4.08-3.36-7-3.1a2.48,2.48,0,0,1-2.64-1.73c-.28-1-.4-2.15-.68-3.2-.16-.55-.39-1.32-.81-1.52a15.61,15.61,0,0,0-4-1.47,69.14,69.14,0,0,0-7.05-.82c-3.49-.27-7-.44-10.41-.65l-1.39,4a17.71,17.71,0,0,1-2.49-1.5,21.29,21.29,0,0,1-4.58-6.5,1.89,1.89,0,0,0-1.95-1.17c-.34,0-.7.69-1,1.11-.4.59-.7,1.26-1.12,1.85-1.92,2.76-3.82,5.54-7,7.06a11.07,11.07,0,0,1,1.38,2.66c.49,2.43.62,4.86-.95,7.06a23.09,23.09,0,0,0-1.29,2.35c-1.89.38-3.94,1.25-6,.18l-1.81,1c.29.6,1,1.37.78,1.68-.7,1.25,0,2.36,0,3.52s.72,2.29-.72,3.18c-.59-.48-1.21-1-1.85-1.48a47.27,47.27,0,0,1-4.9-3.7c-1.55-1.53-3.06-1.49-4.18.44a26.53,26.53,0,0,1-2.5,3.83c-1.3,1.55-1.6,1.5-3,0a4.93,4.93,0,0,1-1.15-1.76c-.43-1.43-.69-2.92-1-4.39a5.33,5.33,0,0,0-1.5-1.44c-.87-.72-1.41-1.44-3-.91a13.22,13.22,0,0,1-7,.06c-1.15-.26-2.25-1.4-1.91-2.32a14.35,14.35,0,0,1,1.48-3,23,23,0,0,1,2-2.36l-6.83-4c-.63,1.78-1.17,3.66-2,5.42a21.56,21.56,0,0,1-2.46,3.79c-.21.28-1.11.47-1.26.3a10.83,10.83,0,0,1-2.1-2.79c-.78-1.75-1.28-3.63-2-5.64-3.82.3-7.85-.06-11.75,1.08a22,22,0,0,0-4.18,1.7c-1.78,1-1.94,3-2.73,4.62a4.06,4.06,0,0,1-1.34,1.87c-1.78.94-3.76,1.49-5.5,2.49a6.57,6.57,0,0,0-2.44,2.65c-.89,1.76-.22,3.55.89,5,1.29,1.69,3.34,1.83,5.23,1.6a42.91,42.91,0,0,0,5.5-1.37.83.83,0,0,1,.47,0,16.17,16.17,0,0,1,3.6,1.73c4.07,3.27,7.37,2.79,11.61.74,1.33-.64,2.67-1.3,4-1.87.31-.13.76.06,1.14.1.12-.27.19-.83.44-.93a37.07,37.07,0,0,1,4.65-1.51c.78-.18,1,.54.68,1.2a14.11,14.11,0,0,1-1.48,2.52,9,9,0,0,0-1.66,8.09,1.66,1.66,0,0,0,1.57,1.31,13.34,13.34,0,0,1,1.41-7.26c.21-.48.89-.76,1.35-1.14.65-.41,1.17-.91,1.79-1.25.45-.25,1.06-.18,1.53-.4a11.53,11.53,0,0,1,9.48-.27c.68.26,1.16,1,1.79,1.5,2.36,1.79,3,4.3,3.18,7.1a11.15,11.15,0,0,1-1.54,6,10.94,10.94,0,0,1-2.78,3,26.38,26.38,0,0,1-3.39,2c.88.15,1.68.24,2.45.43a2.23,2.23,0,0,0,2.21-.51,6,6,0,0,1,2.42-.94,7.28,7.28,0,0,1,1.74,0c.57-2.33-.07-4.69,1.62-6.69.52-.62.39-1.86,1.91-2.22a48.73,48.73,0,0,1,2.88,5.4,6,6,0,0,0,2.21,3,3.91,3.91,0,0,1,1.87,3.31c0,1.48.73,2.28,2,3,2.79,1.47,3.44,4.27,3.93,7.09a1,1,0,0,1-.08.5c-.54,1.42-1.09,2.84-1.68,4.34a5.81,5.81,0,0,0,5,1.55,10.77,10.77,0,0,0,5.37-2.78c1.59-1.4,2.78-3.11,2.25-5.45a6.74,6.74,0,0,0-.69-2.28c-1.59-2.35-.73-2.73.4-4.25.58-.79,1.47-1.5,1-2.62-.56-1.44-1.35-1.66-3.1-.91-2.46,1.05-5,1.58-7.5.44a7.27,7.27,0,0,1-3.15-2.25,14.86,14.86,0,0,1-2.6-9.05,15.89,15.89,0,0,1,1.19-5.39c1.89-4,5.6-5.84,9.71-6.5s7.66,1.12,10.21,4.57a4.7,4.7,0,0,1,.35,5.18C281.46,212.48,281.06,213.41,280.61,214.44Zm92.54-2.06.16.06c.13-.26.2-.62.4-.77,1.24-.88,2.48-1.77,3.78-2.56,1.14-.7,2.4-1.21,3.52-1.94,1.6-1,3.12-2.2,4.67-3.33.53-.37,1-1,1.53-1.16,1.75-.44,2.87-1.69,4.09-2.83a11.78,11.78,0,0,1,1.58-1.11c1.51-1,2.74-2.29,4.46-3.06,1.11-.5,1.79-1.92,2.75-2.83,1.38-1.32,2.85-2.55,4.28-3.82,2.11-1.88,4.25-3.73,6.32-5.66a3.37,3.37,0,0,0,.87-1.62,6.75,6.75,0,0,0,.05-2c0-1.07-1.79-2.17-2.68-1.6a34.85,34.85,0,0,0-3.24,2.45c-2.34,1.92-4.66,3.87-7,5.81-.89.75-1.75,1.54-2.66,2.27-2.24,1.79-4.46,3.61-6.76,5.31-2.59,1.91-5.26,3.71-7.91,5.55-.95.66-2.57.42-2.8,2.07,0,.09-.19.15-.3.22-2.84,1.85-5.72,3.64-8.51,5.56-4.12,2.85-8.17,5.79-12.26,8.68-.62.44-1.3.82-1.92,1.27-1.88,1.36-3.72,2.78-5.63,4.09s-3.7,2.37-5.53,3.59c-.66.45-1.18,1.22-1.89,1.49-3.94,1.48-7,4.28-10.38,6.64-3,2.14-6,4.46-8.91,6.71-.72.55-1.43,1.12-2.09,1.73-2,1.84-3.86,3.78-5.91,5.53-3.31,2.81-6.7,5.52-10.08,8.25-4.47,3.6-9,7.17-13.46,10.78-.91.73-1.72,1.61-2.66,2.31-1.48,1.13-3.08,2.11-4.55,3.26-2.54,2-5,4-7.52,6-1.46,1.16-3,2.2-4.44,3.37-2.76,2.24-5.5,4.5-8.18,6.83-1.43,1.26-2.63,2.78-4.1,4-1.89,1.57-3.2,3.87-5.94,4.41a5.43,5.43,0,0,1-4-.23c-2.73-1.44-5.6-2.61-8.33-4.06-2.3-1.22-4.47-2.7-6.72-4a63.87,63.87,0,0,1-5.68-3.32c-3-2.23-6.28-4-9.2-6.39-4.73-3.82-9.61-7.47-14.42-11.2-4.4-3.4-8.71-6.92-13.21-10.19-2.77-2-5.84-3.6-8.74-5.45-3.27-2.07-6.46-4.25-9.73-6.32-2.38-1.51-4.83-2.92-7.24-4.38-1.87-1.12-3.74-2.22-5.58-3.38-1.17-.73-2.31-1.52-3.41-2.36-1.32-1-2.54-2.1-3.86-3.08-3.07-2.27-6.14-4.54-9.28-6.71-2.81-2-5.72-3.78-8.58-5.69-1.16-.77-2.27-1.63-3.41-2.45-.73-.53-1.45-1.09-2.2-1.6-1-.68-2-1.31-3-2a46.41,46.41,0,0,1-8.13-7.14c-1-1.05-2.11-2-3.15-3-2.5-2.44-4.83-5.09-7.52-7.3-3.71-3-6.83-6.8-11.06-9.26-2-1.19-3.84-2.79-5.79-4.15-.34-.24-1-.48-1.25-.32-1.74,1.11-2,3.14-.41,4.43,1,.82,2.09,1.62,3.1,2.46,2.85,2.38,5.66,4.79,8.5,7.15,2.1,1.74,4.25,3.41,6.34,5.15,1.19,1,2.32,2,3.47,3.08.51.46,1,.9,1.5,1.37,2.07,2,4.09,4.06,6.22,6,1.3,1.19,2.89,2.07,4.13,3.3a76.3,76.3,0,0,0,10.22,8c2.27,1.59,4.56,3.14,6.8,4.76,2.95,2.13,5.82,4.35,8.77,6.47,2.08,1.5,4.23,2.9,6.35,4.35a40.4,40.4,0,0,1,4.88,3.45,23,23,0,0,0,6.88,4.17,27.2,27.2,0,0,1,3.84,2.47c.06,0,0,.22.09.3a5,5,0,0,0,.72.76c.81-.56,1.32.19,1.63.54a8.67,8.67,0,0,0,3.14,1.95,3.69,3.69,0,0,1,.59.47,41.81,41.81,0,0,0,3.44,2.68c1.15.75,2.46,1.23,3.65,1.91.82.45,1.58,1,2.36,1.56a4.6,4.6,0,0,1,.47.41c.7.63,1.37,1.31,2.11,1.89,1.87,1.46,3.77,2.88,5.76,4.38l-.67.38a16.31,16.31,0,0,1,2.86,1.36c2.74,2,5.37,4.21,8.08,6.29,2.12,1.62,4.27,3.18,6.42,4.74,1.89,1.37,3.79,2.73,5.72,4,2.7,1.82,5.45,3.58,8.16,5.39,1.48,1,2.87,2.12,4.39,3.05,2.42,1.47,4.92,2.81,7.38,4.24a60.88,60.88,0,0,0,16.41,6.72,2,2,0,0,0,2-.37c2.83-2.22,5.69-4.4,8.51-6.62,3.15-2.49,6.28-5,9.43-7.51.76-.6,1.62-1.09,2.36-1.72,1.9-1.63,3.7-3.38,5.64-5,2.81-2.31,5.74-4.48,8.55-6.79,2-1.63,3.83-3.42,5.77-5.1,1.22-1.05,2.5-2,3.74-3.06,2.07-1.73,4.1-3.52,6.22-5.19,1.38-1.1,2.94-2,4.31-3.07,1.63-1.3,3.13-2.77,4.73-4.09,3.67-3,7.41-6,11-9.06a138.59,138.59,0,0,1,13.75-10.73c1.91-1.25,3.67-2.73,5.57-4,2.5-1.66,5.09-3.21,7.61-4.84,2.24-1.45,4.42-3,6.69-4.41,1.34-.84,2.81-1.47,4.18-2.27.76-.45,1.4-1.1,2.13-1.6,1.78-1.25,3.58-2.47,5.44-3.74l.26.6ZM245.58,71c-1.16,0-2.19,0-3.22,0-.83,0-1.52-.21-1.52-1.15s.73-1.18,1.54-1.18,1.81.08,2.7,0c.3,0,.79-.41.81-.66.12-1.37.11-2.75.15-4.13.06-1.72.21-3.45.14-5.18-.05-1.42-.34-2.84-.56-4.46-2.6,1.49-4.92,2.71-7.13,4.11-2.69,1.69-5.37,3.41-7.88,5.33-2.8,2.16-5.4,4.58-8.12,6.85-1,.81-2.12,1.43-3,2.29s-1.55,1.89-2.4,2.77-1.2,2.11-.15,2.8c1.63,1.09,2.24,2.84,3.21,4.35a1.82,1.82,0,0,0,2.54.49c1.18-.85,2.34-1.73,3.57-2.5,1.73-1.08,3.53-2.07,5.6-3.27a24.82,24.82,0,0,1,.77,2.65,30.33,30.33,0,0,1,.27,3.17c.06,1.2,0,2.41.13,3.62a5.86,5.86,0,0,0,.35,2.36,9.48,9.48,0,0,0,1.93,2,1.4,1.4,0,0,0,.75.31c1.71.21,3.45.3,5.14.61,2.62.48,3.31,2.25,1.57,4.15-1.12,1.24-2.52,2.21-3.71,3.39a4.08,4.08,0,0,0-1.2,1.9,10.67,10.67,0,0,1-16.26,7.12,4.52,4.52,0,0,0-5.4.44,36.57,36.57,0,0,0-8.46,9.59,32,32,0,0,0-3,5.44,16.41,16.41,0,0,0-.42,10.28,9.56,9.56,0,0,0,2.59,4.4,12.65,12.65,0,0,0,7.66,3.26,41.82,41.82,0,0,1,.33-4.24,36,36,0,0,1,1.44-6.2,7.85,7.85,0,0,1,2.38-2.9,1.9,1.9,0,0,1,1.79.24c.56,1.28,2,2.22,1.65,3.89a2,2,0,0,0,0,.77c.69,2.87,1.39,5.74,2.12,8.71,1.24-.18,2.7-.4,4.16-.6a1.62,1.62,0,0,0,1.45-1.36c.13-.48.5-.89.66-1.37.34-1,.79-1.84-.24-2.86a11.81,11.81,0,0,1-2.6-3.71,31.19,31.19,0,0,1-1.42-5.37,1.33,1.33,0,0,1,1.21-1.65,9.18,9.18,0,0,1,5.6.89,3.94,3.94,0,0,0,4.66-.41,1.83,1.83,0,0,0,.67-2,18.57,18.57,0,0,1-.77-7.33c.06-.58.53-1.55.89-1.58a21.72,21.72,0,0,1,4.34,0,2.71,2.71,0,0,1,1.6.72,31.66,31.66,0,0,1,2.16,2.68c1.19-.2,1.85-.63,1.3-1.89a2.66,2.66,0,0,1,0-1c0-2.65.11-5.31,0-8-.34-5.61-.83-11.21-1.24-16.82-.07-.94,0-1.9-.14-2.83-.26-2.44-.73-4.86-.84-7.3C245.46,77.57,245.58,74.37,245.58,71Zm41.5,4.69s0-.11-.08-.19a4.67,4.67,0,0,0-.51-.36c-2.34-1.57-5.15-2.41-7.1-4.59-.17-.18-.59-.11-.82-.27s-.57-.59-.91-.78c-1.18-.67-2.42-1.23-3.58-1.93-2.43-1.47-4.81-3-7.24-4.5-2.24-1.36-4.53-2.64-6.78-4-3-1.77-5.94-3.6-9-5.31a5,5,0,0,0-1.91-.29V68.07c.88-.12,1.54-.24,2.21-.29.51,0,1.26-.18,1.47.08a2,2,0,0,1,.3,1.63,1.8,1.8,0,0,1-1.3.77,23.84,23.84,0,0,1-3,0c0,1.72,0,3.35,0,5q.12,6.24.28,12.48a29.82,29.82,0,0,0,.2,3c.24,1.82.66,3.62.79,5.45.15,2,0,4.06.09,6.08.19,4.1.49,8.2.68,12.3a13.68,13.68,0,0,1-.32,2.38c-.06,0,.07.06.17,0a5.18,5.18,0,0,1,5.57,1.77c1.3,1.55,2.78,1.52,4.44,1.33a1.11,1.11,0,0,1,.26,0c1.55.07,3.19-.31,4.51.92a.62.62,0,0,0,.59,0,22.07,22.07,0,0,0,2.57-1.82c2.07-1.86,4.34-3.19,7.09-3.19a2.82,2.82,0,0,1,.72,3.32,17.44,17.44,0,0,1-4.39,7.54,1.23,1.23,0,0,0-.24,1.08c.43,1.14,1,2.23,1.68,3.82.83-2.07,2.55-1.49,3.88-2,0,0,.07,0,.1-.07l7.65-4.67c-1-2.32-1.91-4.34-2.67-6.43a1.39,1.39,0,0,1,1.21-1.92c2.43-.23,4.9-.53,7.33.31a.79.79,0,0,0,.13-.31c-.17-2.72-.17-5.47-.61-8.15a6.64,6.64,0,0,0-2-3.41,20.66,20.66,0,0,0-4.3-2.93,3.3,3.3,0,0,0-3.65,0c-1.64,1.19-3.11,2.56-5.12,3.25-2.32.8-4.43,1.69-7.1,1a8.25,8.25,0,0,1-4.57-2.42c-1.24-1.44-2.94-2.61-3.13-4.78,0-.22-.38-.49-.65-.6A37.79,37.79,0,0,0,256.24,97a5,5,0,0,1-3.7-3.85L260,89.8c-.46-1.72-.84-3.59-1.46-5.38a33.54,33.54,0,0,1-1.11-6.26c-.19-1.23.56-1.71,1.53-1.67a13.23,13.23,0,0,1,3.35.64c1.25.4,2.44,1,3.65,1.5s2.37,1,3.94,1.71c.72-1.61.91-3.72,1.67-5.6s1.64-4,2.52-6.07c3,.88,4.81,3,6.22,5.59.64,1.18,1.13,2.47,1.81,3.63.58,1,2.1,1.26,2.65.59C285.5,77.58,286.26,76.69,287.08,75.72Zm-55,77.56a1.71,1.71,0,0,0-.06-2.38c-1-1.26-2.2-2.48-2.36-4.25-.1-1-.71-1.2-1.64-.88a6.46,6.46,0,0,1-2,.4c-3,.12-5.91.06-8.85.27a17,17,0,0,1-9.35-2.26,13.78,13.78,0,0,1-4.7-3.39,16.24,16.24,0,0,1-3-6.42,20.83,20.83,0,0,1,1.75-13.1,32,32,0,0,1,3.7-5.84c2.22-2.81,4.6-5.48,7-8.1a8.32,8.32,0,0,1,3.59-2.24c1.79-.58,3.57-1.09,5.39-.47,1.14.38,2.14,1.16,3.25,1.64a6.2,6.2,0,0,0,7.46-2.29c1.81-2.73,2.34-5.43,1.06-8.4-1.84-4.24-5.46-6.48-9.66-7.66-1.82-.52-3.9-.18-5.86-.1a12.06,12.06,0,0,0-3.49.55,28.65,28.65,0,0,0-7.53,3.55c-3.61,2.52-7.62,4.45-10.72,7.73s-6.7,6.35-8.7,10.6c-1.21,2.61-2.18,5.32-3.3,8a23.59,23.59,0,0,0-1.38,6.44,24.12,24.12,0,0,0,.89,11.15,33.77,33.77,0,0,0,7.06,11.7c.15.17.35.41.54.42,1,0,1.93,0,3,0-1.2-1.42-2.29-2.64-3.31-3.91a42.56,42.56,0,0,1-2.3-4c-.6-.94-.71-2.21-1.37-3.08-1.41-1.88-1.53-4.09-1.83-6.23a26.11,26.11,0,0,1,.36-8.76,33.51,33.51,0,0,1,4.71-11.88,63.79,63.79,0,0,1,10.9-12.22,38.2,38.2,0,0,1,4.87-3.41c4.14-2.76,8.5-4.8,13.64-5,4.8-.19,10,2.7,11.94,7.17a5.5,5.5,0,0,1-1.06,6,6.4,6.4,0,0,1-2.26,1.34c-2.06.69-3.7-.32-5.15-1.63a1.48,1.48,0,0,1-.17-2.4c.75-.72,1.39-.16,2.05.23a4.75,4.75,0,0,0,1.47.71c.55.1,1.54.09,1.66-.18a7.3,7.3,0,0,0,.63-2.87c0-.47-.67-.93-1-1.42a8.72,8.72,0,0,0-5.24-3.3c-4.22-1.14-8.16.38-11.74,2a44,44,0,0,0-9.58,6.66,60.19,60.19,0,0,0-6.69,7.29,19.73,19.73,0,0,0-4.16,6.82c-1.29,4.28-2.54,8.55-2.27,13.09,0,.49-.2,1.09,0,1.45.82,1.42.31,3.15,1.41,4.58s1.26,3.11,2.14,4.52c1.54,2.5,3.26,4.9,5,7.27a2.33,2.33,0,0,0,1.63.8c2.11,0,4.22-.18,6.34-.24.62,0,1.25.22,1.87.21a27,27,0,0,1,10.14,1.5,7,7,0,0,0,5.75,0,4.42,4.42,0,0,1,4.45.53C228.71,150.86,230.34,152,232.1,153.28Zm-22.44,5.46c-1.79-2.07-3.62-4.22-5.49-6.31a1.81,1.81,0,0,0-1.17-.59c-5-.09-10-.16-15-.15-2.18,0-4.35.39-6.51.31a39.79,39.79,0,0,0-18,3.53,40.44,40.44,0,0,0-7.35,4.58c-3.68,2.72-7.16,5.7-10.69,8.63-1.15.95-1.07,1.79.13,2.68,1.63,1.21,3.27,2.42,5,3.57,2.15,1.46,4.41,2.78,6.51,4.31,2.28,1.67,5,2.31,7.57,3.11a42.66,42.66,0,0,0,7.4,1.34,22.87,22.87,0,0,0,5.23,0,8.29,8.29,0,0,1,4.25.27,22.54,22.54,0,0,0,3.33.79c.44-2.08.88-4.08,1.26-6.09,0-.17-.32-.41-.5-.62-.6-.74-1.18.07-1.78,0-4.11-.13-8.23.28-12.31-.53a38.33,38.33,0,0,1-3.93-.64,42.48,42.48,0,0,1-5.8-2.26c-2.11-1-4.52-1.58-6-3.56-.48-.63-1.32-1.63-1.13-2a7.85,7.85,0,0,1,2.39-2.61c2.85-2,5.81-3.8,8.72-5.69,1.5-1,3.41-1,4.85-2.13a1.59,1.59,0,0,1,.72-.25c1.13-.19,2.25-.43,3.39-.54,2.79-.27,5.58-.57,8.38-.68,2.07-.08,4.15.15,6.23.19,1,0,1.89-.09,2.84-.16a29.14,29.14,0,0,1,3.47-.28c2.05.09,4.1.32,6.15.53.79.08,1.83,0,2.28.49a5.25,5.25,0,0,1,.83,2.47c0,.14-.39.54-.62.56-1.13.12-2.26.13-3.39.21-3,.2-6-.44-9-.07a54.85,54.85,0,0,1-8.2-.1,44.22,44.22,0,0,0-6-.15,43,43,0,0,0-6,1.41,7,7,0,0,0-1.34.71L170.2,162c-.33.47-.52,1-.89,1.2-1,.56-2.17.89-3.14,1.51-2.23,1.4-4.38,2.92-6.92,4.63a83.46,83.46,0,0,0,7.79,3.52,38.93,38.93,0,0,0,16.43,2c1.89-.19,3.8-.23,5.7-.33.1,0,.21.08.3.06,2.35-.35,4.72-1,7.06-1a4.4,4.4,0,0,0,4.26-2.14c.34-.51.7-1,1.11-1.59,1.48,1.46,3.45,2,4.63,3.85.88,1.35,1.59-.2,2.36-.6-3.2-4.75-1.34-7.58.77-9.93Zm87.67-22.62c.67-1.28,1.44-1.88,2.71-1.53a3.42,3.42,0,0,0,2.89-.66c.44-.28.63-1,1.05-1.29,4.31-3.38,5.95-8.34,7.52-13.21a13.13,13.13,0,0,0,.16-7.49c-.37-1.34-.54-2.74-.8-4.11a28.57,28.57,0,0,0-4-9.28,23,23,0,0,0-7.43-7.76c-2.15-1.36-4.05-3.12-6.24-4.41a29.43,29.43,0,0,0-6.08-2.68c-2.71-.85-5.45-1.83-8.38-1.5a26.39,26.39,0,0,0-7.74,2,12.6,12.6,0,0,0-5.92,5.43c-2.66,4.79-1.21,8.7,2.37,12.11a4.36,4.36,0,0,0,4.93,1.11,23.06,23.06,0,0,0,4.37-3.17,9.44,9.44,0,0,1,5-2.3,8.45,8.45,0,0,1,6.15,1.82,22.22,22.22,0,0,1,7.15,9.09.78.78,0,0,1,.1.36c0,2,.43,3.89.4,5.9-.05,3.7-1.88,6.55-3.7,9.34-1,1.58-3,2.58-4.58,3.76s-3.28,2.26-4.91,3.41c-2.26,1.59-4.44,3.27-7.42,3.34a2.23,2.23,0,0,0-2.45,2.11,12.44,12.44,0,0,1-3.22,6.41c-1.58,1.85-3.49,3.46-4.89,5.43a10,10,0,0,1-4,3.66,1.67,1.67,0,0,0-.87,2.56l5.52-2c1.71-3.82,3.59-7.52,7.91-9.08a1.37,1.37,0,0,0,1-1.39c.13-1.4.15-2.82.32-4.21a21.91,21.91,0,0,1,.61-2.61l.5-.15c1.46,1.32,3,2.56,4.34,4a2.08,2.08,0,0,0,2.82.61,3.27,3.27,0,0,1,1.8-.49,31,31,0,0,1,4.43,1.05,1.59,1.59,0,0,0,2.05-.66,9.52,9.52,0,0,1,2.41-2.41,27.2,27.2,0,0,1,3.91-1.67Zm-5.48,38.6c.25,0,.5.05.75.05,2.38,0,4.79-.15,7.16,0,3.66.31,7.33.71,10.95,1.33s6.55,2.32,7.18,6.46c0,.27.65.55,1,.66a13.78,13.78,0,0,1,6.29,3,20,20,0,0,1,1.61,1.43c2.06,2.37,3.53,5.25,1.51,8.63a10.09,10.09,0,0,1-5.78,4.35c-3.26,1.15-6.5.74-9.66-.18a9.74,9.74,0,0,1-5.75,4.11c-2.72.68-5.27-.2-7.85-.74-3.25-.69-6.49-1.48-10-2.3l2,4.76c1.24-.5,2.37-.87,3.42-1.41a2.83,2.83,0,0,1,2.65-.07c1.53.71,2.06,2.22,2.78,3.59s1.41,2.51,2.1,3.72c.48-.44.76-.74,1.08-1,1.57-1.14,3.2-2.21,4.72-3.41s3.57-1.36,4.72-.44q2.42,2,4.91,3.81c.23.17.81.24,1,.08,1.32-1.28,2.58-2.63,3.86-4s2.33-2.11,4.29-1.3c2.2.91,4.56,1.43,6.77,2.1,0-2.29,0-4.52,0-6.76a1.69,1.69,0,0,1,1.55-1.95A12.92,12.92,0,0,0,342,195.5c.6-.57.58-1,0-1.46a5.07,5.07,0,0,0-.91-.65c-1.65-.71-3.36-1.3-5-2.08a3.22,3.22,0,0,1-1.6-1.57,2.22,2.22,0,0,1,1-2.6,20,20,0,0,0,3.06-3c.28-.34.34-1.37.11-1.53-2-1.42-3.92-3-6.46-3.47-.86-.15-1.7-.43-2.43-.61-.37-2.5-.72-4.88-1.1-7.39l-11.92,3.43a34.17,34.17,0,0,1-2.71-3.36,31,31,0,0,1-1.4-3.22,1.13,1.13,0,0,0-.95-.51,7.12,7.12,0,0,0-2.25,1.09c-1.54,1.24-2.94,2.63-4.47,3.86a1.54,1.54,0,0,1-1.42.19c-1.43-1-2.77-2.16-4.14-3.27-.44-.34-.84-.73-1.29-1a1.19,1.19,0,0,0-1.74.24,17.65,17.65,0,0,1-3,2.52c-.94.6-1.74,1.07-1.3,2.39A3.54,3.54,0,0,1,291.85,174.72Zm-101.54,45c.73-.66,1.56-1.37,2.35-2.12,2.07-2,3-2.13,5.43-.54,1.78,1.17,3.51,2.43,5.37,3.73,1.11-1.16,2.19-2.36,3.33-3.49,2.11-2.08,3.5-2,5.46.37.46.54.82,1.18,1.24,1.76,1.1,1.5,1.42,1.51,2.37-.09,1.41-2.36,3-4.46,5.84-4.9v-5.26c-.24,0-.46,0-.57.07-1.51,1.21-3.41,1.47-5.16,2.09a22.23,22.23,0,0,1-3.61.83,5.13,5.13,0,0,1-2.23.1,29.74,29.74,0,0,1-4.45-1.74,4.89,4.89,0,0,1-2.26-1.67c-.78-1.46-1.8-.84-2.79-.67s-2,.6-3,.69c-1.65.14-3.34.37-4.95-.38a18.66,18.66,0,0,1-3.7-1.71,7.19,7.19,0,0,1-3-5.36c-.18-2.76.33-5.28,2.52-7.13a21.9,21.9,0,0,1,6.29-3.76,1.8,1.8,0,0,0,.84-.7c.51-.94,1-1.92,1.39-2.9a8.14,8.14,0,0,1,4.76-4.3,24.52,24.52,0,0,1,6.92-1.38c3.35-.22,6.73,0,10.07,0,.25-1.26.25-1.26-1.24-2.52a4.79,4.79,0,0,1-5.69-.82c-.56-.52-1.09-1.08-1.51-1.5-.38.77-.54,1.7-1,1.89a2.73,2.73,0,0,1-1.93-.48c-1.4-.82-2.73-1.76-4.08-2.66-.59-.4-1.16-.82-1.74-1.23-.57,1-1.27,2.06-1.8,3.19a26.6,26.6,0,0,0-1,2.89,4.06,4.06,0,0,1-3.45,1.75c-2-.6-4-1.24-6.13-1.92-.32,1.39-.63,2.71-.94,4-.26,1.07-.47,2.15-.8,3.19a1.66,1.66,0,0,1-1.94,1.37c-1-.13-1.94-.19-2.9-.31-1.25-.17-2.49-.37-4.11-.61.36,2.75.62,5.17,1,7.57a1.64,1.64,0,0,1-.78,1.89,47.42,47.42,0,0,0-4.19,3.12,8.69,8.69,0,0,0-1.33,2.08c.5,0,.85-.1,1.09,0,1.69.82,3.39,1.65,5,2.58.41.23.91.9.84,1.28-.38,2.3-.93,4.58-1.4,6.87a1.13,1.13,0,0,0,.06.8.9.9,0,0,0,.78.23,21.11,21.11,0,0,0,3.12-1.24c1.88-1,4-.67,5,1.17S189.4,217.63,190.31,219.75ZM287,79.47c.28.26.55.69.75.66,1.14-.14,1.77.61,2.52,1.23.58.48,1.26,1.18,1.91,1.19,2.22,0,3.71,1.28,5.23,2.61.93.82,2,1.48,3,2.22,1.36,1,2.73,2,4.08,3.07.11.09.1.32.19.45A20.74,20.74,0,0,0,306,92.69c.37.44.94.72,1.24,1.19.8,1.25,1.48,2.58,2.25,3.85.62,1,1.41,1.89,1.94,2.92a31.84,31.84,0,0,1,1.44,3.7c1.05,3,2.53,5.9,2.42,9.22a46.52,46.52,0,0,1-.18,5.29,24.41,24.41,0,0,1-1.41,5,38.33,38.33,0,0,1-2.35,5.13,13,13,0,0,1-2.19,2.68c-1.71,1.74-3.47,3.42-5.23,5.11-.37.36-1,.56-1.19,1a38.53,38.53,0,0,0-1,3.75l4.74.21a11.51,11.51,0,0,0,2.34.08c1.36-.23,1.06-1.64,1.08-2.36,0-2.07.77-3.07,2.79-3.1a10.8,10.8,0,0,0,2.9-.31c1.51-.44,3.2-.59,4.31-1.89.31-.35.62-1.07.46-1.39a33.19,33.19,0,0,0-2.95-5.28,5.55,5.55,0,0,1,1.55-8.21,25.43,25.43,0,0,0,6.61-5.27c-2.07-2.58-4.89-4-7.6-5.64a4.09,4.09,0,0,1-1.37-1.46c-1.33-2.35-.36-4.68.38-6.92a27.91,27.91,0,0,1,2.22-4.23c-1.1-.76-2.2-1.56-3.34-2.29-.89-.57-1.83-1.08-2.77-1.58a1.76,1.76,0,0,0-.84-.2,3.38,3.38,0,0,1-3.73-2.86,1.32,1.32,0,0,0-.59-.69c-3.06-1.87-6.15-3.7-9.2-5.58-2.44-1.5-4.84-3.08-7.26-4.61-.93-.59-1.82-1-2.7.19A7.76,7.76,0,0,1,287,79.47ZM252.26,244.31c-.09.07-.29.14-.29.21-.11,3.65-.33,7.31-.23,10.95,0,1.66-.42,3.23.06,5,.59,2.24.15,4.77.06,7.17,0,.37-.55.79-.94,1.05-.14.09-.7-.14-.81-.36a3,3,0,0,1,0-1.13s-.35,0-.36-.09c-.11-1.1-.22-2.2-.26-3.3-.06-1.81-.08-3.63-.09-5.45,0-2.05,0-4.11,0-6.16v-6.16c-3.18,0-7.28-2.85-6.68-6.6-2.61,3.51-6.37,4.94-10.49,5.6-.26,2.44.93,4.16,2.37,5.7a4.82,4.82,0,0,0,2.27,1.45,16.68,16.68,0,0,0,3.94.23,2.5,2.5,0,0,1,2.67,2.05c.62,2.7,1,5.46,1.33,8.21.29,2.26.35,4.55,1.48,6.63a16.42,16.42,0,0,0,5.32,6.18,22.44,22.44,0,0,0,1.58-2.12,28.17,28.17,0,0,0,3.41-8.59,35.53,35.53,0,0,0,.2-6.12c0-1.83,0-3.66.1-5.49.07-1.1.76-1.46,1.9-1.55a13.09,13.09,0,0,0,4.4-1c2-.93,2.82-2.83,2.93-5l-4.74-2.27c-.76,1.82-1.36,3.43-2.1,5-.59,1.24-1.2,1.41-2.19.55C255.42,247.45,253.9,245.88,252.26,244.31ZM167.81,139.55a22.53,22.53,0,0,0,3.48,1.61c1.53.43,3.16.52,4.74.81a11.58,11.58,0,0,1,2.68.68c2.27,1,3.26,3.06,4,5.32l3.71-.31c-.61-.83-1.17-1.51-1.63-2.25-.86-1.4-1.73-2.79-2.46-4.26-.86-1.75-2-3.5-2.26-5.37-.52-3.43-1.26-6.89-.63-10.43.3-1.71.21-3.5.58-5.19a30.77,30.77,0,0,1,1.84-5.72,58.51,58.51,0,0,1,4.24-8.31,81.83,81.83,0,0,1,5.93-7.38A25.58,25.58,0,0,1,198.31,93q4.56-2.79,9.08-5.65c.44-.28,1.07-.69,1.11-1.09a24.29,24.29,0,0,0-.17-3.42c-.45.31-.83.55-1.18.83-3.46,2.76-6.89,5.55-10.37,8.29-3.1,2.44-6.26,4.8-9.36,7.24a2.06,2.06,0,0,0-.7,1.2,18.5,18.5,0,0,1-.05,2.48,2.52,2.52,0,0,1-1.27,1.59,12.79,12.79,0,0,1-3.6.52c-1.19,0-2.32-.06-3.25.93a15.15,15.15,0,0,1-1.89,1.49c.4,1,.89,1.92,1.2,2.92.69,2.23.82,4.19-1.75,5.71a36,36,0,0,1-5.23,2.17c-.74.29-1.55.42-2.28.75a1.42,1.42,0,0,0-.63,2.41,6.85,6.85,0,0,0,2,1.55,13.78,13.78,0,0,1,5,4.06,2.59,2.59,0,0,1-.1,3.24,16.23,16.23,0,0,1-2.74,2.44C169.61,134.28,167.66,136.16,167.81,139.55Zm68.62,86.06a3.16,3.16,0,0,1-1,.23c-1.47-.17-3-.31-4.4-.62s-3.26.69-2.77,1.94c.69,1.73,0,3.31-.46,4.71a11.09,11.09,0,0,0-.29,6.06c.42,1.84,3.74,3.92,5.6,3.62a11.56,11.56,0,0,0,6.26-3.38,2.71,2.71,0,0,0,.34-1.91c-.08-.87-.55-1.71-.57-2.57,0-1.56.27-3.18-1.39-4.19-.07-.05-.05-.22-.09-.33Zm14.71-79.21c-1.72,0-3.43.13-5.11,0a6.58,6.58,0,0,1-5.31-3c-1.09-1.77-.42-3.65-.14-5.47.14-.93.26-2.17.88-2.68a41.54,41.54,0,0,1,6.17-4.18,2.67,2.67,0,0,0,1.24-1.55,3.1,3.1,0,0,0,.23-1.24c0-.46-.1-1.23-.34-1.3a2.22,2.22,0,0,0-1.54.22,9.59,9.59,0,0,0-1.38,1.11,33.53,33.53,0,0,0-3.28,2.61c-.67.69-1.26,1-1.92.32s-.35-1.48.33-2c1.9-1.5,3.8-3,5.76-4.42,1.07-.77,2.51-1.38,3.61-.74,1.41.83,2.62.32,3.85,0,.56-.13,1.05-.91,1.37-1.5.12-.23-.25-.9-.57-1.14-3.1-2.32-5.08-1.61-7.66.17s-4.77,3.57-7.16,5.34c-.67.51-1.59.82-2,1.47a36.48,36.48,0,0,0-2.54,4.53c-.36.72-.31,1.38.75,1.63a29.37,29.37,0,0,1,3,1.08,12.28,12.28,0,0,0-1.73,2.58,10.05,10.05,0,0,0,1.06,8,2,2,0,0,0,.94.79,10.64,10.64,0,0,0,5.58,1.18,16.18,16.18,0,0,1,3.18-.12C250.11,148.21,250.68,147.93,251.14,146.4ZM273.37,161c-.49-.83-1.29-1.59-1.35-2.4a13.15,13.15,0,0,1,2.29-8.42,3.84,3.84,0,0,1,4.33-1.77,33.21,33.21,0,0,1,4.77,1.67c1.35.73,2.86,1.67,3.1,3.41a20.57,20.57,0,0,1-.13,4c-.06.85-.2,1.69-.32,2.66.35-.13.47-.16.58-.21l.47-.22c2.1-1.15,2.45-3,2.45-5.24,0-3.18-1.59-5.91-4.1-6.69-3.1-1-6.12-2.19-9.48-2a6.94,6.94,0,0,0-4.51,1.92,23.9,23.9,0,0,0-2.52,3.78c-.88,1.33-1.63,2.89-1.05,4.32a21.47,21.47,0,0,0,3.13,4.83C272,161.92,272.26,161.84,273.37,161Zm-8.89-.31c-1.71-1-3.4-.38-4.53-.9a32.77,32.77,0,0,1-.93,4.34c-.22.63-.83,1.21-1.92.56a7.64,7.64,0,0,1-2.79-2.25c-.87-1.33-2.07-2.38-2.57-4-.7-2.28-.87-2.23-3.2-1.43-1.58.55-2.45.18-3.59-1a2.77,2.77,0,0,0-2.87-.95,1.43,1.43,0,0,0-1.07,1.79,1.4,1.4,0,0,0,1.58,1.19,13.93,13.93,0,0,1,3.77.09c1.64.42,3.5.39,4.73,1.7a15.37,15.37,0,0,1-1.26,1.6,13.32,13.32,0,0,1-7.91,3.57,6.71,6.71,0,0,0-1.19.41l.05.35a3.51,3.51,0,0,0,1,.16c2.48-.45,5-.92,7.42-1.43a5.43,5.43,0,0,1,4.91,1.53c.69.62,1.21.41,2,.23,1.38-.34,2.94-1,4.19-.61,1.65.46,3.08,1.73,4.59,2.69a18.11,18.11,0,0,1,1.44,1.15c.71-1.33.7-1.32-.17-2.46-.07-.09,0-.29,0-.43-.28-2.13-.56-4.26-.83-6.37Zm-19.16,24.84.24-.17c.61.57,1.19,1.18,1.83,1.71,3.39,2.82,7.33,2.8,9.75-1.35a5.17,5.17,0,0,0,.2-3.55,18.72,18.72,0,0,0-2.12-5.19c-1.33-2.11-3.8-2.27-6-2.5a8.45,8.45,0,0,0-6,2,2.27,2.27,0,0,0-.51,3.19c.74,1.24,1.44.12,2.07-.28a25.48,25.48,0,0,1,5-1.85c2.23-.81,3,.52,4.07,1.8.19.23.34.48.52.72,1.46,2,1.38,4.35-.21,5.81-1.14,1-2.14,1-3.9-.27a2.87,2.87,0,0,1-.66-3.12c.18-.51.1-1.58-.14-1.68-1.75-.69-4,.42-4.09,2.39C245.3,183.94,245.32,184.71,245.32,185.48Zm-12.66-24.29a2,2,0,0,0,0-2.86c-1.08-1.23-2.14-2.48-3.24-3.69-1.87-2-4.19-3-6.89-2.24a20.93,20.93,0,0,0-8.52,5.37c-1.22,1.18-2.22,4.56-.86,6.57.72,1.07,1.49,2.12,2.24,3.19a4.63,4.63,0,0,0,1-.77,1.87,1.87,0,0,0,.46-1.2,5.08,5.08,0,0,1,1.33-4.95,29.68,29.68,0,0,1,5-4c2.58-1.62,4.61-1.34,6.8.86A29.41,29.41,0,0,1,232.66,161.19Zm-14.07,7.24-.82.74c-1.61,1.53-1.44,2.5-.18,4.21,1.1,1.5,2.32,2.92,3.46,4.39a3.13,3.13,0,0,0,3.85.83,28.71,28.71,0,0,0,2.65-2.16c1.77-1.51,3.49-3.08,5.29-4.54,1-.86,1.93-2.32,1.46-3.16-.71-1.26-1.64-2.39-2.55-3.68l-3.44,5.54c-2.14,3.49-7.19,2.53-8.62-.41C219.41,169.61,219,169.09,218.59,168.43ZM243.33,236c.74-1.55,1.4-3.14,2.25-4.6a3.74,3.74,0,0,1,3.28-1.88,4.55,4.55,0,0,1,3.39.72c1.18.91,2.74,1.33,4,2.16,2.94,2,3.32,4.12,1.46,7.11-.2.31-.34.64-.6,1.12.9,0,1.62.05,2.33,0a1.75,1.75,0,0,0,1.08-.49c1.5-1.72,1.56-3.84,1.27-5.91-.22-1.59-1.76-2.14-3-2.75-2.1-1-2.62-1.81-2.38-4.11a3.42,3.42,0,0,0-2.17-2.65c-1.1-.23-1.42.7-1.86,1.42-.35.57-.73,1.11-1.1,1.66-2.9-2-3.52-2.12-5.26-.54a17.15,17.15,0,0,0-3.6,4.38C241.56,233.14,241.26,235,243.33,236Zm16.09-58.57a33,33,0,0,1,1.61,4.07,6.92,6.92,0,0,1-1.69,6.57c-1.56,1.72-1.69,1.79-.81,3.87.26.61.64,1.17,1.44.94q2.52-.75,5-1.55a.72.72,0,0,0,.37-.34,10,10,0,0,0,1.07-2.68,13.78,13.78,0,0,0-2.84-10.13C262.52,176.79,261.09,176.61,259.42,177.4Zm8.28-9c-1.08,1.51-1,2.24.32,3.47a19.73,19.73,0,0,1,1.81,2c1.43,1.76.13,4.92-1,5.77-.23.17-.52.53-.47.71a2.26,2.26,0,0,0,.71,1.1c.13.09.63-.24.92-.43s.39-.45.63-.59c3.08-1.86,5.14-4.74,7.42-7.39a1.48,1.48,0,0,0,.28-.9,25,25,0,0,0-4.43-3c-.07,0-.15-.13-.21-.12A11,11,0,0,1,267.7,168.43Zm-3.37-27c.82.7,1.53.59,2.06-.18a31.66,31.66,0,0,0,2.15-3.46,23.15,23.15,0,0,0,1.47-3.61,3.33,3.33,0,0,0,.15-2.22,31.69,31.69,0,0,0-3.32-5.13,9.59,9.59,0,0,0-4.32-3.41c-2.24-.72-3.22-.44-3.89,1.3a5.25,5.25,0,0,1,.55.22c2.3,1.13,4.73,2,6,4.59s1.74,4.9.78,7.54Q265.16,139.32,264.33,141.47Zm-7.33.3.31.53a4.69,4.69,0,0,0,1.59-.36,14.63,14.63,0,0,0,2-1.69c2.28-2.06,3.55-6.91.65-9.84a9.32,9.32,0,0,0-5.18-2.59,24.46,24.46,0,0,0-2.77-.51,2.85,2.85,0,0,0-1.94.44c-.35.35-.28,1.24-.21,1.87.1.85.83.86,1.5.81a3.37,3.37,0,0,1,3.72,2.39,2.1,2.1,0,0,0,2.27,1.47,2.06,2.06,0,0,1,2,3.05,10.16,10.16,0,0,1-1.59,2.39A22.57,22.57,0,0,1,257,141.77Zm34.3,18.55c-4.43,5.42-9.82,6.32-16,2.73-.62.6-.73,1.2,0,2a24.75,24.75,0,0,1,1.5,2.06c.75.93,1.3,2.06,2.69,2.37a6.85,6.85,0,0,0,3.84-.5,15.76,15.76,0,0,0,4.94-2.18,16.07,16.07,0,0,0,3.14-2.62A2.63,2.63,0,0,0,291.3,160.32Zm-9.08-16.46a4.19,4.19,0,0,0,1.29.7,13.85,13.85,0,0,1,6.26,2.46,7,7,0,0,1,3.35,6.45c-.09,2.05-1.21,4.32,1,6a14.26,14.26,0,0,0,1.66-2.28,10.61,10.61,0,0,0,.72-2.75,5,5,0,0,0-.12-1.26c-.13-2.16-.52-4.2-2.29-5.7-.75-.63-1.38-1.41-2.18-2a16.54,16.54,0,0,0-4.17-2.57C285.92,142.37,283.77,141.66,282.22,143.86Zm-37.36,7.81c-.14,3.2,1.5,4.31,4.32,3.07a7.73,7.73,0,0,0,.88-.51c.76-.47,1.51-1,2.28-1.42,2.9-1.75,5.82-3.47,8.69-5.26a2.31,2.31,0,0,0,.56-3.33c-1.84,2.68-4.44,1.84-7,1.48a2.77,2.77,0,0,0-.21.61,3.82,3.82,0,0,1-2.13,3.25c-1.8,1-3.51,2.14-5.74,1.8A5.66,5.66,0,0,0,244.86,151.67Zm-3.15,1.47c0-2.41-1-3.43-3.29-3.66-.43,0-1-.2-1.21-.5a13.11,13.11,0,0,1-1.86-3.89c-.32-1.75,0-3.61-.14-5.4-.06-.61-.83-1.15-1.27-1.72-.44.35-1,.63-1.28,1.09a3.93,3.93,0,0,0-.48,1.94c0,1.87.26,3.75.22,5.63a4.7,4.7,0,0,0,1.42,3.44c.82.89,2,1.5,2.25,2.85a1,1,0,0,0,.76.61C238.47,153.59,240.15,154,241.71,153.14Zm13.12,38.48a11.34,11.34,0,0,1-2.3.42c-4-.15-7.15-1.76-9-5.49a1.29,1.29,0,0,0-.66-.66,2,2,0,0,0-2.7,2.09,3,3,0,0,0,1.65,2.82c2,1.11,3.93,2.31,6,3.32a9,9,0,0,0,3.32.94,8.13,8.13,0,0,0,2.66-.72C255.46,193.82,255.66,193.32,254.83,191.62ZM254.7,173c1-1.89,1-2.29-.67-3.47-.51-.37-.9-1-1.46-1.22a6.43,6.43,0,0,0-2.73-.9,42.63,42.63,0,0,0-5.12.64,3.74,3.74,0,0,0-2.93,1.77,3.29,3.29,0,0,0,.36,3.45C246.34,171,250.48,169.54,254.7,173ZM122.35,220.22c-.8-.7-1.54-1.34-2.26-2s-1.41-.87-2.11.12c-2.16,3.05-4.37,6.07-6.54,9.11-.47.66-.84,1.4-1.26,2.1C115.08,227.59,118.4,223.77,122.35,220.22Zm127-75.38.1.34a23.12,23.12,0,0,0,4-1.31c2.37-1.27,3.49-3.65,4.57-6a1.71,1.71,0,0,0,0-1.2c-.5-1.15-1.67-1.19-2.53-.06s-1.7,2.61-2.75,3.73a4.57,4.57,0,0,1-4.81,1.53,1.48,1.48,0,0,0-2,1.16,1.79,1.79,0,0,0,1.66,1.78C248.16,144.88,248.77,144.84,249.37,144.84Zm-28.54,22c2.58-2.78,6-3.39,9.66-4.32a35.68,35.68,0,0,0-3.47-3.26,2.87,2.87,0,0,0-2.19-.16c-1.67.49-2.66,1.88-3.84,3.1C219.4,163.82,220.27,165.18,220.83,166.82Zm34.09-32.62c-.8-1.62-1.31-2-2.29-1.65-1.7.65-3.35,1.41-5,2.12a5,5,0,0,1-1.39.6c-2.64.18-4,1.65-4,4.17a1.88,1.88,0,0,0,1.64,2c.83.19,2.06-.85,2.35-1.64a5.91,5.91,0,0,1,1.11-2.16,8.54,8.54,0,0,1,5.08-2.86A23.26,23.26,0,0,0,254.92,134.2ZM233.8,155.8c.16.26.31.52.46.78,1.18,2.08,2.48,4.16.88,6.58a1.72,1.72,0,0,0,.36,2.46,2.51,2.51,0,0,1,.47.75c.3.68.7.66,1.16.19a4,4,0,0,0,1.5-2.53c.12-1.74.42-3.47.47-5.21a3.3,3.3,0,0,0-1.27-2.62C236.5,155,235.22,155.36,233.8,155.8Zm24.38,18.68c3.29-.87,6.2-.88,8.37,2.73.18.31.65.44,1,.65a4.44,4.44,0,0,0,.37-1.23,1.87,1.87,0,0,0-.44-1,27.22,27.22,0,0,0-4.38-4.78c-.6-.48-1.35-.79-2-1.26-1.05-.82-2.12-1.28-3.24-.67C258,170.85,258.08,172.64,258.18,174.48Zm-5.25,65.28a3.19,3.19,0,0,0,3.48-2.29,1.47,1.47,0,0,0-.21-1.29,14.4,14.4,0,0,0-5.13-3.16c-2-.8-3.1-.88-4.24,1.31-.92,1.75-1,2.57.95,3.64.25-.84.26-2,.82-2.43a4.49,4.49,0,0,1,2.76-.48c.53,0,1.42.54,1.5.95A23.07,23.07,0,0,1,252.93,239.76Zm24.48-79.7,4.66-7.33a32.08,32.08,0,0,0-4.09-.56,2.67,2.67,0,0,0-1.59.93,4.88,4.88,0,0,0-.76,1.45C274.31,157.34,274.89,159.15,277.41,160.06ZM217,142.52c.94,0,1.83,0,2.71,0,1.8.09,2.39-.49,1.74-2.1a36.7,36.7,0,0,1-1.74-7.65c-.05-.29-.33-.54-.5-.81h-.41C218.06,135.38,216.5,138.63,217,142.52ZM238.83,174a18.12,18.12,0,0,1-2,2.69,18.84,18.84,0,0,1-3.65,2.64c-1.36.73-2.86,1.08-4.24-.17-.16-.15-.56,0-.85,0,.07.33,0,.86.23,1,2.16,1.29,4.18,2.92,6.78,3.15.34-2.32,1.05-4.29,3.3-5.48A2.2,2.2,0,0,0,238.83,174ZM218,83.94l-4.55-5.71a10.38,10.38,0,0,0-1.62,2.11,33.15,33.15,0,0,0-1.13,3.87,12,12,0,0,0-.19,1.29Zm-2.14,92.19-1.12-1.63c-1-1.38-2.15-2.68-1.26-4.58a1,1,0,0,0-.08-.81c-.73-1-1.52-2-2.29-3-1.61,1-2.11,2.28-1.31,3.82a33.61,33.61,0,0,0,2.6,4.51C213.09,175.45,213.8,176.92,215.81,176.13ZM328,168.18c-.89-.84-10.11-1-11.57-.16l1.42,2.64Zm-94.32-39.31-4.88-.78a3.38,3.38,0,0,0,0,.65c.6,1.94,1.19,3.88,2.74,5.33l.87.8a5.33,5.33,0,0,0,.48-1.14C233.19,132.25,233.41,130.77,233.71,128.87Zm-8.39-44.56,5.54,2.6c0-2,0-3.82-.05-5.64,0-.2-.87-.62-1-.51C228.26,81.89,226.8,83.11,225.32,84.31Zm71,60.12c2-2.19,2.75-3.94,2.47-5.85-2.48.52-4.32,2-6.15,3.88Zm-8,26c-1.18.52-2.07.94-3,1.31-.63.26-.77.59-.34,1.16a7.13,7.13,0,0,1,.49.86c1,1.64,1.83,3.35,3.63,4.39a3,3,0,0,0,.26-.93C289.11,175.05,288.76,172.88,288.37,170.44Zm-15.95-3.87a10.47,10.47,0,0,0-.85-2.25,15.57,15.57,0,0,0-1.73-1.82c-.6-.65-1.3-1.16-2-.31a3,3,0,0,0-.49,2,20.07,20.07,0,0,0,1,3.23Zm6.17-88.46a1.46,1.46,0,0,0-.09-.48q-1.23-2.14-2.49-4.26a3.87,3.87,0,0,0-.46-.54,4.32,4.32,0,0,0-.45.51,4.15,4.15,0,0,0-.52,1c-.43,1.56-.83,3.12-1.27,4.8Zm-38.87,39.21c.3,2.07.58,4,.91,6.24l4.25-3.3C243.49,118.66,242.31,117.14,239.72,117.32ZM256.15,154c-1.08.52-2,.94-2.91,1.46-.18.11-.17.67-.11,1a5.36,5.36,0,0,0,.45,1.05,12.5,12.5,0,0,0,3.67,4.46c.45-2,.17-2.78-1.27-3.69-.71-.44-.39-.86,0-1.21a5,5,0,0,1,1.13-.55Zm-49.26-2.2c1.29,1.4,2.34,2.62,3.5,3.74.35.34,1.15.7,1.43.53a37,37,0,0,0,3.2-2.49C212.28,152.83,209.89,151.71,206.89,151.83Zm52.25,43.69-.07.22a1.74,1.74,0,0,0-.51,0c-.54.21-1.4.33-1.53.69a1.24,1.24,0,0,0,1.11,1.74c.25,0,.43.39.66.56a24.55,24.55,0,0,0,2.41,1.66c.24.13,1.06-.27,1.06-.32a15,15,0,0,0-1-3.8C261,195.78,259.88,195.75,259.14,195.52Zm-34.33-14c-.72-.2-1.4-.44-2.1-.57s-1.16,0-1.09.94-.09,2.05,0,3.06a24.82,24.82,0,0,0,.75,3l.5,0C224.6,186.2,224.56,183.85,224.81,181.57Zm17.16,1a2,2,0,0,0-2.15-2,2.68,2.68,0,0,0-2.73,2.4,2.39,2.39,0,0,0,1.94,1.94C240.44,184.88,242,183.65,242,182.54Zm24.21-100-4.28-1.79c-.73-.31-1.16-.06-.95.69.49,1.78,1.1,3.52,1.66,5.29ZM296.11,162c2.06.12,3.83.23,5.61.29a1,1,0,0,0,.78-.47.86.86,0,0,0-.14-.82,22.37,22.37,0,0,0-2.81-1.95,1.37,1.37,0,0,0-1.29.23C297.5,160.11,296.87,161.05,296.11,162Zm-28.27,30.34c1.85.3,2.94-.81,3.47-3.46.48-2.41.18-3.35-.93-3.57C269.53,187.67,268.7,190,267.84,192.37Zm22.65-73.48H285l2.33,4.33ZM236.31,172.2l-4.52,3.42c-.91.69-.89,1.24.09,2.15C234.12,176.48,236.14,175,236.31,172.2Zm5.1-9.18,5.8-2-.05-.49c-1.43-.14-2.86-.35-4.29-.39a1.61,1.61,0,0,0-1.2.78A7.41,7.41,0,0,0,241.41,163Zm-16.88,7.9c.49-.47,1.27-.88,1.41-1.44a2.42,2.42,0,0,0-1.88-2.37c-1.07.06-1.42.78-1.43,1.75C222.61,170.05,223.18,170.66,224.53,170.92Zm27.75-32.71c-.32-.23-.82-.88-1.42-1a1.81,1.81,0,0,0-1.9,1.95,1.4,1.4,0,0,0,1.38,1.54C251.25,140.76,252.29,139.66,252.28,138.21Zm-12.45,53.71c-.59-1.12-1.09-2-1.6-3l-3.65,3.2.13.35Zm5.55,48.21c-.48.84-.2,1.73.82,2.4,2,1.34,3.36,1.32,4.37,0Zm39.17-82.95c0-1-.36-1.59-1.34-1.69a1.64,1.64,0,1,0-.1,3.28C284.11,158.73,284.52,158.11,284.55,157.18Zm-11.17-38.43c-2.54.43-3.71,2.56-5.69,3.58,1.29,1,1.65,1.1,2.06.63C270.93,121.62,272.09,120.25,273.38,118.75Zm6,23.89-3.21-3.9v4.09Zm-28.69,41.48c.37.24.91.87,1.52.94a1.18,1.18,0,0,0,1.27-1.52,2.16,2.16,0,0,0-1.3-1.41C251.29,182,250.77,182.71,250.72,184.12Zm40.12-14.92.64.49c.79-.93,1.52-1.92,2.39-2.76a30.66,30.66,0,0,1,2.81-2.18,6.35,6.35,0,0,0-1.47-.36c-.35,0-.92.18-1,.42a6.31,6.31,0,0,1-2.81,3.41C291.11,168.38,291,168.87,290.84,169.2Zm-36,73.61-.57.82c.76.51,1.51,1,2.29,1.51a7.7,7.7,0,0,0,1.09.51c.11-.34.24-.67.33-1s.17-.7.28-1.15Zm15.12-118.16,1.11,1.42,3-5-.39-.32ZM237,94.57l.75,2.77,2.73-2.48-.18-.29Zm27.43,61.13-3.17,1.18.05.64,3.69.35Zm-16.31,45.87.41.09,1.34-3-2.09-.45C247.94,199.42,248.05,200.49,248.16,201.57Zm-51.1-24.82-3.33.29-.17.4a5.06,5.06,0,0,0,1.09,1.08C195.05,178.72,196.88,177.43,197.06,176.75Zm54.09,46.18c.59-.57,2-.2,1.61-1.48-.25-.77-.62-1.49-.94-2.24l-.41.07Zm9.28-129.25-3.72.27a16.22,16.22,0,0,0,1.8,1.09c.43.19,1.12.44,1.37.25S260.22,94.37,260.43,93.68Zm22,67.39c-1.44-1.25-2.3-1.17-2.93.27A2.53,2.53,0,0,0,282.45,161.07Zm-43,66.24a4.87,4.87,0,0,0,.75,1c.22.19.6.19.91.28,0-.36.09-1,0-1C240.6,227.41,240.21,226.09,239.48,227.31Zm-41.36,67.36.45.26,1.87-3.41-.34-.19Zm189.94-88.44-.8-.64-2.07,2.27Z" transform="translate(-23.87 -48.53)"/><path class="cls-1" d="M122,202.21l.66-.75c-3.23-1.32-5.24-4-7.47-6.31.6-.84,1.08-.85,1.77-.33a35.36,35.36,0,0,0,3.62,2.45,31.75,31.75,0,0,1,8.71,8.11c.86,1.09,2.25,1.74,3.35,2.66a50.07,50.07,0,0,1,5.22,5c-.41-.05-.93.06-1.22-.15-3.68-2.66-7.31-5.38-11-8.06C124.52,203.91,123.29,203.08,122,202.21Z" transform="translate(-23.87 -48.53)"/><path class="cls-1" d="M312.78,190c-.37.18-.73.24-.78.4-1,2.93-3.91,3.14-6.15,4.23-.6.29-1.59-.07-2.34-.31a1.48,1.48,0,0,1-.1-1.27,32.35,32.35,0,0,1,2.7-2.29,9,9,0,0,0-1.68-.68c-1.27-.27-2.09-1-2-2.11,0-.75,1.23-1.52,2.25-1.6,2.31-.18,4.27.95,6.3,1.71C311.64,188.31,312.1,189.22,312.78,190Z" transform="translate(-23.87 -48.53)"/><path class="cls-1" d="M208.67,196.28a8.54,8.54,0,0,1,1.75.73c.56.4,1.41,1.05,1.36,1.49a1.68,1.68,0,0,1-2,1.62,9.36,9.36,0,0,1-5.42-2.13,1.8,1.8,0,0,1,.21-3,2.88,2.88,0,0,0,.88-1c.81-1.55,2.48-2,3.74-3a1.29,1.29,0,0,1,1.22.23c.31.65.72,1.59.47,2.12A16,16,0,0,1,208.67,196.28Z" transform="translate(-23.87 -48.53)"/><path class="cls-1" d="M283.77,187.7c1.58.1,3,.18,4.35.28l6.22.49a13.18,13.18,0,0,1,3,.3c.71.24,1.24,1,1.83,1.5-1,1.5-1.42,1.57-2.73.77-.19-.12-.54,0-.81,0a6.67,6.67,0,0,1-1.57.22c-1.76-.19-3.5-.52-5.25-.68a13.52,13.52,0,0,0-3.76,0c-1.15.21-1.38-.14-1.32-1.13C283.8,189,283.77,188.48,283.77,187.7Z" transform="translate(-23.87 -48.53)"/><path class="cls-1" d="M227.08,197H223c-2.36,0-4.71,0-7.06-.1a4.82,4.82,0,0,1-1.82-.48c-.34-.16-.84-.74-.77-.87a2.8,2.8,0,0,1,1.12-1.21,4.42,4.42,0,0,1,1.86-.31c3.21,0,6.42.12,9.64.21a.86.86,0,0,1,.67.41C226.85,195.43,227,196.22,227.08,197Z" transform="translate(-23.87 -48.53)"/><path class="cls-1" d="M176.8,170.48a32.57,32.57,0,0,1-4.4.21,10,10,0,0,1-2.92-1,1.35,1.35,0,0,1,0-2.31,5.73,5.73,0,0,1,2.69-1c2.13,0,4.31-.23,6.38.67a1.63,1.63,0,0,1,1.19,1.58c0,.82-.25,1.45-1.21,1.6a11.46,11.46,0,0,0-1.68.49Z" transform="translate(-23.87 -48.53)"/><path class="cls-1" d="M296.12,91c.31.06.77,0,1,.21q1.81,1.68,3.51,3.46c.6.62,1.09,1.35,1.63,2a22.88,22.88,0,0,1,2.8,3.57,39.14,39.14,0,0,1,2.66,6.67,21.2,21.2,0,0,1,1,6.24c-.06,3.23.36,6.6-1.8,9.52-1.25,1.68-2.15,3.62-3.29,5.39a32.92,32.92,0,0,1-2.71,3.63c-1.16,1.32-2.25,2.75-4.2,3.11-.65.12-1.2.75-1.83,1.07a2.6,2.6,0,0,1-.94.08,2.53,2.53,0,0,1,.12-1,6.78,6.78,0,0,1,1.11-1.39c1.11-1.07,2.28-2.07,3.38-3.15a25.28,25.28,0,0,0,5.26-7.82c.53-1.22,1-2.47,1.42-3.74.19-.6-.05-1.41.27-1.88a4.81,4.81,0,0,0,.39-3.71c-.47-3.11.19-6.44-1.67-9.28s-3.49-5.85-6.07-8.1a52.56,52.56,0,0,0-6.76-5.28,26.72,26.72,0,0,0-5.93-2.25,25.6,25.6,0,0,0-3.79-.83,13.17,13.17,0,0,0-7.37,1.22,19.09,19.09,0,0,0-4.54,3.44c-.73.65-.62,2.67,0,3.31a3,3,0,0,0,3.55.63,9.16,9.16,0,0,1,2.59-.85c.81-.13,1,.54.81,1.18-.59,2.08-5,4.41-6.87,3.35-1.16-.66-2.54-1.25-3-3s-1.19-3.27-.11-4.87a28.71,28.71,0,0,1,3.1-3.85c2.59-2.68,6.19-3.06,9.55-3.47a13.41,13.41,0,0,1,8.36,1.62c2.25,1.27,4.58,2.4,6.86,3.64A12.92,12.92,0,0,1,296.12,91Z" transform="translate(-23.87 -48.53)"/><path class="cls-1" d="M338.5,157c1.64.46,3,.8,4.37,1.28.36.14.84.79.77,1.08a2.2,2.2,0,0,1-1,1.27c-2.28,1.19-4.47.63-6.55-.6-.22-.13-.4-.84-.29-.93C336.66,158.37,337.59,157.7,338.5,157Z" transform="translate(-23.87 -48.53)"/></svg>