<svg id="Layer_1" data-name="Layer 1" xmlns="http://www.w3.org/2000/svg" viewBox="0 0 376.72 459.89"><defs><style>.cls-1{fill:#f2f2f2;}</style></defs><title>15. молоток</title><path class="cls-1" d="M185,279.27c1-1.44,1.83-2.6,2.64-3.76q5.19-7.41,10.38-14.83c9.29-13.21,18.4-26.55,28-39.55,3.95-5.36,8.81-10.06,13.45-14.88,5.83-6.06,11.88-11.91,17.79-17.9,3.81-3.86,7.44-7.9,11.34-11.66,3.09-3,6.56-5.6,9.69-8.56,2.58-2.45,4.87-5.22,7.36-7.77,3.11-3.18,6.39-6.21,9.43-9.46a49.88,49.88,0,0,0,4.22-5.64c2.92-4.19,5.85-8.38,8.66-12.65,2.27-3.45,4.28-7.1,6.6-10.52,2.51-3.71,5.27-7.25,7.88-10.9,1-1.44,1.86-3,2.88-4.45,2.35-3.31,5-6.47,7.12-9.9a85.78,85.78,0,0,1,10.06-12.26c4.6-5,8.87-10.24,13.41-15.26,3.63-4,7.47-7.83,11.2-11.74,2.16-2.27,4.38-4.47,6.43-6.83,1.56-1.8,2.86-3.82,4.35-5.7s3.24-4,4.92-5.92c.26-.3.86-.31,1-.36-.66-2-1.37-4-2-6.11-.32-1.1-.33-2.29-.66-3.39-.9-3-.19-4.07,3.06-4.22,1.26-.05,2.53.05,3.8,0q7.37-.39,14.75-.87a2.09,2.09,0,0,0,1.33-.45c3-3.24,6.64-4.08,10.85-3.47,2.81.41,5.67.58,8.48,1,4.38.65,6.36,3.81,7.75,7.57,1.31,3.54,2.52,7.31,1.69,10.9s1.29,6,1.57,9c.56,6.08,1.88,12.1,2.33,18.19.25,3.36,1.1,6.64,1.24,9.87.23,5.11,1,10.36-.71,15.46-.72,2.17-.48,4.83-1.65,6.65-2.72,4.23-6,8.09-9.12,12.08-1.65,2.13-3.27,4.3-5.09,6.28-3.81,4.13-7.76,8.12-11.6,12.22-.84.9-1.41,2-2.17,3-2.65,3.49-5.42,6.89-7.94,10.48-1.2,1.7-1.84,3.79-2.87,5.63a43.82,43.82,0,0,1-4.1,6.7c-3.15,3.86-6.61,7.47-9.93,11.2-1.79,2-3.53,4.08-5.33,6.09a22.85,22.85,0,0,1-2.38,2.44c-2.32,2-4.77,3.8-7,5.84-2.55,2.31-4.88,4.86-7.44,7.16s-5.59,4.64-8.32,7c-6.31,5.48-12.75,10.82-18.79,16.57-6.94,6.6-14.79,12.38-19.81,20.81-1.08,1.83-2,3.75-3.15,5.54-1.58,2.52-3.28,5-4.92,7.42s-3.38,5.22-5.14,7.78c-2,2.88-4,5.71-6,8.54-3.15,4.39-6.22,8.83-9.5,13.12-3,3.92-6.29,7.61-9.34,11.49s-6,8.11-9.15,12c-2.38,2.93-5.05,5.62-7.61,8.4-4.44,4.82-8.93,9.59-13.32,14.46-3.64,4-7.13,8.22-10.78,12.25-2.19,2.41-4.54,4.67-6.82,7-3.64,3.7-7.31,7.36-10.88,11.11a2.76,2.76,0,0,0-.71,2.18,50.36,50.36,0,0,0,2.85,8.65,44.89,44.89,0,0,1,3.6,12.8c.54,3.36,2,6.73,2.85,10.05,2.09,8.27,6.11,15.63,9.36,23.37a72.23,72.23,0,0,1,4,12,6,6,0,0,1-.9,5c-6.43,8.86-12.6,17.9-18.87,26.87-1.34,1.91-2.8,3.73-4.12,5.65-.64.95-.84,2.28-1.63,3-2.39,2.21-3.73,5.07-5.49,7.68-2.12,3.13-4.84,5.84-7.27,8.76a15.8,15.8,0,0,0-1.14,1.91c-10.52,1-21,0-31.52-.18-2,.07-4.36.83-5.86,0s-1.95.36-3,.19a56.44,56.44,0,0,0-9.57-.35c-4.46,0-8.93.16-13.39.24-1,0-2.09,0-3.14,0-2.88,0-5.76.06-8.64,0a5.48,5.48,0,0,1-4.8-4.09,53.21,53.21,0,0,0-5-13.67c-1.52-2.66-2.13-5.83-3.51-8.59-2.27-4.53-4.91-8.87-7.24-13.36-2.12-4.1-4.05-8.31-6.06-12.47-1.4-2.88-2.9-5.71-4.15-8.64-1.43-3.34-2.7-6.75-3.91-10.17-1.63-4.65-3.14-9.34-4.66-14a28.63,28.63,0,0,1-.68-3.15l1-.18c-2-.38-2-1.27-1.4-2.58.19-.4-.34-1.14-.87-1.57a13.71,13.71,0,0,0-.25-1.45q-2.23-8.11-4.51-16.21c-.64-2.27-1.4-4.5-2-6.76-.76-2.8-1.36-5.65-2.19-8.43s-1.78-5.19-2.67-7.79c-1.13-3.31-2.2-6.63-3.37-9.93s-2.37-6.42-3.28-10l1.82,1.08.44-1.18-2.7-.17c-.95-3.22-2.4-6.49-2.76-9.87a15.85,15.85,0,0,1,2.72-10.13c3.18-4.93,6.81-9.58,9.95-14.54,2.93-4.63,5.52-9.49,8.16-14.3,1.49-2.72,2.8-5.53,4.15-8.32.64-1.33,1.12-2.73,1.76-4.06s1.15-3.38,2.27-3.89c1.62-.74,1.41-2.31,2.43-3.21a20.88,20.88,0,0,0,3.18-3.65c2.13-3.14,5.38-3.5,8.64-3.39,5.91.19,11.81.64,17.7,1.05,6.06.42,12.11.95,18.16,1.37,2.67.18,5.35.24,8,.28a23.88,23.88,0,0,1,4.6.43c5.32,1.24,10.85.36,16.08,1.9,3,.88,5.65,2.08,7,5.39,2.19,5.38,4.76,10.6,7.19,15.87C184,277.67,184.44,278.31,185,279.27Zm10.57,22.37c2.88-3.28,5.52-6.2,8.07-9.19q8.37-9.81,16.66-19.68c9.25-11,18.46-22,27.76-32.94,10.83-12.75,21.35-25.76,33.46-37.41,8-7.71,16.78-14.75,23.31-24,2.27-3.21,5.3-5.87,8-8.8,4-4.41,8-8.85,12.07-13.24,4.92-5.33,9.9-10.6,14.81-15.93,2.31-2.5,4.51-5.11,6.79-7.64,3.19-3.56,6.41-7.1,10.1-11.18.36,1.41,1,2.45.72,3.1a19,19,0,0,1-2.54,3.94c-2.72,3.56-5.52,7.07-8.25,10.62-3.52,4.58-7,9.19-10.53,13.75a10.67,10.67,0,0,1-3.26,2.78c-1.36.78-1.88,2.92-3,4.27-3.32,4-6.57,8.09-10.19,11.81a155.35,155.35,0,0,0-12.74,14.4,18.23,18.23,0,0,1-1.42,1.83c-4.21,4.26-8.45,8.48-12.67,12.73-5.11,5.13-10.18,10.29-15.32,15.39-2.43,2.41-5,4.71-7.46,7.07a11.33,11.33,0,0,0-.75,1c-1.67,2-3.31,4.13-5,6.14-.95,1.09-2.15,2-3,3.1-1.88,2.38-3.5,5-5.46,7.28-3.33,3.91-6.83,7.67-10.26,11.49-2.31,2.56-4.65,5.08-6.95,7.65-2.79,3.12-5.66,6.19-8.32,9.43-4,4.86-7.75,9.9-11.73,14.77-4.18,5.11-8.53,10.08-12.75,15.16-2.09,2.51-4.11,5.09-6,7.73a2.87,2.87,0,0,0-.49,2.34c2.23,5,4.75,10,6.93,15,2.25,5.25,4.23,10.61,6.3,15.93.65,1.7,1.21,3.43,1.78,5.07,4.27-4.64,8.19-9.09,12.31-13.34s8.7-8.24,12.78-12.61c5.46-5.83,10.69-11.89,15.93-17.92,2.23-2.56,4.22-5.33,6.39-7.94,2.36-2.83,4.89-5.53,7.18-8.41,1.82-2.27,3.27-4.83,5.09-7.1,3-3.67,6.15-7.14,9.1-10.81,2.25-2.8,4.07-6,6.46-8.62,5.32-5.93,9.31-12.71,13.1-19.62,3.59-6.56,7.34-13,12.4-18.53,2.25-2.47,4.67-4.81,7.11-7.1,5.2-4.86,10.4-9.72,15.72-14.44,3.5-3.11,7.21-6,10.85-8.94.9-.73,2-1.25,2.82-2,2.05-1.93,3.81-4.23,6-5.93a116,116,0,0,0,14.47-12.91c1.11-1.2,2.28-2.35,3.3-3.61,1.83-2.27,3.53-4.65,5.35-6.93,2.17-2.7,4.58-5.21,6.56-8,2.42-3.46,4.24-7.35,6.78-10.7,3.4-4.48,5.34-10,9.86-13.68.16-.12.23-.35.35-.52a13.55,13.55,0,0,1,1.55-2.27c2.25-2.2,4.71-4.19,6.83-6.5,1.37-1.48,2.1-3.55,3.44-5.07,2.44-2.77,5.28-5.19,7.66-8,3.06-3.61,6.81-6.9,6.8-12.3,0-4.7.31-9.41.23-14.11-.05-3.55-1.35-7.1.1-10.47-.34-.13-.89-.2-.93-.38a26.92,26.92,0,0,1-.56-3.23c-.69-5.54-1.36-11.09-2-16.63-.3-2.38-.6-4.77-1-7.14-.3-1.91-.71-3.8-1.06-5.7l-.8,0q-8.2,8.84-16.39,17.67c-2.56,2.78-5.05,5.61-7.59,8.4-4.11,4.51-8.3,8.94-12.33,13.52-3.65,4.15-7.08,8.5-10.68,12.7-2.36,2.76-5,5.32-7.23,8.16-3,3.74-5.67,7.71-8.58,11.5-.75,1-2,1.54-2.8,2.49-1.54,1.86-2.84,3.9-4.34,5.79-2.76,3.44-6.19,6.33-8.38,10.26a15,15,0,0,1-2.14,2.66c-1.62,1.76-3.36,3.42-4.91,5.23-2.62,3.07-5.17,6.2-7.67,9.35-1.18,1.49-2.31,1.73-3.66.29,2-3.33,3.86-6.76,6.08-9.92q9.92-14.14,20.1-28.1c2.9-4,6-7.82,9.17-11.59q8.07-9.65,16.35-19.11,5.73-6.59,11.67-13c5.48-6,11-11.85,16.56-17.75,3.76-4,7.55-8,11.31-12,1.43-1.53,1.15-2.82-.83-3.52-1-.35-2.18-.25-3.13-.67-2.85-1.24-4.77.34-6.64,1.67.81,1.55,1.52,2.9,2.43,4.62-8-.13-15.25-3-22.84-.59a27.94,27.94,0,0,0,.92,3,18.83,18.83,0,0,1,1.68,6c.25,2.56-1.12,3.54-2.45,4.88-.44.44-1,.77-1.4,1.23-1.21,1.31-2.3,2.75-3.59,4-2.5,2.39-5,4.76-7.68,7-1.5,1.23-1.12,4-3.75,4.23-.15,0-.28.43-.41.67a6.33,6.33,0,0,1-.76,1.49c-4.38,4.73-8.76,9.45-13.21,14.11-2.19,2.3-4.65,4.34-6.76,6.71-1.4,1.59-2.29,3.6-3.55,5.32-5.09,6.9-10.24,13.75-15.35,20.62-1.65,2.22-3.32,4.43-4.87,6.71-2.36,3.46-4.53,7-6.95,10.46-3.56,5-7.32,9.93-10.89,15-1.67,2.36-2.86,5.07-4.66,7.32-3.78,4.75-7.63,9.49-11.81,13.88-4.89,5.14-10.14,9.93-15.28,14.81-4.73,4.49-9.57,8.87-14.27,13.39-1.24,1.2-2,2.85-3.24,4.08-.89.9-2.19,1.38-3.18,2.21s-2.29,1.76-2.77,2.93c-1.18,2.79-3.78,3.95-5.71,5.88-4.17,4.18-8,8.75-11.78,13.26-3.09,3.65-6,7.43-9,11.16-3.58,4.47-7.23,8.9-10.68,13.47-2.41,3.19-4.42,6.68-6.8,9.9-4.07,5.52-8.43,10.82-12.39,16.41-3,4.22-5.51,8.79-8.36,13.12a2.39,2.39,0,0,0-.28,2.69c1.79,3.76,3.46,7.57,5.23,11.33A20.54,20.54,0,0,0,195.55,301.64Zm-21.64-35.5-.63,0c-1.81,3.66-3.4,7.46-5.48,11-3.57,6-7.43,11.88-11.2,17.78-2.15,3.36-4.47,6.62-6.51,10-1.56,2.61-2.72,5.45-4.19,8.12-2.06,3.72-4.25,7.36-6.32,11.07a4,4,0,0,0-.64,2.27,21,21,0,0,0,1.17,4c1.52,4.2,3.17,8.36,4.63,12.58,2.47,7.12,5,14.22,7.22,21.42,1.8,5.81,3,11.81,4.86,17.6,1.79,5.57,4,11,6.2,16.44a103.27,103.27,0,0,0,5,10.25c3.26,6,6.94,11.75,10,17.85,2.76,5.55,5,11.39,7.25,17.16,1.19,3,1.95,6.11,3.09,9.1q3,8,6.36,15.84c.32.75,1.31,1.7,2,1.7a3.83,3.83,0,0,0,2.84-1.28q6.78-10.07,13.27-20.32c2.28-3.57,4.24-7.35,6.56-10.9s5.17-7.09,7.52-10.79a73.22,73.22,0,0,0,4-8c.16-.35-.09-.95-.27-1.38-2.37-5.54-5-11-7.08-16.64s-3.93-11.54-5.7-17.37c-1.37-4.5-2.44-9.09-3.72-13.62-1.54-5.51-3-11-4.79-16.46-2.4-7.33-5-14.58-7.63-21.82-.91-2.51-2.16-4.9-3.26-7.34-2.33-5.18-4.59-10.4-7-15.53-3.06-6.48-6.34-12.86-9.39-19.35a116.48,116.48,0,0,1-5.47-12.77C175.42,273.3,172.67,270.26,173.91,266.14ZM151.52,386.75c-.61-.74-1.46-1.35-1.69-2.14-1-3.42-1.34-7-2.7-10.39-1.44-3.61-2.23-7.49-3.79-11s-1.23-7.5-3.5-10.69c-.15-.21-.06-.57-.15-.83-1.25-3.75-2.45-7.52-3.79-11.24-1.2-3.32-2.48-6.62-3.89-9.85-.68-1.58-.83-3.68-3.23-4-4.88-.65-9.75-1.32-14.61-2.1-4.34-.69-8.64-1.61-13-2.27-3.49-.53-7-.71-10.53-1.27-2.86-.46-5.64-1.35-8.49-1.86a63.77,63.77,0,0,0-9.3-1.19c-1,0-3.16-.35-3.26,1.56a17.65,17.65,0,0,0,.76,5.37c.49,1.81,1.33,3.52,2,5.28,1.65,4.36,3.25,8.73,4.93,13.06,1.27,3.26,2.95,6.39,3.89,9.74,2.77,9.9,5.27,19.88,7.89,29.83.44,1.67.89,3.33,1.38,5,.33,1.12.82,2.2,1.1,3.33a82.31,82.31,0,0,0,1.91,8c2.24,6.19,4.58,12.35,7.19,18.39,2.33,5.37,5,10.58,7.64,15.84.71,1.45,1.68,2.77,2.37,4.24,1.77,3.77,3.22,7.69,5.46,11.25,1.36,2.16,2.29,4.58,3.59,6.78a60.08,60.08,0,0,1,6.82,15,2.28,2.28,0,0,0,1.62,1.23c4.31.48,8.63.91,13,1.2a20.74,20.74,0,0,0,4.78-.3c3.1-.53,6.19,1.78,9.29,0,.1-.06.34.14.52.18,1,.21,2.27.9,2.94.52,2.79-1.59,5.53,1.1,8.27-.15.39-.18,1.19.77,1.8.76,2.63,0,5.26-.38,7.89-.35,3.92.05,7.84.32,11.9.5a4.09,4.09,0,0,0-.17-1c-1.62-3.54-3.31-7.06-4.86-10.63a5.21,5.21,0,0,1,0-2.11,10.28,10.28,0,0,1-1.32-1.5,10.48,10.48,0,0,1-.61-1.79c-1.64-4.68-3.58-9.27-4.87-14.05-1.58-5.87-4.42-11.12-7.16-16.43-2.39-4.63-5-9.13-7.52-13.71-.34-.63-.23-1.5-.58-2.12-1.36-2.38-3.06-4.6-4.2-7.08-2.17-4.75-4.06-9.64-6-14.49-.15-.37.07-.89,0-1.33a6.46,6.46,0,0,0-.34-1.12ZM71.93,311.93a5.67,5.67,0,0,1,1.71-.6,89.14,89.14,0,0,1,9.11.63c5.44.82,10.84,1.92,16.26,2.89,6.77,1.21,13.61,2.13,20.3,3.7a40.94,40.94,0,0,0,12.6,1.06,4.39,4.39,0,0,0,4.06-2.38c3.89-7,8-13.85,12.08-20.7s8.59-13.91,12.84-20.89c1.79-2.92,3.59-5.85,5.08-8.93.48-1,.46-3-.2-3.6a9.66,9.66,0,0,0-4.6-2c-2.79-.52-5.65-.63-8.49-.92-1.49-.16-3-.39-4.47-.47-2.9-.15-5.81-.14-8.71-.35-8.16-.58-16.32-1.27-24.49-1.86-3.06-.22-6.18-.67-9.19-.31a12.51,12.51,0,0,0-6.34,2.66,24.45,24.45,0,0,0-5.25,6.71c-2.7,4.86-4.91,10-7.52,14.89-1.47,2.78-3.41,5.29-5,8-2.79,4.89-5.46,9.85-8.17,14.78C72.24,306.66,70.14,308.91,71.93,311.93Zm8.87-28.07a15.41,15.41,0,0,1,.18,1.79,8.66,8.66,0,0,1-.2,1.31l.62.12,1.06-3.55Z" transform="translate(-61.64 -20.05)"/><path class="cls-1" d="M150.11,408.86l-.75.35c.07.14.14.36.17.35,1.68-.22,1.07,1.16,1.21,1.85,1,4.67,2.18,9.43,1.06,14.14-1.45,6.14-3.94,9-11.11,9.86a15.08,15.08,0,0,1-6.75-.27c-.54-.18-1.37.68-2,.58-2.35-.38-4.89-.51-7-1.55-4.2-2.11-8.34-4.6-10.91-8.75-3.23-5.23-6.82-10.36-9.17-16-2.19-5.22-3.08-11-4.29-16.6a23.63,23.63,0,0,1-.73-8.24,14.15,14.15,0,0,1,4.66-8.88c2.22-1.89,4.18-4.13,6.56-5.77a11.11,11.11,0,0,1,12.82-.15c5,3.2,10.18,6.44,13.78,11.37,2.75,3.76,5.63,7.54,7.63,11.7,1.81,3.75,2.5,8,3.68,12.1C149.39,406.24,149.74,407.53,150.11,408.86Zm-33.7,7c4.3-.86,7.62-3.32,11.74-4,3.17-.56,6.1-2.48,9.14-3.79,1.16-.5,2.83-.68,3.36-1.55s-.16-2.4-.24-3.65c-.39-6.33-3-11.62-7.18-16.33-1.29-1.47-2.41-1.2-3.85-.4a25.09,25.09,0,0,1-3.92,1.67c-3,1-6.07,1.87-9.06,2.93-2.74,1-5.45,2.05-8.09,3.26a2.34,2.34,0,0,0-.83,2,70.08,70.08,0,0,0,1.8,8.52C110.64,409,113.55,412.58,116.41,415.85Z" transform="translate(-61.64 -20.05)"/><path class="cls-1" d="M139.22,404c-4.88,1.82-9.51,3.53-14.14,5.27-2.66,1-5.26,2.23-8,3a3.16,3.16,0,0,1-2.69-1.48c-1.64-3.82-2.94-7.79-4.45-11.66-.51-1.31-.55-1.71,1.09-2.34,5-1.9,9.81-4.27,14.69-6.46.39-.17.77-.36,1.17-.5,5.73-2,6.14-1.91,8.79,3.62a73.65,73.65,0,0,1,2.9,7A19.81,19.81,0,0,1,139.22,404Zm-7.08-4.21a17.55,17.55,0,0,0-1.56-2.84c-.46-.56-1.38-1.35-1.81-1.2-3.56,1.21-7.06,2.61-10.56,4a1.49,1.49,0,0,0-.67,2.44c.62.94.4,3.09,2.48,2.32,3-1.09,5.85-2.39,8.78-3.56C129.87,400.54,131,400.21,132.14,399.82Z" transform="translate(-61.64 -20.05)"/></svg>