<svg id="Layer_1" data-name="Layer 1" xmlns="http://www.w3.org/2000/svg" viewBox="0 0 440.94 102.42"><defs><style>.cls-1{fill:#efefef;}</style></defs><title>11. марля</title><path class="cls-1" d="M37.22,204.69c-.8-4.71-2.82-8.95-3.43-13.69a107.32,107.32,0,0,1,13.74-3.49c2.22-.45,4.43-1,6.66-1.41a70.9,70.9,0,0,1,12.57-1.7,26.67,26.67,0,0,0,3.72-.6c1-.18,2.11-.4,3.17-.5,2.77-.26,5.59-.26,8.31-.76,2.36-.45,4.74-.7,7.11-1A87.25,87.25,0,0,1,104.4,181a64.25,64.25,0,0,1,14.38,2.27c4.4,1.14,8.82,2.25,13.27,3.17,3.46.71,7,1.12,10.48,1.64,2.55.38,5.12.67,7.67,1.08a69.16,69.16,0,0,0,13.79.58q5.1-.23,10.2-.53c2.27-.14,4.55-.27,6.8-.56,1.15-.15,2.2-.74,3.4-.06.35.19,1-.09,1.48-.18,7.55-1.27,15.09-2.63,22.66-3.78a96.61,96.61,0,0,1,17.41-1.39c3.46.11,6.94-.23,10.41-.35.76,0,1.52.08,2.28.09,1.57,0,3.15,0,4.72,0s3.29.07,4.94.15c3.47.17,7,.26,10.42.55,5.14.44,10.28,1,15.41,1.53,6.8.76,13.59,1.61,20.39,2.42a3.75,3.75,0,0,0,1.31.12c2.05-.54,4,0,6,.31s3.8.24,5.66.57c3.36.61,6.74.93,10.12,1.24a103,103,0,0,0,18.17.32c3.12-.28,6.3,0,9.45,0a20.26,20.26,0,0,0,5.2-.3,13.72,13.72,0,0,1,4.34-.33A69.8,69.8,0,0,0,365,189c5.18-.44,10.34-.92,15.51-1.46,4-.42,7.94-1,11.92-1.43,2.58-.27,5.18-.36,7.77-.51,4.73-.28,9.46-.66,14.2-.8,5.92-.18,11.84-.14,17.75-.21.95,0,1.9-.18,2.83-.11,3.59.29,7.21.17,10.74,1.15a28.21,28.21,0,0,0,3.35.27c2.1.3,4.18.7,6.27,1,1.21.2,2.43.37,3.64.55,2.12.32,4.24.6,6.35,1,2.41.43,4.8,1,7.47,1.5-.82,4.38-1.62,8.63-2.46,13.09-1.39-.07-2.65,0-3.88-.2-3.25-.42-6.48-.94-9.73-1.37-.88-.11-1.79.49-2.65-.39-.64-.66-1.75.15-2.61-.5a2.17,2.17,0,0,0-1.77,0c-2.23.91-4.3-.34-6.46-.32-2.84,0-5.62-1-8.5-.41a7.73,7.73,0,0,1-1.51-.06c-6.34-.15-12.69-.55-19-.37-5.56.17-11.11,1-16.66,1.52l-18.94,1.78c-7.58.71-15.15,1.45-22.73,2.11-5.24.45-10.49.9-15.74,1.14-2.82.13-5.66-.23-8.5-.34-1.26-.05-2.52,0-3.78-.05-3.54-.13-7.08-.29-10.62-.41-1.32,0-2.65,0-4-.06-4.72-.39-9.43-.84-14.15-1.28-.85-.08-1.7-.23-2.75-.37,0,1.07,0,1.94,0,2.81L298,253.81c0,.76.05,1.52.1,2.28.11,1.72.94,2.5,2.72,2.52l36.91.44c1.45,0,2.91,0,4.37.06.45,0,1.15-.33,1.16.59.37,0,.86.1,1.08-.09a2.77,2.77,0,0,1,2.16-.48c7.17.34,14.28-.68,21.42-1,4.62-.23,9.24-.34,13.87-.5,4.19-.15,8.31.61,12.46.94a149.34,149.34,0,0,1,15.93,2.28c3.24.61,6.52.48,9.76.9,2.76.35,5.54.52,8.3.86a39.93,39.93,0,0,0,7,.37c5.49-.27,11-.43,16.49-.57,3.6-.09,7.21,0,10.82-.09,1.39,0,2.78-.17,4.17-.25,1.64-.11,2.57.48,2.79,2.09.38,2.82.65,5.66.88,8.49.11,1.32-.19,1.69-1.47,2a14.55,14.55,0,0,1-2.78.47c-4.17.31-8.34.59-12.51.87-.62,0-1.25,0-1.87,0-8,.09-16.07.27-24.11.22a52.81,52.81,0,0,1-9-.5c-2.4-.44-4.88-.37-7.31-.65-3.39-.39-6.77-.9-10.16-1.33-1.31-.17-2.65-.21-4-.4-3.25-.49-6.47-1.27-9.73-1.5-4.4-.3-8.79-.91-13.26-.39-4,.47-8.09.44-12.14.62-4.37.21-8.73.51-13.1.59-4.87.09-9.73,0-14.6,0-1.45,0-2.91,0-4.36.08a51.93,51.93,0,0,1-10.79-.59c-1.24-.19-2.45-.55-3.68-.74a10.85,10.85,0,0,0-1.89,0c-1.44,0-2.89.07-4.33,0-4.17-.16-8.34-.36-12.51-.53a1.94,1.94,0,0,0-.93.13c-2.71,1.32-5.69,1.09-8.55,1.46a111.06,111.06,0,0,1-11.68.83,22.65,22.65,0,0,0-4.28.4,9.68,9.68,0,0,1-2.08,0c-.87,0-1.75.07-2.63.05-2.86,0-5.67,1.07-8.56.44a1.45,1.45,0,0,0-.55,0A139.08,139.08,0,0,1,239,275c-5.06,0-10.13.43-15.19.56-5.7.15-11.4.21-17.1.24-6.84.05-13.68-.07-20.52.09-2.28.05-4.43-.72-6.72-.56s-4.44-.1-6.66-.15c-3.86-.09-7.73-.13-11.6-.24-1.3,0-2.62.19-3.87-.55-.41-.25-1.1-.07-1.65,0a26,26,0,0,1-4.11.27,68.76,68.76,0,0,0-8.12-.11c-2.46.06-4.93-.13-7.4-.19a88.27,88.27,0,0,0-20,1.92c-2.6.55-5.23,1-7.82,1.55s-5.24,1.46-7.91,1.93c-4.48.8-8.84,2.15-13.43,2.44-4.21.27-8.42.57-12.62,1-6.62.6-13.17-.23-19.74-.59s-13.41-.92-20.12-1.37C32,281,31.58,280.43,32,278c.5-2.67,1-5.34,1.49-8a15.74,15.74,0,0,0,.11-2.05c4.52,0,9-.13,13.46,0,5.93.21,11.86.8,17.79.93A125.2,125.2,0,0,0,87.55,267c8.38-1.36,16.66-3.15,25-4.81a112.13,112.13,0,0,1,21.85-2.11c7.45,0,14.91.05,22.36.22,4.61.11,9.2.54,13.8.73,2.73.11,5.47,0,8,0a5.8,5.8,0,0,0,1.25-3.92c.27-7.29.55-14.58.89-21.87.11-2.21.69-4.42.57-6.61-.26-5.26.47-10.47.57-15.7,0-2.15.24-4.3.37-6.44a3.25,3.25,0,0,0-1-3,68.11,68.11,0,0,0-12.11.4c-2.9.3-5.8.47-8.7.69-.82.07-1.65.2-2.47.19-1.05,0-2.11-.14-3.17-.2-1.51-.08-3-.14-4.55-.2-.44,0-1,.15-1.32,0-1.85-.79-3.82-.12-5.69-.56s-3.81-.92-5.74-1.29c-1.16-.23-2.35-.25-3.52-.45-3-.5-5.95-1-8.92-1.58-1.54-.31-3.07-.75-4.59-1.18a40.46,40.46,0,0,0-8.43-1.8,16.13,16.13,0,0,1-2.2-.56,51,51,0,0,0-16.21-.63c-2.77.31-5.56.44-8.34.65L69,198.3c-1.83.15-3.67.28-5.5.46a85.47,85.47,0,0,0-20,4.17C41.51,203.62,39.47,204.07,37.22,204.69ZM469,193.54a6.59,6.59,0,0,0-3.57-1.72,45.87,45.87,0,0,0-9.57-.93c-1.27.06-2.63.32-3.67-.87-.23-.26-.84-.2-1.28-.26-1.06-.14-2.14-.2-3.2-.4-2.47-.46-5-.31-7.48-.64a61.93,61.93,0,0,0-8.29-.06c-.63,0-1.26.07-1.89,0-2.07-.12-4.13-.31-6.2-.41-2.41-.1-4.82-.14-7.22-.2-.92,0-1.85-.09-2.76,0-2.27.16-4.53.48-6.79.55a66.45,66.45,0,0,0-8.69.62,47.44,47.44,0,0,1-4.92.33c-.63,0-1.26,0-1.88.07q-7.08.76-14.15,1.58c-2.51.29-5.05.5-7.52,1s-5.22-.3-7.67.93a3.22,3.22,0,0,1-1.13.06c-3.47.19-6.94.41-10.41.56a41.21,41.21,0,0,1-7,.1c-2.93-.38-5.82,0-8.72-.09-6.71-.12-13.41-.41-20.11-.65-2-.07-3.93-.09-5.86-.35-2.75-.38-5.46-1-8.2-1.43-1.54-.23-3.11-.24-4.63-.35-.37,1.76-.42,1.66-1.93,2.32a24.31,24.31,0,0,0-3.12,2l3.71,5.1c1.07,0,2-.06,3,0,5.36.4,10.71.84,16.07,1.26l10.59.81a5.48,5.48,0,0,0,.57-.05l12.88-.07c.25,0,.5.1.75.1,2.34,0,4.67,0,7,0,.81,0,1.62-.21,2.44-.25,4.3-.22,8.62-.24,12.9-.64,7.5-.7,15-1.64,22.45-2.48l8.44-.93a17.35,17.35,0,0,0,4.12-.48,13.67,13.67,0,0,1,4.27-.65c1.95-.11,3.9-.2,5.84-.33.87-.06,1.73-.26,2.6-.31,2.26-.13,4.52-.18,6.78-.31,2.78-.16,5.55-.52,8.33-.52,4.49,0,9,.2,13.48.34a38.39,38.39,0,0,1,5.69.31c1.84.35,3.68.61,5.53.84,4.76.6,9.55.87,14.27,1.79a45.62,45.62,0,0,0,5,.44C468.27,197.2,468.65,195.35,469,193.54ZM446.9,273.46a11.24,11.24,0,0,1,2.73-.66,54,54,0,0,0,6-.25c3.87-.36,7.78-.4,11.67-1.59.3-1.78-.61-3.34-.88-5.2-2.3.15-4.37.4-6.45.41q-7.6.06-15.2-.07c-2.52,0-5,.23-7.54.26-5,0-9.94-.28-14.9-.56-1.86-.11-3.7-.54-5.56-.8-2.79-.39-5.6-.69-8.39-1.15a141.81,141.81,0,0,0-15.78-2.16c-2.26-.12-4.5-.52-6.76-.7a55.91,55.91,0,0,1-5.62-.33,20.27,20.27,0,0,0-4,.1c-1.3,0-2.61,0-3.91,0-2.37.07-4.73.17-7.1.28a12.17,12.17,0,0,0-2.64.18c-2,.55-4.14.12-6.14.79a.7.7,0,0,1-.55-.06c-1.23-.78-2.5-.24-3.62.12a9.16,9.16,0,0,1-3.71.27,39.69,39.69,0,0,0-5.45-.09,10.89,10.89,0,0,1-4.1-.1c-2.1-.64-4.29-.19-6.44-.19a72,72,0,0,1-8.31-.26,28.64,28.64,0,0,0-3.92-.23,9.64,9.64,0,0,1-3.92-.26,6.1,6.1,0,0,0-2.05,0c-2.71,0-5.44.09-8.14-.13a39.4,39.4,0,0,0-5.85-.08,1.69,1.69,0,0,0-1,.3c-.91,1-1.79.52-2.67-.05L294,263.76a23.51,23.51,0,0,1,2,2.21,3.83,3.83,0,0,0,2.55,1.44,16,16,0,0,0,3.38.37c4.5,0,8.95.83,13.45.71a3.62,3.62,0,0,1,.57,0c3.2.26,6.39.63,9.59.77s6.57.07,9.85.11c3.11,0,6.22.14,9.32.16,2.58,0,5.16-.07,7.73-.11,1.87,0,3.73,0,5.59-.05,3.4-.15,6.81-.31,10.21-.6,3.08-.27,6.15-.75,9.23-1.06a36.77,36.77,0,0,1,3.93-.11c.57,0,1.12.22,1.68.28,2.75.29,5.51.49,8.25.85,3.06.42,6.11,1,9.16,1.47,1.18.18,2.37.36,3.57.46,2.83.22,5.67.36,8.51.59,2,.17,4,.47,6,.67,3.08.32,6.17.62,9.25.87a16.34,16.34,0,0,1,3,0c2.19.61,4.39.34,6.58.3,2.39,0,4.81.43,7.17-.33a2.37,2.37,0,0,1,1.32,0A4.43,4.43,0,0,1,446.9,273.46ZM34.69,277.87a27,27,0,0,0,2.91.69c3.52.35,7,.75,10.56.93,4.35.21,8.71.29,13.07.27,5.56,0,11.13.53,16.69-.12,4.14-.48,8.35-.58,12.44-1.34,5.75-1.07,11.57-1.82,17.19-3.57a52.76,52.76,0,0,1,6.85-1.45,84.51,84.51,0,0,1,13.55-1.7c3.1,0,6.19-.17,9.29-.18,6.58,0,13.16,0,19.74.05,1.9,0,3.79,0,5.69,0,4.86.16,9.74-.19,14.6.41,1.54.19,3,.12,3.9-1.53a8.33,8.33,0,0,1,1.58-1.62l2.16-2.11a20.16,20.16,0,0,1-1.79-1.7,2.53,2.53,0,0,0-2.49-.92c-1.69.13-3.4.1-5.11.08-2.34,0-4.67-.19-7-.21s-4.93.26-7.35,0a63.85,63.85,0,0,0-7.31-.42c-1.51,0-3-.15-4.54-.19s-2.9.1-4.35,0a51.11,51.11,0,0,0-9.42-.1c-1.44.16-2.93-.12-4.36.09-3.94.55-7.93.48-11.85,1.4-4.36,1-8.84,1.47-13.25,2.31s-9,1.94-13.55,2.85c-1.49.3-3.06.24-4.5.64A49.38,49.38,0,0,1,77.17,272c-4.61.22-9.24.23-13.86.29-1.59,0-3.17,0-4.75-.13q-6.83-.39-13.65-.87c-2.94-.21-5.87-.49-9-.76ZM39,200.12a21.38,21.38,0,0,0,2.56-.31c3.51-.86,7-1.89,10.51-2.64,3.76-.8,7.49-1.8,11.38-1.87,2.41,0,4.82,0,7.21-.23,6.43-.53,12.86-1.17,19.29-1.74a36.94,36.94,0,0,0,4.35-.27,39,39,0,0,1,10.57-.26,64.9,64.9,0,0,1,9.3,1.7c2.16.45,4.27,1.16,6.43,1.6,4.51.93,9,1.78,13.55,2.63,2.05.39,4.11.77,6.17,1.07,2.62.38,5.25.81,7.89,1,3.46.22,6.94.19,10.42.27.38,0,.76,0,1.14-.06,4.85-.35,9.7-.79,14.56-1,2.94-.14,5.91-1,8.86,0a1.28,1.28,0,0,0,1.06-.21,21.22,21.22,0,0,0,4.35-4.92c-1.08-1-2.06-2-3.12-2.89a2.67,2.67,0,0,0-1.51-.6,31.63,31.63,0,0,0-3.77.2c-2.45.26-4.89.63-7.34.84s-4.58,1-6.93.44c-1.57.86-3.21.33-4.84.28-3.91-.1-7.86.18-11.68-1-.11,0-.25,0-.37,0-2.88-.33-5.75-.64-8.62-1-1-.13-2.11-.75-3-.49-1.89.6-3.62-.77-5.43-.14-4.09-1-8.24-1.85-12.26-3.11a60.77,60.77,0,0,0-11.85-2.48c-.77-.08-1.54-.14-2.39-.21l.43-.75a8.24,8.24,0,0,1-4.57.61c-.56-.09-1.13-.15-1.7-.2-3.39-.32-6.66.53-10,1-3.57.51-7.14.95-10.72,1.36-2.83.33-5.66.56-8.49.88s-5.52.68-8.27,1-5.41.66-8.08,1.15S48.6,191,45.85,191.7c-2.16.59-4.26,1.41-6.38,2.16a14,14,0,0,0-1.6.78Zm152.32-5.07c1.52,1.65,2.76,3.33,5.22,2.37a2.64,2.64,0,0,1,.75,0c2.46-.21,4.91-.44,7.36-.63,4.48-.37,9-.69,13.44-1.07,4.28-.36,8.56-.77,12.84-1.14a21.14,21.14,0,0,1,2.25-.07c1.94,0,3.89.08,5.84.09,4.43,0,8.87-.14,13.29.07,5.67.26,11.33.79,17,1.23,5.46.43,10.92.89,16.34,1.33l2.48-2.16c-1.07-1.44-1.76-3-3.42-3.6.23-1.73.25-1.85-1.4-2.1-2.68-.39-5.38-.67-8.07-.89q-8.79-.74-17.59-1.36c-4.74-.34-9.47-.72-14.21-.85-4.23-.13-8.47,0-12.71.1-2.84,0-5.69.15-8.53.24-1.07,0-2.13.09-3.19.18-3.34.28-6.69.5-10,.91s-6.46,1-9.68,1.55a3.78,3.78,0,0,1-1,0,2.3,2.3,0,0,0-2.06.71c-.84.92-1.78,1.75-2.65,2.64S192.14,194.19,191.33,195.05Zm-3.42,71.38a5.25,5.25,0,0,0,.61.92,25.77,25.77,0,0,1,3.46,3.47c1.21,1.81,2.8,1.75,4.58,1.67,3.29-.13,6.58-.18,9.87-.25,6.39-.12,12.78-.21,19.17-.35,1.83,0,3.66-.23,5.49-.26,3.22-.06,6.44,0,9.65-.09,3.69-.14,7.38-.5,11.07-.67,6.82-.33,13.65-.57,20.47-.89,3.73-.17,7.45-.49,11.17-.62,1.58-.05,2.88-.33,3.64-1.86a.73.73,0,0,1,.42-.37c1.67-.48,2.23-2.11,3.55-3.08a14,14,0,0,0-2-2.05,4.81,4.81,0,0,0-2.57-1c-2.39.12-4.78.51-7.16.83-1.11.15-2.22.48-3.34.54-2.74.14-5.5.09-8.24.26-4.17.26-8.32.67-12.49.95-3.19.22-6.39.32-9.58.51s-6.41.45-9.61.67c-.5,0-1,.08-1.52.07-2.19,0-4.39-.09-6.59-.05-1.45,0-2.89.28-4.34.32-6.09.15-12.17-.09-18.24-.47-4.21-.26-8.43-.42-12.64-.66A4.79,4.79,0,0,0,187.91,266.43Zm-1.59-.93a19.78,19.78,0,0,0,2.07-1.87,3,3,0,0,0,.75-1.65c.12-2.78.09-5.56.18-8.33.1-3.23.16-6.46.43-9.68.49-5.78.71-11.57,1.17-17.35.29-3.59.43-7.2.61-10.81a2.58,2.58,0,0,0-.15-1.46,4.59,4.59,0,0,1-.33-4.36c.88-2.33.76-4.69,1-7.05a3.23,3.23,0,0,0-.13-1.85,2.08,2.08,0,0,1,.08-2.37l-2.1-2.24c-1,1-2.3,1.76-2.67,2.88a3.6,3.6,0,0,1-1.67,2c0,3.33,0,6.49,0,9.65,0,1.7-.09,3.41-.22,5.11-.28,3.67-.63,7.32-.92,11-.3,4-.5,8-.86,12a57.92,57.92,0,0,0-.3,6.72c.08,3-.37,5.94-.25,8.89a41.7,41.7,0,0,1-.16,7,1.17,1.17,0,0,0,.37.8C184.17,263.51,185.18,264.44,186.32,265.5Zm103.2-68.58a7.59,7.59,0,0,1-1.44,1c-1.23.5-1.42,1.5-1.43,2.63,0,1.32,0,2.65,0,4,.08,2.84.17,5.69.28,8.53.06,1.55-.41,3.2.81,4.55a.87.87,0,0,1,.11.54,22.48,22.48,0,0,1-.16,5.07,17.81,17.81,0,0,0-.19,5.59c.24,4.17.32,8.35.49,12.52,0,1,.1,2,.21,3,.49,4.58,1.15,9.15,1.45,13.74.14,2.13,1.49,3,2.84,4.25l3.62-4a41.24,41.24,0,0,1-.83-5.3c-.15-4.61-.1-9.23-.15-13.84a16,16,0,0,0-.1-1.7c-.17-1.5-.42-3-.51-4.51-.26-4-.47-8.07-.67-12.11-.22-4.42-.44-8.84-.6-13.26a28.33,28.33,0,0,1,.21-3.79c.2-2,.23-2-1.7-2.61-.11,0-.18-.16-.33-.3C292,199,290.7,198.08,289.52,196.92Zm-31.68,29.15c-2.35.08-4.49.14-6.62.25a32.71,32.71,0,0,0-3.57.37c-1.6.27-2,.87-1.64,2.49.42,2.18.81,4.36,1.23,6.53.15.79.36,1.56.48,2h9.7C258.2,233.73,257.69,229.9,257.84,226.07Zm-45.7-10.17h13.53a37.24,37.24,0,0,0-3.39-9c-3.61,0-7.16-.06-10.7,0a11.14,11.14,0,0,0-2.75.76C210,210.57,211.06,213.21,212.14,215.9Zm60.67,7.35c3.05,0,6.08,0,9.12,0a3.16,3.16,0,0,0,1.44-.42c.34-.19.78-.62.77-.93-.07-2.26-.2-4.53-.41-6.79-.1-1-1.07-1.47-1.87-1.67-1.93-.5-3.92-.79-5.79-1.14-2.86,2.53-2.86,2.53-5.92,3.16Zm11.52,2.23-8,.07h-3c.74,3.59,1.42,6.9,2.11,10.27l9.33-1.21c-.11-1.68-.21-3.19-.31-4.69S284.71,226.81,284.33,225.48ZM241,216.62l-11.34,2,3,7.6c3.39-.35,6.76-.23,9.92-1.5A19.56,19.56,0,0,0,241,216.62Zm15.9,34.61a68.66,68.66,0,0,0,16.72.87c-.37-.95-.46-1.84-.94-2.29a15,15,0,0,0-3.93-2.88,22.12,22.12,0,0,0-10.52-2C257.82,247.07,257.38,249.15,256.94,251.23Zm-53.9-7.7c-.42,2.31-.84,4.55-1.24,6.78-.26,1.45,0,1.9,1.48,1.85a14.3,14.3,0,0,1,4.82.9,12.28,12.28,0,0,0,1.93.31,37,37,0,0,0,3.77-8.58,43.64,43.64,0,0,1-5.55-.85A14.6,14.6,0,0,0,203,243.53Zm-.42-9.65a19.21,19.21,0,0,0-9.54-2.58c-.14,3.48-.27,7-.41,10.45,3.19.66,5.9-.62,8.57-.75C201.71,238.55,202.16,236.27,202.62,233.88ZM260,237.71c2.95,0,6.08.28,9.32-.59l-3.81-11.05H260Zm-2.32-14v-8.09c-3.17.16-6.24-.39-9.46.61-.46,2.62-.93,5.32-1.41,8.05,1.92-.07,3.66-.13,5.4-.22S255.86,223.79,257.72,223.67ZM273,198.6h-8.21c1,3.39,1.87,6.59,2.82,9.79a1.2,1.2,0,0,0,.77.69c2,.23,3.94.8,5.88.35C275.05,205.62,274,202.14,273,198.6Zm-51,63.69v-6.58H211.62c-.65,1-1.28,1.86-1.84,2.77-.94,1.54,0,3.75,1.63,3.79C215,262.33,218.49,262.29,222,262.29Zm19.36-23.72c1.27-4.23,2.11-10,1.66-11.46-1.52.35-3,.73-4.58,1s-3.27-.34-5,.61c1.59,2.67,1.74,5.55,1.63,8.55Zm-35.65-38.44c.86,1.73,1.72,3.44,2.62,5.24,4.19-1.52,8.61-.31,13.06-.92-.48-2.17-.3-4.46-2.45-6.06-.94.1-2,.27-3.06.33-2.54.13-5,1.3-7.62.36-.08,0-.21.12-.33.17ZM277,210.2c2.32-.22,4.37,1.51,6.88.68,0-.58,0-1.14,0-1.7-.13-2.71-.26-5.43-.4-8.14a1.24,1.24,0,0,0-1.47-1.32c-.94,0-1.89,0-2.84-.08l-4.08-.18C277.72,202.85,276.27,206.58,277,210.2Zm-35.65-5.15,8.42.78c.48-2.86,2.18-5.12,2-7.89-.06,0-.11-.08-.17-.08-3.08-.11-6.17-.23-9.25-.32-.7,0-1,.47-1,1.12C241.29,200.68,241.3,202.69,241.3,205.05Zm-15.51,13.33H213.21l3.43,7.73h5.16C222.82,223.51,224.86,221.33,225.79,218.38Zm-22.86-9.73L194.1,211a3,3,0,0,0,.49,2.88,25.45,25.45,0,0,0,5.53,5.09c.3.23,1,.11,1.42,0a7.42,7.42,0,0,0,1.39-.88Zm20.21,20c-.56,1.5-1.12,3-1.72,4.59a48.61,48.61,0,0,0,11.13,3.34c.65-3-.59-5.44-1.54-7.93Zm16,33.5c1.73,0,3.26.3,4.59-.09a15.76,15.76,0,0,1,3.51-.52c.87-.05,1.73-.19,2.83-.32-.56-2.2-1.06-4.19-1.63-6.45-2.71.75-5.63.07-8.16.83C239.82,257.91,239.48,259.88,239.09,262.15ZM205.4,228v5c1.39.55,2.75,1,4.07,1.62a10.52,10.52,0,0,1,1.75,1.07,14.54,14.54,0,0,0,5.54,2.77c.18-.36.35-.62.46-.9,1-2.31.66-3-1.47-4.3q-3.93-2.3-7.75-4.79A3.15,3.15,0,0,0,205.4,228Zm2.18,34.93c-.12-1.15-.22-2.39-.38-3.61-.21-1.48,1.11-2.29,1.54-3.46a15.4,15.4,0,0,0-7.54-1.43,43.51,43.51,0,0,0-1.67,8.5Zm30.69-9.55c.85-4.24,1.67-8.32,2.49-12.44h-5.53c-.34,3.57-.68,7-1,10.45-.13,1.41.39,2,1.81,2C236.69,253.36,237.32,253.34,238.27,253.34Zm10.07-.77c-.22-1-.38-1.81-.56-2.6-.45-2-1-3.93-1.33-5.92s-.88-2.59-3.56-2.75c0,3.94-2,7.54-1.9,11.79Zm-56.12-.82c-.17,3.41-.33,6.61-.49,9.85l5.21.49c.62-3,1.67-5.92,1.93-9ZM239,206.89c-.53,0-1,0-1.41,0-2.17,0-2.44.18-3.32,2.31a5.28,5.28,0,0,1-.56,1c-1,1.51-2.09,3-3.11,4.53a6.55,6.55,0,0,0-.46,1.28c3.66,0,6.88-1.16,10.36-1.74C240,211.8,239.48,209.46,239,206.89Zm-36-6.56c-2.63.26-5.19.47-7.73.8a1.4,1.4,0,0,0-.85,1c-.09,2,0,4,0,6.32,2.87-.67,5.76-1.44,8.62-2.4Zm51,60.57,9.81-.33c0-2.15.34-4.08-.31-6.1l-6.86-.82C255.65,256.15,254.83,258.39,253.92,260.9Zm32.55-10-.86-6.28c-1.94.18-3.75.45-5.57.48-3.77.08-3.77,0-3.48,3.87,0,.12.1.23.26.54C279.76,250.87,282.86,252.05,286.47,250.87Zm-54.39,2.42L229,248a1,1,0,0,0-.27-.26c-1.37-1-2.71-2-4.11-2.94-.64-.42-1.34-1.45-2.1-.71-.45.43-.29,1.49-.39,2.28a1,1,0,0,0,.07.37c.55,2.18,1.11,4.35,1.67,6.57Zm16.55-10.8c0,3.6,1.48,6.52,2,9.82l3.72-.7a49.53,49.53,0,0,0,1.56-7.81Zm-32.18,2.15-3.46,8.6h8.37c-.64-2.94-1.26-5.74-1.89-8.6Zm-11.73-9.39c-.26,2-1.3,3.78-.86,5.59,1.91.37,3.61.78,5.33,1,1.91.26,3.84.37,5.79.55l.71-1.63c-.95-.48-1.8-.85-2.6-1.3C210.43,238,208,236.09,204.72,235.25Zm61.52,19.31v5.68a72.27,72.27,0,0,0,9.23-.81c-.65-1.8-1.22-3.36-1.78-4.87ZM285.12,237a7.09,7.09,0,0,0-2.31.18,8.61,8.61,0,0,1-4.27.59,3,3,0,0,0-2.75,1.14l.82,4c3-.22,5.94.44,8.75-1.28C285.29,240.19,285.21,238.7,285.12,237Zm-85.79,13.87c.49-2.59.91-4.87,1.35-7.22l-8.3.87c0,1.25-.08,2.45,0,3.64a1.74,1.74,0,0,0,.83,1.29C195.17,249.94,197.14,250.33,199.33,250.82Zm78.72,8.45,8.8-.59c-.14-1.8-.27-3.38-.4-4.9l-9.7,1C277.18,256.27,277.61,257.76,278.05,259.27Zm-18.67-19.13c-.13.75-.26,1.52-.42,2.41a29.59,29.59,0,0,1,13.4,3.3c-.69-2.06-1.37-4.12-2-6.13Zm-27.46,15.63h-7.57c0,1.65-.07,3.17,0,4.68s.56,1.74,2,1.71c1.07,0,2.13-.09,3.1-.13C230.61,260,231.78,258.17,231.92,255.77Zm7.22-58.26a39.56,39.56,0,0,0-7.92-.09,12.56,12.56,0,0,0,1.16,7c1.49.53,2.32-.17,3.12-1.18.92-1.17,1.93-2.28,3-3.36A2.06,2.06,0,0,0,239.14,197.51Zm-25.3,28c-.91-2.12-1.67-4-2.54-5.79a1.44,1.44,0,0,0-1.16-.69,14.69,14.69,0,0,0-4.84,1.35v1a4.06,4.06,0,0,0,3.94,4.09C210.69,225.57,212.14,225.55,213.84,225.55Zm8.72-27.33c.45,2.19.87,4.25,1.29,6.31h5.68c-.33-2.23-.64-4.39-1-6.65Zm28.43,10c-.87,1.86-1.91,3.31-2,5.25,3.12-.5,6.18.18,9.45-.47a20.52,20.52,0,0,0-1.32-2.4,3.86,3.86,0,0,0-1.6-1.47A42.29,42.29,0,0,0,251,208.24Zm-30.65,27.28c.21,1.23.37,2.22.56,3.21.31,1.7.9,2.32,2.57,2.39a9.21,9.21,0,0,0,2.59-.37c1.34-.32,2.66-.74,4-1.11.58-.17,1.16-.32,2-.53Zm28-27.46-7-.68c.53,2.38,1,4.49,1.47,6.58h3.42C246.92,212,247.57,210.16,248.31,208.06Zm14.31,7.62c.75,1,1.26,1.6,1.73,2.26a4.75,4.75,0,0,1,.67,1.12c.58,1.51,1.11,3,1.73,4.73l3.67-.66c-1-2.67-1.85-5.08-2.7-7.45ZM254.12,198c1.38,3.1,1.89,6.27,3.91,9,1.53-2.9,1.39-5.93,2.23-8.72C258.29,197.53,256.42,197.73,254.12,198Zm-29,8.94c1,2.56,1.93,4.91,2.93,7.45,1.47-2.56,3.41-4.63,4.5-7.45Zm-31.84,20.27a21.7,21.7,0,0,1,9.69-1.72c-.17-1.58-.79-2.24-3.2-3.62l-6.33,2.55Zm12.23-9.62,4.29-1a35.2,35.2,0,0,0-3.59-8.62c-.38.19-.67.28-.68.36C205.48,211.36,205.48,214.35,205.48,217.63Zm62.6,8.38c1.21,3.64,2.38,7.15,3.57,10.7l1.59-.23c-.74-3.67-1.45-7.25-2.2-11Zm-35.74,22.66c-.21-2.51.88-4.75.11-7.17-1.94.59-4,.43-5.69,1.7,1.05.87,2.06,1.61,3,2.47S231.32,247.5,232.34,248.67Zm28.28-41.08,4.56.73c-.87-3-1.67-5.86-2.47-8.68l-.3,0C261.82,202.23,261.24,204.84,260.62,207.59Zm-30.38,18.66-2.56-5.93-3.44,5.93ZM190,271.83c-1.22-1.43-2.44-2.84-3.74-4.35L182.53,271C185.18,271.48,187.42,272.82,190,271.83Zm70.2-48.28h3.95c-1.15-2.44-1.64-5.08-3.95-6.82Zm6.62-10.24c-.35-1.15-.41-2.06-1.44-2.4a15.53,15.53,0,0,0-4.71-.85c-.33,2.58.2,3.23,2.55,3.24ZM195.78,229l7.08,2.07V228A12.18,12.18,0,0,0,195.78,229Zm97.36-37.73v-.5l-6.07-.75c.74,1.2,1.21,2.07,1.78,2.87s1.1,1,2,.32S292.39,191.88,293.14,191.23ZM215,227.91c-.84-.13-1.63-.3-2.44-.35a1.24,1.24,0,0,0-1,.41,1,1,0,0,0,.17,1,41.42,41.42,0,0,0,3.38,2.4,1,1,0,0,0,1-.19,1.4,1.4,0,0,0,.05-1.17A22.55,22.55,0,0,0,215,227.91Zm-17.44-8c-1.44-1-2.2-2.35-3.85-3v4.9Zm-7.33-26.22,3-3.36-.17-.31-5.48,1c.32.38.49.63.7.84C188.87,192.46,189.46,193,190.2,193.72Zm61.85,12.12a21.83,21.83,0,0,0,2,1c.51.2,1.14.06,1.15-.55a9.84,9.84,0,0,0-.42-2.5c-.23-.8-.92-.88-1.78-.91Zm-.91,48.73c-.21,2.07-.18,2.2,1.07,4.22l1.73-4.73Zm40.93,11.16c-.72.65-1.43,1.21-2,1.88a1.11,1.11,0,0,0,0,1,1.08,1.08,0,0,0,.93.41c1-.39,2.24-.56,2.5-2Zm-74.75-37.05c.73,1.28.68,2.68,2,3.61l1.37-3.61ZM250,240.08l-.07.3,6.64,1.21c.13-.61.21-1,.31-1.51Zm-16,18c-.53,1.43-1,2.61-1.44,3.84h3.36Zm9.66-41.63,1,4.58h.37l.76-4.59ZM237,258.9a3.84,3.84,0,0,0,.54-3.25l-1.88.09C236.16,256.94,236.57,257.92,237,258.9Zm32-47.35c-.09.75.07,1.21.75,1.36a2.53,2.53,0,0,0,2.76-1ZM273,239a5.28,5.28,0,0,0,1.26,4.06C273.85,241.52,274,240.07,273,239Zm-28.19-3.4-.27,0c-.21.79-.42,1.59-.68,2.54l1.53-.08C245.19,237.08,245,236.32,244.83,235.56Zm-5.72-32.67-1.73,1.74,1.73-.11Zm-96,59.51.08-.23h-2.42c-.05,0-.09.09-.21.23Z" transform="translate(-31.87 -180.89)"/></svg>