<?xml version="1.0" encoding="utf-8"?>
<!-- Generator: Adobe Illustrator 24.0.1, SVG Export Plug-In . SVG Version: 6.00 Build 0)  -->
<svg version="1.1" id="Layer_1" xmlns="http://www.w3.org/2000/svg" xmlns:xlink="http://www.w3.org/1999/xlink" x="0px" y="0px"
	 viewBox="0 0 800 800" style="enable-background:new 0 0 800 800;" xml:space="preserve">
<style type="text/css">
	.st0{fill:#EDEDED;}
</style>
<g>
	<path class="st0" d="M284.3,730.9c-4.6,0-9.3-0.6-13.8,0.1c-7.6,1.2-10.3-4.4-14-8.7c-6.4-7.5-8.9-16.8-12.2-25.9
		c-3.7-10.3-7.9-20.4-12.1-30.5c-4.3-10.3-8.9-20.6-13.2-30.9c-7.7-18.7-15.5-37.3-22.7-56.2c-3.9-10.2-6.9-20.7-9.4-31.3
		c-1.7-7.2-5.5-12.5-10.2-17.9c-3.9-4.5-6.8-10.2-8.9-15.9c-4.6-12.5-8.3-25.3-12.5-38c-2.1-6.3-2.5-12.3-0.4-18.7
		c1.6-5-0.4-10-2.2-14.7c-4.8-12.7-10.4-25.1-14.4-38.1c-4.8-15.6-8.1-31.6-12.2-47.4c-3.1-12-6.3-23.9-9.8-35.8
		c-5.3-17.7-10.6-35.5-16.5-53c-4.2-12.8-9.1-25.4-14-37.9c-2.3-5.8-5.4-11.3-8.2-16.9c-3.3-6.5-4.2-13.5-4.7-20.6
		c-0.6-9.3,0.4-18.3,3-27.2c2.8-9.7,6.4-19.2,13.3-26.4c6.6-6.9,14.5-12.6,24.8-14c10.5-1.4,20.8-4,31.2-5.5c6.6-1,13.4-1,20.2-1.4
		c0.6,0,1.4,0,1.8,0.3c6.2,4.7,12.9,1.7,19.1,0.8c14.2-2.2,28.2-4.9,42.3-7.7c8-1.6,15.9-4.1,23.9-5.7c14.3-2.8,28.6-5.8,43-7.8
		c22-3,44.1-5.1,66.1-7.5c7.2-0.8,14.4-0.9,21.6-1.6c5.3-0.5,10.5-1.6,15.7-2.1c9.3-0.8,18.6-1.2,27.8-2.1
		c9.3-0.9,18.7-1.8,27.9-3.4c12.7-2.2,25.2-5.3,37.8-7.8c4.6-0.9,9.3-1.5,14-1.7c6.4-0.3,12.7-0.4,18.9-2.4
		c4.9-1.6,9.8-0.8,14.4,1.5c3.1,1.5,5.4,3.7,5.9,7.6c0.4,3.3,1.9,6.4,2.7,9.7c3.5,14.2,6.9,28.4,10.2,42.7
		c1.5,6.5,2.1,13.2,3.9,19.5c2.3,7.7,5.6,15.1,8.4,22.6c3.5,9.6,6.6,19.4,10.2,28.9c4.6,12,9.7,23.8,14.3,35.9
		c3.8,9.9,6.9,20,10.6,29.9c3.6,9.5,7.6,18.9,11.2,28.4c2.5,6.6,4.6,13.4,6.8,20.2c0.5,1.7,1.1,2.4,3.1,2.6c7,0.7,9.3,6.3,11.5,11.8
		c5.3,13.3,6.7,27.5,9.4,41.4c1.4,7.1,3,14.1,4.6,21.1c0.7,3.2,1.2,6-2,8.4c-0.9,0.7-1.3,3.2-0.8,4.5c5.1,15.8,10.5,31.5,15.6,47.3
		c6.9,21.5,13.3,43.2,20.7,64.5c4.8,13.9,11.2,27.3,16.7,41c4.2,10.6,8.2,21.3,12,32.1c1.1,3.1,1.4,6.6,1.4,9.9c0,3.3-2,5.6-5.4,6.2
		c-2.7,0.5-5.4,1-8.1,1.6c-3.2,0.7-3.6,2.1-1.9,4.8c7.7,12.1,15.6,24,22.9,36.4c2.1,3.7,3.2,8.4,3.3,12.7c0.1,4.1-3.2,7.4-6.6,9.4
		c-10.3,6-22.3,6.3-33.6,9.2c-12.6,3.2-25.3,5.9-38,8.4c-10.2,2-20.5,3.2-30.7,4.8c-8.2,1.3-16.4,2.8-24.6,3.8
		c-17.6,2.3-35.2,4.3-52.7,6.4c-16.7,2-33.4,4.5-50.2,6c-8.6,0.8-17.4-0.4-26.1-0.3c-16.7,0.3-33.4,0.5-50,1.5
		c-15.5,0.9-31,2.8-46.5,4.3c-0.6,0.1-1.4,0.1-1.7,0.4c-4.6,6.3-12.1,5-18.3,6.5c-9.6,2.2-19.4,3.4-29.2,4.6
		c-11.4,1.5-22.9,2.6-34.4,3.9C284.3,731.3,284.3,731.1,284.3,730.9z M611.3,322c-1.9-8-3.1-15.5-5.4-22.6
		c-4.7-14.5-9.8-28.8-14.9-43.2c-3.2-8.9-6.5-17.8-10.1-26.7c-6.6-16.4-13.7-32.6-19.9-49.1c-4.7-12.2-7.8-25-9.6-38
		c-1.3-9.4-2.2-18.9-4.4-28.1c-2.5-10.5-6.2-20.7-9.3-31.1c-1-3.3-3.1-3.8-6.1-3.5c-4.3,0.5-8.7,0.6-13,1.1
		c-10,1.1-20.1,2.2-30.1,3.7c-13.4,2-26.8,4.5-40.2,6.6c-9.7,1.5-19.4,2.5-29.1,3.6c-8.1,0.9-16.2,1.8-24.4,2.4
		c-6.4,0.5-12.8,0.3-19.2,0.8c-13.6,1-27.1,2.2-40.7,3.5c-10.9,1.1-21.8,2.3-32.6,3.8c-8.9,1.3-17.8,3-26.7,4.8
		c-6.7,1.4-13.3,3.5-20,4.9c-15,3.1-29.9,6-45,8.8c-7.8,1.5-15.7,2.4-23.6,3.7c-1.1,0.2-2.7,0.3-3.3,1c-2.5,2.9-4.3,6.5-3.2,10.3
		c2,7.4,4.5,14.7,6.9,22c1.6,4.8,3.7,9.4,5.3,14.2c3.4,10.3,6.6,20.6,10,30.9c2.9,8.5,6.1,16.9,9,25.5c3.5,10.3,6.6,20.8,10.4,31
		c6.2,17,13,33.8,19.1,50.8c3.6,9.9,7.1,19.7,12,29c2.4,4.7,4.8,9.4,6.7,14.4c3.4,8.8,6.4,17.7,9.6,26.6c22-3.5,43.9-7.1,66.7-10.7
		c-1.2-1.9-1.9-4.1-3.4-5.5c-8.5-7.6-17.3-15-25.8-22.6c-3.7-3.3-7.2-3.9-11.7-1.6c-3.4,1.7-7.2,2.1-10.5-0.7
		c-2.4-2-2.4-3.8,0.5-4.8c3.9-1.4,8-2.4,12.1-3.4c2.8-0.6,5.8-1.5,8.4-1c8.6,1.7,13.8,8.6,20.2,13.8c2.8,2.3,5.1,5.1,7.6,7.7
		c4.3,4.5,8.9,8.9,12.8,13.7c1.6,1.9,3.1,2.5,5.2,2.2c8.3-1.4,16.6-2.9,24.9-4.4c10.4-1.9,20.8-3.8,31.1-5.8
		c0.9-0.2,2.1-0.8,2.4-1.6c2.9-7.3,5.8-14.5,8.2-21.9c1.9-5.9,2.8-12.2,4.6-18.2c1.1-3.8,2.4-8,6.9-9.4c4.4-1.3,8.8-2.4,13.2-3.4
		c3.5-0.8,5.9,1.3,5.9,4.8c0.1,4.6-2.8,8-7.8,8.1c-5.6,0.2-8.6,2.5-10.4,9c-2,7.2-4.3,14.3-6.5,21.4c-0.8,2.6-1.4,5.2-2.2,7.8
		c5.5-1,10.6-1.8,15.7-2.9c17.8-3.8,35.6-7.9,53.5-11.6c3.4-0.7,3.9-2,3.4-5.1c-1.1-5.8-2-11.7-2.7-17.6c-0.5-3.7,1.7-6.4,5.4-7.2
		c2.1-0.5,4.2-0.9,6.4-1.2c12.7-1.9,25.4-3.7,38.1-5.6c6.1,8.4,6.9,18.4,9.3,27.9c1.4-0.4,2.6-0.9,3.9-1.1
		c10.6-1.7,21.3-3.2,31.9-5.1C594.9,325.8,602.8,323.8,611.3,322z M299.6,471.8c0.3,1.1,0.3,1.7,0.5,2.3c3.7,10.5,7.7,21,11.2,31.6
		c3.4,10.4,6.4,20.9,9.6,31.3c3.5,11.2,7,22.5,10.6,33.7c4.5,13.7,9,27.4,13.6,41.1c3.3,9.9,7,19.7,10.2,29.6
		c1.2,3.7,3.3,3.8,6.3,3.3c7.2-1.4,14.4-2.7,21.7-3.9c12.4-2.1,24.8-4.4,37.2-6c15.2-2,30.4-3.6,45.6-5.2
		c21.1-2.2,42.2-4.3,63.4-6.4c9.1-0.9,18.1-1.5,27.2-2.3c3.6-0.3,7.1-1,10.7-1.5c7.7-1.1,15.5-2.1,23.2-3.2c5.4-0.8,10.7-1.9,16-2.7
		c4.3-0.6,8.6-0.8,12.8-1.7c4.7-1,9.2-2.8,13.9-3.8c22.5-5.2,45.3-7.7,68.3-9.6c2.8-0.2,4-1.9,3.1-4.5c-4-11.4-7.6-23-12.2-34.2
		c-5.8-14.2-12.9-27.9-18.6-42.2c-4.9-12.1-9.1-24.6-12.8-37.1c-4.1-14.3-7.3-28.8-10.9-43.2c-0.2-0.9-0.5-1.8-0.9-2.7
		c-2.3-5.9-4.7-11.8-6.9-17.7c-1-2.6-1.4-5.4-2.5-7.8c-0.5-1.1-2.2-2.3-3.3-2.2c-4.2,0.2-8.4,0.7-12.5,1.5
		c-16.2,3.3-32.4,6.8-48.6,10.3c-5.2,1.1-5.4,1.7-4.2,6.8c0.2,0.9,0.5,1.9,0.8,2.8c2.1,7.4,4.1,14.8,6.4,22.2c1.4,4.7-2,6.4-5.4,7.2
		c-4.2,0.9-8.5,1.4-12.7,2.2c-8.2,1.5-16.5,2.9-24.7,4.7c-6.6,1.5-9.8-0.3-11.1-7.2c-1.2-6.4-2.9-12.7-4.2-19
		c-0.5-2.3-1.1-3.2-3.8-2.6c-4.6,1-9.4,1.3-14.1,2.1c-9.1,1.5-18.3,2.2-27.5,0.7c-1-0.2-2.2,0-3.2,0.2c-4.9,1.2-9.7,2.5-14.5,3.9
		c-2.1,0.6-4.1,1.5-6.8,2.6c6.9,6.4,13,12.2,19.2,17.8c7.5,6.8,15,13.5,22.6,20.1c0.7,0.6,1.6,1.1,2.4,1.2c4,0.2,8.1-0.1,12.1,0.3
		c1.6,0.2,3.9,1.5,4.4,2.8c0.8,2.3-1,4.2-3.2,4.9c-3.5,1.1-7.2,2-10.8,2.4c-7.9,0.9-15.9,0-23.6,2.5c-1.4,0.5-4.4-0.8-5.2-2.2
		c-0.6-1.1,0.5-3.8,1.7-5.1c1.2-1.3,3.2-1.9,5-2.5c2.5-0.8,3.2-2.5,1.6-4.6c-0.5-0.7-1.2-1.2-1.8-1.8c-8-7.4-15.9-14.7-23.9-22.2
		c-3.4-3.2-6.5-6.8-10.1-9.9c-2.9-2.6-6.2-4-10.5-2.5c-3.8,1.3-8,1.6-12,2.4c-10.3,1.9-20.5,3.8-30.8,5.8c-3.3,0.6-5.1,2.6-6.4,5.8
		c-4.1,10.1-8.9,20-13,30.2c-3.8,9.4-7.2,19-10.5,28.6c-1.2,3.6-2.9,5.5-6.3,5.2c-3.8-0.4-3.4-3.3-3.6-5.9c0-0.6,0.1-1.2,0.1-1.8
		c0.3-7.1,3.2-13.5,6-19.9c5.6-12.8,11.1-25.6,16.6-38.4c0.1-0.1-0.2-0.4-0.3-0.6C346.5,460.9,322.5,463.1,299.6,471.8z
		 M260.1,385.1c-1.6-3.8-3.2-7.3-4.6-10.9c-4.1-10.5-8.1-21-12.1-31.6c-4.8-12.8-9.5-25.6-14.2-38.5c-4.2-11.5-8.2-23-12.5-34.5
		c-4.2-11.2-8.8-22.3-12.7-33.7c-3-8.6-5-17.6-7.9-26.2c-4.7-14.3-9.7-28.4-14.8-42.6c-4.2-11.5-8.6-23-13-34.4
		c-0.5-1.2-1.7-2.7-2.8-2.8c-4.7-0.5-9.6-1.4-14.2-0.7c-12.5,1.9-24.9,4.3-37.3,6.8c-7.1,1.4-13.4,4.9-18,10.4
		c-6.2,7.4-9.8,16.2-12.5,25.5c-3.2,11.2-2.5,21.9,2,32.5c4.4,10.1,9.2,20.1,13.4,30.3c4,9.6,7.9,19.3,11.2,29.2
		c5.4,16.4,10.4,33,15.4,49.6c2.5,8.4,5.2,16.8,7.2,25.3c2.6,10.8,3.8,21.9,6.9,32.4c5.2,17.8,11.3,35.3,17.2,52.8
		c1.7,5,3.4,10.1,9.1,12.3c4-6,8.5-11.6,11.7-17.8c6-11.6,15.9-19.1,26.6-25.3c6.3-3.6,14.4-4.3,21.8-5.7c6.3-1.1,12.8-1.2,19.3-1.7
		c0-1,0.2-1.6,0.1-2.1c-0.8-3-1.7-6-2.3-9.1c-0.2-1.1,0.4-2.3,0.7-3.5c1.4,0.4,3.3,0.5,3.9,1.4c1.3,1.8,2.1,4,2.6,6.2
		C252.1,386.6,251.4,386,260.1,385.1z M279.3,474.8c-5.8,0-11.5-0.3-17.2,0.1c-9.9,0.6-19.7,1.5-29.5,2.4c-1.6,0.1-3.3,0.9-4.6,1.9
		c-7.4,5.9-13.7,12.8-18.8,20.8c-4.5,7.1-9.3,14-13.6,21.2c-2.9,4.9-3.7,10.3-1.8,16c4.4,13.2,9,26.4,12.8,39.8
		c3.7,13,8.7,25.5,15,37.5c1.4,2.8,3.1,5.4,4.2,8.3c2.2,5.3,3.8,10.9,6.1,16.2c6.9,16.4,14,32.7,20.9,49.1c2.9,6.8,5.1,13.9,8,20.7
		c1.9,4.4,4.4,8.7,9.2,10.6c9.5,3.5,19.3,6,29.6,3.8c2.8-0.6,5.7-0.9,8.6-1.3c15.9-2.2,31.8-4.4,47.8-6.6c2.5-0.3,3.4-1.7,3.3-3.9
		c-0.1-1.7-0.3-3.4-0.7-5c-0.6-2.8-2-4-5.2-3c-3.3,1-6.8,1.3-10.2,2c-10.3,2-20.6,3.9-30.8,6.1c-5.3,1.2-10.5,3.4-15.9,4.3
		c-4.6,0.7-9.4,0.2-14,0.1c-6.9-0.2-12.3-4.9-11.9-11.9c0.3-7.1,1.2-14.5,3.5-21.2c2.5-7.3,6.8-14,10.7-20.8
		c2.7-4.6,6.5-8.5,11.8-10.1c5.7-1.7,11.6-3.1,17.4-4c6.6-1,13.4-1.4,20.5-2c-1.2-3.1-2.5-6.1-3.7-9.2c-1-2.7-2.1-5.4-2.8-8.1
		c-0.2-1,0.4-2.9,1.1-3.1c1-0.3,2.7,0.1,3.5,0.9c1,0.9,1.7,2.3,2.3,3.6c2,4.4,3.9,8.8,5.9,13.2c1.7,3.8,2.4,4,6.4,2.2
		c-1.8-6.1-3.3-12.3-5.3-18.3c-3.2-9.8-6.8-19.5-10-29.3c-3.8-11.5-7.4-23.1-10.9-34.7c-4.1-13.5-7.9-27-12.2-40.4
		c-3-9.3-6.6-18.3-10-27.4c-2.5-6.7-5.1-13.4-7.9-20c-0.3-0.8-1.8-1.1-2.8-1.6c-0.3,1-1.1,2-0.9,2.9c1,4.8,2.4,9.6,3.3,14.4
		c0.3,1.6-0.2,4.8-0.5,4.8c-2.3,0.2-4.7,0-6.9-0.6c-0.6-0.2-1.5-2.4-1.1-3.2c1.7-3.4,1-6.6-0.3-9.9
		C280.4,479.5,279.9,477,279.3,474.8z M184.5,520.7c0.7-0.7,1.5-1.4,2-2.2c6.8-13.1,14-26,23.5-37.3c5.4-6.5,11.4-12.8,20.3-14.1
		c12.5-1.7,25.1-2.7,37.7-3.8c5.3-0.4,10.8,0.4,16.1-0.3c7.7-1,15.2-2.9,22.8-4.5c3.1-0.7,6-1.9,9.1-2.4c16.6-2.6,33.3-4.9,50-7.6
		c12.6-2.1,25-4.6,37.5-7c5.4-1,10.7-2.2,16.2-3c11.3-1.7,22.8-2.7,34-7.2c-1.5-1.4-2.7-2.8-4.2-3.7c-8-5-12.6-13.3-16.4-21
		c-6.1-12.4-3.7-27,10.8-34.5c3.3-1.7,6.8-2.8,10.2-4.2c7.1-3,14.1-6.6,21.5-9.1c7.1-2.4,14.5-3.8,21.8-5.6c-0.7-1-1.6-1.7-2.3-1.5
		c-10.5,2.1-21.1,3-31.4,6.2c-12,3.7-24.5,5.6-36.9,8.1c-7.9,1.6-15.9,2.7-23.8,4.3c-12,2.4-24,5.1-36,7.7c-2,0.4-4.1,0.5-6.1,0.8
		c-9.1,1.6-18.2,3.3-27.4,4.7c-15.2,2.4-30.4,4.7-45.7,6.9c-10,1.4-19.7,5.8-30.2,3.4c-0.3-0.1-0.7,0.1-1.1,0.1
		c-10.9,1.4-21.7,3.2-32.6,4.1c-13.2,1.1-24.2,6.1-32.4,16.6c-4.6,5.9-8.7,12.1-12.6,18.4c-4.4,7.2-10.6,13.1-13.7,21.3
		c-2.8,7.4-2.6,14.4-0.1,21.7c2.2,6.4,4.2,12.8,6.1,19.3C174,504.2,177,513.2,184.5,520.7z M535.2,456.5c9.5-1.8,19.4-3.8,29.3-5.5
		c2.3-0.4,2.9-1.2,2.4-3.3c-1-4.6-2.1-9.3-3-13.9c-1.2-6-2.2-12.1-3.3-18.1c-1.3-6.8-2.9-13.6-4.1-20.4c-1.9-10.8-3.2-21.6-5.4-32.3
		c-1.5-7.5-4.3-14.7-6.1-22.1c-1.5-6.3-2.6-12.7-3.8-19c-1.1-6-2.4-7.7-7.5-8.2c-1.7-0.2-3.6,0.4-5.3,0.7c-3.7,0.7-7.3,1.4-10.9,2.2
		c-5,1.1-10.1,2.3-15.1,3.6c-2.2,0.6-2.9,1.9-2.1,4.4c2.4,7.3,4.8,14.6,6.7,22c2.9,11.4,5.4,22.8,8.1,34.3
		c1.8,7.7,3.3,15.4,5.1,23.1c2.1,8.9,4.4,17.7,6.9,26.5C529.5,438.9,532.3,447.3,535.2,456.5z M641.2,393.2
		c-0.6-6.1-0.5-11.5-1.7-16.5c-3.4-13.7-7.4-27.3-11.1-41c-0.7-2.7-2.3-3.8-5-3.3c-6.6,1.1-13.5,1.5-19.8,3.5
		c-16.1,5.1-32,10.9-47.6,16.3c2,10.9,3.5,21.6,6.1,31.9c2,8,5.5,15.7,5,24.2c0,0.2,0.3,0.3,0.8,0.9
		C591.9,403.9,616.4,398.6,641.2,393.2z M515.2,424c-2.3-6.3-4.5-12.3-6.6-18.4c-0.7-1.9-1.2-3.9-1.5-5.9
		c-2.2-11.5-4.4-23.1-6.5-34.7c-0.4-2.4-1.4-3.4-3.9-2.4c-1.9,0.8-3.9,1.3-5.9,1.7c-14.5,2.6-27.9,8-40.9,14.6
		c-10.7,5.4-13.2,16.6-8.7,24.8c2.7,5,6,9.7,9.6,14c2.3,2.7,5.5,5.5,8.8,6.3c12.6,3.3,25.4,6.1,38.6,3.4
		C503.7,426.4,509.2,425.2,515.2,424z M299.5,693.4c1.8-0.4,3.2-0.7,4.5-1c16.4-3.6,32.8-7.6,49.2-10.8c12.1-2.3,24.3-3.8,36.5-5.5
		c7.1-1,14.3-1.9,21.5-2.3c18.2-0.9,36.4-1.4,54.6-2.1c8.6-0.4,17.1-0.7,25.6-1.6c12.2-1.3,24.3-3,36.5-4.7c2.3-0.3,4.6-1.3,6.8-2.1
		c2.4-0.8,4.7-2.1,7.2-2.4c10.1-1.2,20.3-2.4,30.5-3.1c11.7-0.9,22.9-4.1,34.1-7.5c7.1-2.1,14.1-4.9,21.2-6.8
		c6.5-1.7,13.1-2.6,19.8-3.7c7-1.2,14-1.9,21-3.3c4.8-1,9.4-2.8,14.1-4.3c-0.1-0.5-0.2-0.9-0.4-1.4c-13.9,1.6-28,1.3-41.7,5.3
		c-8.7,2.5-17.8,3.8-26.6,5.9c-8.5,2-17,4.1-25.3,6.7c-8.2,2.6-16.6,2.8-25,3.1c-7,0.3-13.9,0.3-20.8,1.1
		c-5.8,0.7-11.5,2.6-17.3,3.5c-11.7,1.7-23.4,3.2-35.1,4.5c-7.5,0.9-15,1.6-22.5,2.1c-10,0.8-20,1.3-30,2c-8.2,0.6-16.3,1.6-24.5,2
		c-5.9,0.3-12.1-0.8-16.1,5.2c-0.2,0.3-0.9,0.3-1.4,0.3c-4.4,0.7-8.9,1.8-13.3,1.9c-8.5,0.4-9.6,2-12.2-5.9
		c-23.8,1.1-46,10.3-68.5,14.1C301.1,686.9,300.4,689.9,299.5,693.4z M690.8,611.9c-2.6,0.5-4.1,0.8-5.6,1
		c-10.4,1.4-20.8,2.8-31.1,4.3c-10.3,1.6-20.6,3.6-31,4.9c-8.7,1.1-17.5,1.6-26.3,2.4c-40.7,4-81.4,7.8-122,12.3
		c-28.2,3.2-56.3,7.5-84.5,11.2c-18.6,2.4-37.1,5.2-55.8,6.8c-12.7,1.1-25.1,2.7-37.3,6c-1.8,0.5-3.4,1.1-2.5,3.4
		c1,2.3,2.3,4.5,3.6,6.9c3-0.9,6-1.8,8.9-2.7c8.6-2.6,17-6.2,25.7-7.4c20.8-2.9,41.8-4.4,62.7-6.7c16.8-1.9,33.6-4.1,50.4-6.1
		c13.2-1.6,26.3-3.7,39.5-4.6c23.3-1.6,46.4-5,69.5-8.5c13.6-2.1,27.3-3.7,41.1-4.6c9.8-0.6,19.7,0.7,29.5,0.5
		c8.1-0.2,16.1-2.3,22.8-6.9c6.6-4.5,13.2-5.6,20.8-3.5c5.2,1.4,10.6,1.7,16,2.4c0.9,0.1,2.4-0.5,2.6-1.1
		C688.8,618.8,689.6,615.7,690.8,611.9z M298.7,706.5c1.4,0,2.6,0.1,3.8,0c10.3-1.5,20.5-3.1,30.8-4.6c31.2-4.6,61.7-13,93.5-13.5
		c10.7-0.2,21.3-1.4,32.1-0.8c9.6,0.6,19.2,1,28.8,0.6c8.9-0.4,17.7-1.6,26.5-3.1c9.2-1.6,18.3-4,27.4-5.8
		c5.5-1.1,11.3-1.3,16.8-2.7c6.6-1.6,13.1-4,19.6-6.1c6.9-2.2,13.8-4.9,20.8-6.7c7.9-2,16-3,24-5c9.5-2.3,18.9-5.4,28.5-7.8
		c6.5-1.6,13.2-2.5,19.7-4c6.6-1.4,13.1-3.1,20-4.7c-3.4-2.9-5-3-9-2c-5.7,1.4-11.4,2.7-17.2,3.7c-6.9,1.2-13.8,1.8-20.6,3.2
		c-5.3,1-10.4,2.7-15.6,4.1c-5.5,1.5-11.2,2.6-16.5,4.6c-10.5,3.9-21.3,6.3-32.4,7.9c-8.6,1.2-17.2,2-25.8,3.4
		c-4.9,0.8-9.6,2.8-14.5,3.7c-6,1.2-12.2,1.7-18.3,2.7c-1.1,0.2-2.7,1.1-3,1.9c-1.6,6-5.7,8.2-11.4,8.4c-2.5,0.1-5,0.7-7.5,0.7
		c-1.9,0-4-0.1-5.6-0.9c-7.3-3.8-14.9-5-23-4.7c-13.4,0.5-26.8,1-40.2,1.4c-7.5,0.2-15-0.3-22.5,0.4c-9.2,0.8-18.4,2.5-27.5,3.9
		c-14.5,2.3-29,4.6-43.4,7.1c-10.4,1.8-20.8,4.2-31.2,5.9C298.4,699,298.4,698.6,298.7,706.5z M697.5,624.2
		c-3.9,7.9-0.6,12.9,5,17.3c4.2,3.4,8.8,6.5,10.7,11.9c1,2.7-0.1,5.9-2.4,6.6c-8,2.5-16,5.1-24.2,7.2c-8.1,2-16.4,3.5-24.7,5
		c-13.3,2.4-26.5,4.9-39.9,6.6c-12.9,1.7-25.9,2.4-38.9,3.8c-5.6,0.6-11.1,2-16.7,2.8c-12.6,1.7-25.3,3.3-38,4.9
		c-16.2,2.1-32.4,4.8-48.7,5.9c-12.9,0.9-26-0.6-39-0.5c-13.2,0.1-26.3,0.6-39.5,1.4c-11,0.6-21.9,1.8-32.8,2.8
		c-1.5,0.1-3.7-0.6-3.5,2.2c0.2,4,2.1,6.7,4.8,6.6c4.1-0.3,8.2-0.6,12.3-1c29.6-2.5,59.2-6.3,89-5.1c20.7,0.8,41-2.7,61.4-5.2
		c19.8-2.5,39.5-5,59.3-7.6c12.4-1.6,24.8-3.1,37.2-5.2c11.9-2,23.6-4.7,35.4-7.3c9.5-2.1,18.9-4.7,28.5-6.4
		c7.5-1.4,14.8-3.1,21.7-6.5c1-0.5,2.3-1.3,2.5-2.2c0.9-4.1,0.4-7.8-2.3-11.5c-5-7-9.4-14.5-14-21.8
		C699.8,627.4,698.7,626,697.5,624.2z M603.6,638.4c0-0.4-0.1-0.9-0.1-1.3c-3.8,0-7.6-0.2-11.3,0c-8.1,0.5-16.1,1.4-24.1,1.9
		c-4.7,0.3-9.6-0.1-14.3,0.6c-18.1,2.7-36,6-54.1,8.4c-21,2.7-42,4.7-63.1,7.1c-6.6,0.7-13.2,1.7-19.7,2.6c-2.1,0.3-4.4,1.2-3.7,3.8
		c0.3,0.9,3,1.8,4.4,1.6c3.4-0.4,6.8-1.8,10.2-2.2c11.6-1.2,23.1-1.9,34.7-3.1c16.7-1.7,33.4-3.5,50.1-5.7c10.7-1.4,21.2-4.2,31.8-5
		c18.3-1.5,36.7-1.9,54.5-7.4C600.5,639.2,602,638.9,603.6,638.4z M585.6,674.3c10.4,1.5,20.5,0.5,30.8-1.6
		c20.7-4.3,41.6-7.5,62.4-11.1c9.3-1.6,18.6-3.3,28.1-5c-2-1.6-4.2-2.9-5.8-4.8c-2.3-2.8-4.3-4.1-8.3-2.7c-6.2,2.1-12.8,3-19.3,4.5
		c-22,5.1-44,10.2-66,15.4c-2.3,0.5-4.5,1.5-6.8,2.1C595.7,672.2,590.7,673.2,585.6,674.3z M343.6,665.4
		c-6.5-2.5-41.2,6.4-44.5,11.6C314.1,673.1,328.4,669.3,343.6,665.4z M499.9,680.6c3-0.6,5.4-0.9,7.6-1.7c1-0.4,2.3-1.9,2.1-2.7
		c-0.2-0.9-1.7-2.2-2.7-2.3c-2.4-0.1-4.9,0-7.1,0.8c-1.5,0.5-2.6,2.2-3.9,3.4C497.4,679,498.8,679.9,499.9,680.6z M280.5,704.2
		c0.4,0.1,0.9,0.2,1.3,0.3c2.5-9.1,5-18.1,7.6-27.2C285.3,681.3,280.2,698.1,280.5,704.2z M660.3,628.9c0,0,0,0.1,0,0.1
		c0.7,0,1.6,0.2,2.1-0.1c1.1-0.6,2.1-1.5,3.1-2.3c-0.9-0.9-1.8-2.2-2.8-2.5c-1.6-0.4-3.4-0.2-5,0.2c-0.9,0.2-1.7,1.3-2.5,2
		c0.8,0.8,1.6,1.8,2.6,2.4C658.4,629.2,659.4,628.9,660.3,628.9z M553.9,344.8c4.1-1.4,8.2-2.8,12.3-4.2
		C558.1,339.4,553.6,341.2,553.9,344.8z M376.3,669.9c5.1-0.4,9.1-0.7,13.2-1C386.2,666.5,378.9,667,376.3,669.9z"/>
	<path class="st0" d="M519,260.5c-2,3-3.9,6.2-6,9.2c-1.4,2.1-6.8,3.4-9,2.4c-8.4-3.4-13.8-9.9-17.2-17.9
		c-2.1-4.9-3.4-10.2-4.4-15.4c-0.7-3.7,5.8-9.8,9.6-9.4c1.4,0.2,3.5,1.5,3.8,2.6c0.5,1.6,0.2,4.4-0.9,5.2c-4.4,3.2-3.6,7.1-1.7,10.9
		c1.9,4,4.2,7.8,6.4,11.5c1.6,2.8,4.8,2.6,6.8,1.5c1.8-1,3-3.6,3.6-5.7c0.6-2.4,0-5,0.1-7.6c0.1-3.3,2.3-5.4,5.8-5.7
		c2.9-0.2,5.2,1.7,5.8,4.8c1,4.6,5,8.4,9.4,8.1c1.3-0.1,3.2-1.8,3.5-3.2c1.5-5.8,2.4-11.8,3.8-17.6c1.4-5.6,3-11.1,9-14
		c2.6-1.2,4.5-0.9,6.5,1.1c2,2,1.1,3.9,0.3,6c-0.1,0.2-0.2,0.5-0.4,0.6c-8.1,4.5-7.3,13.2-9.6,20.4c-1.1,3.3-2.2,6.7-3.8,9.7
		c-3.5,6.6-8.7,7.1-15.4,5.2C522.8,262.7,521,261.5,519,260.5z"/>
	<path class="st0" d="M305.3,311.2c-5.4,1.1-8.3-2.2-10.6-5.9c-1.7-2.6-2.8-5.6-4-8.5c-1.3-3.2-2.5-6.5-3.7-9.8
		c-1.4-3.5-2.7-6.9-4.3-10.3c-1.3-2.7-3.3-3.6-6.5-2.9c-5.3,1.1-10.7,1.9-16.1,2.1c-2.3,0.1-4.8-1.3-6.8-2.7
		c-0.8-0.6-1.1-3.4-0.5-4.2c1.1-1.4,3.4-2.9,4.9-2.7c7.6,1.4,14.8-0.4,22.1-1.7c7.9-1.3,15.9-2.4,23.9-3.6c0.8-0.1,1.6-0.3,2.4-0.6
		c2.5-0.9,4.8-0.6,5.7,2.1c1,2.7-0.9,4.9-3.1,5.6c-4,1.4-8.3,2.2-12.5,2.9c-3.9,0.7-4.8,1.6-3.3,5.1c2.7,6.4,5.8,12.6,8.5,19
		c1.2,2.9,3.3,2.5,5.6,2.2c4.1-0.6,8.3-1.7,12.4-1.4c2.1,0.2,4.8,2.5,5.6,4.6c0.5,1.2-1.9,4.4-3.6,5.3c-5.1,2.5-10.5,4.3-15.9,6.3
		C305.4,312,305.3,311.6,305.3,311.2z"/>
	<path class="st0" d="M301.2,229.8c-1.4,2.6-2.5,4.9-3.6,7.1c-2.9,5.4-8.9,8.4-15.1,7.7c-4.5-0.5-10.2-6.4-11.6-11.3
		c-3.8-12.5,2.7-22,10.6-28.2c5-4,14.7-3,18.3,2.4c2.1,3.1,3.6,6.7,5.4,10.1c2.7,5.2,4.5,11.1,8.2,15.5c2.2,2.6,7.1,2.9,10.9,4
		c1.3,0.4,2.9,0,4.3,0.2c2.3,0.4,4,2.1,3.3,4.3c-0.4,1.4-2.4,3.4-3.7,3.4c-5.1,0.1-10.4,0.2-15.3-1c-2.7-0.6-5.1-3.5-7-5.9
		C303.9,235.8,302.8,232.8,301.2,229.8z M295.6,220c0-1.4-0.1-2.3,0-3.3c0.3-2.8-1.2-4.3-3.6-5.2c-2.4-0.9-4.3-1.2-6.5,1
		c-4.6,4.8-6.5,10.4-6.4,17c0.1,4.5,0.5,5.7,5.2,7.2c3.2,1,5.6-0.2,7.3-3.1C294.2,229.3,295.9,224.7,295.6,220z"/>
	<path class="st0" d="M419.5,278.5c-6.4,4.8-12.7,7.4-20.4,5.3c-0.5-0.1-1.6,0.1-1.7,0.4c-0.4,0.9-0.7,2.1-0.5,2.9
		c2.1,6.9,4.4,13.7,6.5,20.6c1.7,5.5-0.2,8.6-5.3,8.8c-2.3,0.1-3.9-0.9-3.7-3.3c0.7-8.6-3.2-16.1-5.3-24c-2.6-9.7-4.3-19.7-6.4-29.5
		c-0.4-2.1-1-4.2-1.2-6.4c-0.1-1.2,0.6-2.4,1-3.6c1.5,0.6,3.9,0.8,4.4,1.9c1.2,2.5,1.5,5.5,2.3,8.2c1.1,3.9,1.9,7.9,3.6,11.6
		c2.3,4.8,7.3,6.6,12.4,5.2c1.4-0.4,2.8-0.9,4.2-0.9c4.6-0.2,5.7-3.3,5.8-7c0.1-3.6,0.1-7.3-0.6-10.8c-0.3-1.4-2.6-2.4-3.9-3.7
		c-1.9-2-3.8-4.1-5.3-6.4c-0.4-0.7,0.4-2.8,1.2-3.4c1-0.7,2.9-1.1,4-0.5c2.7,1.4,6,2.8,7.6,5.1c2,2.9,2.8,6.8,3.6,10.3
		c1.2,5.1,1.6,10.4,3.2,15.4c0.6,1.9,3.2,3.2,5,4.8c0.9,0.8,1.8,1.6,2.8,2.3c-1.1,1.2-1.9,2.9-3.2,3.6c-1,0.5-2.9,0.3-3.8-0.4
		C423.6,282.9,421.6,280.6,419.5,278.5z"/>
	<path class="st0" d="M413,212.4c-2.8,2.6-5.6,6-9.1,8.4c-4.6,3.1-15.2,0-16.9-6.2c-0.9-3.3-2.8-6.4-3.4-9.7
		c-1.3-6.6,2.5-13.8,8.5-16.9c2.6-1.4,5.5-2.6,8.4-3.2c8.1-1.5,15.2,4.2,15.8,12.4c0.5,6.6,2.7,12.7,7,17.5c2.1,2.3,6,3.2,9.2,4.1
		c3,0.8,6.3,0.5,9.3,1.1c1.2,0.3,2.9,1.8,3.1,2.9c0.2,1.1-1.2,2.6-2.1,3.7c-0.5,0.6-1.4,1.2-2.1,1.2c-5.5,0.1-11,0.4-16.4-0.2
		c-1.8-0.2-4-2.2-5.1-4C416.7,219.9,414.8,215.8,413,212.4z M408.3,203.1c-0.3-1.8-0.3-3.5-0.7-4.9c-1-3-2.7-5.8-6.2-5.6
		c-2,0.1-4.9,1-5.8,2.5c-3.8,6.6-5.3,9.7,0.6,17.2c1.9,2.4,4.3,2.4,6.3,0.9C405.9,210.7,407.6,206.9,408.3,203.1z"/>
	<path class="st0" d="M350.4,281c-1.4-0.3-2.8-0.7-4.1-1c-4.2-1-8.6-1.7-12.7-3.2c-4.3-1.7-6.3-5.7-6.7-10c-0.4-4.5,3.1-7.2,6.1-9.6
		c4.3-3.4,15.7-2.3,19.5,1.6c0.8,0.8,1.4,3,0.9,3.8c-0.7,1.1-2.5,2.2-3.8,2.2c-3.5-0.1-7-1.1-10.5-1.2c-1.3,0-3.8,1.4-3.8,2.2
		c0,1.4,1.1,3.8,2.3,4.2c3.2,1.2,6.8,2.3,10.1,2.2c5.1-0.2,8.5,1.9,11.4,5.5c1.7,2.1,1.6,4.8-0.4,6.6c-2.2,1.9-5,3.1-7.5,4.7
		c-1.1,0.7-2.1,1.7-3.1,2.5c1,0.7,2,1.5,3.1,2c6.4,2.8,13,1.2,19.2,0c3-0.6,5.9-2.4,9-1.3c1.6,0.5,3.4,1.7,4.1,3.1
		c0.5,0.9-0.5,2.9-1.4,4c-0.8,1-2.4,2.2-3.6,2.2c-8.8,0.1-17.6,0.3-26.4-0.4c-3.3-0.3-6.7-2.5-9.6-4.6c-4.2-3.1-3.5-8.3,1-10.9
		c2.1-1.2,4.2-2.2,6.3-3.3C350.1,282.1,350.1,281.6,350.4,281z"/>
	<path class="st0" d="M356.8,224c4.2-2.7,2.7-6.7,3.3-9.9c1.4-6.9,2-13.9,3.1-20.8c0.2-1.2,1.6-2.9,2.8-3.1
		c4.2-0.9,8.5-1.3,12.8-1.7c1-0.1,2.7,0.7,2.9,1.4c0.2,1.1-0.2,2.9-1,3.5c-2.5,2-5.5,3.4-8,5.4c-1.3,1-2.6,2.5-2.9,4
		c-1.7,8.9-2.8,17.9-4.7,26.8c-0.5,2.3-2.3,5-4.2,6c-2.5,1.3-4.5-1-6.2-3.1c-5.8-7.5-12.1-14.7-17.6-22.5c-3-4.3-6.8-5.8-11.6-6.5
		c-2.5-0.4-6.4,0.2-6.1-3.9c0.3-3.5,3.9-2.9,6.3-3.2c5.9-0.8,10.7,1,14.3,6.1C345.5,209.7,351.1,216.6,356.8,224z"/>
	<path class="st0" d="M432.8,254.4c-2.3,0.6-4.6,0.7-5.5-2.3c-0.6-2.1,2.1-6.1,4.8-7.5c2.5-1.3,3.7,0.1,4.9,2
		c5.1,7.4,10.2,14.8,15.5,22.1c0.7,1,1.9,1.9,2.9,2c0.6,0.1,1.8-1.5,2-2.4c0.7-3.1,1.5-6.3,1.5-9.4c0.1-5.1-0.3-10.1-0.5-15.2
		c0-0.2-0.1-0.5-0.1-0.7c0.8-3.6,11.7-9.3,15.2-7.8c0.5,0.2,1.1,1,1.2,1.6c0.6,2.3-2.7,8.2-5,8.4c-4.3,0.4-5,3-4.8,6.4
		c0.4,7.1,0.4,14.2-2.3,21c-1.5,3.9-3.9,5.1-8,4.7c-6.1-0.7-9.5-5-12.8-9.1C438.6,264,436,259.2,432.8,254.4z"/>
	<path class="st0" d="M284,183c0.6,0.7,2,1.9,2.7,3.4c0.9,2.2,1.4,4.6,1.7,6.9c0.1,1.2-0.8,3.7-1,3.7c-1.9-0.2-4.5,0.9-5.4-2
		c-0.8-2.7-1.4-5.6-2.1-8.3C279.1,184.2,280.3,183.1,284,183z"/>
	<path class="st0" d="M346.5,242.2c0,0.6,0,1.2,0.1,1.8c0.2,2.2-0.5,3.9-2.9,4c-2.6,0.2-2.3-1.8-2.4-3.5c-0.1-1.2-0.6-2.3-0.6-3.5
		c0-1.5-0.3-3.7,0.5-4.2c1-0.7,3.2-0.6,4.4,0.1c0.8,0.5,0.7,2.5,1,3.8C346.7,241.2,346.5,241.7,346.5,242.2z"/>
	<path class="st0" d="M147,267.4c-6.1-15-12.4-29.9-18.1-45c-2.8-7.5-4.7-15.4-6.9-23.2c-2.9-10.4-5.8-20.7-8.5-31.1
		c-0.5-1.8-0.7-3.8-0.8-5.7c0-0.8,0.6-1.7,0.9-2.5c0.8,0.4,1.9,0.6,2.4,1.2c2,3,4.4,5.9,5.6,9.2c2.5,7,4.1,14.3,6.5,21.3
		c5.5,16.5,10.2,33.3,18.3,48.9c2.6,5,3.4,11,4.8,16.6c0.2,0.7-0.1,1.7-0.4,2.4C149.6,262.1,148.3,264.5,147,267.4z"/>
	<path class="st0" d="M172.4,168.7c3.2,0,4.1,1.5,4.2,4.9c0.1,2.5,1.1,5.1,2,7.6c1.5,4.2,3.4,8.2,4.7,12.5c0.5,1.5,0.3,4.2-0.6,4.9
		c-1.3,0.9-3.7,0.8-5.4,0.5c-0.9-0.2-2.3-2.1-2.1-2.8c1.6-4.4-1.2-7.9-2.1-11.7c-0.9-3.5-2.6-6.7-3.8-10.1
		C168.1,171,169.4,168.7,172.4,168.7z"/>
	<path class="st0" d="M212.9,281.5c-0.7,1.4-1.2,3.3-2.4,4.7c-0.4,0.5-2.6-0.1-3.5-0.8c-0.8-0.6-1.7-2.3-1.4-2.9
		c1.3-2.5,0.1-4.4-0.9-6.4c-2.9-6.2-6-12.3-8.7-18.5c-0.6-1.4-0.6-3.4,0-4.7c0.4-0.8,2.7-1.5,3.7-1.1c1.2,0.6,2.2,2.1,2.8,3.5
		c0.9,2.1,1.2,4.4,2.1,6.5c2.4,5.6,4.9,11.1,7.3,16.6C212.2,279.3,212.5,280.2,212.9,281.5z"/>
	<path class="st0" d="M228.8,323.6c-1,1.2-1.8,3.1-3.1,3.4c-2.6,0.7-3.4-1.6-4.1-3.6c-1.8-5.5-3.4-11-5.4-16.3
		c-0.5-1.3-2.2-2.1-3.3-3.2c-0.8-0.8-2.4-1.8-2.2-2.3c0.4-1.7,1.2-3.4,2.4-4.6c0.6-0.6,2.5-0.3,3.5,0.2c1.2,0.6,2.3,1.8,2.9,3
		c2.9,6.6,5.6,13.2,8.3,19.9c0.3,0.9,0.3,1.9,0.4,2.8C228.4,323.2,228.6,323.4,228.8,323.6z"/>
	<path class="st0" d="M238.1,363.4c-3.2,0.1-4-1-3.2-4.1c0.2-0.6,0.6-1.3,0.4-1.7c-2.2-4.6-4.5-9.1-6.8-13.6c-0.7-1.3-1.8-2.7-1.7-4
		c0-0.8,1.7-2.3,2.7-2.3c1.6,0,3.8,0.5,4.7,1.6c1.6,2,2.4,4.7,3.5,7c1.7,3.6,3.6,7.1,5,10.7C244.5,361.8,243.3,363.2,238.1,363.4z"
		/>
	<path class="st0" d="M197.4,237.1c-0.9,1-1.9,2.6-3.3,3.3c-0.9,0.4-3.1-0.1-3.7-1c-0.8-1.1-0.7-2.9-0.9-4.4c-0.1-1.4,0.3-3-0.2-4.3
		c-1.7-5.5-3.8-10.9-5.3-16.5c-0.3-1.2,1.3-2.9,2-4.4c1.4,1,4,1.8,4.2,2.9c1.2,7.8,3.4,15.2,6.7,22.2
		C197,235.4,197.1,235.9,197.4,237.1z"/>
	<path class="st0" d="M165.8,159.3c-4.7-2-4.1-2.2-3.9-7.6c0.1-3.3-1.8-6.8-3-10.1c-0.5-1.3-1.4-2.5-1.9-3.9c-0.8-2.3-0.7-4.4,2-5.3
		c2.7-1,4.3,0.9,5,2.9c2.1,6,4,12,5.8,18.1C170.8,156.8,168,158,165.8,159.3z"/>
	<path class="st0" d="M302.9,532.3c0.5,2.6-1.1,3.3-3.2,3.8c-2.4,0.6-2.9-0.9-3.5-2.6c-2.5-7.6-5-15.2-7.5-22.8
		c-0.7-2-0.8-3.7,1.4-4.5c2.1-0.8,3.3,0.3,4.1,2.3c2.7,7,5.6,13.9,8.3,20.9C302.8,530.3,302.8,531.3,302.9,532.3z"/>
	<path class="st0" d="M320.2,585.4c1.9,5.5,3.7,10.8,5.5,16.1c1.1,3.3,2.1,6.7,3.3,9.9c0.8,2.2,0.7,3.6-1.7,4.6
		c-2.4,1-4.7,1-6.4-1.2c-0.6-0.9-1.1-2.5-0.6-3.4c2.2-4.7-0.4-8.6-1.9-12.6c-1.1-3-2.3-6-3.1-9.1
		C314.6,586.5,317.1,586.1,320.2,585.4z"/>
	<path class="st0" d="M316.8,572.1c-1.4,1.4-2.3,2.9-3.6,3.4c-0.5,0.2-2.4-1.3-2.8-2.3c-2.9-7.2-5.7-14.5-8.4-21.8
		c-0.5-1.3-0.7-2.9-0.4-4.2c0.6-2,4.2-2.7,4.9-0.9C310.1,554.7,313.3,563.2,316.8,572.1z"/>
	<path class="st0" d="M200.3,483c-2.2-6.6,0.1-11.3,4.1-15.6c1.8-1.9,3-4.3,4.5-6.4c3.2-4.2,7.6-5.8,12.7-5.6c0.2,0,0.5-0.1,0.7-0.2
		c3.9-2.3,5.7,0.1,7.5,3.6C216.5,462.3,207.2,470.9,200.3,483z"/>
	<path class="st0" d="M519.6,335.3c-5,0.1-8.7-2.7-8.8-6.6c-0.2-5.2,4.6-10,9.8-10c4.2,0,8.3,3.4,8.4,6.8
		C529.1,330.4,526.2,335.6,519.6,335.3z M523.8,325.9c-1.8-0.9-3.1-2.1-3.8-1.8c-1.2,0.4-3,1.8-3,2.7c0,1.2,1.6,2.4,2.5,3.6
		C520.7,329.1,521.9,327.8,523.8,325.9z"/>
	<path class="st0" d="M547.4,450.2c-4.7,0-8.4-3.9-8.3-8.8c0.1-4.3,4.7-8.1,9.8-8c4.6,0.1,7.9,3.9,8.2,9.5
		C557.2,445.6,551,450.2,547.4,450.2z M547.2,445.6c1.6-1.5,2.6-2.5,3.6-3.4c-0.9-0.7-1.6-1.9-2.6-2.1c-1.8-0.5-3.6,0.1-3.3,2.4
		C544.9,443.4,546,444.1,547.2,445.6z"/>
</g>
</svg>
