<?xml version="1.0" encoding="utf-8"?>
<!-- Generator: Adobe Illustrator 24.0.1, SVG Export Plug-In . SVG Version: 6.00 Build 0)  -->
<svg version="1.1" id="Layer_1" xmlns="http://www.w3.org/2000/svg" xmlns:xlink="http://www.w3.org/1999/xlink" x="0px" y="0px"
	 viewBox="0 0 800 800" style="enable-background:new 0 0 800 800;" xml:space="preserve">
<style type="text/css">
	.st0{fill:#EDEDED;}
</style>
<g>
	<path class="st0" d="M402,446.5c-6,3-11.8,5.9-18,9c1.4,2.3,2.9,4.3,3.9,6.7c3.3,7.4,6,15.1,9.6,22.4c3.6,7.4,3.2,13.7-2.5,19.7
		c-0.5,0.5-0.3,2.2,0.2,2.8c6.7,8.3,13.6,16.4,20.3,24.7c6.2,7.6,5.5,16.1,2.7,24.6c-0.9,2.6-1.8,6.4-3.7,7.1
		c-5.2,2-10.8,2.9-16.3,3.9c-6.4,1.1-12.9,1.6-19.3,2.8c-6.2,1.1-12.3,2.4-18.4,4c-6.6,1.7-13,4.2-19.7,5.6
		c-6.2,1.3-12.6,1.8-18.8,2.6c-7.3,1-14.6,2.2-22,2.9c-6.8,0.6-13.7,0.7-20.5,1c-0.7,0-1.6-0.3-2.1-0.8c-4.1-4-9.2-3.4-14.3-3.8
		c-10.4-0.9-20.9-1.7-31-4.3c-10.8-2.8-21-7.7-31.7-11.3c-9.2-3-18.7-5.3-28-8.1c-11.4-3.4-22.6-9-25.8-22.6c-0.4-1.8,0.3-4,0.5-6
		c-4.7-2.4-6.9,1.3-9.7,4.4c-3.8,4.4-7.8,8.8-12.2,12.8c-8.1,7.4-16.2,14.9-25,21.4c-5.3,3.9-11.8,6.9-18.2,8.1
		c-5.8,1.1-12.2-0.5-18.3-1.3c-3.7-0.5-7.2-1.8-10.8-2.9c-6-1.8-8.6-6.4-11.1-11.9c-3-6.6-4.7-13.4-5.3-20.3
		c-0.6-6.8,0-13.7,0.1-20.5c0.1-4.2,0.1-8.4,0.3-12.5c0.1-1.9,0.9-3.7,1.1-5.6c1-8.2,1.4-16.5,3.1-24.6c1.5-7.5,4.2-14.7,6.4-22.1
		c3.4-11.4,6.4-22.9,10.4-34c3.4-9.4,7.6-18.5,12-27.5c4.4-9.1,9.3-18,14.3-26.8c5.8-10.3,11.4-20.8,18.2-30.4
		c4.5-6.4,10.3-12.2,16.4-17.1c5.4-4.3,12.4-2.5,18.7-1.3c10.6,2.1,19.4,7.9,28.5,13.3c11.3,6.6,19.8,16,27.6,26.1
		c4.1,5.3,8.3,11,8.8,18c0.3,4-0.5,8.1-1.4,12.1c-2.1,8.9-4.6,17.7-6.8,26.6c-2.6,10.7-4.9,21.5-7.3,32.2c-0.3,1.2-0.8,2.4-1.5,4.5
		c1.7-0.3,3.1-0.3,4.2-0.8c14.3-6.8,28.5-13.9,42.9-20.4c7.5-3.4,15.3-5.9,23.1-8.3c4.2-1.3,8.6-1.7,13-2.1
		c10.2-1,20.4-1.8,30.8-2.8c-2.2-6-4.8-12.4-7.1-18.9c-2.2-6.2-4.5-12.4-6.2-18.8c-2.3-8.4-3.8-17-6.1-25.5
		c-1.5-5.6-4-10.9-5.6-16.5c-1.7-5.9-3.4-11.9-4.3-18c-1.6-10-4.8-19.4-8.2-28.8c-3.5-9.7-6.3-19.7-9-29.7c-2.7-9.9-4.6-19.6-0.6-30
		c3.6-9.1,10.5-12.8,18.8-14.4c7.4-1.4,15.1-1.4,22.7-1.5c11.8-0.1,22.1,3.4,29.4,13.7c2.4,3.4,6.1,5.9,9.3,8.8
		c7.9,7.3,15.9,14.5,23.8,21.9c1.2,1.1,1.9,2.8,3.1,4.1c3.5,4.1,7.2,8,10.6,12.2c3.7,4.6,7.2,9.4,10.8,14.3c5-3.5,9.5-7.2,14.6-10.1
		c9.1-5.1,18.4-9.8,27.8-14.3c4.3-2,8.8-3.7,13.5-4.7c5.4-1.1,10,0.7,14.3,4.8c4.7,4.6,6.1,10.6,8.9,16c4.3,8.4,8.1,17.2,12,25.8
		c2.5,5.5,4.5,11.3,7.3,16.7c2.7,5.2,6.2,10,9.1,15.2c2.2,4.1,4.4,8.3,5.8,12.7c3.2,9.8,5.6,19.9,8.8,29.7
		c2.3,6.9,5.3,13.5,8.1,20.2c4.8,11.5,7.9,23.2,7.6,35.9c-0.3,13.2,0.2,26.5-3.6,39.3c-2.7,9-6.4,17.7-10,26.4
		c-1.5,3.6-3.7,6.9-5.7,10.4c-3.6,6.2-9.8,8.2-16.1,9.2c-10,1.6-20.1,2.7-30.1,3.4c-4.6,0.3-8.7-1.9-12.2-5.3
		c-10.5-10.3-16.4-23.3-22.3-36.4c-5-11.2-10.2-22.3-15.3-33.4C403,449,402.5,447.8,402,446.5z M380.4,366.7
		c-0.2,0.3-0.5,0.6-0.7,0.8c3.3,7.6,6.8,15.1,9.7,22.9c4.6,12.7,8.5,25.7,13.2,38.3c4.8,13,9.9,25.8,15.2,38.5
		c1.8,4.4,5.1,8.2,7,12.7c2.7,6.5,5.3,12.8,9.8,18.5c3.7,4.6,6,10.3,9.5,15.1c1.6,2.2,4.3,4.9,6.6,5.1c7.5,0.5,15.1,0.4,22.5-0.6
		c5.8-0.8,11.9-2.4,17-5.1c7.2-3.8,10-11.7,12.6-18.8c2.6-7.3,3.2-15.3,5.5-22.7c3.4-10.7,2.9-21.6,3.1-32.4c0-1.4-0.4-2.7-0.5-4.1
		c-0.4-5.9,0-11.9-1.2-17.6c-1-4.8-3.5-9.3-5.5-13.9c-3.6-8.6-7.7-17-10.1-26.1c-1.7-6.6-3.6-13.2-5.7-19.6
		c-2.1-6.4-4.4-12.7-7.1-18.8c-1.7-3.9-4.8-7.1-6.5-11c-3.9-8.7-7.1-17.6-11.1-26.2c-4.6-9.9-9.7-19.6-14.8-29.3
		c-3.1-5.8-7.4-7.4-13.8-5.7c-0.4,0.1-0.9-0.7-1.1-0.8c-0.9,0.7-1.6,1.6-2.5,2c-1.3,0.6-2.9,0.7-4.2,1.4
		c-12.7,6.6-26.1,12-37.5,20.8c-5.2,4-10.9,7.9-14.5,13.1c-3.8,5.5-6,12.5-7.9,19.1c-1.2,4.1-2,9.4-0.5,13.1
		c3.6,9.2,6.4,18.7,16,24.9c12.8,8.2,20.3,21.8,28,34.4c7.6,12.3,12.1,26.1,14,40.6c1.8,13.4,6,25.8,14.5,36.6
		c3.5,4.4,6.7,9,10,13.5c0.5-2.4,0.8-4.7,0-6.5c-3.8-8.1-8-16.1-11.9-24.1c-0.3-0.6-0.1-1.5-0.1-2.3c0.8,0.1,2-0.1,2.5,0.4
		c1.8,1.8,3.4,3.9,5.2,5.7c5.6,5.5,8.2,12.7,11,19.7c1.5,4,1.4,7.9-0.6,11.8c-1.8,3.7-5.3,5.2-7.9,2.3c-6.6-7.4-13-15.1-18.7-23.2
		c-3.4-4.9-6.2-10.6-7.7-16.4c-2.8-10.6-4.1-21.7-6.7-32.4c-1.3-5.4-3.7-10.6-6-15.7c-2.4-5.3-4.7-10.7-8-15.4
		c-4.4-6.3-9.5-12.1-14.5-17.9C384.3,369.5,382.2,368.2,380.4,366.7z M391.7,418.8c-1.4-5.3-2.5-11.2-4.6-16.6
		c-3.2-8.5-7-16.9-10.6-25.3c-3.5-8.2-7-16.5-10.7-24.6c-4.4-9.5-7.5-19.6-5.5-29.8c1.6-8-2.7-11.7-7.5-15.6c-1.5-1.2-4.4-0.7-6.6-1
		c-0.3,2.4-1.1,4.9-0.6,7c0.6,2.4,2.6,4.4,3.7,6.7c1,2,1.6,4.2,2.4,6.3c-2,0-2.8-0.5-3.6-0.9c-7-2.8-12-13.1-8.7-20.6
		c2.4-5.3,11.1-7.7,15.4-3.9c2.8,2.6,5.8,5,8.2,7.1c3.9-4.8,7.6-9.4,11.7-14.5c-2.7-3.1-5.7-6.8-8.9-10.4
		c-7.9-9-15.6-18.3-23.9-26.9c-9-9.3-18.7-18.1-28.2-27c-2.8-2.6-5.8-6.7-9.1-7c-9.4-0.9-18.9-0.4-28.3-0.1
		c-2.9,0.1-5.9,0.8-8.7,1.8c-6.2,2.1-8.5,7.2-10.3,13.2c-2.2,7.6,3,14.1,8.3,17c6.9,3.7,13.5,7.8,17,15.4c1.8,3.9,4,7.5,5.9,11.3
		c3.1,6.1,5.8,12.5,9.4,18.3c3.8,6.2,7.6,13,13.2,17.4c5.9,4.6,14,6.2,20.8,9.9c4.4,2.4,9,5.3,11.8,9.3c4.8,6.7,8.4,14.2,12.3,21.6
		c2.6,4.8,5,9.8,4.8,15.9c-1.9-0.7-3.9-1.4-4.6-2.8c-2.9-5.6-5.1-11.6-8.1-17.2c-4.4-8.4-9.3-16.3-19.1-19.6
		c-4.5-1.5-9.1-3.2-13.3-5.4c-7.4-4-13.9-9.2-18.2-16.7c-4-6.9-8.3-13.7-11.6-21c-5.8-12.7-10.6-26.1-25.7-30.7
		c0.8,2.6,1.5,5.7,2.7,8.7c2.9,7.4,5.3,15.2,9.4,21.9c3.6,5.9,9.1,10.6,11.5,17.6c2,5.6,5.4,10.7,8.1,16
		c-10.2-1.7-11.8-11-16.3-17.8c0.4,3.5,0.9,6.9,1.8,10.2c2.7,10.2,5.6,20.4,8.3,30.6c4,14.8,7.4,29.8,12,44.5
		c2.3,7.2,6.8,13.5,14.8,16c5.4,1.7,10.7,3.7,16,5.7c1.3,0.5,2.3,1.5,3.4,2.3c-0.2,0.5-0.4,1-0.7,1.6c-8.6-2.1-17.2-4.1-25.5-6.1
		c0.7,1.4,1.7,3.6,2.6,5.7c4,0.7,7.9,1.2,11.7,2.2c9.8,2.6,19.7,4.9,29.2,8.2c5.4,1.9,10.3,5.6,15.5,8.2c2.7,1.4,4.4,5.1,8.5,3
		c1.5-0.7,3.7,0,5.5,0.1c-1.2,1.7-2.4,3.3-3.5,5c-0.1,0.2-0.2,0.4-0.2,0.3c2.1,4.7,5.1,6.9,10.2,4.1c3.5-1.9,7.2-3.6,10.9-5.3
		c2.6-1.2,3.6-3,1.7-6c-1.6,0.2-3.5,1-5.2,0.7c-3-0.6-6.7-1.1-8.5-3.1c-1.4-1.5-1.2-5.9,0-8C385.8,422.8,389.1,421,391.7,418.8z
		 M395.3,559.2c0.1,0.3,0.1,0.6,0.2,0.9c1.6,0,3.4,0.3,4.9-0.1c3.3-0.8,7.8-0.9,9.5-3.1c4.4-5.8,4.7-17.3-0.4-23.2
		c-4.1-4.7-7.8-9.6-11.9-14.2c-4.8-5.3-9.2-11.3-15-15.4c-9.1-6.4-18.3-12.9-29-16.7c-5.9-2.1-11.9-4.7-18.1-5.3
		c-13.4-1.3-26.8-1.7-40.3-2.1c-5.5-0.1-11,0.9-16.5,1.2c-12.6,0.5-24.4,3.6-35,10.7c-4.9,3.3-10.2,4.8-16.1,5.3
		c-5.6,0.5-11.3,1.4-16.6,3.2c-8.2,2.8-16.2,6.1-24,9.8c-9,4.3-18,8.9-26.5,14c-7.5,4.5-8.9,14-3.2,18.7c4,3.2,8.7,6,13.5,7.7
		c6.6,2.3,13.8,3,20.5,5.2c6.8,2.2,13.3,5.6,20,8.2c6.5,2.6,13,5.5,19.8,7.1c9.6,2.3,19.5,3.7,29.2,5.3c1,0.2,2.3-0.6,3.4-1
		c-0.8-0.9-1.3-2.2-2.3-2.8c-2.1-1.1-4.4-1.7-6.5-2.7c-0.9-0.4-1.5-1.2-2.3-1.8c0.9-0.5,1.8-1.3,2.8-1.5c9.2-1.3,16,4,22.6,8.9
		c4,2.9,8.2,3.7,12.5,3.3c10.9-1.1,21.7-2.7,32.5-4.4c9-1.4,17.9-3.1,26.8-5c5.3-1.1,10.4-3.1,15.7-4.4c3.7-0.9,7.7-1.1,11.4-1.9
		C383.3,562,389.3,560.6,395.3,559.2z M125.8,332.3c0.9,7.6,0.5,8.5-5.1,10.3c-2.9,0.9-6.3,0.7-9.1,1.7c-2.9,1-6.2,2.3-8,4.6
		c-3.9,4.9-7.2,10.4-10.3,15.9c-2.3,4-4,8.3-5.7,12.6c-1.1,2.7-1.4,5.9-2.8,8.4c-1.9,3.4-5.2,6.1-6.6,9.6
		c-5.2,12.4-10.1,24.8-14.5,37.5c-3.3,9.2-5.7,18.6-8.5,27.9c-1.2,4-2,8.1-3.2,12.1c-1.2,4.3-2.9,8.5-3.8,12.8
		c-1.2,5.5-1.9,11.1-2.6,16.7c-0.8,6.7-2.1,13.5-1.9,20.3c0.3,8.9,1.6,17.7,3.2,26.5c1.5,8.5,4.9,16.1,15,17.3
		c6,0.7,12.1,0.8,18.1,0.9c0.7,0,1.9-1.3,2.1-2.2c1.5-4.8,2.1-10.1,4.4-14.5c3.2-6,7.9-11.2,11.4-17.1c3.8-6.4,7.1-13.2,8.1-20.8
		c0.8-6.4,1.7-13,3.7-19c1.5-4.6,4.5-8.9,7.6-12.6c5.1-6,10.7-11.7,16.4-17.2c6.2-6,12.9-11.5,19.2-17.4c6-5.6,12.3-11.1,15.3-19.2
		c1.2-3.4,3-6.5,4.8-9.7c0.4-0.8,1.7-1.1,2.6-1.6c0.2,0.9,0.5,1.8,0.6,2.8c0.1,0.5-0.1,1.1-0.1,1.6c-1.2,10-5.3,18.6-12.7,25.5
		c-4.4,4.1-9.1,7.9-13.7,11.9c-4.4,3.8-8.8,7.5-13,11.5c-4.5,4.3-10.4,7.3-12.7,13.7c-0.7,1.9-2,3.6-2.9,5.5
		c-2,4.4-4.4,8.8-5.9,13.5c-1.4,4.7-2.1,9.6-2.7,14.5c-1.3,10.2-6.7,18.7-12,27.1c-4,6.4-8.3,12.5-10.3,20.7
		c16.1-12,32.8-22.3,44.1-38.8c-0.6-0.8-1.3-1.7-2-2.5c-0.7-0.9-1.5-1.7-1.9-2.2c-3.4,3.4-6.6,6.6-9.8,9.9c-0.4-1.7,0.3-2.6,0.4-3.6
		c0.5-6.1,3.2-11.2,7.1-15.8c0.4-0.5,0.7-1.4,0.7-2c-0.4-3.6-0.8-7.2-1.5-10.7c-1.2-6.5,0.6-12.5,4.2-17.6
		c6.1-8.4,15.6-12.4,24.4-17c5.7-3,12.2-4.7,18.2-7.3c1.4-0.6,3.1-1.9,3.4-3.2c2.4-10.1,4.1-20.3,6.6-30.3
		c2.9-11.5,6.6-22.7,9.5-34.2c2.1-8.3,2.5-16.9-2.5-24.5c-2.5-3.8-5.1-8.3-11-8.2c-2.7,0-5.4-1-8.1-1.8c-5.3-1.8-6.6-3.7-6.1-8.9
		c1.3,0.7,2.4,1.2,3.5,1.8c2.5,1.4,5,3,7.6,4.2c0.6,0.3,1.7-0.5,2.6-0.8c-0.4-0.8-0.6-1.9-1.2-2.4c-3.3-2.8-6.5-5.8-10.2-8.2
		c-6.6-4.3-13.6-8-20.3-12.2c-8.4-5.4-17.5-5.7-26.4-2.8c-4.4,1.5-8,5.7-11.6,9.1c-0.6,0.6,0.1,4,1.1,4.7c1.9,1.3,10.1-2.1,11.6-3.9
		C123.3,333.7,124.4,333.2,125.8,332.3z M231.7,445.2c-0.4-0.4-0.7-0.8-1.1-1.2c0.9-0.4,1.8-0.7,2.6-1.3c4.3-3.1,8.5-6.2,12.7-9.4
		c0.7-0.5,0.9-1.7,1.3-2.5c-0.9-0.4-2-1.2-2.8-1c-2.6,0.6-5.4,1.1-7.8,2.3c-11,5.8-21.7,12.2-32.9,17.5c-11,5.2-22.6,9.2-33.9,14.1
		c-8.4,3.6-16.9,7.4-24.8,11.9c-6.1,3.4-11.4,8.1-12.2,16c-0.3,2.9,0.3,4.4,3.6,3.9c4.6-0.6,9.4-0.7,11.1-6.3c0.2-0.6,0.8-1,1.4-1.4
		c7.7-5.1,15.5-10.2,23.2-15.3c0.4,0.3,0.8,0.6,1.2,0.9c-1,1.7-1.6,3.9-3,5c-3.7,2.8-7.9,4.9-11.7,7.6c-2.1,1.5-3.9,3.7-5.6,5.8
		c-0.2,0.3,1.2,2.6,1.5,2.5c5.1-1.4,10.8-2.1,15.2-4.7c6.2-3.7,11.4-9,17.2-13.5c4.6-3.6,9-7.7,14.2-10.3
		c10.5-5.4,21.4-10.1,32.2-14.9c1-0.5,2.5,0,3.8,0.1c-0.5,1.1-0.6,2.7-1.5,3.3c-5.1,3.5-10.2,7.1-15.6,10.1
		c-7.9,4.4-16.8,6.8-23.7,13.1c-4.8,4.4-9.9,8.4-15.1,12.2c-7.7,5.6-16,10.1-25.9,10.2c-5.6,0-11.3,0.3-16.9,0.6
		c-2,0.1-4.2,0.2-4.4,3.2c-0.2,3.4,0.5,5,4.5,4.7c3.8-0.3,8-1.3,11.3,1.7c0,0.5,0,1.1,0.1,1.6c-5,0.4-9.9,0.8-14.9,1.1
		c1.1,4.4,1,4.5,5,6.1c2.8,1.1,5.9,1.6,8.7,2.8c2.6,1.1,4.3,0.1,5.9-1.5c6.7-7,15.1-11,23.9-14.4c5.2-2,10.5-3.8,15.3-6.4
		c9.5-5.2,20.1-6.7,30.4-9.4c6.6-1.7,13.5-3.1,19.4-6.1c7.9-4,16-6.5,24.5-8.2c4.6-1,9.4-1.4,14.1-2.1c0.2-0.4,0.3-0.8,0.5-1.2
		c-2.6-2.1-4.8-4.9-7.7-6c-3-1.1-6.6-0.5-10.8-0.7c1.3-1.2,2.2-2.6,3.4-3.1c7.9-3.1,16.5,0.7,20,8.7c0.3,0.8,1.4,1.6,2.2,1.7
		c3.1,0.4,6.3,0.6,9.4,0.7c8.8,0.3,17.7,0.1,26.5,0.8c6.3,0.5,12.6,1.6,18.6,3.2c10.6,2.8,20.4,7.6,29.4,14.1
		c1.9,1.4,3.1,0.4,3.1-1.7c0-1.8-0.6-3.6-0.8-5.4c-0.1-0.6,0.1-1.3,0.2-2c0.7,0.1,1.7-0.1,2,0.3c1.2,1.8,2.8,3.7,3.2,5.7
		c0.9,4.1,0.2,8.8,5.5,10.6c0.8,0.3,1.2,1.3,2.8,3.1c1.2-4,3.3-7.4,2.7-10.2c-1.2-6.2-3.7-12.2-5.8-18.1c-1.3-3.6-2.4-7.6-4.8-10.5
		c-5.4-6.6-8.4-15-16.4-19.5c-5.1-2.9-9.3-7.8-14.7-9.8c-10-3.8-20.6-6.3-31-9c-3.5-0.9-7.2-1.2-10.8-1.3c-3.7-0.1-7.3,0.4-11,0.6
		c-10.7,0.4-21.7-0.6-31.8,4c-5.9,2.7-12.5,4.9-17,9.2C243.8,442.5,237.9,443.8,231.7,445.2z M396.3,431.7c-1-3.1-1.7-5.3-2.8-8.6
		c-2,3-3.3,5-5,7.5C391.5,431,393.6,431.3,396.3,431.7z"/>
	<path class="st0" d="M553.8,419.1c-1.4-11.3,4.6-19.4,11.4-27.3c10.5-12.2,20.4-25,31.3-36.9c7.5-8.2,16-15.6,24.6-22.7
		c11.8-9.8,23.5-19.8,36.3-28.2c13-8.5,27-15.5,40.9-22.5c7.1-3.6,14.7-6.7,22.4-8.4c10.4-2.3,21.1-3.9,31.6,0.1
		c7.7,2.9,12.3,12.9,11.1,21.1c-1.6,10.5-6.6,19.5-11.3,28.7c-6.3,12.5-12.2,25.2-19.6,37.1c-5,8-11.5,15.3-18.6,21.5
		c-12,10.5-24.9,20-37.5,29.8c-9.6,7.5-19.3,15.1-29.1,22.4c-6.2,4.7-12.3,9.8-19.1,13.6c-4.8,2.7-10.6,4.2-16.1,5.1
		c-8.7,1.4-17.6,2.5-26.4,2.6c-15.4,0.1-28.3-7.1-31-24.6C554.2,426.6,554.1,422.8,553.8,419.1z M596,448.7c1.3-0.2,3.7-0.7,6-0.7
		c13.7-0.5,25.3-6.1,35.6-14.8c4.6-3.8,9.4-7.4,14.1-11c8.5-6.5,16.9-13.1,25.4-19.5c6.5-4.9,13.5-9.4,19.7-14.7
		c8-6.7,16.2-13.4,22.9-21.3c6.3-7.5,10.9-16.4,16-24.9c4-6.6,7.7-13.3,11.2-20.1c3-5.7,5.6-11.5,8.2-17.4c1.4-3.2,2.7-6.5,3.5-9.8
		c0.9-3.9,2.6-8.3-1.2-11.7c-5.1-4.4-11.3-6.5-18-6.1c-5.4,0.3-10.8,1.1-16.1,2c-4.7,0.7-9.8,1.2-11.1,7.3c-0.7,3-1.4,6-2.6,8.8
		c-0.9,2.3-2,4.9-3.9,6.2c-4.3,3-9.2,5.1-13.5,8c-7.5,5-14.8,10.2-22.2,15.3c-2.4,1.7-4.8,3.7-7.5,4.6c-4.7,1.4-9.7,2.5-14.7,2.9
		c-11.7,1-22.2,4.3-30.9,12.4c-3.6,3.3-7,6.8-10.4,10.2c-5.3,5.3-10.7,10.6-15.6,16.2c-4,4.5-7.5,9.6-11.4,14.3
		c-5,6.2-10.6,11.9-15.1,18.4c-4.8,6.9-3.7,15.3-3.9,23.2c-0.2,6.9,5.6,10.5,8.8,15.5c2.7,4.2,6.1,6.8,11.4,6.7
		C585.4,448.6,590.2,448.7,596,448.7z M637.6,327.1c1,0.3,2,0.9,2.9,0.8c2.8-0.4,5.5-1.5,8.3-1.6c9.1-0.4,16.3-3.5,23.2-10.1
		c7.3-6.9,16.2-12.8,25.4-16.7c7.6-3.3,7.6-8.8,9.3-16.1C682.2,296.6,659.3,310,637.6,327.1z"/>
	<path class="st0" d="M463.6,332.4c-5.7-0.3-7.1-4.2-8.9-7.4c-0.9-1.6-1.2-3.7-2.1-5.3c-0.6-1-2-2.4-3-2.3c-1.1,0.1-2.8,1.5-2.9,2.5
		c-0.5,4.7-0.7,9.5-0.8,14.3c-0.1,8.4,0,16.7,0,25.1c0,5.8,0.3,11.6-0.1,17.3c-0.5,6.5-1.4,13.1-2.6,19.5
		c-1.5,7.7-0.1,15.1,2.1,22.4c2,6.7,3.9,13.6,6.7,20c2,4.4,5.5,8.2,9.3,11.8c-1.4-8.6-2.8-17.3-4.2-25.9c-0.1-0.3,0-0.7-0.1-1
		c-0.4-5-1.3-10-1.2-15c0.2-5.6,0-11.5,3.2-16.5c0.4-0.6,1.7-1.2,2.4-1c0.6,0.1,1.4,1.4,1.4,2.1c-0.1,3.9-0.7,7.8-0.5,11.7
		c0.3,5.8,1.3,11.5,1.9,17.3c0.9,10.1,1.6,20.3,2.7,30.3c0.5,4.6,2,9.1,3.2,13.7c1.7,6.4,3.8,12.6,5.2,19.1c0.7,3,0.3,6.4,0.1,9.5
		c-0.3,3.3,0.4,5.7,3.9,6.8c1.2,0.4,2.3,1.4,4.4,2.7c1-5.4,2-10.6,2.8-15.7c0.9-5.8,1.5-11.7,2.3-17.5c0.5-3.3,1.4-6.5,1.5-9.8
		c0.2-7.4-0.3-14.8,0.2-22.1c0.7-9.2-2.2-17.3-6-25.4c-5.2-10.9-8-22.5-10.6-34.2c-2-9.2-3.6-18.7-9.6-26.5
		c-0.5-0.6-0.4-1.7-0.6-2.6c1,0.1,2.2,0,3.1,0.5c5.6,3.1,8.1,8.5,9.7,14.2c2.5,9.2,4.2,18.6,6.9,27.6c2,6.8,4,14.1,8,19.7
		c5.3,7.5,5.7,15.6,6.1,23.8c0.5,9.8,0,19.6-0.6,29.4c-0.3,4.3-2.4,8.4-3,12.8c-0.7,4.7-0.1,9.6-0.8,14.4
		c-2.2,14.1-10.3,20.2-24.2,21.3c-1.7,0.1-3.3,0.4-5,0.8c-3.9,0.8-6.9-0.6-8-4c-1.1-3.6,1.5-5.3,4.1-6.8c0.8-0.5,1.8-0.6,2.7-1
		c2.1-0.8,5.6-1.4,5.9-2.7c0.9-3.7,1.3-7.9,0.5-11.6c-1.8-8.6-4.1-17.1-7-25.3c-1.2-3.5-4.4-6.3-6.7-9.4c-3.1-4.2-6.8-8.1-9.3-12.7
		c-2.8-5.2-5.3-10.8-6.6-16.5c-1.9-8.7-4.6-17.4-2.9-26.7c1.4-7.6,1.6-15.5,2.1-23.3c0.6-8.8,1.1-17.6,1.3-26.4
		c0.1-4.3-1-8.6-1.1-12.9c-0.3-7.1,0.1-14.3,3-20.9c1.9-4.4,6.2-4.4,9.8-3.6c2.1,0.5,4.3,2.9,5.3,5
		C459.3,321.1,461.2,326.4,463.6,332.4z M479.5,506.3c-7.5-2.5-15.1-1.2-19,3.2C466,512,478.3,510,479.5,506.3z"/>
	<path class="st0" d="M411.7,307.5c0.9,0,1.7,0,2.6,0c10.7,0,13.8,3.8,12.2,14.4c-0.4,3-0.1,6-0.2,9.1c-0.2,8-0.4,15.9-0.8,23.9
		c-0.2,3.5-0.3,7.2-1.3,10.5c-2.2,8-10.4,9.7-16,3.4c-4.6-5.2-8.6-10.8-13.3-15.9c-3.1-3.4-6.6-6.5-10.2-9.3
		c-3.2-2.4-5.3-5.6-5.1-9.2c0.4-6.6,1-13.4,2.8-19.8c1.2-4.3,5.9-5.5,10.3-5.8c6.3-0.5,12.6-1.1,18.9-1.6
		C411.6,307.3,411.7,307.4,411.7,307.5z M421.1,330.3c-0.1,0-0.2,0-0.2,0c0-3.3,0.1-6.6,0-9.8c-0.2-4.3-2.7-7.5-5.4-7.3
		c-7.4,0.8-14.8,1.4-22.1,2.2c-1.2,0.1-2.5,0.8-3.3,1.7c-4.9,5.1-4.8,11.3-3.3,17.5c0.6,2.3,2.3,5,4.3,6.3
		c8.4,5.4,14.6,12.5,19.3,21.2c1,1.8,3.8,3.2,5.9,3.4c0.9,0.1,3-3.2,3.1-5C420.2,350.4,420.6,340.4,421.1,330.3z"/>
	<path class="st0" d="M397.6,295.4c3.8-3.6,7.5-4.7,11.5-5c5.3-0.4,10.6-0.6,15.9-0.6c4.3,0,7-2.2,9-5.8c1.3-2.3,2.8-4.6,4.4-6.7
		c0.2-0.2,2.7,0.9,2.7,1c-1.3,4.7-2.3,9.7-4.5,14c-1,1.8-4.7,3-7.2,3.1c-9.4,0.4-18.8,0.1-28.3,0.1
		C400.3,295.6,399.5,295.6,397.6,295.4z"/>
	<path class="st0" d="M475.3,416c1.1,1.8,2.8,3.5,3.1,5.5c2,10.5,3.7,21,5.2,31.6c0.2,1.3-1.4,2.8-2.1,4.2c-0.7-1.2-1.9-2.2-2.2-3.5
		c-1.6-7.9-3.2-15.7-4.4-23.6c-0.7-4.4-0.7-9-1-13.5C474.4,416.4,474.9,416.2,475.3,416z"/>
	<path class="st0" d="M315.6,347c-4.5-1.9-8.1-3.4-12.4-5.2c2.7,7.7,5,14.6,7.5,21.5c2.8,7.6,5.6,15.2,8.6,22.8
		c2,5.1,6.6,6.5,11.5,8.1c9.2,3.1,19.6,2.9,27.8,9.1c1.9,1.5,3.7,3.2,5.6,4.8c4.7-2.6,5.1-6.2,0.7-9.5c-3.2-2.4-6.5-4.8-10.2-6.4
		c-8.2-3.5-11.8-10.5-15.4-17.8c-2.9-6-6.5-11.8-9.7-17.7c-0.2-0.4-0.3-1-0.8-2.9c2.9,1.6,5.4,2.1,6.6,3.7c3.6,5.1,7.3,10.4,9.9,16
		c3.3,7.2,8.6,11.3,15.7,14.1c8.3,3.2,13,9.7,13.5,18.7c0.3,5.3-3.5,8-7,9.6c-2,1-6.5-0.5-8.4-2.4c-8.5-8.6-19.6-10.7-30.6-12.7
		c-9.7-1.8-14.8-7.5-17.7-16.4c-3.9-11.8-8.4-23.3-12.3-35c-1.2-3.5-1.4-7.3-2.1-11c-0.6-3,1.6-4.1,3.5-3.6c6,1.5,11.2,4.6,15.2,9.5
		C315.1,344.6,315.1,345.2,315.6,347z"/>
	<path class="st0" d="M318.5,266.4c-2-1.5-3.7-2.1-4.3-3.3c-2-3.8-3.4-8-5.6-11.8c-0.9-1.6-2.9-3.1-4.6-3.4c-3.5-0.7-7.2-0.6-11.8-1
		c1.2,1.7,2,2.7,2.6,3.7c5.4,9,10.5,18,16.1,26.9c1.9,3,4.5,5.7,7.3,8c1.1,0.9,3.6,0.7,5.2,0.2c5.6-1.6,11.2-3.4,16.7-5.4
		c6-2.1,11.6-1.4,16.7,2.1c1.7,1.2,3,3.2,4.1,5c0.3,0.5-0.5,2.1-1.2,2.6c-0.6,0.5-2.2,0.7-2.7,0.3c-8.1-7.6-17.2-4.6-25.5,0.1
		c-5,2.8-13.5,2.3-18.4-1c-7-4.7-9.3-12.4-13.5-18.9c-4.7-7.2-8.1-15.2-14.8-21.1c-2.7-2.3-0.9-7.7,2.9-8c6.2-0.5,12.6,0,18.9,0.4
		c4,0.3,6.3,2.9,7.4,6.6c1.5,4.8,3.1,9.7,4.5,14.5C318.6,263.6,318.5,264.4,318.5,266.4z"/>
	<path class="st0" d="M298,226.4c-3,1-6.1,2-9.1,2.9c-6.3,1.9-12.6,3.9-19,5.5c-1.5,0.4-3.4-0.8-5.1-1.2c0.9-1.4,1.5-3.6,2.7-4.1
		c3.5-1.5,7.1-2.7,10.8-3.2c5.6-0.8,11.3-1,17-1.4c0.8-0.1,1.6,0.2,2.4,0.3C297.9,225.6,298,226,298,226.4z"/>
	<path class="st0" d="M245.5,526.7c0.8-4.6,4.5-4.6,7.3-5.1c9.6-1.9,19.3-1.4,29.1-0.3c5.4,0.6,11.1-0.6,16.6-1.2
		c0.7-0.1,1.3-1.4,1.9-2.2c-0.8-0.6-1.6-1.6-2.4-1.7c-8.8-0.7-17.6-1.3-26.5-1.9c-3.8-0.3-7.6-0.6-11.4-0.7
		c-2.4-0.1-4.9-0.2-7.2,0.5c-7.9,2.2-15.7,4.7-23.5,7.1c-6.1,1.8-12.2,4-18.4,5.1c-5.5,1-11.4,0-17,1.1c-5.9,1.1-11.5,3.6-17.2,5.6
		c-0.7,0.3-1.1,1.6-1.6,2.4c1,0.5,2.2,1.5,3.1,1.3c12-3,23.4,0.7,35,2.9c6,1.1,12.9,0,18.9-1.6c12.1-3.1,24-5.7,36.3-2
		c7,2.1,13.6,5.4,20.5,7.8c12.2,4.3,24.6,6.6,37.7,4.2c9.6-1.8,19.4-2.4,29.2-3.5c8.5-1,16,1.7,23.4,5.6c2,1.1,4.7,0.9,7.1,1.3
		c0.1,0.4,0.2,0.9,0.3,1.3c-2.4,0.7-5,2.3-7.3,2c-7-0.8-13.9-2.4-20.8-3.6c-0.9-0.2-2-0.1-2.9,0.1c-6.5,1-12.9,2.3-19.4,3.1
		c-6.9,0.8-13.8,1.6-20.7,1.8c-12,0.4-23.4-2.5-34.1-7.7c-8.1-3.9-16.4-7-25.3-7.6c-4.5-0.3-9.2,0.9-13.8,1.5
		c-8.8,1-17.6,2.7-26.5,2.7c-6.1,0.1-12.1-2.5-18.3-3.1c-7.4-0.7-14.9-0.6-22.4-0.6c-3,0-5.8-0.7-6.8-3.3c-1.2-3.5,0.6-6.6,3.7-8.5
		c9.7-5.9,20.4-8.4,31.7-9.4c7.9-0.7,15.6-3.3,23.3-5.4c5.3-1.4,10.5-3.4,15.7-5c2.8-0.9,5.7-2.1,8.6-2.4
		c12.3-1.3,24.4-0.9,36.6,1.7c6,1.3,12.2,1.4,18.3,2.2c7.5,1,15,2.4,22.6,3.3c9.2,1.1,18.4,2.3,27.8,1.7c9.4-0.5,18.9,0.7,26,8.9
		c2.9,3.3,7.4,5,10.9,7.8c2.4,1.9,4.8,3.1,7.8,3.5c3.3,0.4,5.7,5.6,4.7,9.3c-1.3,4.9-5.3,7.3-10.1,6.1c-2.7-0.7-4.8-2.2-4.1-5
		c1.5-6.5-3.6-8.4-7.3-11.2c-2.9-2.2-6.2-4-8.7-6.6c-4.4-4.5-10-5.2-15.6-5.8c-7.4-0.8-14.9-0.9-22.4-1.4c-4.5-0.3-9-1.1-13.5-1.2
		c-5.9-0.2-11.7-0.4-17.3,2.7c-3.3,1.8-7.6,2.1-11.5,2.4c-9.5,0.7-19.1,1.1-28.6,1.4C260.1,526.8,253.1,526.7,245.5,526.7z
		 M404.8,545.1c-2.3-1.8-3.6-3.5-5-3.7c-1-0.1-3.4,2.4-3.1,3c0.6,1.6,2.1,3.2,3.7,4C400.9,548.8,402.6,546.8,404.8,545.1z"/>
	<path class="st0" d="M260.7,494.4c2.2-0.5,4.4-1.1,6.6-1.5c7.6-1.5,15.1-3.6,22.7-4c6.8-0.4,13.7,1.2,20.5,2
		c6.2,0.7,12.4,1.8,18.6,2.3c10.2,0.9,19.2,4.6,27.9,9.6c0.7,0.4,1,1.7,1.4,2.6c-0.9,0.3-1.8,1.1-2.6,0.9c-4.6-1-9.1-2.4-13.6-3.4
		c-4.3-1-8.6-1.6-13-2.4c-5.5-1-10.9-2.2-16.4-2.9c-10.9-1.4-21.6-3.4-32.7-1.3c-5.7,1.1-11.9,0.3-17.8,0.2c-0.5,0-1.1-0.6-1.6-0.9
		C260.7,495.1,260.7,494.8,260.7,494.4z"/>
	<path class="st0" d="M291.6,536.1c1.9-0.3,3.8-0.8,5.8-0.9c5.9-0.3,11.9-0.6,17.8-0.7c5.3-0.1,10.5,0.1,15.8,0
		c7.2-0.1,14.5,0.4,21.6-0.5c10.4-1.4,20.1-1.4,28.2,6.4c0.6,0.6,0.8,1.6,1.1,2.4c-0.8,0.1-1.7,0.4-2.5,0.2
		c-6.1-1.3-12.1-3.2-18.3-3.7c-5.5-0.4-11.1,1.1-16.6,1.2c-8.2,0.1-16.3-0.7-24.5-0.6c-4,0-8.1,0.8-12.1,1.6
		c-6.2,1.1-11.3-1.4-16.6-3.6C291.5,537.3,291.5,536.7,291.6,536.1z"/>
	<path class="st0" d="M281.4,567c-1.5-0.4-3.4-0.4-4.1-1.3c-3.9-5.4-9.8-6.6-15.6-6.7c-8.2-0.2-16.5,0.3-24.7,1
		c-5.9,0.5-11.3-0.9-16.5-3.3c-0.8-0.4-1.1-2-1.9-3.7c3.8,0.3,6.9,0.6,10,0.6c5.1,0,10.3,0.2,15.4-0.3c10.2-1.1,20.4-2.2,30.3,1.6
		C278.6,556.6,281.9,561.7,281.4,567z"/>
	<path class="st0" d="M129.2,383.1c2.4,14.5-4.3,26.9-9.2,39.7c-4.2,11.2-8.6,22.3-12.8,33.5c-2.9,7.8-5.9,15.5-7.9,23.5
		c-1.3,5-1.4,10.5-1.2,15.8c0.2,7.5-1.3,14.6-4.3,21.3c-1.5,3.4-4.3,6.1-6.3,9.3c-3.4,5.4-6.4,11-9.9,16.3
		c-2.8,4.4-4.4,9.9-10.9,11.1c-4.7,0.9-8-0.3-8.8-5.1c-1.3-8-3-16.1-3-24.1c0-9.5,1.4-19.1,2.8-28.6c1.7-11.6,6.1-22.3,11.3-32.8
		c6.4-12.7,6.5-27.2,10.1-40.7c2-7.4,5.8-14.4,9.1-21.5c2.8-6,6.2-11.8,9-17.8c3.4-7.2,6.5-14.6,9.9-21.8c2.4-5.2,5.8-6.5,12.9-5.2
		c4.2,0.7,7,4.1,7.4,8.9C128.1,371.1,128.6,377.1,129.2,383.1z M122.6,382c-0.4-4.4-0.7-9.5-1.5-14.4c-0.2-1.4-2.3-3.7-3.3-3.6
		c-1.6,0.2-3.6,1.7-4.4,3.2c-2.1,4.2-3.5,8.7-5.6,12.9c-4.8,9.5-9.9,18.8-14.6,28.4c-2.7,5.6-5.3,11.4-7,17.4
		c-1.8,6.3-2.1,13.1-3.5,19.6c-2.5,11.7-6.5,22.9-11.6,33.7c-5.9,12.5-7.3,25.9-7.7,39.4c-0.2,6.9,0.3,13.9,0.7,20.8
		c0.1,1.5,1.3,2.8,2,4.3c1.3-1.1,3.2-1.9,3.8-3.3c3.5-8.5,7.5-16.7,13.1-24.1c6-7.9,8.1-17.2,6.8-26.6c-0.9-6.4,0.7-12.1,2.5-17.7
		c3.6-11.1,8.1-21.9,12.3-32.9c2.9-7.8,5.5-15.7,8.9-23.3C118.3,405.2,122.4,394.5,122.6,382z"/>
	<path class="st0" d="M178.6,377.6c-3.8-2-7.9-3.7-11.5-6c-2.7-1.7-4.2-1.4-6.3,1c-6.7,7.6-7.5,17.3-9.7,26.5
		c-1.9,7.8-2.9,15.9-5.8,23.2c-3.3,8.2-8.3,15.6-12.5,23.4c-1,1.8-3.3,3.4-0.9,5.9c0.4,0.4-0.4,2.7-1.1,3c-4.6,1.8-6.4,6.2-9.4,9.5
		c-1.4,1.5-3,2.7-4.6,4.1c-0.4-0.2-0.8-0.3-1.3-0.5c0.7-2.4,0.9-5,2.1-7.2c3.7-7.1,7.8-14,11.6-21.1c5.2-9.8,10.8-19.4,13.2-30.4
		c2.1-9.5,4.2-19,6.1-28.6c1.6-8.3,7.2-13.2,14-16.6c1.8-0.9,5.4,0.4,7.4,1.8c3.1,2.2,5.7,5.2,8.3,8c0.7,0.8,0.9,2,1.4,3
		C179.3,376.9,179,377.3,178.6,377.6z"/>
	<path class="st0" d="M146.8,434.3c4.9-8.4,9.7-17,14.7-25.3c2.6-4.3,5.7-8.2,8.3-12.4c0.6-1,0.5-2.5,0.5-3.8
		c-0.1-1.4-1-3.8-0.7-3.9c1.6-0.7,3.6-1.4,5.2-1.1c1.2,0.2,2.9,1.9,3,3.1c0.2,2-0.3,4.4-1.3,6.1c-7.1,11.3-14.3,22.4-21.7,33.5
		c-1.5,2.2-3.9,3.8-5.8,5.7C148.3,435.5,147.5,434.9,146.8,434.3z"/>
	<path class="st0" d="M139.8,357.3c0.6-3.1,0.2-5-3.2-6.1c-2.7-0.9-4.1-8.8-3.1-13.2c0.9-3.8,3.4-5.1,7-5.4
		c7.4-0.6,15.6,9,12.8,15.8c-1,2.4-4.3,3.8-6.5,5.7c-0.8,0.7-1.7,1.6-2,2.6c-0.7,2.4-1.1,4.9-1.8,7.3c-0.1,0.5-1.1,0.8-1.7,1.1
		c-0.3-0.5-0.8-1-0.9-1.6C140.2,361.4,140,359.2,139.8,357.3z M144.4,349.6c4.5,0,5.8-1.5,4.2-5.4c-1-2.3-2.4-4.8-4.3-6.3
		c-1.3-1-5.3-0.8-5.6-0.2c-0.9,2.1-1.3,5-0.6,7.1C139,347.6,141.1,350,144.4,349.6z"/>
	<path class="st0" d="M325,435c4.1,1.1,8.9,2.3,13.7,3.8c0.8,0.3,1.3,1.5,2,2.2c-0.9,0.1-1.9,0.4-2.8,0.4c-4.5-0.4-9-1.3-13.5-1.2
		c-2.7,0.1-5.6,1.2-8,2.6c-5.3,3-10.3,6.5-15.4,9.9c-0.7,0.4-1.4,1.8-1.2,2.3c0.4,0.9,1.6,2,2.4,2c5.8-0.1,11.9,0.5,17.5-0.8
		c13.4-2.9,25.1,1.2,36.7,7c4.4,2.2,8.9,4,13.2,6.4c1.3,0.7,2,2.6,2.6,4.1c0.2,0.5-0.4,1.7-0.9,2.1c-0.3,0.3-1.3-0.2-2-0.5
		c-6.7-2.8-13.4-5.6-20.1-8.5c-3.5-1.5-7-3.2-10.6-4.3c-3.1-0.9-6.6-1.8-9.8-1.5c-7.8,0.7-15.6,2-23.4,3.1
		c-6.9,1-13.3-4.1-12.4-10.5c0.4-2.4,2.7-5.1,4.9-6.5c6.4-4.1,13.1-7.8,19.9-11.3C319.7,435.1,322,435.4,325,435z"/>
	<path class="st0" d="M207.1,483.3c2.3-1.5,4.4-3.3,6.8-4.5c6.9-3.2,14.3-5.4,20.7-9.4c6-3.7,10.8-9.2,16.2-13.9
		c5.4-4.7,10.8-9.4,16.5-13.7c5.6-4.2,12-6.6,18.9-7.9c1.8-0.4,3.6-0.6,5.4-0.8c0.4,0,1.3,0.8,1.3,1c-0.3,0.8-0.7,2-1.4,2.3
		c-3.5,1.7-7.3,3-10.8,4.9c-5.5,3.1-11.4,5.9-16.2,10c-7.4,6.2-13.6,13.7-21.1,19.7c-5.9,4.8-12.7,8.5-20.6,9.7
		c-5,0.8-9.8,2.6-14.7,3.9C207.7,484.2,207.4,483.8,207.1,483.3z"/>
	<path class="st0" d="M582.4,409.8c3.8,3.3,6.4,3.4,9.8-0.7c5.8-7,12.8-13.1,18.9-19.9c4.7-5.3,9-11,13.4-16.6
		c9.7-12.3,22.2-20.9,36.4-27.3c6-2.7,11.8-6.1,17.3-9.7c7.1-4.7,14-9.9,20.7-15.1c3.5-2.7,6.6-6.1,9.9-9.1c2.9-2.6,6.3-2.1,8.4,0.6
		c2.8,3.7,5.3,7.8,6.8,12.2c1.6,4.6,1.1,9.2-2.5,13.3c-5.6,6.5-10.4,13.7-16.3,19.9c-8.4,8.8-18.8,14.5-30.1,19.2
		c-11,4.6-21.5,10.4-31.8,16.3c-3.4,1.9-5.7,5.6-8.4,8.6c-4.4,5-8,10.3-14,14c-4.8,2.9-8.1,8.2-12.3,12.3c-5.1,5-10.5,9.5-18.3,9.7
		c-2.5,0.1-4.9,1.6-7.4,2.4c-0.5,0.2-0.9,0.6-1.4,0.7c-4,0.9-8.8-3.4-10.1-9.1c-0.7-2.8,2.3-7.5,5.4-8.4c2.4-0.7,8.5,4.1,9.1,7.6
		c0.4,2.7,1.8,2.9,3.9,2.6c4.8-0.6,8.4-2.3,11.7-6.5c5.9-7.5,12.9-14.1,19.5-21c5.6-5.8,10.9-12.2,17.3-17.2
		c6.2-4.9,13.3-8.8,20.4-12.3c13.5-6.4,27.8-11.3,38.9-21.8c5.3-5,10.2-10.6,14.7-16.4c2.3-2.8,4.1-6.4,4.9-9.9
		c0.6-2.6-0.3-6-1.5-8.6c-1.4-3.1-4.5-2.5-7.6,1.6c-5.7,7.5-13.5,12.6-21.2,17.4c-10.2,6.4-21,12-32.3,16.7
		c-9.7,4.1-18.1,11.1-24.4,20c-6.2,8.7-12.6,17.2-20.6,24.5c-4.1,3.8-7.4,8.6-10.7,13.3c-3.8,5.5-8.8,7.3-14.2,5.3
		c-3.5-1.3-7.5-1.7-8-6.1c-0.6-5,1.2-9.7,4.4-13.4c12.6-14.2,25.4-28.1,38.1-42.2c6-6.6,13.8-10.3,21.7-13.7
		c1.2-0.5,2.8-0.3,4.1-0.4c0.2,0.4,0.5,0.8,0.7,1.1c-4.8,3.5-9.7,6.7-14.2,10.5c-4.7,4-9.2,8.4-13.5,12.9
		c-4.3,4.5-8.1,9.4-12.2,14.1c-4.1,4.6-8.2,9.2-12.4,13.7C589.1,399.6,584.3,403.7,582.4,409.8z M574,430.8c2.2,2.2,3.8,3.8,5.4,5.4
		c0.9-1.2,2.7-3,2.4-3.5c-0.9-1.5-2.5-2.7-4.1-3.6C577.2,428.7,575.9,429.8,574,430.8z"/>
	<path class="st0" d="M675.8,391.9c-3.1,2.2-6.2,4.3-9.2,6.7c-8.9,7.3-17.8,14.7-26.7,22c-6.8,5.6-12.2,13-21.2,15.5
		c-1,0.3-2.1,0.5-3.1,0.6c-1.3,0.1-2.6,0-3.8,0c0.9-1,1.7-2.2,2.7-3.1c5.5-4.7,11-9.2,16.5-13.9c7.5-6.5,14.4-13.6,22.4-19.4
		c5.6-4.1,12.5-6.3,18.9-9.3c0.9-0.4,2-0.2,3-0.3C675.5,391.2,675.7,391.5,675.8,391.9z"/>
	<path class="st0" d="M739.2,311c0.9-1.7,1.9-3.3,2.6-5.1c1-2.8,1.5-5.9,2.8-8.5c1.6-3.3,0.2-5.4-1.8-7.5c-0.9-1-2.1-1.8-2.6-2.9
		c-0.4-0.8-0.3-2.2,0.3-2.8c0.5-0.5,2-0.7,2.8-0.3c5.5,2.7,7.9,8.2,6.4,14.2c-0.6,2.5-0.2,5.5-1.4,7.7c-2.5,4.8-5.7,9.2-8.9,13.6
		c-0.2,0.3-4-1-4.4-2.1c-2-5.5-3.5-11.2-5.2-16.8c-0.2-0.8-1.2-1.5-1.2-2.2c0.1-1.4,0.7-2.8,1.2-4.2c1.1,0.6,2.8,1,3.2,2
		c1.9,4.8,3.5,9.7,5.2,14.5C738.4,310.6,738.8,310.8,739.2,311z"/>
</g>
</svg>
